<?xml version="1.0" encoding="utf-8" standalone="no"?>
<!DOCTYPE svg PUBLIC "-//W3C//DTD SVG 1.1//EN"
  "http://www.w3.org/Graphics/SVG/1.1/DTD/svg11.dtd">
<svg xmlns:xlink="http://www.w3.org/1999/xlink" width="383.328125pt" height="323.432758pt" viewBox="0 0 383.328125 323.432758" xmlns="http://www.w3.org/2000/svg" version="1.1">
 <metadata>
  <rdf:RDF xmlns:dc="http://purl.org/dc/elements/1.1/" xmlns:cc="http://creativecommons.org/ns#" xmlns:rdf="http://www.w3.org/1999/02/22-rdf-syntax-ns#">
   <cc:Work>
    <dc:type rdf:resource="http://purl.org/dc/dcmitype/StillImage"/>
    <dc:date>2025-06-23T01:17:31.576061</dc:date>
    <dc:format>image/svg+xml</dc:format>
    <dc:creator>
     <cc:Agent>
      <dc:title>Matplotlib v3.8.1, https://matplotlib.org/</dc:title>
     </cc:Agent>
    </dc:creator>
   </cc:Work>
  </rdf:RDF>
 </metadata>
 <defs>
  <style type="text/css">*{stroke-linejoin: round; stroke-linecap: butt}</style>
 </defs>
 <g id="figure_1">
  <g id="patch_1">
   <path d="M 0 323.432758 
L 383.328125 323.432758 
L 383.328125 0 
L 0 0 
z
" style="fill: #ffffff"/>
  </g>
  <g id="axes_1">
   <g id="patch_2">
    <path d="M 48.982813 285.876508 
L 327.982813 285.876508 
L 327.982813 8.676508 
L 48.982813 8.676508 
z
" style="fill: #ffffff"/>
   </g>
   <g id="PolyCollection_1">
    <defs>
     <path id="mf49ae12549" d="M 103.947771 -57.977041 
L 102.99092 -57.977041 
L 102.744444 -60.44726 
L 102.479302 -62.917478 
L 102.197808 -65.387697 
L 101.897061 -67.857915 
L 101.568859 -70.328133 
L 101.201933 -72.798352 
L 100.785697 -75.26857 
L 100.313819 -77.738789 
L 99.786072 -80.209007 
L 99.207875 -82.679226 
L 98.588083 -85.149444 
L 97.935977 -87.619663 
L 97.258046 -90.089881 
L 96.554751 -92.5601 
L 95.817754 -95.030318 
L 95.028956 -97.500537 
L 94.162837 -99.970755 
L 93.192387 -102.440973 
L 92.096653 -104.911192 
L 90.866448 -107.38141 
L 89.505322 -109.851629 
L 88.025428 -112.321847 
L 86.440593 -114.792066 
L 84.76018 -117.262284 
L 82.986694 -119.732503 
L 81.118291 -122.202721 
L 79.155415 -124.67294 
L 77.10916 -127.143158 
L 75.00792 -129.613376 
L 72.898949 -132.083595 
L 70.843154 -134.553813 
L 68.904579 -137.024032 
L 67.138977 -139.49425 
L 65.586652 -141.964469 
L 64.272423 -144.434687 
L 63.211381 -146.904906 
L 62.415718 -149.375124 
L 61.897458 -151.845343 
L 61.664631 -154.315561 
L 61.712626 -156.78578 
L 62.015899 -159.255998 
L 62.526109 -161.726216 
L 63.180645 -164.196435 
L 63.920882 -166.666653 
L 64.714183 -169.136872 
L 65.570307 -171.60709 
L 66.543725 -174.077309 
L 67.718529 -176.547527 
L 69.180013 -179.017746 
L 70.982772 -181.487964 
L 73.126698 -183.958183 
L 75.54923 -186.428401 
L 78.136329 -188.89862 
L 80.74836 -191.368838 
L 83.252465 -193.839056 
L 85.551119 -196.309275 
L 87.598055 -198.779493 
L 89.397301 -201.249712 
L 90.98735 -203.71993 
L 92.417963 -206.190149 
L 93.729173 -208.660367 
L 94.939637 -211.130586 
L 96.046144 -213.600804 
L 97.031027 -216.071023 
L 97.872192 -218.541241 
L 98.551886 -221.011459 
L 99.063055 -223.481678 
L 99.413872 -225.951896 
L 99.630507 -228.422115 
L 99.756807 -230.892333 
L 99.84894 -233.362552 
L 99.964615 -235.83277 
L 100.149449 -238.302989 
L 100.425454 -240.773207 
L 100.786612 -243.243426 
L 101.203681 -245.713644 
L 101.636142 -248.183863 
L 102.046033 -250.654081 
L 102.408081 -253.124299 
L 102.712961 -255.594518 
L 102.964135 -258.064736 
L 103.171393 -260.534955 
L 103.344719 -263.005173 
L 103.490841 -265.475392 
L 103.612806 -267.94561 
L 103.711452 -270.415829 
L 103.787272 -272.886047 
L 103.841578 -275.356266 
L 103.876658 -277.826484 
L 103.895235 -280.296702 
L 103.899772 -282.766921 
L 103.892124 -285.237139 
L 103.873746 -287.707358 
L 103.846378 -290.177576 
L 103.812845 -292.647795 
L 103.777517 -295.118013 
L 103.746023 -297.588232 
L 103.724156 -300.05845 
L 103.716323 -302.528669 
L 103.947771 -302.528669 
L 103.947771 -302.528669 
L 103.947771 -300.05845 
L 103.947771 -297.588232 
L 103.947771 -295.118013 
L 103.947771 -292.647795 
L 103.947771 -290.177576 
L 103.947771 -287.707358 
L 103.947771 -285.237139 
L 103.947771 -282.766921 
L 103.947771 -280.296702 
L 103.947771 -277.826484 
L 103.947771 -275.356266 
L 103.947771 -272.886047 
L 103.947771 -270.415829 
L 103.947771 -267.94561 
L 103.947771 -265.475392 
L 103.947771 -263.005173 
L 103.947771 -260.534955 
L 103.947771 -258.064736 
L 103.947771 -255.594518 
L 103.947771 -253.124299 
L 103.947771 -250.654081 
L 103.947771 -248.183863 
L 103.947771 -245.713644 
L 103.947771 -243.243426 
L 103.947771 -240.773207 
L 103.947771 -238.302989 
L 103.947771 -235.83277 
L 103.947771 -233.362552 
L 103.947771 -230.892333 
L 103.947771 -228.422115 
L 103.947771 -225.951896 
L 103.947771 -223.481678 
L 103.947771 -221.011459 
L 103.947771 -218.541241 
L 103.947771 -216.071023 
L 103.947771 -213.600804 
L 103.947771 -211.130586 
L 103.947771 -208.660367 
L 103.947771 -206.190149 
L 103.947771 -203.71993 
L 103.947771 -201.249712 
L 103.947771 -198.779493 
L 103.947771 -196.309275 
L 103.947771 -193.839056 
L 103.947771 -191.368838 
L 103.947771 -188.89862 
L 103.947771 -186.428401 
L 103.947771 -183.958183 
L 103.947771 -181.487964 
L 103.947771 -179.017746 
L 103.947771 -176.547527 
L 103.947771 -174.077309 
L 103.947771 -171.60709 
L 103.947771 -169.136872 
L 103.947771 -166.666653 
L 103.947771 -164.196435 
L 103.947771 -161.726216 
L 103.947771 -159.255998 
L 103.947771 -156.78578 
L 103.947771 -154.315561 
L 103.947771 -151.845343 
L 103.947771 -149.375124 
L 103.947771 -146.904906 
L 103.947771 -144.434687 
L 103.947771 -141.964469 
L 103.947771 -139.49425 
L 103.947771 -137.024032 
L 103.947771 -134.553813 
L 103.947771 -132.083595 
L 103.947771 -129.613376 
L 103.947771 -127.143158 
L 103.947771 -124.67294 
L 103.947771 -122.202721 
L 103.947771 -119.732503 
L 103.947771 -117.262284 
L 103.947771 -114.792066 
L 103.947771 -112.321847 
L 103.947771 -109.851629 
L 103.947771 -107.38141 
L 103.947771 -104.911192 
L 103.947771 -102.440973 
L 103.947771 -99.970755 
L 103.947771 -97.500537 
L 103.947771 -95.030318 
L 103.947771 -92.5601 
L 103.947771 -90.089881 
L 103.947771 -87.619663 
L 103.947771 -85.149444 
L 103.947771 -82.679226 
L 103.947771 -80.209007 
L 103.947771 -77.738789 
L 103.947771 -75.26857 
L 103.947771 -72.798352 
L 103.947771 -70.328133 
L 103.947771 -67.857915 
L 103.947771 -65.387697 
L 103.947771 -62.917478 
L 103.947771 -60.44726 
L 103.947771 -57.977041 
z
" style="stroke: #000000; stroke-opacity: 0.9"/>
    </defs>
    <g clip-path="url(#p5c772bfca4)">
     <use xlink:href="#mf49ae12549" x="0" y="323.432758" style="fill: #1f77b4; fill-opacity: 0.9; stroke: #000000; stroke-opacity: 0.9"/>
    </g>
   </g>
   <g id="PolyCollection_2">
    <defs>
     <path id="m7bff52c630" d="M 273.050475 -61.230515 
L 271.747841 -61.230515 
L 271.664869 -63.404538 
L 271.571826 -65.57856 
L 271.459006 -67.752583 
L 271.314658 -69.926605 
L 271.125478 -72.100628 
L 270.877248 -74.27465 
L 270.555601 -76.448673 
L 270.146833 -78.622695 
L 269.638724 -80.796718 
L 269.021302 -82.97074 
L 268.287512 -85.144763 
L 267.433727 -87.318785 
L 266.460094 -89.492808 
L 265.37067 -91.66683 
L 264.17333 -93.840853 
L 262.879462 -96.014875 
L 261.503425 -98.188898 
L 260.061819 -100.36292 
L 258.572579 -102.536943 
L 257.053954 -104.710965 
L 255.523426 -106.884988 
L 253.996668 -109.05901 
L 252.486605 -111.233033 
L 251.002698 -113.407056 
L 249.550541 -115.581078 
L 248.131846 -117.755101 
L 246.744865 -119.929123 
L 245.385261 -122.103146 
L 244.047358 -124.277168 
L 242.725674 -126.451191 
L 241.416546 -128.625213 
L 240.119659 -130.799236 
L 238.839262 -132.973258 
L 237.584872 -135.147281 
L 236.37136 -137.321303 
L 235.218338 -139.495326 
L 234.148929 -141.669348 
L 233.188026 -143.843371 
L 232.360263 -146.017393 
L 231.687943 -148.191416 
L 231.189166 -150.365438 
L 230.876387 -152.539461 
L 230.75554 -154.713483 
L 230.825808 -156.887506 
L 231.080024 -159.061529 
L 231.505594 -161.235551 
L 232.085792 -163.409574 
L 232.80124 -165.583596 
L 233.631385 -167.757619 
L 234.555801 -169.931641 
L 235.555226 -172.105664 
L 236.612271 -174.279686 
L 237.71181 -176.453709 
L 238.841108 -178.627731 
L 239.98978 -180.801754 
L 241.149642 -182.975776 
L 242.31454 -185.149799 
L 243.480183 -187.323821 
L 244.643981 -189.497844 
L 245.804856 -191.671866 
L 246.962984 -193.845889 
L 248.119438 -196.019911 
L 249.275702 -198.193934 
L 250.433093 -200.367956 
L 251.592138 -202.541979 
L 252.752003 -204.716001 
L 253.910064 -206.890024 
L 255.061718 -209.064047 
L 256.200498 -211.238069 
L 257.318483 -213.412092 
L 258.406985 -215.586114 
L 259.457393 -217.760137 
L 260.462044 -219.934159 
L 261.414991 -222.108182 
L 262.312514 -224.282204 
L 263.153304 -226.456227 
L 263.938282 -228.630249 
L 264.670094 -230.804272 
L 265.352381 -232.978294 
L 265.988955 -235.152317 
L 266.583041 -237.326339 
L 267.136712 -239.500362 
L 267.650622 -241.674384 
L 268.124072 -243.848407 
L 268.555384 -246.022429 
L 268.942506 -248.196452 
L 269.283737 -250.370474 
L 269.578421 -252.544497 
L 269.82752 -254.71852 
L 270.033934 -256.892542 
L 270.20255 -259.066565 
L 270.339998 -261.240587 
L 270.454164 -263.41461 
L 270.553537 -265.588632 
L 270.646477 -267.762655 
L 270.740513 -269.936677 
L 270.841749 -272.1107 
L 270.954448 -274.284722 
L 271.080827 -276.458745 
L 273.050475 -276.458745 
L 273.050475 -276.458745 
L 273.050475 -274.284722 
L 273.050475 -272.1107 
L 273.050475 -269.936677 
L 273.050475 -267.762655 
L 273.050475 -265.588632 
L 273.050475 -263.41461 
L 273.050475 -261.240587 
L 273.050475 -259.066565 
L 273.050475 -256.892542 
L 273.050475 -254.71852 
L 273.050475 -252.544497 
L 273.050475 -250.370474 
L 273.050475 -248.196452 
L 273.050475 -246.022429 
L 273.050475 -243.848407 
L 273.050475 -241.674384 
L 273.050475 -239.500362 
L 273.050475 -237.326339 
L 273.050475 -235.152317 
L 273.050475 -232.978294 
L 273.050475 -230.804272 
L 273.050475 -228.630249 
L 273.050475 -226.456227 
L 273.050475 -224.282204 
L 273.050475 -222.108182 
L 273.050475 -219.934159 
L 273.050475 -217.760137 
L 273.050475 -215.586114 
L 273.050475 -213.412092 
L 273.050475 -211.238069 
L 273.050475 -209.064047 
L 273.050475 -206.890024 
L 273.050475 -204.716001 
L 273.050475 -202.541979 
L 273.050475 -200.367956 
L 273.050475 -198.193934 
L 273.050475 -196.019911 
L 273.050475 -193.845889 
L 273.050475 -191.671866 
L 273.050475 -189.497844 
L 273.050475 -187.323821 
L 273.050475 -185.149799 
L 273.050475 -182.975776 
L 273.050475 -180.801754 
L 273.050475 -178.627731 
L 273.050475 -176.453709 
L 273.050475 -174.279686 
L 273.050475 -172.105664 
L 273.050475 -169.931641 
L 273.050475 -167.757619 
L 273.050475 -165.583596 
L 273.050475 -163.409574 
L 273.050475 -161.235551 
L 273.050475 -159.061529 
L 273.050475 -156.887506 
L 273.050475 -154.713483 
L 273.050475 -152.539461 
L 273.050475 -150.365438 
L 273.050475 -148.191416 
L 273.050475 -146.017393 
L 273.050475 -143.843371 
L 273.050475 -141.669348 
L 273.050475 -139.495326 
L 273.050475 -137.321303 
L 273.050475 -135.147281 
L 273.050475 -132.973258 
L 273.050475 -130.799236 
L 273.050475 -128.625213 
L 273.050475 -126.451191 
L 273.050475 -124.277168 
L 273.050475 -122.103146 
L 273.050475 -119.929123 
L 273.050475 -117.755101 
L 273.050475 -115.581078 
L 273.050475 -113.407056 
L 273.050475 -111.233033 
L 273.050475 -109.05901 
L 273.050475 -106.884988 
L 273.050475 -104.710965 
L 273.050475 -102.536943 
L 273.050475 -100.36292 
L 273.050475 -98.188898 
L 273.050475 -96.014875 
L 273.050475 -93.840853 
L 273.050475 -91.66683 
L 273.050475 -89.492808 
L 273.050475 -87.318785 
L 273.050475 -85.144763 
L 273.050475 -82.97074 
L 273.050475 -80.796718 
L 273.050475 -78.622695 
L 273.050475 -76.448673 
L 273.050475 -74.27465 
L 273.050475 -72.100628 
L 273.050475 -69.926605 
L 273.050475 -67.752583 
L 273.050475 -65.57856 
L 273.050475 -63.404538 
L 273.050475 -61.230515 
z
" style="stroke: #000000; stroke-opacity: 0.9"/>
    </defs>
    <g clip-path="url(#p5c772bfca4)">
     <use xlink:href="#m7bff52c630" x="0" y="323.432758" style="fill: #1f77b4; fill-opacity: 0.9; stroke: #000000; stroke-opacity: 0.9"/>
    </g>
   </g>
   <g id="matplotlib.axis_1">
    <g id="xtick_1">
     <g id="line2d_1">
      <defs>
       <path id="m09ae9bfd1d" d="M 0 0 
L 0 3.5 
" style="stroke: #000000; stroke-width: 0.8"/>
      </defs>
      <g>
       <use xlink:href="#m09ae9bfd1d" x="103.937358" y="285.876508" style="stroke: #000000; stroke-width: 0.8"/>
      </g>
     </g>
     <g id="text_1">
      <!-- ML -->
      <g transform="translate(96.837358 300.474945) scale(0.1 -0.1)">
       <defs>
        <path id="DejaVuSans-4d" d="M 628 4666 
L 1569 4666 
L 2759 1491 
L 3956 4666 
L 4897 4666 
L 4897 0 
L 4281 0 
L 4281 4097 
L 3078 897 
L 2444 897 
L 1241 4097 
L 1241 0 
L 628 0 
L 628 4666 
z
" transform="scale(0.015625)"/>
        <path id="DejaVuSans-4c" d="M 628 4666 
L 1259 4666 
L 1259 531 
L 3531 531 
L 3531 0 
L 628 0 
L 628 4666 
z
" transform="scale(0.015625)"/>
       </defs>
       <use xlink:href="#DejaVuSans-4d"/>
       <use xlink:href="#DejaVuSans-4c" x="86.279297"/>
      </g>
     </g>
    </g>
    <g id="xtick_2">
     <g id="line2d_2">
      <g>
       <use xlink:href="#m09ae9bfd1d" x="273.028267" y="285.876508" style="stroke: #000000; stroke-width: 0.8"/>
      </g>
     </g>
     <g id="text_2">
      <!-- TBmBJ -->
      <g transform="translate(256.768111 300.474945) scale(0.1 -0.1)">
       <defs>
        <path id="DejaVuSans-54" d="M -19 4666 
L 3928 4666 
L 3928 4134 
L 2272 4134 
L 2272 0 
L 1638 0 
L 1638 4134 
L -19 4134 
L -19 4666 
z
" transform="scale(0.015625)"/>
        <path id="DejaVuSans-42" d="M 1259 2228 
L 1259 519 
L 2272 519 
Q 2781 519 3026 730 
Q 3272 941 3272 1375 
Q 3272 1813 3026 2020 
Q 2781 2228 2272 2228 
L 1259 2228 
z
M 1259 4147 
L 1259 2741 
L 2194 2741 
Q 2656 2741 2882 2914 
Q 3109 3088 3109 3444 
Q 3109 3797 2882 3972 
Q 2656 4147 2194 4147 
L 1259 4147 
z
M 628 4666 
L 2241 4666 
Q 2963 4666 3353 4366 
Q 3744 4066 3744 3513 
Q 3744 3084 3544 2831 
Q 3344 2578 2956 2516 
Q 3422 2416 3680 2098 
Q 3938 1781 3938 1306 
Q 3938 681 3513 340 
Q 3088 0 2303 0 
L 628 0 
L 628 4666 
z
" transform="scale(0.015625)"/>
        <path id="DejaVuSans-6d" d="M 3328 2828 
Q 3544 3216 3844 3400 
Q 4144 3584 4550 3584 
Q 5097 3584 5394 3201 
Q 5691 2819 5691 2113 
L 5691 0 
L 5113 0 
L 5113 2094 
Q 5113 2597 4934 2840 
Q 4756 3084 4391 3084 
Q 3944 3084 3684 2787 
Q 3425 2491 3425 1978 
L 3425 0 
L 2847 0 
L 2847 2094 
Q 2847 2600 2669 2842 
Q 2491 3084 2119 3084 
Q 1678 3084 1418 2786 
Q 1159 2488 1159 1978 
L 1159 0 
L 581 0 
L 581 3500 
L 1159 3500 
L 1159 2956 
Q 1356 3278 1631 3431 
Q 1906 3584 2284 3584 
Q 2666 3584 2933 3390 
Q 3200 3197 3328 2828 
z
" transform="scale(0.015625)"/>
        <path id="DejaVuSans-4a" d="M 628 4666 
L 1259 4666 
L 1259 325 
Q 1259 -519 939 -900 
Q 619 -1281 -91 -1281 
L -331 -1281 
L -331 -750 
L -134 -750 
Q 284 -750 456 -515 
Q 628 -281 628 325 
L 628 4666 
z
" transform="scale(0.015625)"/>
       </defs>
       <use xlink:href="#DejaVuSans-54"/>
       <use xlink:href="#DejaVuSans-42" x="61.083984"/>
       <use xlink:href="#DejaVuSans-6d" x="129.6875"/>
       <use xlink:href="#DejaVuSans-42" x="227.099609"/>
       <use xlink:href="#DejaVuSans-4a" x="295.703125"/>
      </g>
     </g>
    </g>
    <g id="text_3">
     <!-- Method -->
     <g transform="translate(169.729688 314.15307) scale(0.1 -0.1)">
      <defs>
       <path id="DejaVuSans-65" d="M 3597 1894 
L 3597 1613 
L 953 1613 
Q 991 1019 1311 708 
Q 1631 397 2203 397 
Q 2534 397 2845 478 
Q 3156 559 3463 722 
L 3463 178 
Q 3153 47 2828 -22 
Q 2503 -91 2169 -91 
Q 1331 -91 842 396 
Q 353 884 353 1716 
Q 353 2575 817 3079 
Q 1281 3584 2069 3584 
Q 2775 3584 3186 3129 
Q 3597 2675 3597 1894 
z
M 3022 2063 
Q 3016 2534 2758 2815 
Q 2500 3097 2075 3097 
Q 1594 3097 1305 2825 
Q 1016 2553 972 2059 
L 3022 2063 
z
" transform="scale(0.015625)"/>
       <path id="DejaVuSans-74" d="M 1172 4494 
L 1172 3500 
L 2356 3500 
L 2356 3053 
L 1172 3053 
L 1172 1153 
Q 1172 725 1289 603 
Q 1406 481 1766 481 
L 2356 481 
L 2356 0 
L 1766 0 
Q 1100 0 847 248 
Q 594 497 594 1153 
L 594 3053 
L 172 3053 
L 172 3500 
L 594 3500 
L 594 4494 
L 1172 4494 
z
" transform="scale(0.015625)"/>
       <path id="DejaVuSans-68" d="M 3513 2113 
L 3513 0 
L 2938 0 
L 2938 2094 
Q 2938 2591 2744 2837 
Q 2550 3084 2163 3084 
Q 1697 3084 1428 2787 
Q 1159 2491 1159 1978 
L 1159 0 
L 581 0 
L 581 4863 
L 1159 4863 
L 1159 2956 
Q 1366 3272 1645 3428 
Q 1925 3584 2291 3584 
Q 2894 3584 3203 3211 
Q 3513 2838 3513 2113 
z
" transform="scale(0.015625)"/>
       <path id="DejaVuSans-6f" d="M 1959 3097 
Q 1497 3097 1228 2736 
Q 959 2375 959 1747 
Q 959 1119 1226 758 
Q 1494 397 1959 397 
Q 2419 397 2687 759 
Q 2956 1122 2956 1747 
Q 2956 2369 2687 2733 
Q 2419 3097 1959 3097 
z
M 1959 3584 
Q 2709 3584 3137 3096 
Q 3566 2609 3566 1747 
Q 3566 888 3137 398 
Q 2709 -91 1959 -91 
Q 1206 -91 779 398 
Q 353 888 353 1747 
Q 353 2609 779 3096 
Q 1206 3584 1959 3584 
z
" transform="scale(0.015625)"/>
       <path id="DejaVuSans-64" d="M 2906 2969 
L 2906 4863 
L 3481 4863 
L 3481 0 
L 2906 0 
L 2906 525 
Q 2725 213 2448 61 
Q 2172 -91 1784 -91 
Q 1150 -91 751 415 
Q 353 922 353 1747 
Q 353 2572 751 3078 
Q 1150 3584 1784 3584 
Q 2172 3584 2448 3432 
Q 2725 3281 2906 2969 
z
M 947 1747 
Q 947 1113 1208 752 
Q 1469 391 1925 391 
Q 2381 391 2643 752 
Q 2906 1113 2906 1747 
Q 2906 2381 2643 2742 
Q 2381 3103 1925 3103 
Q 1469 3103 1208 2742 
Q 947 2381 947 1747 
z
" transform="scale(0.015625)"/>
      </defs>
      <use xlink:href="#DejaVuSans-4d"/>
      <use xlink:href="#DejaVuSans-65" x="86.279297"/>
      <use xlink:href="#DejaVuSans-74" x="147.802734"/>
      <use xlink:href="#DejaVuSans-68" x="187.011719"/>
      <use xlink:href="#DejaVuSans-6f" x="250.390625"/>
      <use xlink:href="#DejaVuSans-64" x="311.572266"/>
     </g>
    </g>
   </g>
   <g id="matplotlib.axis_2">
    <g id="ytick_1">
     <g id="line2d_3">
      <defs>
       <path id="m75655c9ede" d="M 0 0 
L -3.5 0 
" style="stroke: #000000; stroke-width: 0.8"/>
      </defs>
      <g>
       <use xlink:href="#m75655c9ede" x="48.982813" y="283.553797" style="stroke: #000000; stroke-width: 0.8"/>
      </g>
     </g>
     <g id="text_4">
      <!-- −30 -->
      <g transform="translate(20.878125 287.353015) scale(0.1 -0.1)">
       <defs>
        <path id="DejaVuSans-2212" d="M 678 2272 
L 4684 2272 
L 4684 1741 
L 678 1741 
L 678 2272 
z
" transform="scale(0.015625)"/>
        <path id="DejaVuSans-33" d="M 2597 2516 
Q 3050 2419 3304 2112 
Q 3559 1806 3559 1356 
Q 3559 666 3084 287 
Q 2609 -91 1734 -91 
Q 1441 -91 1130 -33 
Q 819 25 488 141 
L 488 750 
Q 750 597 1062 519 
Q 1375 441 1716 441 
Q 2309 441 2620 675 
Q 2931 909 2931 1356 
Q 2931 1769 2642 2001 
Q 2353 2234 1838 2234 
L 1294 2234 
L 1294 2753 
L 1863 2753 
Q 2328 2753 2575 2939 
Q 2822 3125 2822 3475 
Q 2822 3834 2567 4026 
Q 2313 4219 1838 4219 
Q 1578 4219 1281 4162 
Q 984 4106 628 3988 
L 628 4550 
Q 988 4650 1302 4700 
Q 1616 4750 1894 4750 
Q 2613 4750 3031 4423 
Q 3450 4097 3450 3541 
Q 3450 3153 3228 2886 
Q 3006 2619 2597 2516 
z
" transform="scale(0.015625)"/>
        <path id="DejaVuSans-30" d="M 2034 4250 
Q 1547 4250 1301 3770 
Q 1056 3291 1056 2328 
Q 1056 1369 1301 889 
Q 1547 409 2034 409 
Q 2525 409 2770 889 
Q 3016 1369 3016 2328 
Q 3016 3291 2770 3770 
Q 2525 4250 2034 4250 
z
M 2034 4750 
Q 2819 4750 3233 4129 
Q 3647 3509 3647 2328 
Q 3647 1150 3233 529 
Q 2819 -91 2034 -91 
Q 1250 -91 836 529 
Q 422 1150 422 2328 
Q 422 3509 836 4129 
Q 1250 4750 2034 4750 
z
" transform="scale(0.015625)"/>
       </defs>
       <use xlink:href="#DejaVuSans-2212"/>
       <use xlink:href="#DejaVuSans-33" x="83.789062"/>
       <use xlink:href="#DejaVuSans-30" x="147.412109"/>
      </g>
     </g>
    </g>
    <g id="ytick_2">
     <g id="line2d_4">
      <g>
       <use xlink:href="#m75655c9ede" x="48.982813" y="238.128034" style="stroke: #000000; stroke-width: 0.8"/>
      </g>
     </g>
     <g id="text_5">
      <!-- −20 -->
      <g transform="translate(20.878125 241.927252) scale(0.1 -0.1)">
       <defs>
        <path id="DejaVuSans-32" d="M 1228 531 
L 3431 531 
L 3431 0 
L 469 0 
L 469 531 
Q 828 903 1448 1529 
Q 2069 2156 2228 2338 
Q 2531 2678 2651 2914 
Q 2772 3150 2772 3378 
Q 2772 3750 2511 3984 
Q 2250 4219 1831 4219 
Q 1534 4219 1204 4116 
Q 875 4013 500 3803 
L 500 4441 
Q 881 4594 1212 4672 
Q 1544 4750 1819 4750 
Q 2544 4750 2975 4387 
Q 3406 4025 3406 3419 
Q 3406 3131 3298 2873 
Q 3191 2616 2906 2266 
Q 2828 2175 2409 1742 
Q 1991 1309 1228 531 
z
" transform="scale(0.015625)"/>
       </defs>
       <use xlink:href="#DejaVuSans-2212"/>
       <use xlink:href="#DejaVuSans-32" x="83.789062"/>
       <use xlink:href="#DejaVuSans-30" x="147.412109"/>
      </g>
     </g>
    </g>
    <g id="ytick_3">
     <g id="line2d_5">
      <g>
       <use xlink:href="#m75655c9ede" x="48.982813" y="192.702271" style="stroke: #000000; stroke-width: 0.8"/>
      </g>
     </g>
     <g id="text_6">
      <!-- −10 -->
      <g transform="translate(20.878125 196.501489) scale(0.1 -0.1)">
       <defs>
        <path id="DejaVuSans-31" d="M 794 531 
L 1825 531 
L 1825 4091 
L 703 3866 
L 703 4441 
L 1819 4666 
L 2450 4666 
L 2450 531 
L 3481 531 
L 3481 0 
L 794 0 
L 794 531 
z
" transform="scale(0.015625)"/>
       </defs>
       <use xlink:href="#DejaVuSans-2212"/>
       <use xlink:href="#DejaVuSans-31" x="83.789062"/>
       <use xlink:href="#DejaVuSans-30" x="147.412109"/>
      </g>
     </g>
    </g>
    <g id="ytick_4">
     <g id="line2d_6">
      <g>
       <use xlink:href="#m75655c9ede" x="48.982813" y="147.276508" style="stroke: #000000; stroke-width: 0.8"/>
      </g>
     </g>
     <g id="text_7">
      <!-- 0 -->
      <g transform="translate(35.620313 151.075726) scale(0.1 -0.1)">
       <use xlink:href="#DejaVuSans-30"/>
      </g>
     </g>
    </g>
    <g id="ytick_5">
     <g id="line2d_7">
      <g>
       <use xlink:href="#m75655c9ede" x="48.982813" y="101.850745" style="stroke: #000000; stroke-width: 0.8"/>
      </g>
     </g>
     <g id="text_8">
      <!-- 10 -->
      <g transform="translate(29.257813 105.649963) scale(0.1 -0.1)">
       <use xlink:href="#DejaVuSans-31"/>
       <use xlink:href="#DejaVuSans-30" x="63.623047"/>
      </g>
     </g>
    </g>
    <g id="ytick_6">
     <g id="line2d_8">
      <g>
       <use xlink:href="#m75655c9ede" x="48.982813" y="56.424982" style="stroke: #000000; stroke-width: 0.8"/>
      </g>
     </g>
     <g id="text_9">
      <!-- 20 -->
      <g transform="translate(29.257813 60.2242) scale(0.1 -0.1)">
       <use xlink:href="#DejaVuSans-32"/>
       <use xlink:href="#DejaVuSans-30" x="63.623047"/>
      </g>
     </g>
    </g>
    <g id="ytick_7">
     <g id="line2d_9">
      <g>
       <use xlink:href="#m75655c9ede" x="48.982813" y="10.999219" style="stroke: #000000; stroke-width: 0.8"/>
      </g>
     </g>
     <g id="text_10">
      <!-- 30 -->
      <g transform="translate(29.257813 14.798438) scale(0.1 -0.1)">
       <use xlink:href="#DejaVuSans-33"/>
       <use xlink:href="#DejaVuSans-30" x="63.623047"/>
      </g>
     </g>
    </g>
    <g id="text_11">
     <!-- Numerical difference -->
     <g transform="translate(14.798438 199.542914) rotate(-90) scale(0.1 -0.1)">
      <defs>
       <path id="DejaVuSans-4e" d="M 628 4666 
L 1478 4666 
L 3547 763 
L 3547 4666 
L 4159 4666 
L 4159 0 
L 3309 0 
L 1241 3903 
L 1241 0 
L 628 0 
L 628 4666 
z
" transform="scale(0.015625)"/>
       <path id="DejaVuSans-75" d="M 544 1381 
L 544 3500 
L 1119 3500 
L 1119 1403 
Q 1119 906 1312 657 
Q 1506 409 1894 409 
Q 2359 409 2629 706 
Q 2900 1003 2900 1516 
L 2900 3500 
L 3475 3500 
L 3475 0 
L 2900 0 
L 2900 538 
Q 2691 219 2414 64 
Q 2138 -91 1772 -91 
Q 1169 -91 856 284 
Q 544 659 544 1381 
z
M 1991 3584 
L 1991 3584 
z
" transform="scale(0.015625)"/>
       <path id="DejaVuSans-72" d="M 2631 2963 
Q 2534 3019 2420 3045 
Q 2306 3072 2169 3072 
Q 1681 3072 1420 2755 
Q 1159 2438 1159 1844 
L 1159 0 
L 581 0 
L 581 3500 
L 1159 3500 
L 1159 2956 
Q 1341 3275 1631 3429 
Q 1922 3584 2338 3584 
Q 2397 3584 2469 3576 
Q 2541 3569 2628 3553 
L 2631 2963 
z
" transform="scale(0.015625)"/>
       <path id="DejaVuSans-69" d="M 603 3500 
L 1178 3500 
L 1178 0 
L 603 0 
L 603 3500 
z
M 603 4863 
L 1178 4863 
L 1178 4134 
L 603 4134 
L 603 4863 
z
" transform="scale(0.015625)"/>
       <path id="DejaVuSans-63" d="M 3122 3366 
L 3122 2828 
Q 2878 2963 2633 3030 
Q 2388 3097 2138 3097 
Q 1578 3097 1268 2742 
Q 959 2388 959 1747 
Q 959 1106 1268 751 
Q 1578 397 2138 397 
Q 2388 397 2633 464 
Q 2878 531 3122 666 
L 3122 134 
Q 2881 22 2623 -34 
Q 2366 -91 2075 -91 
Q 1284 -91 818 406 
Q 353 903 353 1747 
Q 353 2603 823 3093 
Q 1294 3584 2113 3584 
Q 2378 3584 2631 3529 
Q 2884 3475 3122 3366 
z
" transform="scale(0.015625)"/>
       <path id="DejaVuSans-61" d="M 2194 1759 
Q 1497 1759 1228 1600 
Q 959 1441 959 1056 
Q 959 750 1161 570 
Q 1363 391 1709 391 
Q 2188 391 2477 730 
Q 2766 1069 2766 1631 
L 2766 1759 
L 2194 1759 
z
M 3341 1997 
L 3341 0 
L 2766 0 
L 2766 531 
Q 2569 213 2275 61 
Q 1981 -91 1556 -91 
Q 1019 -91 701 211 
Q 384 513 384 1019 
Q 384 1609 779 1909 
Q 1175 2209 1959 2209 
L 2766 2209 
L 2766 2266 
Q 2766 2663 2505 2880 
Q 2244 3097 1772 3097 
Q 1472 3097 1187 3025 
Q 903 2953 641 2809 
L 641 3341 
Q 956 3463 1253 3523 
Q 1550 3584 1831 3584 
Q 2591 3584 2966 3190 
Q 3341 2797 3341 1997 
z
" transform="scale(0.015625)"/>
       <path id="DejaVuSans-6c" d="M 603 4863 
L 1178 4863 
L 1178 0 
L 603 0 
L 603 4863 
z
" transform="scale(0.015625)"/>
       <path id="DejaVuSans-20" transform="scale(0.015625)"/>
       <path id="DejaVuSans-66" d="M 2375 4863 
L 2375 4384 
L 1825 4384 
Q 1516 4384 1395 4259 
Q 1275 4134 1275 3809 
L 1275 3500 
L 2222 3500 
L 2222 3053 
L 1275 3053 
L 1275 0 
L 697 0 
L 697 3053 
L 147 3053 
L 147 3500 
L 697 3500 
L 697 3744 
Q 697 4328 969 4595 
Q 1241 4863 1831 4863 
L 2375 4863 
z
" transform="scale(0.015625)"/>
       <path id="DejaVuSans-6e" d="M 3513 2113 
L 3513 0 
L 2938 0 
L 2938 2094 
Q 2938 2591 2744 2837 
Q 2550 3084 2163 3084 
Q 1697 3084 1428 2787 
Q 1159 2491 1159 1978 
L 1159 0 
L 581 0 
L 581 3500 
L 1159 3500 
L 1159 2956 
Q 1366 3272 1645 3428 
Q 1925 3584 2291 3584 
Q 2894 3584 3203 3211 
Q 3513 2838 3513 2113 
z
" transform="scale(0.015625)"/>
      </defs>
      <use xlink:href="#DejaVuSans-4e"/>
      <use xlink:href="#DejaVuSans-75" x="74.804688"/>
      <use xlink:href="#DejaVuSans-6d" x="138.183594"/>
      <use xlink:href="#DejaVuSans-65" x="235.595703"/>
      <use xlink:href="#DejaVuSans-72" x="297.119141"/>
      <use xlink:href="#DejaVuSans-69" x="338.232422"/>
      <use xlink:href="#DejaVuSans-63" x="366.015625"/>
      <use xlink:href="#DejaVuSans-61" x="420.996094"/>
      <use xlink:href="#DejaVuSans-6c" x="482.275391"/>
      <use xlink:href="#DejaVuSans-20" x="510.058594"/>
      <use xlink:href="#DejaVuSans-64" x="541.845703"/>
      <use xlink:href="#DejaVuSans-69" x="605.322266"/>
      <use xlink:href="#DejaVuSans-66" x="633.105469"/>
      <use xlink:href="#DejaVuSans-66" x="668.310547"/>
      <use xlink:href="#DejaVuSans-65" x="703.515625"/>
      <use xlink:href="#DejaVuSans-72" x="765.039062"/>
      <use xlink:href="#DejaVuSans-65" x="803.902344"/>
      <use xlink:href="#DejaVuSans-6e" x="865.425781"/>
      <use xlink:href="#DejaVuSans-63" x="928.804688"/>
      <use xlink:href="#DejaVuSans-65" x="983.785156"/>
     </g>
    </g>
   </g>
   <g id="patch_3">
    <path d="M 48.982813 285.876508 
L 48.982813 8.676508 
" style="fill: none; stroke: #000000; stroke-width: 0.8; stroke-linejoin: miter; stroke-linecap: square"/>
   </g>
   <g id="patch_4">
    <path d="M 327.982813 285.876508 
L 327.982813 8.676508 
" style="fill: none; stroke: #000000; stroke-width: 0.8; stroke-linejoin: miter; stroke-linecap: square"/>
   </g>
   <g id="patch_5">
    <path d="M 48.982813 285.876508 
L 327.982813 285.876508 
" style="fill: none; stroke: #000000; stroke-width: 0.8; stroke-linejoin: miter; stroke-linecap: square"/>
   </g>
   <g id="patch_6">
    <path d="M 48.982813 8.676508 
L 327.982813 8.676508 
" style="fill: none; stroke: #000000; stroke-width: 0.8; stroke-linejoin: miter; stroke-linecap: square"/>
   </g>
   <g id="PathCollection_1">
    <defs>
     <path id="m4cfd32e434" d="M 3.535534 0 
L -3.535534 -0 
" style="stroke: #000000; stroke-width: 1.5"/>
    </defs>
    <g clip-path="url(#p5c772bfca4)">
     <use xlink:href="#m4cfd32e434" x="95.482813" y="187.844304" style="stroke: #000000; stroke-width: 1.5"/>
    </g>
   </g>
   <g id="PathCollection_2">
    <g clip-path="url(#p5c772bfca4)">
     <use xlink:href="#m4cfd32e434" x="95.482813" y="166.798415" style="stroke: #000000; stroke-width: 1.5"/>
    </g>
   </g>
   <g id="PathCollection_3">
    <g clip-path="url(#p5c772bfca4)">
     <use xlink:href="#m4cfd32e434" x="95.482813" y="145.672771" style="stroke: #000000; stroke-width: 1.5"/>
    </g>
   </g>
   <g id="PathCollection_4">
    <g clip-path="url(#p5c772bfca4)">
     <use xlink:href="#m4cfd32e434" x="264.573722" y="186.779228" style="stroke: #000000; stroke-width: 1.5"/>
    </g>
   </g>
   <g id="PathCollection_5">
    <g clip-path="url(#p5c772bfca4)">
     <use xlink:href="#m4cfd32e434" x="264.573722" y="164.941556" style="stroke: #000000; stroke-width: 1.5"/>
    </g>
   </g>
   <g id="PathCollection_6">
    <g clip-path="url(#p5c772bfca4)">
     <use xlink:href="#m4cfd32e434" x="264.573722" y="137.916447" style="stroke: #000000; stroke-width: 1.5"/>
    </g>
   </g>
  </g>
  <g id="axes_2">
   <g id="PolyCollection_3">
    <defs>
     <path id="m5012275cfe" d="M 104.150137 -49.353028 
L 103.945893 -49.353028 
L 103.945893 -51.736215 
L 103.945893 -54.119402 
L 103.945893 -56.50259 
L 103.945893 -58.885777 
L 103.945893 -61.268965 
L 103.945893 -63.652152 
L 103.945893 -66.035339 
L 103.945893 -68.418527 
L 103.945893 -70.801714 
L 103.945893 -73.184901 
L 103.945893 -75.568089 
L 103.945893 -77.951276 
L 103.945893 -80.334464 
L 103.945893 -82.717651 
L 103.945893 -85.100838 
L 103.945893 -87.484026 
L 103.945893 -89.867213 
L 103.945893 -92.250401 
L 103.945893 -94.633588 
L 103.945893 -97.016775 
L 103.945893 -99.399963 
L 103.945893 -101.78315 
L 103.945893 -104.166338 
L 103.945893 -106.549525 
L 103.945893 -108.932712 
L 103.945893 -111.3159 
L 103.945893 -113.699087 
L 103.945893 -116.082275 
L 103.945893 -118.465462 
L 103.945893 -120.848649 
L 103.945893 -123.231837 
L 103.945893 -125.615024 
L 103.945893 -127.998211 
L 103.945893 -130.381399 
L 103.945893 -132.764586 
L 103.945893 -135.147774 
L 103.945893 -137.530961 
L 103.945893 -139.914148 
L 103.945893 -142.297336 
L 103.945893 -144.680523 
L 103.945893 -147.063711 
L 103.945893 -149.446898 
L 103.945893 -151.830085 
L 103.945893 -154.213273 
L 103.945893 -156.59646 
L 103.945893 -158.979648 
L 103.945893 -161.362835 
L 103.945893 -163.746022 
L 103.945893 -166.12921 
L 103.945893 -168.512397 
L 103.945893 -170.895585 
L 103.945893 -173.278772 
L 103.945893 -175.661959 
L 103.945893 -178.045147 
L 103.945893 -180.428334 
L 103.945893 -182.811521 
L 103.945893 -185.194709 
L 103.945893 -187.577896 
L 103.945893 -189.961084 
L 103.945893 -192.344271 
L 103.945893 -194.727458 
L 103.945893 -197.110646 
L 103.945893 -199.493833 
L 103.945893 -201.877021 
L 103.945893 -204.260208 
L 103.945893 -206.643395 
L 103.945893 -209.026583 
L 103.945893 -211.40977 
L 103.945893 -213.792958 
L 103.945893 -216.176145 
L 103.945893 -218.559332 
L 103.945893 -220.94252 
L 103.945893 -223.325707 
L 103.945893 -225.708894 
L 103.945893 -228.092082 
L 103.945893 -230.475269 
L 103.945893 -232.858457 
L 103.945893 -235.241644 
L 103.945893 -237.624831 
L 103.945893 -240.008019 
L 103.945893 -242.391206 
L 103.945893 -244.774394 
L 103.945893 -247.157581 
L 103.945893 -249.540768 
L 103.945893 -251.923956 
L 103.945893 -254.307143 
L 103.945893 -256.690331 
L 103.945893 -259.073518 
L 103.945893 -261.456705 
L 103.945893 -263.839893 
L 103.945893 -266.22308 
L 103.945893 -268.606268 
L 103.945893 -270.989455 
L 103.945893 -273.372642 
L 103.945893 -275.75583 
L 103.945893 -278.139017 
L 103.945893 -280.522204 
L 103.945893 -282.905392 
L 103.945893 -285.288579 
L 105.24445 -285.288579 
L 105.24445 -285.288579 
L 105.487985 -282.905392 
L 105.727348 -280.522204 
L 105.956465 -278.139017 
L 106.172729 -275.75583 
L 106.377423 -273.372642 
L 106.575688 -270.989455 
L 106.77615 -268.606268 
L 106.99011 -266.22308 
L 107.230176 -263.839893 
L 107.508258 -261.456705 
L 107.833224 -259.073518 
L 108.208859 -256.690331 
L 108.632944 -254.307143 
L 109.097974 -251.923956 
L 109.593431 -249.540768 
L 110.108867 -247.157581 
L 110.636704 -244.774394 
L 111.173841 -242.391206 
L 111.721726 -240.008019 
L 112.28516 -237.624831 
L 112.870496 -235.241644 
L 113.483951 -232.858457 
L 114.130555 -230.475269 
L 114.814081 -228.092082 
L 115.538046 -225.708894 
L 116.307652 -223.325707 
L 117.132152 -220.94252 
L 118.026767 -218.559332 
L 119.013085 -216.176145 
L 120.117133 -213.792958 
L 121.364965 -211.40977 
L 122.776622 -209.026583 
L 124.360096 -206.643395 
L 126.107298 -204.260208 
L 127.993554 -201.877021 
L 129.981053 -199.493833 
L 132.025207 -197.110646 
L 134.081626 -194.727458 
L 136.110999 -192.344271 
L 138.079766 -189.961084 
L 139.956049 -187.577896 
L 141.702299 -185.194709 
L 143.267756 -182.811521 
L 144.584487 -180.428334 
L 145.569956 -178.045147 
L 146.137085 -175.661959 
L 146.210085 -173.278772 
L 145.741996 -170.895585 
L 144.728805 -168.512397 
L 143.215682 -166.12921 
L 141.293108 -163.746022 
L 139.083696 -161.362835 
L 136.723176 -158.979648 
L 134.34041 -156.59646 
L 132.041082 -154.213273 
L 129.898083 -151.830085 
L 127.949379 -149.446898 
L 126.202091 -147.063711 
L 124.640381 -144.680523 
L 123.234558 -142.297336 
L 121.949503 -139.914148 
L 120.751429 -137.530961 
L 119.612723 -135.147774 
L 118.514949 -132.764586 
L 117.450028 -130.381399 
L 116.419532 -127.998211 
L 115.43212 -125.615024 
L 114.499562 -123.231837 
L 113.632297 -120.848649 
L 112.835818 -118.465462 
L 112.10906 -116.082275 
L 111.445325 -113.699087 
L 110.835365 -111.3159 
L 110.27132 -108.932712 
L 109.749872 -106.549525 
L 109.273212 -104.166338 
L 108.847367 -101.78315 
L 108.478489 -99.399963 
L 108.168596 -97.016775 
L 107.912439 -94.633588 
L 107.696702 -92.250401 
L 107.501853 -89.867213 
L 107.306021 -87.484026 
L 107.08968 -85.100838 
L 106.839783 -82.717651 
L 106.552293 -80.334464 
L 106.232592 -77.951276 
L 105.893874 -75.568089 
L 105.554074 -73.184901 
L 105.23219 -70.801714 
L 104.944831 -68.418527 
L 104.703666 -66.035339 
L 104.51413 -63.652152 
L 104.375395 -61.268965 
L 104.281405 -58.885777 
L 104.222588 -56.50259 
L 104.187875 -54.119402 
L 104.16662 -51.736215 
L 104.150137 -49.353028 
z
" style="stroke: #000000; stroke-opacity: 0.9"/>
    </defs>
    <g clip-path="url(#p5c772bfca4)">
     <use xlink:href="#m5012275cfe" x="0" y="323.432758" style="fill: #ff7f0e; fill-opacity: 0.9; stroke: #000000; stroke-opacity: 0.9"/>
    </g>
   </g>
   <g id="PolyCollection_4">
    <defs>
     <path id="m866483205c" d="M 274.428538 -75.1307 
L 273.047199 -75.1307 
L 273.047199 -77.053875 
L 273.047199 -78.977049 
L 273.047199 -80.900224 
L 273.047199 -82.823399 
L 273.047199 -84.746574 
L 273.047199 -86.669749 
L 273.047199 -88.592924 
L 273.047199 -90.516098 
L 273.047199 -92.439273 
L 273.047199 -94.362448 
L 273.047199 -96.285623 
L 273.047199 -98.208798 
L 273.047199 -100.131972 
L 273.047199 -102.055147 
L 273.047199 -103.978322 
L 273.047199 -105.901497 
L 273.047199 -107.824672 
L 273.047199 -109.747846 
L 273.047199 -111.671021 
L 273.047199 -113.594196 
L 273.047199 -115.517371 
L 273.047199 -117.440546 
L 273.047199 -119.36372 
L 273.047199 -121.286895 
L 273.047199 -123.21007 
L 273.047199 -125.133245 
L 273.047199 -127.05642 
L 273.047199 -128.979594 
L 273.047199 -130.902769 
L 273.047199 -132.825944 
L 273.047199 -134.749119 
L 273.047199 -136.672294 
L 273.047199 -138.595469 
L 273.047199 -140.518643 
L 273.047199 -142.441818 
L 273.047199 -144.364993 
L 273.047199 -146.288168 
L 273.047199 -148.211343 
L 273.047199 -150.134517 
L 273.047199 -152.057692 
L 273.047199 -153.980867 
L 273.047199 -155.904042 
L 273.047199 -157.827217 
L 273.047199 -159.750391 
L 273.047199 -161.673566 
L 273.047199 -163.596741 
L 273.047199 -165.519916 
L 273.047199 -167.443091 
L 273.047199 -169.366265 
L 273.047199 -171.28944 
L 273.047199 -173.212615 
L 273.047199 -175.13579 
L 273.047199 -177.058965 
L 273.047199 -178.98214 
L 273.047199 -180.905314 
L 273.047199 -182.828489 
L 273.047199 -184.751664 
L 273.047199 -186.674839 
L 273.047199 -188.598014 
L 273.047199 -190.521188 
L 273.047199 -192.444363 
L 273.047199 -194.367538 
L 273.047199 -196.290713 
L 273.047199 -198.213888 
L 273.047199 -200.137062 
L 273.047199 -202.060237 
L 273.047199 -203.983412 
L 273.047199 -205.906587 
L 273.047199 -207.829762 
L 273.047199 -209.752936 
L 273.047199 -211.676111 
L 273.047199 -213.599286 
L 273.047199 -215.522461 
L 273.047199 -217.445636 
L 273.047199 -219.36881 
L 273.047199 -221.291985 
L 273.047199 -223.21516 
L 273.047199 -225.138335 
L 273.047199 -227.06151 
L 273.047199 -228.984685 
L 273.047199 -230.907859 
L 273.047199 -232.831034 
L 273.047199 -234.754209 
L 273.047199 -236.677384 
L 273.047199 -238.600559 
L 273.047199 -240.523733 
L 273.047199 -242.446908 
L 273.047199 -244.370083 
L 273.047199 -246.293258 
L 273.047199 -248.216433 
L 273.047199 -250.139607 
L 273.047199 -252.062782 
L 273.047199 -253.985957 
L 273.047199 -255.909132 
L 273.047199 -257.832307 
L 273.047199 -259.755481 
L 273.047199 -261.678656 
L 273.047199 -263.601831 
L 273.047199 -265.525006 
L 274.070982 -265.525006 
L 274.070982 -265.525006 
L 274.084915 -263.601831 
L 274.086977 -261.678656 
L 274.083861 -259.755481 
L 274.084672 -257.832307 
L 274.100606 -255.909132 
L 274.144515 -253.985957 
L 274.230421 -252.062782 
L 274.373021 -250.139607 
L 274.587204 -248.216433 
L 274.887553 -246.293258 
L 275.287818 -244.370083 
L 275.8003 -242.446908 
L 276.435134 -240.523733 
L 277.199458 -238.600559 
L 278.096549 -236.677384 
L 279.125006 -234.754209 
L 280.278139 -232.831034 
L 281.543723 -230.907859 
L 282.904257 -228.984685 
L 284.33782 -227.06151 
L 285.819521 -225.138335 
L 287.323464 -223.21516 
L 288.825029 -221.291985 
L 290.30323 -219.36881 
L 291.742835 -217.445636 
L 293.135963 -215.522461 
L 294.482896 -213.599286 
L 295.79192 -211.676111 
L 297.078123 -209.752936 
L 298.361174 -207.829762 
L 299.662288 -205.906587 
L 301.00066 -203.983412 
L 302.389809 -202.060237 
L 303.834316 -200.137062 
L 305.327446 -198.213888 
L 306.850082 -196.290713 
L 308.371205 -194.367538 
L 309.849956 -192.444363 
L 311.239049 -190.521188 
L 312.489067 -188.598014 
L 313.553041 -186.674839 
L 314.39065 -184.751664 
L 314.97148 -182.828489 
L 315.276983 -180.905314 
L 315.300994 -178.98214 
L 315.048963 -177.058965 
L 314.536219 -175.13579 
L 313.785702 -173.212615 
L 312.82558 -171.28944 
L 311.687068 -169.366265 
L 310.40263 -167.443091 
L 309.004575 -165.519916 
L 307.523995 -163.596741 
L 305.989897 -161.673566 
L 304.428476 -159.750391 
L 302.862478 -157.827217 
L 301.310728 -155.904042 
L 299.787904 -153.980867 
L 298.304644 -152.057692 
L 296.868021 -150.134517 
L 295.482325 -148.211343 
L 294.150007 -146.288168 
L 292.872582 -144.364993 
L 291.651295 -142.441818 
L 290.487418 -140.518643 
L 289.38213 -138.595469 
L 288.336062 -136.672294 
L 287.348694 -134.749119 
L 286.417802 -132.825944 
L 285.539179 -130.902769 
L 284.706753 -128.979594 
L 283.913138 -127.05642 
L 283.150539 -125.133245 
L 282.41183 -123.21007 
L 281.691619 -121.286895 
L 280.987065 -119.36372 
L 280.298325 -117.440546 
L 279.628527 -115.517371 
L 278.983316 -113.594196 
L 278.370032 -111.671021 
L 277.796681 -109.747846 
L 277.270862 -107.824672 
L 276.7988 -105.901497 
L 276.384606 -103.978322 
L 276.029856 -102.055147 
L 275.733484 -100.131972 
L 275.491988 -98.208798 
L 275.299865 -96.285623 
L 275.15018 -94.362448 
L 275.035186 -92.439273 
L 274.946889 -90.516098 
L 274.877518 -88.592924 
L 274.819866 -86.669749 
L 274.767508 -84.746574 
L 274.714934 -82.823399 
L 274.657632 -80.900224 
L 274.59215 -78.977049 
L 274.516167 -77.053875 
L 274.428538 -75.1307 
z
" style="stroke: #000000; stroke-opacity: 0.9"/>
    </defs>
    <g clip-path="url(#p5c772bfca4)">
     <use xlink:href="#m866483205c" x="0" y="323.432758" style="fill: #ff7f0e; fill-opacity: 0.9; stroke: #000000; stroke-opacity: 0.9"/>
    </g>
   </g>
   <g id="matplotlib.axis_3">
    <g id="ytick_8">
     <g id="line2d_10">
      <defs>
       <path id="m3242d7d337" d="M 0 0 
L 3.5 0 
" style="stroke: #000000; stroke-width: 0.8"/>
      </defs>
      <g>
       <use xlink:href="#m3242d7d337" x="327.982813" y="280.682042" style="stroke: #000000; stroke-width: 0.8"/>
      </g>
     </g>
     <g id="text_12">
      <!-- −100 -->
      <g transform="translate(334.982813 284.481261) scale(0.1 -0.1)">
       <use xlink:href="#DejaVuSans-2212"/>
       <use xlink:href="#DejaVuSans-31" x="83.789062"/>
       <use xlink:href="#DejaVuSans-30" x="147.412109"/>
       <use xlink:href="#DejaVuSans-30" x="211.035156"/>
      </g>
     </g>
    </g>
    <g id="ytick_9">
     <g id="line2d_11">
      <g>
       <use xlink:href="#m3242d7d337" x="327.982813" y="247.330658" style="stroke: #000000; stroke-width: 0.8"/>
      </g>
     </g>
     <g id="text_13">
      <!-- −75 -->
      <g transform="translate(334.982813 251.129877) scale(0.1 -0.1)">
       <defs>
        <path id="DejaVuSans-37" d="M 525 4666 
L 3525 4666 
L 3525 4397 
L 1831 0 
L 1172 0 
L 2766 4134 
L 525 4134 
L 525 4666 
z
" transform="scale(0.015625)"/>
        <path id="DejaVuSans-35" d="M 691 4666 
L 3169 4666 
L 3169 4134 
L 1269 4134 
L 1269 2991 
Q 1406 3038 1543 3061 
Q 1681 3084 1819 3084 
Q 2600 3084 3056 2656 
Q 3513 2228 3513 1497 
Q 3513 744 3044 326 
Q 2575 -91 1722 -91 
Q 1428 -91 1123 -41 
Q 819 9 494 109 
L 494 744 
Q 775 591 1075 516 
Q 1375 441 1709 441 
Q 2250 441 2565 725 
Q 2881 1009 2881 1497 
Q 2881 1984 2565 2268 
Q 2250 2553 1709 2553 
Q 1456 2553 1204 2497 
Q 953 2441 691 2322 
L 691 4666 
z
" transform="scale(0.015625)"/>
       </defs>
       <use xlink:href="#DejaVuSans-2212"/>
       <use xlink:href="#DejaVuSans-37" x="83.789062"/>
       <use xlink:href="#DejaVuSans-35" x="147.412109"/>
      </g>
     </g>
    </g>
    <g id="ytick_10">
     <g id="line2d_12">
      <g>
       <use xlink:href="#m3242d7d337" x="327.982813" y="213.979275" style="stroke: #000000; stroke-width: 0.8"/>
      </g>
     </g>
     <g id="text_14">
      <!-- −50 -->
      <g transform="translate(334.982813 217.778494) scale(0.1 -0.1)">
       <use xlink:href="#DejaVuSans-2212"/>
       <use xlink:href="#DejaVuSans-35" x="83.789062"/>
       <use xlink:href="#DejaVuSans-30" x="147.412109"/>
      </g>
     </g>
    </g>
    <g id="ytick_11">
     <g id="line2d_13">
      <g>
       <use xlink:href="#m3242d7d337" x="327.982813" y="180.627891" style="stroke: #000000; stroke-width: 0.8"/>
      </g>
     </g>
     <g id="text_15">
      <!-- −25 -->
      <g transform="translate(334.982813 184.42711) scale(0.1 -0.1)">
       <use xlink:href="#DejaVuSans-2212"/>
       <use xlink:href="#DejaVuSans-32" x="83.789062"/>
       <use xlink:href="#DejaVuSans-35" x="147.412109"/>
      </g>
     </g>
    </g>
    <g id="ytick_12">
     <g id="line2d_14">
      <g>
       <use xlink:href="#m3242d7d337" x="327.982813" y="147.276508" style="stroke: #000000; stroke-width: 0.8"/>
      </g>
     </g>
     <g id="text_16">
      <!-- 0 -->
      <g transform="translate(334.982813 151.075726) scale(0.1 -0.1)">
       <use xlink:href="#DejaVuSans-30"/>
      </g>
     </g>
    </g>
    <g id="ytick_13">
     <g id="line2d_15">
      <g>
       <use xlink:href="#m3242d7d337" x="327.982813" y="113.925124" style="stroke: #000000; stroke-width: 0.8"/>
      </g>
     </g>
     <g id="text_17">
      <!-- 25 -->
      <g transform="translate(334.982813 117.724343) scale(0.1 -0.1)">
       <use xlink:href="#DejaVuSans-32"/>
       <use xlink:href="#DejaVuSans-35" x="63.623047"/>
      </g>
     </g>
    </g>
    <g id="ytick_14">
     <g id="line2d_16">
      <g>
       <use xlink:href="#m3242d7d337" x="327.982813" y="80.573741" style="stroke: #000000; stroke-width: 0.8"/>
      </g>
     </g>
     <g id="text_18">
      <!-- 50 -->
      <g transform="translate(334.982813 84.372959) scale(0.1 -0.1)">
       <use xlink:href="#DejaVuSans-35"/>
       <use xlink:href="#DejaVuSans-30" x="63.623047"/>
      </g>
     </g>
    </g>
    <g id="ytick_15">
     <g id="line2d_17">
      <g>
       <use xlink:href="#m3242d7d337" x="327.982813" y="47.222357" style="stroke: #000000; stroke-width: 0.8"/>
      </g>
     </g>
     <g id="text_19">
      <!-- 75 -->
      <g transform="translate(334.982813 51.021576) scale(0.1 -0.1)">
       <use xlink:href="#DejaVuSans-37"/>
       <use xlink:href="#DejaVuSans-35" x="63.623047"/>
      </g>
     </g>
    </g>
    <g id="ytick_16">
     <g id="line2d_18">
      <g>
       <use xlink:href="#m3242d7d337" x="327.982813" y="13.870974" style="stroke: #000000; stroke-width: 0.8"/>
      </g>
     </g>
     <g id="text_20">
      <!-- 100 -->
      <g transform="translate(334.982813 17.670192) scale(0.1 -0.1)">
       <use xlink:href="#DejaVuSans-31"/>
       <use xlink:href="#DejaVuSans-30" x="63.623047"/>
       <use xlink:href="#DejaVuSans-30" x="127.246094"/>
      </g>
     </g>
    </g>
    <g id="text_21">
     <!-- Rank difference / % of no. materials -->
     <g transform="translate(374.048438 236.932758) rotate(-90) scale(0.1 -0.1)">
      <defs>
       <path id="DejaVuSans-52" d="M 2841 2188 
Q 3044 2119 3236 1894 
Q 3428 1669 3622 1275 
L 4263 0 
L 3584 0 
L 2988 1197 
Q 2756 1666 2539 1819 
Q 2322 1972 1947 1972 
L 1259 1972 
L 1259 0 
L 628 0 
L 628 4666 
L 2053 4666 
Q 2853 4666 3247 4331 
Q 3641 3997 3641 3322 
Q 3641 2881 3436 2590 
Q 3231 2300 2841 2188 
z
M 1259 4147 
L 1259 2491 
L 2053 2491 
Q 2509 2491 2742 2702 
Q 2975 2913 2975 3322 
Q 2975 3731 2742 3939 
Q 2509 4147 2053 4147 
L 1259 4147 
z
" transform="scale(0.015625)"/>
       <path id="DejaVuSans-6b" d="M 581 4863 
L 1159 4863 
L 1159 1991 
L 2875 3500 
L 3609 3500 
L 1753 1863 
L 3688 0 
L 2938 0 
L 1159 1709 
L 1159 0 
L 581 0 
L 581 4863 
z
" transform="scale(0.015625)"/>
       <path id="DejaVuSans-2f" d="M 1625 4666 
L 2156 4666 
L 531 -594 
L 0 -594 
L 1625 4666 
z
" transform="scale(0.015625)"/>
       <path id="DejaVuSans-25" d="M 4653 2053 
Q 4381 2053 4226 1822 
Q 4072 1591 4072 1178 
Q 4072 772 4226 539 
Q 4381 306 4653 306 
Q 4919 306 5073 539 
Q 5228 772 5228 1178 
Q 5228 1588 5073 1820 
Q 4919 2053 4653 2053 
z
M 4653 2450 
Q 5147 2450 5437 2106 
Q 5728 1763 5728 1178 
Q 5728 594 5436 251 
Q 5144 -91 4653 -91 
Q 4153 -91 3862 251 
Q 3572 594 3572 1178 
Q 3572 1766 3864 2108 
Q 4156 2450 4653 2450 
z
M 1428 4353 
Q 1159 4353 1004 4120 
Q 850 3888 850 3481 
Q 850 3069 1003 2837 
Q 1156 2606 1428 2606 
Q 1700 2606 1854 2837 
Q 2009 3069 2009 3481 
Q 2009 3884 1853 4118 
Q 1697 4353 1428 4353 
z
M 4250 4750 
L 4750 4750 
L 1831 -91 
L 1331 -91 
L 4250 4750 
z
M 1428 4750 
Q 1922 4750 2215 4408 
Q 2509 4066 2509 3481 
Q 2509 2891 2217 2550 
Q 1925 2209 1428 2209 
Q 931 2209 642 2551 
Q 353 2894 353 3481 
Q 353 4063 643 4406 
Q 934 4750 1428 4750 
z
" transform="scale(0.015625)"/>
       <path id="DejaVuSans-2e" d="M 684 794 
L 1344 794 
L 1344 0 
L 684 0 
L 684 794 
z
" transform="scale(0.015625)"/>
       <path id="DejaVuSans-73" d="M 2834 3397 
L 2834 2853 
Q 2591 2978 2328 3040 
Q 2066 3103 1784 3103 
Q 1356 3103 1142 2972 
Q 928 2841 928 2578 
Q 928 2378 1081 2264 
Q 1234 2150 1697 2047 
L 1894 2003 
Q 2506 1872 2764 1633 
Q 3022 1394 3022 966 
Q 3022 478 2636 193 
Q 2250 -91 1575 -91 
Q 1294 -91 989 -36 
Q 684 19 347 128 
L 347 722 
Q 666 556 975 473 
Q 1284 391 1588 391 
Q 1994 391 2212 530 
Q 2431 669 2431 922 
Q 2431 1156 2273 1281 
Q 2116 1406 1581 1522 
L 1381 1569 
Q 847 1681 609 1914 
Q 372 2147 372 2553 
Q 372 3047 722 3315 
Q 1072 3584 1716 3584 
Q 2034 3584 2315 3537 
Q 2597 3491 2834 3397 
z
" transform="scale(0.015625)"/>
      </defs>
      <use xlink:href="#DejaVuSans-52"/>
      <use xlink:href="#DejaVuSans-61" x="67.232422"/>
      <use xlink:href="#DejaVuSans-6e" x="128.511719"/>
      <use xlink:href="#DejaVuSans-6b" x="191.890625"/>
      <use xlink:href="#DejaVuSans-20" x="249.800781"/>
      <use xlink:href="#DejaVuSans-64" x="281.587891"/>
      <use xlink:href="#DejaVuSans-69" x="345.064453"/>
      <use xlink:href="#DejaVuSans-66" x="372.847656"/>
      <use xlink:href="#DejaVuSans-66" x="408.052734"/>
      <use xlink:href="#DejaVuSans-65" x="443.257812"/>
      <use xlink:href="#DejaVuSans-72" x="504.78125"/>
      <use xlink:href="#DejaVuSans-65" x="543.644531"/>
      <use xlink:href="#DejaVuSans-6e" x="605.167969"/>
      <use xlink:href="#DejaVuSans-63" x="668.546875"/>
      <use xlink:href="#DejaVuSans-65" x="723.527344"/>
      <use xlink:href="#DejaVuSans-20" x="785.050781"/>
      <use xlink:href="#DejaVuSans-2f" x="816.837891"/>
      <use xlink:href="#DejaVuSans-20" x="850.529297"/>
      <use xlink:href="#DejaVuSans-25" x="882.316406"/>
      <use xlink:href="#DejaVuSans-20" x="977.335938"/>
      <use xlink:href="#DejaVuSans-6f" x="1009.123047"/>
      <use xlink:href="#DejaVuSans-66" x="1070.304688"/>
      <use xlink:href="#DejaVuSans-20" x="1105.509766"/>
      <use xlink:href="#DejaVuSans-6e" x="1137.296875"/>
      <use xlink:href="#DejaVuSans-6f" x="1200.675781"/>
      <use xlink:href="#DejaVuSans-2e" x="1260.107422"/>
      <use xlink:href="#DejaVuSans-20" x="1291.894531"/>
      <use xlink:href="#DejaVuSans-6d" x="1323.681641"/>
      <use xlink:href="#DejaVuSans-61" x="1421.09375"/>
      <use xlink:href="#DejaVuSans-74" x="1482.373047"/>
      <use xlink:href="#DejaVuSans-65" x="1521.582031"/>
      <use xlink:href="#DejaVuSans-72" x="1583.105469"/>
      <use xlink:href="#DejaVuSans-69" x="1624.21875"/>
      <use xlink:href="#DejaVuSans-61" x="1652.001953"/>
      <use xlink:href="#DejaVuSans-6c" x="1713.28125"/>
      <use xlink:href="#DejaVuSans-73" x="1741.064453"/>
     </g>
    </g>
   </g>
   <g id="patch_7">
    <path d="M 48.982813 285.876508 
L 48.982813 8.676508 
" style="fill: none; stroke: #000000; stroke-width: 0.8; stroke-linejoin: miter; stroke-linecap: square"/>
   </g>
   <g id="patch_8">
    <path d="M 327.982813 285.876508 
L 327.982813 8.676508 
" style="fill: none; stroke: #000000; stroke-width: 0.8; stroke-linejoin: miter; stroke-linecap: square"/>
   </g>
   <g id="patch_9">
    <path d="M 48.982813 285.876508 
L 327.982813 285.876508 
" style="fill: none; stroke: #000000; stroke-width: 0.8; stroke-linejoin: miter; stroke-linecap: square"/>
   </g>
   <g id="patch_10">
    <path d="M 48.982813 8.676508 
L 327.982813 8.676508 
" style="fill: none; stroke: #000000; stroke-width: 0.8; stroke-linejoin: miter; stroke-linecap: square"/>
   </g>
   <g id="PathCollection_7">
    <g clip-path="url(#p5c772bfca4)">
     <use xlink:href="#m4cfd32e434" x="112.391903" y="167.568907" style="stroke: #000000; stroke-width: 1.5"/>
    </g>
   </g>
   <g id="PathCollection_8">
    <g clip-path="url(#p5c772bfca4)">
     <use xlink:href="#m4cfd32e434" x="112.391903" y="148.829993" style="stroke: #000000; stroke-width: 1.5"/>
    </g>
   </g>
   <g id="PathCollection_9">
    <g clip-path="url(#p5c772bfca4)">
     <use xlink:href="#m4cfd32e434" x="112.391903" y="127.081201" style="stroke: #000000; stroke-width: 1.5"/>
    </g>
   </g>
   <g id="PathCollection_10">
    <g clip-path="url(#p5c772bfca4)">
     <use xlink:href="#m4cfd32e434" x="281.482813" y="162.8189" style="stroke: #000000; stroke-width: 1.5"/>
    </g>
   </g>
   <g id="PathCollection_11">
    <g clip-path="url(#p5c772bfca4)">
     <use xlink:href="#m4cfd32e434" x="281.482813" y="145.981308" style="stroke: #000000; stroke-width: 1.5"/>
    </g>
   </g>
   <g id="PathCollection_12">
    <g clip-path="url(#p5c772bfca4)">
     <use xlink:href="#m4cfd32e434" x="281.482813" y="128.496117" style="stroke: #000000; stroke-width: 1.5"/>
    </g>
   </g>
  </g>
 </g>
 <defs>
  <clipPath id="p5c772bfca4">
   <rect x="48.982813" y="8.676508" width="279" height="277.2"/>
  </clipPath>
 </defs>
</svg>
