<?xml version="1.0" encoding="utf-8" standalone="no"?>
<!DOCTYPE svg PUBLIC "-//W3C//DTD SVG 1.1//EN"
  "http://www.w3.org/Graphics/SVG/1.1/DTD/svg11.dtd">
<svg xmlns:xlink="http://www.w3.org/1999/xlink" width="898.888437pt" height="351.690313pt" viewBox="0 0 898.888437 351.690313" xmlns="http://www.w3.org/2000/svg" version="1.1">
 <metadata>
  <rdf:RDF xmlns:dc="http://purl.org/dc/elements/1.1/" xmlns:cc="http://creativecommons.org/ns#" xmlns:rdf="http://www.w3.org/1999/02/22-rdf-syntax-ns#">
   <cc:Work>
    <dc:type rdf:resource="http://purl.org/dc/dcmitype/StillImage"/>
    <dc:date>2025-10-24T11:15:10.566173</dc:date>
    <dc:format>image/svg+xml</dc:format>
    <dc:creator>
     <cc:Agent>
      <dc:title>Matplotlib v3.8.1, https://matplotlib.org/</dc:title>
     </cc:Agent>
    </dc:creator>
   </cc:Work>
  </rdf:RDF>
 </metadata>
 <defs>
  <style type="text/css">*{stroke-linejoin: round; stroke-linecap: butt}</style>
 </defs>
 <g id="figure_1">
  <g id="patch_1">
   <path d="M 0 351.690313 
L 898.888437 351.690313 
L 898.888437 0 
L 0 0 
z
" style="fill: #ffffff"/>
  </g>
  <g id="axes_1">
   <g id="patch_2">
    <path d="M 45.942187 307.548125 
L 350.305824 307.548125 
L 350.305824 30.348125 
L 45.942187 30.348125 
z
" style="fill: #ffffff"/>
   </g>
   <g id="matplotlib.axis_1">
    <g id="xtick_1">
     <g id="line2d_1">
      <defs>
       <path id="mcca279ec3f" d="M 0 0 
L 0 3.5 
" style="stroke: #000000; stroke-width: 0.8"/>
      </defs>
      <g>
       <use xlink:href="#mcca279ec3f" x="59.776898" y="307.548125" style="stroke: #000000; stroke-width: 0.8"/>
      </g>
     </g>
     <g id="text_1">
      <!-- $\mathdefault{10^{1}}$ -->
      <g transform="translate(51.316898 325.18125) scale(0.12 -0.12)">
       <defs>
        <path id="TimesNewRomanPSMT-31" d="M 750 3822 
L 1781 4325 
L 1884 4325 
L 1884 747 
Q 1884 391 1914 303 
Q 1944 216 2037 169 
Q 2131 122 2419 116 
L 2419 0 
L 825 0 
L 825 116 
Q 1125 122 1212 167 
Q 1300 213 1334 289 
Q 1369 366 1369 747 
L 1369 3034 
Q 1369 3497 1338 3628 
Q 1316 3728 1258 3775 
Q 1200 3822 1119 3822 
Q 1003 3822 797 3725 
L 750 3822 
z
" transform="scale(0.015625)"/>
        <path id="TimesNewRomanPSMT-30" d="M 231 2094 
Q 231 2819 450 3342 
Q 669 3866 1031 4122 
Q 1313 4325 1613 4325 
Q 2100 4325 2488 3828 
Q 2972 3213 2972 2159 
Q 2972 1422 2759 906 
Q 2547 391 2217 158 
Q 1888 -75 1581 -75 
Q 975 -75 572 641 
Q 231 1244 231 2094 
z
M 844 2016 
Q 844 1141 1059 588 
Q 1238 122 1591 122 
Q 1759 122 1940 273 
Q 2122 425 2216 781 
Q 2359 1319 2359 2297 
Q 2359 3022 2209 3506 
Q 2097 3866 1919 4016 
Q 1791 4119 1609 4119 
Q 1397 4119 1231 3928 
Q 1006 3669 925 3112 
Q 844 2556 844 2016 
z
" transform="scale(0.015625)"/>
       </defs>
       <use xlink:href="#TimesNewRomanPSMT-31" transform="translate(0 0.582813)"/>
       <use xlink:href="#TimesNewRomanPSMT-30" transform="translate(50 0.582813)"/>
       <use xlink:href="#TimesNewRomanPSMT-31" transform="translate(101.502813 60.695312) scale(0.7)"/>
      </g>
     </g>
    </g>
    <g id="xtick_2">
     <g id="line2d_2">
      <g>
       <use xlink:href="#mcca279ec3f" x="162.687443" y="307.548125" style="stroke: #000000; stroke-width: 0.8"/>
      </g>
     </g>
     <g id="text_2">
      <!-- $\mathdefault{10^{2}}$ -->
      <g transform="translate(154.227443 325.18125) scale(0.12 -0.12)">
       <defs>
        <path id="TimesNewRomanPSMT-32" d="M 2934 816 
L 2638 0 
L 138 0 
L 138 116 
Q 1241 1122 1691 1759 
Q 2141 2397 2141 2925 
Q 2141 3328 1894 3587 
Q 1647 3847 1303 3847 
Q 991 3847 742 3664 
Q 494 3481 375 3128 
L 259 3128 
Q 338 3706 661 4015 
Q 984 4325 1469 4325 
Q 1984 4325 2329 3994 
Q 2675 3663 2675 3213 
Q 2675 2891 2525 2569 
Q 2294 2063 1775 1497 
Q 997 647 803 472 
L 1909 472 
Q 2247 472 2383 497 
Q 2519 522 2628 598 
Q 2738 675 2819 816 
L 2934 816 
z
" transform="scale(0.015625)"/>
       </defs>
       <use xlink:href="#TimesNewRomanPSMT-31" transform="translate(0 0.582813)"/>
       <use xlink:href="#TimesNewRomanPSMT-30" transform="translate(50 0.582813)"/>
       <use xlink:href="#TimesNewRomanPSMT-32" transform="translate(101.502813 60.695312) scale(0.7)"/>
      </g>
     </g>
    </g>
    <g id="xtick_3">
     <g id="line2d_3">
      <g>
       <use xlink:href="#mcca279ec3f" x="265.597987" y="307.548125" style="stroke: #000000; stroke-width: 0.8"/>
      </g>
     </g>
     <g id="text_3">
      <!-- $\mathdefault{10^{3}}$ -->
      <g transform="translate(257.137987 325.18125) scale(0.12 -0.12)">
       <defs>
        <path id="TimesNewRomanPSMT-33" d="M 325 3431 
Q 506 3859 782 4092 
Q 1059 4325 1472 4325 
Q 1981 4325 2253 3994 
Q 2459 3747 2459 3466 
Q 2459 3003 1878 2509 
Q 2269 2356 2469 2072 
Q 2669 1788 2669 1403 
Q 2669 853 2319 450 
Q 1863 -75 997 -75 
Q 569 -75 414 31 
Q 259 138 259 259 
Q 259 350 332 419 
Q 406 488 509 488 
Q 588 488 669 463 
Q 722 447 909 348 
Q 1097 250 1169 231 
Q 1284 197 1416 197 
Q 1734 197 1970 444 
Q 2206 691 2206 1028 
Q 2206 1275 2097 1509 
Q 2016 1684 1919 1775 
Q 1784 1900 1550 2001 
Q 1316 2103 1072 2103 
L 972 2103 
L 972 2197 
Q 1219 2228 1467 2375 
Q 1716 2522 1828 2728 
Q 1941 2934 1941 3181 
Q 1941 3503 1739 3701 
Q 1538 3900 1238 3900 
Q 753 3900 428 3381 
L 325 3431 
z
" transform="scale(0.015625)"/>
       </defs>
       <use xlink:href="#TimesNewRomanPSMT-31" transform="translate(0 0.582813)"/>
       <use xlink:href="#TimesNewRomanPSMT-30" transform="translate(50 0.582813)"/>
       <use xlink:href="#TimesNewRomanPSMT-33" transform="translate(101.502813 60.695312) scale(0.7)"/>
      </g>
     </g>
    </g>
    <g id="xtick_4">
     <g id="line2d_4">
      <defs>
       <path id="m9fd50385b2" d="M 0 0 
L 0 2 
" style="stroke: #000000; stroke-width: 0.6"/>
      </defs>
      <g>
       <use xlink:href="#m9fd50385b2" x="49.803836" y="307.548125" style="stroke: #000000; stroke-width: 0.6"/>
      </g>
     </g>
    </g>
    <g id="xtick_5">
     <g id="line2d_5">
      <g>
       <use xlink:href="#m9fd50385b2" x="55.06797" y="307.548125" style="stroke: #000000; stroke-width: 0.6"/>
      </g>
     </g>
    </g>
    <g id="xtick_6">
     <g id="line2d_6">
      <g>
       <use xlink:href="#m9fd50385b2" x="90.756059" y="307.548125" style="stroke: #000000; stroke-width: 0.6"/>
      </g>
     </g>
    </g>
    <g id="xtick_7">
     <g id="line2d_7">
      <g>
       <use xlink:href="#m9fd50385b2" x="108.877706" y="307.548125" style="stroke: #000000; stroke-width: 0.6"/>
      </g>
     </g>
    </g>
    <g id="xtick_8">
     <g id="line2d_8">
      <g>
       <use xlink:href="#m9fd50385b2" x="121.73522" y="307.548125" style="stroke: #000000; stroke-width: 0.6"/>
      </g>
     </g>
    </g>
    <g id="xtick_9">
     <g id="line2d_9">
      <g>
       <use xlink:href="#m9fd50385b2" x="131.708282" y="307.548125" style="stroke: #000000; stroke-width: 0.6"/>
      </g>
     </g>
    </g>
    <g id="xtick_10">
     <g id="line2d_10">
      <g>
       <use xlink:href="#m9fd50385b2" x="139.856867" y="307.548125" style="stroke: #000000; stroke-width: 0.6"/>
      </g>
     </g>
    </g>
    <g id="xtick_11">
     <g id="line2d_11">
      <g>
       <use xlink:href="#m9fd50385b2" x="146.746398" y="307.548125" style="stroke: #000000; stroke-width: 0.6"/>
      </g>
     </g>
    </g>
    <g id="xtick_12">
     <g id="line2d_12">
      <g>
       <use xlink:href="#m9fd50385b2" x="152.714381" y="307.548125" style="stroke: #000000; stroke-width: 0.6"/>
      </g>
     </g>
    </g>
    <g id="xtick_13">
     <g id="line2d_13">
      <g>
       <use xlink:href="#m9fd50385b2" x="157.978515" y="307.548125" style="stroke: #000000; stroke-width: 0.6"/>
      </g>
     </g>
    </g>
    <g id="xtick_14">
     <g id="line2d_14">
      <g>
       <use xlink:href="#m9fd50385b2" x="193.666604" y="307.548125" style="stroke: #000000; stroke-width: 0.6"/>
      </g>
     </g>
    </g>
    <g id="xtick_15">
     <g id="line2d_15">
      <g>
       <use xlink:href="#m9fd50385b2" x="211.788251" y="307.548125" style="stroke: #000000; stroke-width: 0.6"/>
      </g>
     </g>
    </g>
    <g id="xtick_16">
     <g id="line2d_16">
      <g>
       <use xlink:href="#m9fd50385b2" x="224.645764" y="307.548125" style="stroke: #000000; stroke-width: 0.6"/>
      </g>
     </g>
    </g>
    <g id="xtick_17">
     <g id="line2d_17">
      <g>
       <use xlink:href="#m9fd50385b2" x="234.618827" y="307.548125" style="stroke: #000000; stroke-width: 0.6"/>
      </g>
     </g>
    </g>
    <g id="xtick_18">
     <g id="line2d_18">
      <g>
       <use xlink:href="#m9fd50385b2" x="242.767412" y="307.548125" style="stroke: #000000; stroke-width: 0.6"/>
      </g>
     </g>
    </g>
    <g id="xtick_19">
     <g id="line2d_19">
      <g>
       <use xlink:href="#m9fd50385b2" x="249.656942" y="307.548125" style="stroke: #000000; stroke-width: 0.6"/>
      </g>
     </g>
    </g>
    <g id="xtick_20">
     <g id="line2d_20">
      <g>
       <use xlink:href="#m9fd50385b2" x="255.624925" y="307.548125" style="stroke: #000000; stroke-width: 0.6"/>
      </g>
     </g>
    </g>
    <g id="xtick_21">
     <g id="line2d_21">
      <g>
       <use xlink:href="#m9fd50385b2" x="260.889059" y="307.548125" style="stroke: #000000; stroke-width: 0.6"/>
      </g>
     </g>
    </g>
    <g id="xtick_22">
     <g id="line2d_22">
      <g>
       <use xlink:href="#m9fd50385b2" x="296.577148" y="307.548125" style="stroke: #000000; stroke-width: 0.6"/>
      </g>
     </g>
    </g>
    <g id="xtick_23">
     <g id="line2d_23">
      <g>
       <use xlink:href="#m9fd50385b2" x="314.698795" y="307.548125" style="stroke: #000000; stroke-width: 0.6"/>
      </g>
     </g>
    </g>
    <g id="xtick_24">
     <g id="line2d_24">
      <g>
       <use xlink:href="#m9fd50385b2" x="327.556309" y="307.548125" style="stroke: #000000; stroke-width: 0.6"/>
      </g>
     </g>
    </g>
    <g id="xtick_25">
     <g id="line2d_25">
      <g>
       <use xlink:href="#m9fd50385b2" x="337.529371" y="307.548125" style="stroke: #000000; stroke-width: 0.6"/>
      </g>
     </g>
    </g>
    <g id="xtick_26">
     <g id="line2d_26">
      <g>
       <use xlink:href="#m9fd50385b2" x="345.677956" y="307.548125" style="stroke: #000000; stroke-width: 0.6"/>
      </g>
     </g>
    </g>
    <g id="text_4">
     <!-- Training dataset size -->
     <g transform="translate(140.446193 341.469375) scale(0.14 -0.14)">
      <defs>
       <path id="TimesNewRomanPSMT-54" d="M 3703 4238 
L 3750 3244 
L 3631 3244 
Q 3597 3506 3538 3619 
Q 3441 3800 3280 3886 
Q 3119 3972 2856 3972 
L 2259 3972 
L 2259 734 
Q 2259 344 2344 247 
Q 2463 116 2709 116 
L 2856 116 
L 2856 0 
L 1059 0 
L 1059 116 
L 1209 116 
Q 1478 116 1591 278 
Q 1659 378 1659 734 
L 1659 3972 
L 1150 3972 
Q 853 3972 728 3928 
Q 566 3869 450 3700 
Q 334 3531 313 3244 
L 194 3244 
L 244 4238 
L 3703 4238 
z
" transform="scale(0.015625)"/>
       <path id="TimesNewRomanPSMT-72" d="M 1038 2947 
L 1038 2303 
Q 1397 2947 1775 2947 
Q 1947 2947 2059 2842 
Q 2172 2738 2172 2600 
Q 2172 2478 2090 2393 
Q 2009 2309 1897 2309 
Q 1788 2309 1652 2417 
Q 1516 2525 1450 2525 
Q 1394 2525 1328 2463 
Q 1188 2334 1038 2041 
L 1038 669 
Q 1038 431 1097 309 
Q 1138 225 1241 169 
Q 1344 113 1538 113 
L 1538 0 
L 72 0 
L 72 113 
Q 291 113 397 181 
Q 475 231 506 341 
Q 522 394 522 644 
L 522 1753 
Q 522 2253 501 2348 
Q 481 2444 426 2487 
Q 372 2531 291 2531 
Q 194 2531 72 2484 
L 41 2597 
L 906 2947 
L 1038 2947 
z
" transform="scale(0.015625)"/>
       <path id="TimesNewRomanPSMT-61" d="M 1822 413 
Q 1381 72 1269 19 
Q 1100 -59 909 -59 
Q 613 -59 420 144 
Q 228 347 228 678 
Q 228 888 322 1041 
Q 450 1253 767 1440 
Q 1084 1628 1822 1897 
L 1822 2009 
Q 1822 2438 1686 2597 
Q 1550 2756 1291 2756 
Q 1094 2756 978 2650 
Q 859 2544 859 2406 
L 866 2225 
Q 866 2081 792 2003 
Q 719 1925 600 1925 
Q 484 1925 411 2006 
Q 338 2088 338 2228 
Q 338 2497 613 2722 
Q 888 2947 1384 2947 
Q 1766 2947 2009 2819 
Q 2194 2722 2281 2516 
Q 2338 2381 2338 1966 
L 2338 994 
Q 2338 584 2353 492 
Q 2369 400 2405 369 
Q 2441 338 2488 338 
Q 2538 338 2575 359 
Q 2641 400 2828 588 
L 2828 413 
Q 2478 -56 2159 -56 
Q 2006 -56 1915 50 
Q 1825 156 1822 413 
z
M 1822 616 
L 1822 1706 
Q 1350 1519 1213 1441 
Q 966 1303 859 1153 
Q 753 1003 753 825 
Q 753 600 887 451 
Q 1022 303 1197 303 
Q 1434 303 1822 616 
z
" transform="scale(0.015625)"/>
       <path id="TimesNewRomanPSMT-69" d="M 928 4444 
Q 1059 4444 1151 4351 
Q 1244 4259 1244 4128 
Q 1244 3997 1151 3903 
Q 1059 3809 928 3809 
Q 797 3809 703 3903 
Q 609 3997 609 4128 
Q 609 4259 701 4351 
Q 794 4444 928 4444 
z
M 1188 2947 
L 1188 647 
Q 1188 378 1227 289 
Q 1266 200 1342 156 
Q 1419 113 1622 113 
L 1622 0 
L 231 0 
L 231 113 
Q 441 113 512 153 
Q 584 194 626 287 
Q 669 381 669 647 
L 669 1750 
Q 669 2216 641 2353 
Q 619 2453 572 2492 
Q 525 2531 444 2531 
Q 356 2531 231 2484 
L 188 2597 
L 1050 2947 
L 1188 2947 
z
" transform="scale(0.015625)"/>
       <path id="TimesNewRomanPSMT-6e" d="M 1034 2341 
Q 1538 2947 1994 2947 
Q 2228 2947 2397 2830 
Q 2566 2713 2666 2444 
Q 2734 2256 2734 1869 
L 2734 647 
Q 2734 375 2778 278 
Q 2813 200 2889 156 
Q 2966 113 3172 113 
L 3172 0 
L 1756 0 
L 1756 113 
L 1816 113 
Q 2016 113 2095 173 
Q 2175 234 2206 353 
Q 2219 400 2219 647 
L 2219 1819 
Q 2219 2209 2117 2386 
Q 2016 2563 1775 2563 
Q 1403 2563 1034 2156 
L 1034 647 
Q 1034 356 1069 288 
Q 1113 197 1189 155 
Q 1266 113 1500 113 
L 1500 0 
L 84 0 
L 84 113 
L 147 113 
Q 366 113 442 223 
Q 519 334 519 647 
L 519 1709 
Q 519 2225 495 2337 
Q 472 2450 423 2490 
Q 375 2531 294 2531 
Q 206 2531 84 2484 
L 38 2597 
L 900 2947 
L 1034 2947 
L 1034 2341 
z
" transform="scale(0.015625)"/>
       <path id="TimesNewRomanPSMT-67" d="M 966 1044 
Q 703 1172 562 1401 
Q 422 1631 422 1909 
Q 422 2334 742 2640 
Q 1063 2947 1563 2947 
Q 1972 2947 2272 2747 
L 2878 2747 
Q 3013 2747 3034 2739 
Q 3056 2731 3066 2713 
Q 3084 2684 3084 2613 
Q 3084 2531 3069 2500 
Q 3059 2484 3036 2475 
Q 3013 2466 2878 2466 
L 2506 2466 
Q 2681 2241 2681 1891 
Q 2681 1491 2375 1206 
Q 2069 922 1553 922 
Q 1341 922 1119 984 
Q 981 866 932 777 
Q 884 688 884 625 
Q 884 572 936 522 
Q 988 472 1138 450 
Q 1225 438 1575 428 
Q 2219 413 2409 384 
Q 2700 344 2873 169 
Q 3047 -6 3047 -263 
Q 3047 -616 2716 -925 
Q 2228 -1381 1444 -1381 
Q 841 -1381 425 -1109 
Q 191 -953 191 -784 
Q 191 -709 225 -634 
Q 278 -519 444 -313 
Q 466 -284 763 25 
Q 600 122 533 198 
Q 466 275 466 372 
Q 466 481 555 628 
Q 644 775 966 1044 
z
M 1509 2797 
Q 1278 2797 1122 2612 
Q 966 2428 966 2047 
Q 966 1553 1178 1281 
Q 1341 1075 1591 1075 
Q 1828 1075 1981 1253 
Q 2134 1431 2134 1813 
Q 2134 2309 1919 2591 
Q 1759 2797 1509 2797 
z
M 934 0 
Q 788 -159 713 -296 
Q 638 -434 638 -550 
Q 638 -700 819 -813 
Q 1131 -1006 1722 -1006 
Q 2284 -1006 2551 -807 
Q 2819 -609 2819 -384 
Q 2819 -222 2659 -153 
Q 2497 -84 2016 -72 
Q 1313 -53 934 0 
z
" transform="scale(0.015625)"/>
       <path id="TimesNewRomanPSMT-20" transform="scale(0.015625)"/>
       <path id="TimesNewRomanPSMT-64" d="M 2222 322 
Q 2013 103 1813 7 
Q 1613 -88 1381 -88 
Q 913 -88 563 304 
Q 213 697 213 1313 
Q 213 1928 600 2439 
Q 988 2950 1597 2950 
Q 1975 2950 2222 2709 
L 2222 3238 
Q 2222 3728 2198 3840 
Q 2175 3953 2125 3993 
Q 2075 4034 2000 4034 
Q 1919 4034 1784 3984 
L 1744 4094 
L 2597 4444 
L 2738 4444 
L 2738 1134 
Q 2738 631 2761 520 
Q 2784 409 2836 365 
Q 2888 322 2956 322 
Q 3041 322 3181 375 
L 3216 266 
L 2366 -88 
L 2222 -88 
L 2222 322 
z
M 2222 541 
L 2222 2016 
Q 2203 2228 2109 2403 
Q 2016 2578 1861 2667 
Q 1706 2756 1559 2756 
Q 1284 2756 1069 2509 
Q 784 2184 784 1559 
Q 784 928 1059 592 
Q 1334 256 1672 256 
Q 1956 256 2222 541 
z
" transform="scale(0.015625)"/>
       <path id="TimesNewRomanPSMT-74" d="M 1031 3803 
L 1031 2863 
L 1700 2863 
L 1700 2644 
L 1031 2644 
L 1031 788 
Q 1031 509 1111 412 
Q 1191 316 1316 316 
Q 1419 316 1516 380 
Q 1613 444 1666 569 
L 1788 569 
Q 1678 263 1478 108 
Q 1278 -47 1066 -47 
Q 922 -47 784 33 
Q 647 113 581 261 
Q 516 409 516 719 
L 516 2644 
L 63 2644 
L 63 2747 
Q 234 2816 414 2980 
Q 594 3144 734 3369 
Q 806 3488 934 3803 
L 1031 3803 
z
" transform="scale(0.015625)"/>
       <path id="TimesNewRomanPSMT-73" d="M 2050 2947 
L 2050 1972 
L 1947 1972 
Q 1828 2431 1642 2597 
Q 1456 2763 1169 2763 
Q 950 2763 815 2647 
Q 681 2531 681 2391 
Q 681 2216 781 2091 
Q 878 1963 1175 1819 
L 1631 1597 
Q 2266 1288 2266 781 
Q 2266 391 1970 151 
Q 1675 -88 1309 -88 
Q 1047 -88 709 6 
Q 606 38 541 38 
Q 469 38 428 -44 
L 325 -44 
L 325 978 
L 428 978 
Q 516 541 762 319 
Q 1009 97 1316 97 
Q 1531 97 1667 223 
Q 1803 350 1803 528 
Q 1803 744 1651 891 
Q 1500 1038 1047 1263 
Q 594 1488 453 1669 
Q 313 1847 313 2119 
Q 313 2472 555 2709 
Q 797 2947 1181 2947 
Q 1350 2947 1591 2875 
Q 1750 2828 1803 2828 
Q 1853 2828 1881 2850 
Q 1909 2872 1947 2947 
L 2050 2947 
z
" transform="scale(0.015625)"/>
       <path id="TimesNewRomanPSMT-65" d="M 681 1784 
Q 678 1147 991 784 
Q 1303 422 1725 422 
Q 2006 422 2214 576 
Q 2422 731 2563 1106 
L 2659 1044 
Q 2594 616 2278 264 
Q 1963 -88 1488 -88 
Q 972 -88 605 314 
Q 238 716 238 1394 
Q 238 2128 614 2539 
Q 991 2950 1559 2950 
Q 2041 2950 2350 2633 
Q 2659 2316 2659 1784 
L 681 1784 
z
M 681 1966 
L 2006 1966 
Q 1991 2241 1941 2353 
Q 1863 2528 1708 2628 
Q 1553 2728 1384 2728 
Q 1125 2728 920 2526 
Q 716 2325 681 1966 
z
" transform="scale(0.015625)"/>
       <path id="TimesNewRomanPSMT-7a" d="M 2688 878 
L 2653 0 
L 128 0 
L 128 113 
L 2028 2644 
L 1091 2644 
Q 788 2644 694 2605 
Q 600 2566 541 2456 
Q 456 2300 444 2069 
L 319 2069 
L 338 2863 
L 2738 2863 
L 2738 2747 
L 819 209 
L 1863 209 
Q 2191 209 2308 264 
Q 2425 319 2497 456 
Q 2547 556 2581 878 
L 2688 878 
z
" transform="scale(0.015625)"/>
      </defs>
      <use xlink:href="#TimesNewRomanPSMT-54"/>
      <use xlink:href="#TimesNewRomanPSMT-72" x="57.583984"/>
      <use xlink:href="#TimesNewRomanPSMT-61" x="90.884766"/>
      <use xlink:href="#TimesNewRomanPSMT-69" x="135.269531"/>
      <use xlink:href="#TimesNewRomanPSMT-6e" x="163.052734"/>
      <use xlink:href="#TimesNewRomanPSMT-69" x="213.052734"/>
      <use xlink:href="#TimesNewRomanPSMT-6e" x="240.835938"/>
      <use xlink:href="#TimesNewRomanPSMT-67" x="290.835938"/>
      <use xlink:href="#TimesNewRomanPSMT-20" x="340.835938"/>
      <use xlink:href="#TimesNewRomanPSMT-64" x="365.835938"/>
      <use xlink:href="#TimesNewRomanPSMT-61" x="415.835938"/>
      <use xlink:href="#TimesNewRomanPSMT-74" x="460.220703"/>
      <use xlink:href="#TimesNewRomanPSMT-61" x="488.003906"/>
      <use xlink:href="#TimesNewRomanPSMT-73" x="532.388672"/>
      <use xlink:href="#TimesNewRomanPSMT-65" x="571.304688"/>
      <use xlink:href="#TimesNewRomanPSMT-74" x="615.689453"/>
      <use xlink:href="#TimesNewRomanPSMT-20" x="643.472656"/>
      <use xlink:href="#TimesNewRomanPSMT-73" x="668.472656"/>
      <use xlink:href="#TimesNewRomanPSMT-69" x="707.388672"/>
      <use xlink:href="#TimesNewRomanPSMT-7a" x="735.171875"/>
      <use xlink:href="#TimesNewRomanPSMT-65" x="779.556641"/>
     </g>
    </g>
   </g>
   <g id="matplotlib.axis_2">
    <g id="ytick_1">
     <g id="line2d_27">
      <defs>
       <path id="m232bbda423" d="M 0 0 
L -3.5 0 
" style="stroke: #000000; stroke-width: 0.8"/>
      </defs>
      <g>
       <use xlink:href="#m232bbda423" x="45.942187" y="307.548125" style="stroke: #000000; stroke-width: 0.8"/>
      </g>
     </g>
     <g id="text_5">
      <!-- 1.0 -->
      <g transform="translate(23.942187 311.714375) scale(0.12 -0.12)">
       <defs>
        <path id="TimesNewRomanPSMT-2e" d="M 800 606 
Q 947 606 1047 504 
Q 1147 403 1147 259 
Q 1147 116 1045 14 
Q 944 -88 800 -88 
Q 656 -88 554 14 
Q 453 116 453 259 
Q 453 406 554 506 
Q 656 606 800 606 
z
" transform="scale(0.015625)"/>
       </defs>
       <use xlink:href="#TimesNewRomanPSMT-31"/>
       <use xlink:href="#TimesNewRomanPSMT-2e" x="50"/>
       <use xlink:href="#TimesNewRomanPSMT-30" x="75"/>
      </g>
     </g>
    </g>
    <g id="ytick_2">
     <g id="line2d_28">
      <g>
       <use xlink:href="#m232bbda423" x="45.942187" y="261.348125" style="stroke: #000000; stroke-width: 0.8"/>
      </g>
     </g>
     <g id="text_6">
      <!-- 1.5 -->
      <g transform="translate(23.942187 265.514375) scale(0.12 -0.12)">
       <defs>
        <path id="TimesNewRomanPSMT-35" d="M 2778 4238 
L 2534 3706 
L 1259 3706 
L 981 3138 
Q 1809 3016 2294 2522 
Q 2709 2097 2709 1522 
Q 2709 1188 2573 903 
Q 2438 619 2231 419 
Q 2025 219 1772 97 
Q 1413 -75 1034 -75 
Q 653 -75 479 54 
Q 306 184 306 341 
Q 306 428 378 495 
Q 450 563 559 563 
Q 641 563 702 538 
Q 763 513 909 409 
Q 1144 247 1384 247 
Q 1750 247 2026 523 
Q 2303 800 2303 1197 
Q 2303 1581 2056 1914 
Q 1809 2247 1375 2428 
Q 1034 2569 447 2591 
L 1259 4238 
L 2778 4238 
z
" transform="scale(0.015625)"/>
       </defs>
       <use xlink:href="#TimesNewRomanPSMT-31"/>
       <use xlink:href="#TimesNewRomanPSMT-2e" x="50"/>
       <use xlink:href="#TimesNewRomanPSMT-35" x="75"/>
      </g>
     </g>
    </g>
    <g id="ytick_3">
     <g id="line2d_29">
      <g>
       <use xlink:href="#m232bbda423" x="45.942187" y="215.148125" style="stroke: #000000; stroke-width: 0.8"/>
      </g>
     </g>
     <g id="text_7">
      <!-- 2.0 -->
      <g transform="translate(23.942187 219.314375) scale(0.12 -0.12)">
       <use xlink:href="#TimesNewRomanPSMT-32"/>
       <use xlink:href="#TimesNewRomanPSMT-2e" x="50"/>
       <use xlink:href="#TimesNewRomanPSMT-30" x="75"/>
      </g>
     </g>
    </g>
    <g id="ytick_4">
     <g id="line2d_30">
      <g>
       <use xlink:href="#m232bbda423" x="45.942187" y="168.948125" style="stroke: #000000; stroke-width: 0.8"/>
      </g>
     </g>
     <g id="text_8">
      <!-- 2.5 -->
      <g transform="translate(23.942187 173.114375) scale(0.12 -0.12)">
       <use xlink:href="#TimesNewRomanPSMT-32"/>
       <use xlink:href="#TimesNewRomanPSMT-2e" x="50"/>
       <use xlink:href="#TimesNewRomanPSMT-35" x="75"/>
      </g>
     </g>
    </g>
    <g id="ytick_5">
     <g id="line2d_31">
      <g>
       <use xlink:href="#m232bbda423" x="45.942187" y="122.748125" style="stroke: #000000; stroke-width: 0.8"/>
      </g>
     </g>
     <g id="text_9">
      <!-- 3.0 -->
      <g transform="translate(23.942187 126.914375) scale(0.12 -0.12)">
       <use xlink:href="#TimesNewRomanPSMT-33"/>
       <use xlink:href="#TimesNewRomanPSMT-2e" x="50"/>
       <use xlink:href="#TimesNewRomanPSMT-30" x="75"/>
      </g>
     </g>
    </g>
    <g id="ytick_6">
     <g id="line2d_32">
      <g>
       <use xlink:href="#m232bbda423" x="45.942187" y="76.548125" style="stroke: #000000; stroke-width: 0.8"/>
      </g>
     </g>
     <g id="text_10">
      <!-- 3.5 -->
      <g transform="translate(23.942187 80.714375) scale(0.12 -0.12)">
       <use xlink:href="#TimesNewRomanPSMT-33"/>
       <use xlink:href="#TimesNewRomanPSMT-2e" x="50"/>
       <use xlink:href="#TimesNewRomanPSMT-35" x="75"/>
      </g>
     </g>
    </g>
    <g id="ytick_7">
     <g id="line2d_33">
      <g>
       <use xlink:href="#m232bbda423" x="45.942187" y="30.348125" style="stroke: #000000; stroke-width: 0.8"/>
      </g>
     </g>
     <g id="text_11">
      <!-- 4.0 -->
      <g transform="translate(23.942187 34.514375) scale(0.12 -0.12)">
       <defs>
        <path id="TimesNewRomanPSMT-34" d="M 2978 1563 
L 2978 1119 
L 2409 1119 
L 2409 0 
L 1894 0 
L 1894 1119 
L 100 1119 
L 100 1519 
L 2066 4325 
L 2409 4325 
L 2409 1563 
L 2978 1563 
z
M 1894 1563 
L 1894 3666 
L 406 1563 
L 1894 1563 
z
" transform="scale(0.015625)"/>
       </defs>
       <use xlink:href="#TimesNewRomanPSMT-34"/>
       <use xlink:href="#TimesNewRomanPSMT-2e" x="50"/>
       <use xlink:href="#TimesNewRomanPSMT-30" x="75"/>
      </g>
     </g>
    </g>
    <g id="text_12">
     <!-- MAE / MAE of largest dataset -->
     <g transform="translate(16.92125 254.557031) rotate(-90) scale(0.14 -0.14)">
      <defs>
       <path id="TimesNewRomanPSMT-4d" d="M 2619 0 
L 981 3566 
L 981 734 
Q 981 344 1066 247 
Q 1181 116 1431 116 
L 1581 116 
L 1581 0 
L 106 0 
L 106 116 
L 256 116 
Q 525 116 638 278 
Q 706 378 706 734 
L 706 3503 
Q 706 3784 644 3909 
Q 600 4000 483 4061 
Q 366 4122 106 4122 
L 106 4238 
L 1306 4238 
L 2844 922 
L 4356 4238 
L 5556 4238 
L 5556 4122 
L 5409 4122 
Q 5138 4122 5025 3959 
Q 4956 3859 4956 3503 
L 4956 734 
Q 4956 344 5044 247 
Q 5159 116 5409 116 
L 5556 116 
L 5556 0 
L 3756 0 
L 3756 116 
L 3906 116 
Q 4178 116 4288 278 
Q 4356 378 4356 734 
L 4356 3566 
L 2722 0 
L 2619 0 
z
" transform="scale(0.015625)"/>
       <path id="TimesNewRomanPSMT-41" d="M 2928 1419 
L 1288 1419 
L 1000 750 
Q 894 503 894 381 
Q 894 284 986 211 
Q 1078 138 1384 116 
L 1384 0 
L 50 0 
L 50 116 
Q 316 163 394 238 
Q 553 388 747 847 
L 2238 4334 
L 2347 4334 
L 3822 809 
Q 4000 384 4145 257 
Q 4291 131 4550 116 
L 4550 0 
L 2878 0 
L 2878 116 
Q 3131 128 3220 200 
Q 3309 272 3309 375 
Q 3309 513 3184 809 
L 2928 1419 
z
M 2841 1650 
L 2122 3363 
L 1384 1650 
L 2841 1650 
z
" transform="scale(0.015625)"/>
       <path id="TimesNewRomanPSMT-45" d="M 1338 4006 
L 1338 2331 
L 2269 2331 
Q 2631 2331 2753 2441 
Q 2916 2584 2934 2947 
L 3050 2947 
L 3050 1472 
L 2934 1472 
Q 2891 1781 2847 1869 
Q 2791 1978 2662 2040 
Q 2534 2103 2269 2103 
L 1338 2103 
L 1338 706 
Q 1338 425 1363 364 
Q 1388 303 1450 267 
Q 1513 231 1688 231 
L 2406 231 
Q 2766 231 2928 281 
Q 3091 331 3241 478 
Q 3434 672 3638 1063 
L 3763 1063 
L 3397 0 
L 131 0 
L 131 116 
L 281 116 
Q 431 116 566 188 
Q 666 238 702 338 
Q 738 438 738 747 
L 738 3500 
Q 738 3903 656 3997 
Q 544 4122 281 4122 
L 131 4122 
L 131 4238 
L 3397 4238 
L 3444 3309 
L 3322 3309 
Q 3256 3644 3176 3769 
Q 3097 3894 2941 3959 
Q 2816 4006 2500 4006 
L 1338 4006 
z
" transform="scale(0.015625)"/>
       <path id="TimesNewRomanPSMT-2f" d="M 1794 4444 
L 259 -88 
L 9 -88 
L 1544 4444 
L 1794 4444 
z
" transform="scale(0.015625)"/>
       <path id="TimesNewRomanPSMT-6f" d="M 1600 2947 
Q 2250 2947 2644 2453 
Q 2978 2031 2978 1484 
Q 2978 1100 2793 706 
Q 2609 313 2286 112 
Q 1963 -88 1566 -88 
Q 919 -88 538 428 
Q 216 863 216 1403 
Q 216 1797 411 2186 
Q 606 2575 925 2761 
Q 1244 2947 1600 2947 
z
M 1503 2744 
Q 1338 2744 1170 2645 
Q 1003 2547 900 2300 
Q 797 2053 797 1666 
Q 797 1041 1045 587 
Q 1294 134 1700 134 
Q 2003 134 2200 384 
Q 2397 634 2397 1244 
Q 2397 2006 2069 2444 
Q 1847 2744 1503 2744 
z
" transform="scale(0.015625)"/>
       <path id="TimesNewRomanPSMT-66" d="M 1319 2638 
L 1319 756 
Q 1319 356 1406 250 
Q 1522 113 1716 113 
L 1975 113 
L 1975 0 
L 266 0 
L 266 113 
L 394 113 
Q 519 113 622 175 
Q 725 238 764 344 
Q 803 450 803 756 
L 803 2638 
L 247 2638 
L 247 2863 
L 803 2863 
L 803 3050 
Q 803 3478 940 3775 
Q 1078 4072 1361 4255 
Q 1644 4438 1997 4438 
Q 2325 4438 2600 4225 
Q 2781 4084 2781 3909 
Q 2781 3816 2700 3733 
Q 2619 3650 2525 3650 
Q 2453 3650 2373 3701 
Q 2294 3753 2178 3923 
Q 2063 4094 1966 4153 
Q 1869 4213 1750 4213 
Q 1606 4213 1506 4136 
Q 1406 4059 1362 3898 
Q 1319 3738 1319 3069 
L 1319 2863 
L 2056 2863 
L 2056 2638 
L 1319 2638 
z
" transform="scale(0.015625)"/>
       <path id="TimesNewRomanPSMT-6c" d="M 1184 4444 
L 1184 647 
Q 1184 378 1223 290 
Q 1263 203 1344 158 
Q 1425 113 1647 113 
L 1647 0 
L 244 0 
L 244 113 
Q 441 113 512 153 
Q 584 194 625 287 
Q 666 381 666 647 
L 666 3247 
Q 666 3731 644 3842 
Q 622 3953 573 3993 
Q 525 4034 450 4034 
Q 369 4034 244 3984 
L 191 4094 
L 1044 4444 
L 1184 4444 
z
" transform="scale(0.015625)"/>
      </defs>
      <use xlink:href="#TimesNewRomanPSMT-4d"/>
      <use xlink:href="#TimesNewRomanPSMT-41" x="88.916016"/>
      <use xlink:href="#TimesNewRomanPSMT-45" x="161.132812"/>
      <use xlink:href="#TimesNewRomanPSMT-20" x="222.216797"/>
      <use xlink:href="#TimesNewRomanPSMT-2f" x="247.216797"/>
      <use xlink:href="#TimesNewRomanPSMT-20" x="275"/>
      <use xlink:href="#TimesNewRomanPSMT-4d" x="300"/>
      <use xlink:href="#TimesNewRomanPSMT-41" x="388.916016"/>
      <use xlink:href="#TimesNewRomanPSMT-45" x="461.132812"/>
      <use xlink:href="#TimesNewRomanPSMT-20" x="522.216797"/>
      <use xlink:href="#TimesNewRomanPSMT-6f" x="547.216797"/>
      <use xlink:href="#TimesNewRomanPSMT-66" x="597.216797"/>
      <use xlink:href="#TimesNewRomanPSMT-20" x="630.517578"/>
      <use xlink:href="#TimesNewRomanPSMT-6c" x="655.517578"/>
      <use xlink:href="#TimesNewRomanPSMT-61" x="683.300781"/>
      <use xlink:href="#TimesNewRomanPSMT-72" x="727.685547"/>
      <use xlink:href="#TimesNewRomanPSMT-67" x="759.236328"/>
      <use xlink:href="#TimesNewRomanPSMT-65" x="809.236328"/>
      <use xlink:href="#TimesNewRomanPSMT-73" x="853.621094"/>
      <use xlink:href="#TimesNewRomanPSMT-74" x="892.537109"/>
      <use xlink:href="#TimesNewRomanPSMT-20" x="920.320312"/>
      <use xlink:href="#TimesNewRomanPSMT-64" x="945.320312"/>
      <use xlink:href="#TimesNewRomanPSMT-61" x="995.320312"/>
      <use xlink:href="#TimesNewRomanPSMT-74" x="1039.705078"/>
      <use xlink:href="#TimesNewRomanPSMT-61" x="1067.488281"/>
      <use xlink:href="#TimesNewRomanPSMT-73" x="1111.873047"/>
      <use xlink:href="#TimesNewRomanPSMT-65" x="1150.789062"/>
      <use xlink:href="#TimesNewRomanPSMT-74" x="1195.173828"/>
     </g>
    </g>
   </g>
   <g id="line2d_34">
    <path d="M 59.776898 109.068631 
L 162.687443 203.01502 
L 265.597987 244.115648 
L 336.471113 307.548125 
" clip-path="url(#pc5ddd1621a)" style="fill: none; stroke: #1f77b4; stroke-width: 1.5; stroke-linecap: square"/>
    <defs>
     <path id="mfaa57c0c01" d="M -3 3 
L 3 -3 
M -3 -3 
L 3 3 
" style="stroke: #1f77b4"/>
    </defs>
    <g clip-path="url(#pc5ddd1621a)">
     <use xlink:href="#mfaa57c0c01" x="59.776898" y="109.068631" style="fill: #1f77b4; stroke: #1f77b4"/>
     <use xlink:href="#mfaa57c0c01" x="162.687443" y="203.01502" style="fill: #1f77b4; stroke: #1f77b4"/>
     <use xlink:href="#mfaa57c0c01" x="265.597987" y="244.115648" style="fill: #1f77b4; stroke: #1f77b4"/>
     <use xlink:href="#mfaa57c0c01" x="336.471113" y="307.548125" style="fill: #1f77b4; stroke: #1f77b4"/>
    </g>
   </g>
   <g id="line2d_35">
    <path d="M 59.776898 10.647375 
L 162.687443 206.716405 
L 265.597987 247.924653 
L 336.471113 307.548125 
" clip-path="url(#pc5ddd1621a)" style="fill: none; stroke: #ff7f0e; stroke-width: 1.5; stroke-linecap: square"/>
    <defs>
     <path id="med459606b3" d="M -3 3 
L 3 -3 
M -3 -3 
L 3 3 
" style="stroke: #ff7f0e"/>
    </defs>
    <g clip-path="url(#pc5ddd1621a)">
     <use xlink:href="#med459606b3" x="59.776898" y="10.647375" style="fill: #ff7f0e; stroke: #ff7f0e"/>
     <use xlink:href="#med459606b3" x="162.687443" y="206.716405" style="fill: #ff7f0e; stroke: #ff7f0e"/>
     <use xlink:href="#med459606b3" x="265.597987" y="247.924653" style="fill: #ff7f0e; stroke: #ff7f0e"/>
     <use xlink:href="#med459606b3" x="336.471113" y="307.548125" style="fill: #ff7f0e; stroke: #ff7f0e"/>
    </g>
   </g>
   <g id="line2d_36">
    <path d="M 150.324497 -1 
L 162.687443 182.709681 
L 265.597987 257.749061 
L 336.471113 307.548125 
" clip-path="url(#pc5ddd1621a)" style="fill: none; stroke: #2ca02c; stroke-width: 1.5; stroke-linecap: square"/>
    <defs>
     <path id="mb63457adfd" d="M -3 3 
L 3 -3 
M -3 -3 
L 3 3 
" style="stroke: #2ca02c"/>
    </defs>
    <g clip-path="url(#pc5ddd1621a)">
     <use xlink:href="#mb63457adfd" x="150.324497" y="-1" style="fill: #2ca02c; stroke: #2ca02c"/>
     <use xlink:href="#mb63457adfd" x="162.687443" y="182.709681" style="fill: #2ca02c; stroke: #2ca02c"/>
     <use xlink:href="#mb63457adfd" x="265.597987" y="257.749061" style="fill: #2ca02c; stroke: #2ca02c"/>
     <use xlink:href="#mb63457adfd" x="336.471113" y="307.548125" style="fill: #2ca02c; stroke: #2ca02c"/>
    </g>
   </g>
   <g id="line2d_37">
    <path d="M 59.776898 271.429949 
L 162.687443 180.890277 
L 265.597987 283.862603 
L 336.471113 307.548125 
" clip-path="url(#pc5ddd1621a)" style="fill: none; stroke: #d62728; stroke-width: 1.5; stroke-linecap: square"/>
    <defs>
     <path id="m2395bdf503" d="M -3 3 
L 3 -3 
M -3 -3 
L 3 3 
" style="stroke: #d62728"/>
    </defs>
    <g clip-path="url(#pc5ddd1621a)">
     <use xlink:href="#m2395bdf503" x="59.776898" y="271.429949" style="fill: #d62728; stroke: #d62728"/>
     <use xlink:href="#m2395bdf503" x="162.687443" y="180.890277" style="fill: #d62728; stroke: #d62728"/>
     <use xlink:href="#m2395bdf503" x="265.597987" y="283.862603" style="fill: #d62728; stroke: #d62728"/>
     <use xlink:href="#m2395bdf503" x="336.471113" y="307.548125" style="fill: #d62728; stroke: #d62728"/>
    </g>
   </g>
   <g id="line2d_38">
    <path d="M 59.776898 127.142424 
L 162.687443 203.457177 
L 265.597987 263.378923 
L 336.471113 307.548125 
" clip-path="url(#pc5ddd1621a)" style="fill: none; stroke: #9467bd; stroke-width: 1.5; stroke-linecap: square"/>
    <defs>
     <path id="m5bb023f3f6" d="M -3 3 
L 3 -3 
M -3 -3 
L 3 3 
" style="stroke: #9467bd"/>
    </defs>
    <g clip-path="url(#pc5ddd1621a)">
     <use xlink:href="#m5bb023f3f6" x="59.776898" y="127.142424" style="fill: #9467bd; stroke: #9467bd"/>
     <use xlink:href="#m5bb023f3f6" x="162.687443" y="203.457177" style="fill: #9467bd; stroke: #9467bd"/>
     <use xlink:href="#m5bb023f3f6" x="265.597987" y="263.378923" style="fill: #9467bd; stroke: #9467bd"/>
     <use xlink:href="#m5bb023f3f6" x="336.471113" y="307.548125" style="fill: #9467bd; stroke: #9467bd"/>
    </g>
   </g>
   <g id="line2d_39">
    <path d="M 59.776898 201.626749 
L 162.687443 245.99646 
L 265.597987 269.10723 
L 336.471113 307.548125 
" clip-path="url(#pc5ddd1621a)" style="fill: none; stroke: #8c564b; stroke-width: 1.5; stroke-linecap: square"/>
    <defs>
     <path id="m0ec51a231a" d="M -3 3 
L 3 -3 
M -3 -3 
L 3 3 
" style="stroke: #8c564b"/>
    </defs>
    <g clip-path="url(#pc5ddd1621a)">
     <use xlink:href="#m0ec51a231a" x="59.776898" y="201.626749" style="fill: #8c564b; stroke: #8c564b"/>
     <use xlink:href="#m0ec51a231a" x="162.687443" y="245.99646" style="fill: #8c564b; stroke: #8c564b"/>
     <use xlink:href="#m0ec51a231a" x="265.597987" y="269.10723" style="fill: #8c564b; stroke: #8c564b"/>
     <use xlink:href="#m0ec51a231a" x="336.471113" y="307.548125" style="fill: #8c564b; stroke: #8c564b"/>
    </g>
   </g>
   <g id="line2d_40">
    <path d="M 59.776898 284.197205 
L 162.687443 287.347266 
L 265.597987 291.781155 
L 336.471113 307.548125 
" clip-path="url(#pc5ddd1621a)" style="fill: none; stroke: #e377c2; stroke-width: 1.5; stroke-linecap: square"/>
    <defs>
     <path id="m38dcee4a18" d="M -3 3 
L 3 -3 
M -3 -3 
L 3 3 
" style="stroke: #e377c2"/>
    </defs>
    <g clip-path="url(#pc5ddd1621a)">
     <use xlink:href="#m38dcee4a18" x="59.776898" y="284.197205" style="fill: #e377c2; stroke: #e377c2"/>
     <use xlink:href="#m38dcee4a18" x="162.687443" y="287.347266" style="fill: #e377c2; stroke: #e377c2"/>
     <use xlink:href="#m38dcee4a18" x="265.597987" y="291.781155" style="fill: #e377c2; stroke: #e377c2"/>
     <use xlink:href="#m38dcee4a18" x="336.471113" y="307.548125" style="fill: #e377c2; stroke: #e377c2"/>
    </g>
   </g>
   <g id="patch_3">
    <path d="M 45.942187 307.548125 
L 45.942187 30.348125 
" style="fill: none; stroke: #000000; stroke-width: 0.8; stroke-linejoin: miter; stroke-linecap: square"/>
   </g>
   <g id="patch_4">
    <path d="M 350.305824 307.548125 
L 350.305824 30.348125 
" style="fill: none; stroke: #000000; stroke-width: 0.8; stroke-linejoin: miter; stroke-linecap: square"/>
   </g>
   <g id="patch_5">
    <path d="M 45.942187 307.548125 
L 350.305824 307.548125 
" style="fill: none; stroke: #000000; stroke-width: 0.8; stroke-linejoin: miter; stroke-linecap: square"/>
   </g>
   <g id="patch_6">
    <path d="M 45.942187 30.348125 
L 350.305824 30.348125 
" style="fill: none; stroke: #000000; stroke-width: 0.8; stroke-linejoin: miter; stroke-linecap: square"/>
   </g>
   <g id="text_13">
    <!-- a) -->
    <g transform="translate(15.505824 16.488125) scale(0.14 -0.14)">
     <defs>
      <path id="TimesNewRomanPS-BoldMT-61" d="M 1828 431 
Q 1294 -41 869 -41 
Q 619 -41 453 123 
Q 288 288 288 534 
Q 288 869 575 1136 
Q 863 1403 1828 1847 
L 1828 2141 
Q 1828 2472 1792 2558 
Q 1756 2644 1656 2708 
Q 1556 2772 1431 2772 
Q 1228 2772 1097 2681 
Q 1016 2625 1016 2550 
Q 1016 2484 1103 2388 
Q 1222 2253 1222 2128 
Q 1222 1975 1108 1867 
Q 994 1759 809 1759 
Q 613 1759 480 1878 
Q 347 1997 347 2156 
Q 347 2381 525 2586 
Q 703 2791 1022 2900 
Q 1341 3009 1684 3009 
Q 2100 3009 2342 2832 
Q 2584 2656 2656 2450 
Q 2700 2319 2700 1847 
L 2700 713 
Q 2700 513 2715 461 
Q 2731 409 2762 384 
Q 2794 359 2834 359 
Q 2916 359 3000 475 
L 3094 400 
Q 2938 169 2770 64 
Q 2603 -41 2391 -41 
Q 2141 -41 2000 76 
Q 1859 194 1828 431 
z
M 1828 659 
L 1828 1638 
Q 1450 1416 1266 1163 
Q 1144 994 1144 822 
Q 1144 678 1247 569 
Q 1325 484 1466 484 
Q 1622 484 1828 659 
z
" transform="scale(0.015625)"/>
      <path id="TimesNewRomanPS-BoldMT-29" d="M 78 -1281 
L 78 -1138 
Q 403 -922 556 -719 
Q 766 -438 888 0 
Q 1038 550 1038 1531 
Q 1038 2456 902 2967 
Q 766 3478 531 3794 
Q 369 4013 78 4178 
L 78 4334 
Q 831 4081 1354 3301 
Q 1878 2522 1878 1509 
Q 1878 513 1354 -257 
Q 831 -1028 78 -1281 
z
" transform="scale(0.015625)"/>
     </defs>
     <use xlink:href="#TimesNewRomanPS-BoldMT-61"/>
     <use xlink:href="#TimesNewRomanPS-BoldMT-29" x="50"/>
    </g>
   </g>
  </g>
  <g id="axes_2">
   <g id="patch_7">
    <path d="M 411.178551 307.548125 
L 715.542187 307.548125 
L 715.542187 30.348125 
L 411.178551 30.348125 
z
" style="fill: #ffffff"/>
   </g>
   <g id="matplotlib.axis_3">
    <g id="xtick_27">
     <g id="line2d_41">
      <g>
       <use xlink:href="#mcca279ec3f" x="425.013262" y="307.548125" style="stroke: #000000; stroke-width: 0.8"/>
      </g>
     </g>
     <g id="text_14">
      <!-- $\mathdefault{10^{1}}$ -->
      <g transform="translate(416.553262 325.18125) scale(0.12 -0.12)">
       <use xlink:href="#TimesNewRomanPSMT-31" transform="translate(0 0.582813)"/>
       <use xlink:href="#TimesNewRomanPSMT-30" transform="translate(50 0.582813)"/>
       <use xlink:href="#TimesNewRomanPSMT-31" transform="translate(101.502813 60.695312) scale(0.7)"/>
      </g>
     </g>
    </g>
    <g id="xtick_28">
     <g id="line2d_42">
      <g>
       <use xlink:href="#mcca279ec3f" x="527.923806" y="307.548125" style="stroke: #000000; stroke-width: 0.8"/>
      </g>
     </g>
     <g id="text_15">
      <!-- $\mathdefault{10^{2}}$ -->
      <g transform="translate(519.463806 325.18125) scale(0.12 -0.12)">
       <use xlink:href="#TimesNewRomanPSMT-31" transform="translate(0 0.582813)"/>
       <use xlink:href="#TimesNewRomanPSMT-30" transform="translate(50 0.582813)"/>
       <use xlink:href="#TimesNewRomanPSMT-32" transform="translate(101.502813 60.695312) scale(0.7)"/>
      </g>
     </g>
    </g>
    <g id="xtick_29">
     <g id="line2d_43">
      <g>
       <use xlink:href="#mcca279ec3f" x="630.834351" y="307.548125" style="stroke: #000000; stroke-width: 0.8"/>
      </g>
     </g>
     <g id="text_16">
      <!-- $\mathdefault{10^{3}}$ -->
      <g transform="translate(622.374351 325.18125) scale(0.12 -0.12)">
       <use xlink:href="#TimesNewRomanPSMT-31" transform="translate(0 0.582813)"/>
       <use xlink:href="#TimesNewRomanPSMT-30" transform="translate(50 0.582813)"/>
       <use xlink:href="#TimesNewRomanPSMT-33" transform="translate(101.502813 60.695312) scale(0.7)"/>
      </g>
     </g>
    </g>
    <g id="xtick_30">
     <g id="line2d_44">
      <g>
       <use xlink:href="#m9fd50385b2" x="415.0402" y="307.548125" style="stroke: #000000; stroke-width: 0.6"/>
      </g>
     </g>
    </g>
    <g id="xtick_31">
     <g id="line2d_45">
      <g>
       <use xlink:href="#m9fd50385b2" x="420.304334" y="307.548125" style="stroke: #000000; stroke-width: 0.6"/>
      </g>
     </g>
    </g>
    <g id="xtick_32">
     <g id="line2d_46">
      <g>
       <use xlink:href="#m9fd50385b2" x="455.992423" y="307.548125" style="stroke: #000000; stroke-width: 0.6"/>
      </g>
     </g>
    </g>
    <g id="xtick_33">
     <g id="line2d_47">
      <g>
       <use xlink:href="#m9fd50385b2" x="474.11407" y="307.548125" style="stroke: #000000; stroke-width: 0.6"/>
      </g>
     </g>
    </g>
    <g id="xtick_34">
     <g id="line2d_48">
      <g>
       <use xlink:href="#m9fd50385b2" x="486.971583" y="307.548125" style="stroke: #000000; stroke-width: 0.6"/>
      </g>
     </g>
    </g>
    <g id="xtick_35">
     <g id="line2d_49">
      <g>
       <use xlink:href="#m9fd50385b2" x="496.944646" y="307.548125" style="stroke: #000000; stroke-width: 0.6"/>
      </g>
     </g>
    </g>
    <g id="xtick_36">
     <g id="line2d_50">
      <g>
       <use xlink:href="#m9fd50385b2" x="505.093231" y="307.548125" style="stroke: #000000; stroke-width: 0.6"/>
      </g>
     </g>
    </g>
    <g id="xtick_37">
     <g id="line2d_51">
      <g>
       <use xlink:href="#m9fd50385b2" x="511.982761" y="307.548125" style="stroke: #000000; stroke-width: 0.6"/>
      </g>
     </g>
    </g>
    <g id="xtick_38">
     <g id="line2d_52">
      <g>
       <use xlink:href="#m9fd50385b2" x="517.950744" y="307.548125" style="stroke: #000000; stroke-width: 0.6"/>
      </g>
     </g>
    </g>
    <g id="xtick_39">
     <g id="line2d_53">
      <g>
       <use xlink:href="#m9fd50385b2" x="523.214878" y="307.548125" style="stroke: #000000; stroke-width: 0.6"/>
      </g>
     </g>
    </g>
    <g id="xtick_40">
     <g id="line2d_54">
      <g>
       <use xlink:href="#m9fd50385b2" x="558.902967" y="307.548125" style="stroke: #000000; stroke-width: 0.6"/>
      </g>
     </g>
    </g>
    <g id="xtick_41">
     <g id="line2d_55">
      <g>
       <use xlink:href="#m9fd50385b2" x="577.024615" y="307.548125" style="stroke: #000000; stroke-width: 0.6"/>
      </g>
     </g>
    </g>
    <g id="xtick_42">
     <g id="line2d_56">
      <g>
       <use xlink:href="#m9fd50385b2" x="589.882128" y="307.548125" style="stroke: #000000; stroke-width: 0.6"/>
      </g>
     </g>
    </g>
    <g id="xtick_43">
     <g id="line2d_57">
      <g>
       <use xlink:href="#m9fd50385b2" x="599.85519" y="307.548125" style="stroke: #000000; stroke-width: 0.6"/>
      </g>
     </g>
    </g>
    <g id="xtick_44">
     <g id="line2d_58">
      <g>
       <use xlink:href="#m9fd50385b2" x="608.003775" y="307.548125" style="stroke: #000000; stroke-width: 0.6"/>
      </g>
     </g>
    </g>
    <g id="xtick_45">
     <g id="line2d_59">
      <g>
       <use xlink:href="#m9fd50385b2" x="614.893306" y="307.548125" style="stroke: #000000; stroke-width: 0.6"/>
      </g>
     </g>
    </g>
    <g id="xtick_46">
     <g id="line2d_60">
      <g>
       <use xlink:href="#m9fd50385b2" x="620.861289" y="307.548125" style="stroke: #000000; stroke-width: 0.6"/>
      </g>
     </g>
    </g>
    <g id="xtick_47">
     <g id="line2d_61">
      <g>
       <use xlink:href="#m9fd50385b2" x="626.125423" y="307.548125" style="stroke: #000000; stroke-width: 0.6"/>
      </g>
     </g>
    </g>
    <g id="xtick_48">
     <g id="line2d_62">
      <g>
       <use xlink:href="#m9fd50385b2" x="661.813512" y="307.548125" style="stroke: #000000; stroke-width: 0.6"/>
      </g>
     </g>
    </g>
    <g id="xtick_49">
     <g id="line2d_63">
      <g>
       <use xlink:href="#m9fd50385b2" x="679.935159" y="307.548125" style="stroke: #000000; stroke-width: 0.6"/>
      </g>
     </g>
    </g>
    <g id="xtick_50">
     <g id="line2d_64">
      <g>
       <use xlink:href="#m9fd50385b2" x="692.792672" y="307.548125" style="stroke: #000000; stroke-width: 0.6"/>
      </g>
     </g>
    </g>
    <g id="xtick_51">
     <g id="line2d_65">
      <g>
       <use xlink:href="#m9fd50385b2" x="702.765735" y="307.548125" style="stroke: #000000; stroke-width: 0.6"/>
      </g>
     </g>
    </g>
    <g id="xtick_52">
     <g id="line2d_66">
      <g>
       <use xlink:href="#m9fd50385b2" x="710.91432" y="307.548125" style="stroke: #000000; stroke-width: 0.6"/>
      </g>
     </g>
    </g>
    <g id="text_17">
     <!-- Training dataset size -->
     <g transform="translate(505.682557 341.469375) scale(0.14 -0.14)">
      <use xlink:href="#TimesNewRomanPSMT-54"/>
      <use xlink:href="#TimesNewRomanPSMT-72" x="57.583984"/>
      <use xlink:href="#TimesNewRomanPSMT-61" x="90.884766"/>
      <use xlink:href="#TimesNewRomanPSMT-69" x="135.269531"/>
      <use xlink:href="#TimesNewRomanPSMT-6e" x="163.052734"/>
      <use xlink:href="#TimesNewRomanPSMT-69" x="213.052734"/>
      <use xlink:href="#TimesNewRomanPSMT-6e" x="240.835938"/>
      <use xlink:href="#TimesNewRomanPSMT-67" x="290.835938"/>
      <use xlink:href="#TimesNewRomanPSMT-20" x="340.835938"/>
      <use xlink:href="#TimesNewRomanPSMT-64" x="365.835938"/>
      <use xlink:href="#TimesNewRomanPSMT-61" x="415.835938"/>
      <use xlink:href="#TimesNewRomanPSMT-74" x="460.220703"/>
      <use xlink:href="#TimesNewRomanPSMT-61" x="488.003906"/>
      <use xlink:href="#TimesNewRomanPSMT-73" x="532.388672"/>
      <use xlink:href="#TimesNewRomanPSMT-65" x="571.304688"/>
      <use xlink:href="#TimesNewRomanPSMT-74" x="615.689453"/>
      <use xlink:href="#TimesNewRomanPSMT-20" x="643.472656"/>
      <use xlink:href="#TimesNewRomanPSMT-73" x="668.472656"/>
      <use xlink:href="#TimesNewRomanPSMT-69" x="707.388672"/>
      <use xlink:href="#TimesNewRomanPSMT-7a" x="735.171875"/>
      <use xlink:href="#TimesNewRomanPSMT-65" x="779.556641"/>
     </g>
    </g>
   </g>
   <g id="matplotlib.axis_4">
    <g id="ytick_8">
     <g id="line2d_67">
      <g>
       <use xlink:href="#m232bbda423" x="411.178551" y="272.971057" style="stroke: #000000; stroke-width: 0.8"/>
      </g>
     </g>
     <g id="text_18">
      <!-- 2 -->
      <g transform="translate(398.178551 277.137307) scale(0.12 -0.12)">
       <use xlink:href="#TimesNewRomanPSMT-32"/>
      </g>
     </g>
    </g>
    <g id="ytick_9">
     <g id="line2d_68">
      <g>
       <use xlink:href="#m232bbda423" x="411.178551" y="233.053363" style="stroke: #000000; stroke-width: 0.8"/>
      </g>
     </g>
     <g id="text_19">
      <!-- 4 -->
      <g transform="translate(398.178551 237.219613) scale(0.12 -0.12)">
       <use xlink:href="#TimesNewRomanPSMT-34"/>
      </g>
     </g>
    </g>
    <g id="ytick_10">
     <g id="line2d_69">
      <g>
       <use xlink:href="#m232bbda423" x="411.178551" y="193.135669" style="stroke: #000000; stroke-width: 0.8"/>
      </g>
     </g>
     <g id="text_20">
      <!-- 6 -->
      <g transform="translate(398.178551 197.301919) scale(0.12 -0.12)">
       <defs>
        <path id="TimesNewRomanPSMT-36" d="M 2869 4325 
L 2869 4209 
Q 2456 4169 2195 4045 
Q 1934 3922 1679 3669 
Q 1425 3416 1258 3105 
Q 1091 2794 978 2366 
Q 1428 2675 1881 2675 
Q 2316 2675 2634 2325 
Q 2953 1975 2953 1425 
Q 2953 894 2631 456 
Q 2244 -75 1606 -75 
Q 1172 -75 869 213 
Q 275 772 275 1663 
Q 275 2231 503 2743 
Q 731 3256 1154 3653 
Q 1578 4050 1965 4187 
Q 2353 4325 2688 4325 
L 2869 4325 
z
M 925 2138 
Q 869 1716 869 1456 
Q 869 1156 980 804 
Q 1091 453 1309 247 
Q 1469 100 1697 100 
Q 1969 100 2183 356 
Q 2397 613 2397 1088 
Q 2397 1622 2184 2012 
Q 1972 2403 1581 2403 
Q 1463 2403 1327 2353 
Q 1191 2303 925 2138 
z
" transform="scale(0.015625)"/>
       </defs>
       <use xlink:href="#TimesNewRomanPSMT-36"/>
      </g>
     </g>
    </g>
    <g id="ytick_11">
     <g id="line2d_70">
      <g>
       <use xlink:href="#m232bbda423" x="411.178551" y="153.217975" style="stroke: #000000; stroke-width: 0.8"/>
      </g>
     </g>
     <g id="text_21">
      <!-- 8 -->
      <g transform="translate(398.178551 157.384225) scale(0.12 -0.12)">
       <defs>
        <path id="TimesNewRomanPSMT-38" d="M 1228 2134 
Q 725 2547 579 2797 
Q 434 3047 434 3316 
Q 434 3728 753 4026 
Q 1072 4325 1600 4325 
Q 2113 4325 2425 4047 
Q 2738 3769 2738 3413 
Q 2738 3175 2569 2928 
Q 2400 2681 1866 2347 
Q 2416 1922 2594 1678 
Q 2831 1359 2831 1006 
Q 2831 559 2490 242 
Q 2150 -75 1597 -75 
Q 994 -75 656 303 
Q 388 606 388 966 
Q 388 1247 577 1523 
Q 766 1800 1228 2134 
z
M 1719 2469 
Q 2094 2806 2194 3001 
Q 2294 3197 2294 3444 
Q 2294 3772 2109 3958 
Q 1925 4144 1606 4144 
Q 1288 4144 1088 3959 
Q 888 3775 888 3528 
Q 888 3366 970 3203 
Q 1053 3041 1206 2894 
L 1719 2469 
z
M 1375 2016 
Q 1116 1797 991 1539 
Q 866 1281 866 981 
Q 866 578 1086 336 
Q 1306 94 1647 94 
Q 1984 94 2187 284 
Q 2391 475 2391 747 
Q 2391 972 2272 1150 
Q 2050 1481 1375 2016 
z
" transform="scale(0.015625)"/>
       </defs>
       <use xlink:href="#TimesNewRomanPSMT-38"/>
      </g>
     </g>
    </g>
    <g id="ytick_12">
     <g id="line2d_71">
      <g>
       <use xlink:href="#m232bbda423" x="411.178551" y="113.300281" style="stroke: #000000; stroke-width: 0.8"/>
      </g>
     </g>
     <g id="text_22">
      <!-- 10 -->
      <g transform="translate(392.178551 117.466531) scale(0.12 -0.12)">
       <use xlink:href="#TimesNewRomanPSMT-31"/>
       <use xlink:href="#TimesNewRomanPSMT-30" x="50"/>
      </g>
     </g>
    </g>
    <g id="ytick_13">
     <g id="line2d_72">
      <g>
       <use xlink:href="#m232bbda423" x="411.178551" y="73.382587" style="stroke: #000000; stroke-width: 0.8"/>
      </g>
     </g>
     <g id="text_23">
      <!-- 12 -->
      <g transform="translate(392.178551 77.548837) scale(0.12 -0.12)">
       <use xlink:href="#TimesNewRomanPSMT-31"/>
       <use xlink:href="#TimesNewRomanPSMT-32" x="50"/>
      </g>
     </g>
    </g>
    <g id="ytick_14">
     <g id="line2d_73">
      <g>
       <use xlink:href="#m232bbda423" x="411.178551" y="33.464893" style="stroke: #000000; stroke-width: 0.8"/>
      </g>
     </g>
     <g id="text_24">
      <!-- 14 -->
      <g transform="translate(392.178551 37.631143) scale(0.12 -0.12)">
       <use xlink:href="#TimesNewRomanPSMT-31"/>
       <use xlink:href="#TimesNewRomanPSMT-34" x="50"/>
      </g>
     </g>
    </g>
    <g id="text_25">
     <!-- MAE in resultant SLME / pp -->
     <g transform="translate(385.183864 250.415) rotate(-90) scale(0.14 -0.14)">
      <defs>
       <path id="TimesNewRomanPSMT-75" d="M 2709 2863 
L 2709 1128 
Q 2709 631 2732 520 
Q 2756 409 2807 365 
Q 2859 322 2928 322 
Q 3025 322 3147 375 
L 3191 266 
L 2334 -88 
L 2194 -88 
L 2194 519 
Q 1825 119 1631 15 
Q 1438 -88 1222 -88 
Q 981 -88 804 51 
Q 628 191 559 409 
Q 491 628 491 1028 
L 491 2306 
Q 491 2509 447 2587 
Q 403 2666 317 2708 
Q 231 2750 6 2747 
L 6 2863 
L 1009 2863 
L 1009 947 
Q 1009 547 1148 422 
Q 1288 297 1484 297 
Q 1619 297 1789 381 
Q 1959 466 2194 703 
L 2194 2325 
Q 2194 2569 2105 2655 
Q 2016 2741 1734 2747 
L 1734 2863 
L 2709 2863 
z
" transform="scale(0.015625)"/>
       <path id="TimesNewRomanPSMT-53" d="M 2934 4334 
L 2934 2869 
L 2819 2869 
Q 2763 3291 2617 3541 
Q 2472 3791 2203 3937 
Q 1934 4084 1647 4084 
Q 1322 4084 1109 3886 
Q 897 3688 897 3434 
Q 897 3241 1031 3081 
Q 1225 2847 1953 2456 
Q 2547 2138 2764 1967 
Q 2981 1797 3098 1565 
Q 3216 1334 3216 1081 
Q 3216 600 2842 251 
Q 2469 -97 1881 -97 
Q 1697 -97 1534 -69 
Q 1438 -53 1133 45 
Q 828 144 747 144 
Q 669 144 623 97 
Q 578 50 556 -97 
L 441 -97 
L 441 1356 
L 556 1356 
Q 638 900 775 673 
Q 913 447 1195 297 
Q 1478 147 1816 147 
Q 2206 147 2432 353 
Q 2659 559 2659 841 
Q 2659 997 2573 1156 
Q 2488 1316 2306 1453 
Q 2184 1547 1640 1851 
Q 1097 2156 867 2337 
Q 638 2519 519 2737 
Q 400 2956 400 3219 
Q 400 3675 750 4004 
Q 1100 4334 1641 4334 
Q 1978 4334 2356 4169 
Q 2531 4091 2603 4091 
Q 2684 4091 2736 4139 
Q 2788 4188 2819 4334 
L 2934 4334 
z
" transform="scale(0.015625)"/>
       <path id="TimesNewRomanPSMT-4c" d="M 3669 1172 
L 3772 1150 
L 3409 0 
L 128 0 
L 128 116 
L 288 116 
Q 556 116 672 291 
Q 738 391 738 753 
L 738 3488 
Q 738 3884 650 3984 
Q 528 4122 288 4122 
L 128 4122 
L 128 4238 
L 2047 4238 
L 2047 4122 
Q 1709 4125 1573 4059 
Q 1438 3994 1388 3894 
Q 1338 3794 1338 3416 
L 1338 753 
Q 1338 494 1388 397 
Q 1425 331 1503 300 
Q 1581 269 1991 269 
L 2300 269 
Q 2788 269 2984 341 
Q 3181 413 3343 595 
Q 3506 778 3669 1172 
z
" transform="scale(0.015625)"/>
       <path id="TimesNewRomanPSMT-70" d="M -6 2578 
L 875 2934 
L 994 2934 
L 994 2266 
Q 1216 2644 1439 2795 
Q 1663 2947 1909 2947 
Q 2341 2947 2628 2609 
Q 2981 2197 2981 1534 
Q 2981 794 2556 309 
Q 2206 -88 1675 -88 
Q 1444 -88 1275 -22 
Q 1150 25 994 166 
L 994 -706 
Q 994 -1000 1030 -1079 
Q 1066 -1159 1155 -1206 
Q 1244 -1253 1478 -1253 
L 1478 -1369 
L -22 -1369 
L -22 -1253 
L 56 -1253 
Q 228 -1256 350 -1188 
Q 409 -1153 442 -1076 
Q 475 -1000 475 -688 
L 475 2019 
Q 475 2297 450 2372 
Q 425 2447 370 2484 
Q 316 2522 222 2522 
Q 147 2522 31 2478 
L -6 2578 
z
M 994 2081 
L 994 1013 
Q 994 666 1022 556 
Q 1066 375 1236 237 
Q 1406 100 1666 100 
Q 1978 100 2172 344 
Q 2425 663 2425 1241 
Q 2425 1897 2138 2250 
Q 1938 2494 1663 2494 
Q 1513 2494 1366 2419 
Q 1253 2363 994 2081 
z
" transform="scale(0.015625)"/>
      </defs>
      <use xlink:href="#TimesNewRomanPSMT-4d"/>
      <use xlink:href="#TimesNewRomanPSMT-41" x="88.916016"/>
      <use xlink:href="#TimesNewRomanPSMT-45" x="161.132812"/>
      <use xlink:href="#TimesNewRomanPSMT-20" x="222.216797"/>
      <use xlink:href="#TimesNewRomanPSMT-69" x="247.216797"/>
      <use xlink:href="#TimesNewRomanPSMT-6e" x="275"/>
      <use xlink:href="#TimesNewRomanPSMT-20" x="325"/>
      <use xlink:href="#TimesNewRomanPSMT-72" x="350"/>
      <use xlink:href="#TimesNewRomanPSMT-65" x="383.300781"/>
      <use xlink:href="#TimesNewRomanPSMT-73" x="427.685547"/>
      <use xlink:href="#TimesNewRomanPSMT-75" x="466.601562"/>
      <use xlink:href="#TimesNewRomanPSMT-6c" x="516.601562"/>
      <use xlink:href="#TimesNewRomanPSMT-74" x="544.384766"/>
      <use xlink:href="#TimesNewRomanPSMT-61" x="572.167969"/>
      <use xlink:href="#TimesNewRomanPSMT-6e" x="616.552734"/>
      <use xlink:href="#TimesNewRomanPSMT-74" x="666.552734"/>
      <use xlink:href="#TimesNewRomanPSMT-20" x="694.335938"/>
      <use xlink:href="#TimesNewRomanPSMT-53" x="719.335938"/>
      <use xlink:href="#TimesNewRomanPSMT-4c" x="774.951172"/>
      <use xlink:href="#TimesNewRomanPSMT-4d" x="836.035156"/>
      <use xlink:href="#TimesNewRomanPSMT-45" x="924.951172"/>
      <use xlink:href="#TimesNewRomanPSMT-20" x="986.035156"/>
      <use xlink:href="#TimesNewRomanPSMT-2f" x="1011.035156"/>
      <use xlink:href="#TimesNewRomanPSMT-20" x="1038.818359"/>
      <use xlink:href="#TimesNewRomanPSMT-70" x="1063.818359"/>
      <use xlink:href="#TimesNewRomanPSMT-70" x="1113.818359"/>
     </g>
    </g>
   </g>
   <g id="line2d_74">
    <path d="M 425.013262 133.317536 
L 527.923806 182.504477 
L 630.834351 207.779368 
L 701.707477 235.579792 
" clip-path="url(#p222508a3d9)" style="fill: none; stroke: #1f77b4; stroke-width: 1.5; stroke-linecap: square"/>
    <g clip-path="url(#p222508a3d9)">
     <use xlink:href="#mfaa57c0c01" x="425.013262" y="133.317536" style="fill: #1f77b4; stroke: #1f77b4"/>
     <use xlink:href="#mfaa57c0c01" x="527.923806" y="182.504477" style="fill: #1f77b4; stroke: #1f77b4"/>
     <use xlink:href="#mfaa57c0c01" x="630.834351" y="207.779368" style="fill: #1f77b4; stroke: #1f77b4"/>
     <use xlink:href="#mfaa57c0c01" x="701.707477" y="235.579792" style="fill: #1f77b4; stroke: #1f77b4"/>
    </g>
   </g>
   <g id="line2d_75">
    <path d="M 425.013262 42.948125 
L 527.923806 178.902131 
L 630.834351 207.475876 
L 701.707477 248.818712 
" clip-path="url(#p222508a3d9)" style="fill: none; stroke: #ff7f0e; stroke-width: 1.5; stroke-linecap: square"/>
    <g clip-path="url(#p222508a3d9)">
     <use xlink:href="#med459606b3" x="425.013262" y="42.948125" style="fill: #ff7f0e; stroke: #ff7f0e"/>
     <use xlink:href="#med459606b3" x="527.923806" y="178.902131" style="fill: #ff7f0e; stroke: #ff7f0e"/>
     <use xlink:href="#med459606b3" x="630.834351" y="207.475876" style="fill: #ff7f0e; stroke: #ff7f0e"/>
     <use xlink:href="#med459606b3" x="701.707477" y="248.818712" style="fill: #ff7f0e; stroke: #ff7f0e"/>
    </g>
   </g>
   <g id="line2d_76">
    <path d="M 425.013262 156.256893 
L 527.923806 173.324593 
L 630.834351 187.102283 
L 701.707477 192.098947 
" clip-path="url(#p222508a3d9)" style="fill: none; stroke: #2ca02c; stroke-width: 1.5; stroke-linecap: square"/>
    <g clip-path="url(#p222508a3d9)">
     <use xlink:href="#mb63457adfd" x="425.013262" y="156.256893" style="fill: #2ca02c; stroke: #2ca02c"/>
     <use xlink:href="#mb63457adfd" x="527.923806" y="173.324593" style="fill: #2ca02c; stroke: #2ca02c"/>
     <use xlink:href="#mb63457adfd" x="630.834351" y="187.102283" style="fill: #2ca02c; stroke: #2ca02c"/>
     <use xlink:href="#mb63457adfd" x="701.707477" y="192.098947" style="fill: #2ca02c; stroke: #2ca02c"/>
    </g>
   </g>
   <g id="line2d_77">
    <path d="M 425.013262 169.101358 
L 527.923806 174.108894 
L 630.834351 182.172124 
L 701.707477 196.070195 
" clip-path="url(#p222508a3d9)" style="fill: none; stroke: #d62728; stroke-width: 1.5; stroke-linecap: square"/>
    <g clip-path="url(#p222508a3d9)">
     <use xlink:href="#m2395bdf503" x="425.013262" y="169.101358" style="fill: #d62728; stroke: #d62728"/>
     <use xlink:href="#m2395bdf503" x="527.923806" y="174.108894" style="fill: #d62728; stroke: #d62728"/>
     <use xlink:href="#m2395bdf503" x="630.834351" y="182.172124" style="fill: #d62728; stroke: #d62728"/>
     <use xlink:href="#m2395bdf503" x="701.707477" y="196.070195" style="fill: #d62728; stroke: #d62728"/>
    </g>
   </g>
   <g id="line2d_78">
    <path d="M 425.013262 262.767815 
L 527.923806 275.872154 
L 630.834351 287.188343 
L 701.707477 294.948125 
" clip-path="url(#p222508a3d9)" style="fill: none; stroke: #9467bd; stroke-width: 1.5; stroke-linecap: square"/>
    <g clip-path="url(#p222508a3d9)">
     <use xlink:href="#m5bb023f3f6" x="425.013262" y="262.767815" style="fill: #9467bd; stroke: #9467bd"/>
     <use xlink:href="#m5bb023f3f6" x="527.923806" y="275.872154" style="fill: #9467bd; stroke: #9467bd"/>
     <use xlink:href="#m5bb023f3f6" x="630.834351" y="287.188343" style="fill: #9467bd; stroke: #9467bd"/>
     <use xlink:href="#m5bb023f3f6" x="701.707477" y="294.948125" style="fill: #9467bd; stroke: #9467bd"/>
    </g>
   </g>
   <g id="line2d_79">
    <path d="M 425.013262 261.830006 
L 527.923806 276.227797 
L 630.834351 282.912723 
L 701.707477 293.696417 
" clip-path="url(#p222508a3d9)" style="fill: none; stroke: #8c564b; stroke-width: 1.5; stroke-linecap: square"/>
    <g clip-path="url(#p222508a3d9)">
     <use xlink:href="#m0ec51a231a" x="425.013262" y="261.830006" style="fill: #8c564b; stroke: #8c564b"/>
     <use xlink:href="#m0ec51a231a" x="527.923806" y="276.227797" style="fill: #8c564b; stroke: #8c564b"/>
     <use xlink:href="#m0ec51a231a" x="630.834351" y="282.912723" style="fill: #8c564b; stroke: #8c564b"/>
     <use xlink:href="#m0ec51a231a" x="701.707477" y="293.696417" style="fill: #8c564b; stroke: #8c564b"/>
    </g>
   </g>
   <g id="line2d_80">
    <path d="M 425.013262 162.892437 
L 527.923806 166.974457 
L 630.834351 172.72013 
L 701.707477 193.151824 
" clip-path="url(#p222508a3d9)" style="fill: none; stroke: #e377c2; stroke-width: 1.5; stroke-linecap: square"/>
    <g clip-path="url(#p222508a3d9)">
     <use xlink:href="#m38dcee4a18" x="425.013262" y="162.892437" style="fill: #e377c2; stroke: #e377c2"/>
     <use xlink:href="#m38dcee4a18" x="527.923806" y="166.974457" style="fill: #e377c2; stroke: #e377c2"/>
     <use xlink:href="#m38dcee4a18" x="630.834351" y="172.72013" style="fill: #e377c2; stroke: #e377c2"/>
     <use xlink:href="#m38dcee4a18" x="701.707477" y="193.151824" style="fill: #e377c2; stroke: #e377c2"/>
    </g>
   </g>
   <g id="line2d_81">
    <path d="M 411.178551 281.546128 
L 715.542187 281.546128 
" clip-path="url(#p222508a3d9)" style="fill: none; stroke-dasharray: 5.55,2.4; stroke-dashoffset: 0; stroke: #000000; stroke-width: 1.5"/>
   </g>
   <g id="line2d_82">
    <path d="M 411.178551 155.753746 
L 715.542187 155.753746 
" clip-path="url(#p222508a3d9)" style="fill: none; stroke-dasharray: 1.5,2.475; stroke-dashoffset: 0; stroke: #ff0000; stroke-width: 1.5"/>
   </g>
   <g id="line2d_83">
    <path d="M 411.178551 114.929071 
L 715.542187 114.929071 
" clip-path="url(#p222508a3d9)" style="fill: none; stroke-dasharray: 9.6,2.4,1.5,2.4; stroke-dashoffset: 0; stroke: #0000ff; stroke-width: 1.5"/>
   </g>
   <g id="patch_8">
    <path d="M 411.178551 307.548125 
L 411.178551 30.348125 
" style="fill: none; stroke: #000000; stroke-width: 0.8; stroke-linejoin: miter; stroke-linecap: square"/>
   </g>
   <g id="patch_9">
    <path d="M 715.542187 307.548125 
L 715.542187 30.348125 
" style="fill: none; stroke: #000000; stroke-width: 0.8; stroke-linejoin: miter; stroke-linecap: square"/>
   </g>
   <g id="patch_10">
    <path d="M 411.178551 307.548125 
L 715.542187 307.548125 
" style="fill: none; stroke: #000000; stroke-width: 0.8; stroke-linejoin: miter; stroke-linecap: square"/>
   </g>
   <g id="patch_11">
    <path d="M 411.178551 30.348125 
L 715.542187 30.348125 
" style="fill: none; stroke: #000000; stroke-width: 0.8; stroke-linejoin: miter; stroke-linecap: square"/>
   </g>
   <g id="text_26">
    <!-- b) -->
    <g transform="translate(380.742187 16.488125) scale(0.14 -0.14)">
     <defs>
      <path id="TimesNewRomanPS-BoldMT-62" d="M 1347 4238 
L 1347 2628 
Q 1716 3009 2153 3009 
Q 2453 3009 2718 2832 
Q 2984 2656 3134 2331 
Q 3284 2006 3284 1581 
Q 3284 1103 3093 712 
Q 2903 322 2584 117 
Q 2266 -88 1856 -88 
Q 1619 -88 1434 -12 
Q 1250 63 1072 231 
L 588 -84 
L 481 -84 
L 481 3631 
Q 481 3884 459 3944 
Q 428 4031 361 4073 
Q 294 4116 134 4122 
L 134 4238 
L 1347 4238 
z
M 1347 2350 
L 1347 1050 
Q 1347 653 1366 544 
Q 1397 359 1515 245 
Q 1634 131 1819 131 
Q 1978 131 2092 222 
Q 2206 313 2282 581 
Q 2359 850 2359 1550 
Q 2359 2222 2191 2472 
Q 2069 2653 1863 2653 
Q 1594 2653 1347 2350 
z
" transform="scale(0.015625)"/>
     </defs>
     <use xlink:href="#TimesNewRomanPS-BoldMT-62"/>
     <use xlink:href="#TimesNewRomanPS-BoldMT-29" x="55.615234"/>
    </g>
   </g>
  </g>
  <g id="legend_1">
   <g id="patch_12">
    <path d="M 725.342188 270.517344 
L 888.888438 270.517344 
Q 891.688438 270.517344 891.688438 267.717344 
L 891.688438 66.578906 
Q 891.688438 63.778906 888.888438 63.778906 
L 725.342188 63.778906 
Q 722.542188 63.778906 722.542188 66.578906 
L 722.542188 267.717344 
Q 722.542188 270.517344 725.342188 270.517344 
z
" style="fill: #ffffff; opacity: 0.8; stroke: #cccccc; stroke-linejoin: miter"/>
   </g>
   <g id="line2d_84">
    <path d="M 728.142188 76.098906 
L 742.142188 76.098906 
L 756.142188 76.098906 
" style="fill: none; stroke: #1f77b4; stroke-width: 1.5; stroke-linecap: square"/>
    <g>
     <use xlink:href="#mfaa57c0c01" x="742.142188" y="76.098906" style="fill: #1f77b4; stroke: #1f77b4"/>
    </g>
   </g>
   <g id="text_27">
    <!-- $E_g^\text{HSE}$ -->
    <g transform="translate(767.342188 80.998906) scale(0.14 -0.14)">
     <defs>
      <path id="STIXGeneral-Italic-45" d="M 4058 4179 
L 3859 3194 
L 3718 3206 
Q 3738 3366 3738 3501 
Q 3738 3789 3501 3878 
Q 3264 3968 2509 3968 
Q 2240 3968 2157 3939 
Q 2074 3910 2042 3802 
L 1619 2310 
L 2118 2310 
Q 2541 2310 2681 2412 
Q 2822 2515 3008 2931 
L 3123 2906 
L 2688 1421 
L 2560 1453 
Q 2605 1651 2605 1786 
Q 2605 1939 2560 1984 
Q 2451 2080 2061 2080 
L 1562 2080 
L 1357 1363 
Q 1126 550 1126 429 
Q 1126 211 1632 211 
Q 2458 211 2931 461 
Q 3174 589 3533 1088 
L 3635 1037 
L 3238 0 
L -6 0 
L -6 102 
Q 269 154 352 227 
Q 435 301 512 576 
L 1299 3405 
Q 1370 3642 1370 3814 
Q 1370 3942 1270 3996 
Q 1171 4051 877 4077 
L 877 4179 
L 4058 4179 
z
" transform="scale(0.015625)"/>
      <path id="STIXGeneral-Regular-48" d="M 4499 0 
L 2714 0 
L 2714 122 
Q 3085 147 3181 265 
Q 3277 384 3277 794 
L 3277 2016 
L 1338 2016 
L 1338 723 
Q 1338 371 1440 256 
Q 1542 141 1894 122 
L 1901 0 
L 115 0 
L 115 122 
Q 493 147 589 259 
Q 685 371 685 781 
L 685 3507 
Q 685 3878 585 3980 
Q 486 4083 115 4115 
L 115 4237 
L 1907 4237 
L 1907 4115 
Q 1549 4083 1443 3977 
Q 1338 3872 1338 3507 
L 1338 2298 
L 3277 2298 
L 3277 3507 
Q 3277 3878 3177 3980 
Q 3078 4083 2707 4115 
L 2707 4237 
L 4499 4237 
L 4499 4115 
Q 4141 4083 4035 3977 
Q 3930 3872 3930 3507 
L 3930 710 
Q 3930 371 4035 259 
Q 4141 147 4499 122 
L 4499 0 
z
" transform="scale(0.015625)"/>
      <path id="STIXGeneral-Regular-53" d="M 3002 2963 
L 2842 2963 
Q 2733 3360 2579 3565 
Q 2189 4064 1651 4064 
Q 1357 4064 1181 3894 
Q 1005 3725 1005 3456 
Q 1005 3328 1069 3206 
Q 1133 3085 1206 2998 
Q 1280 2912 1465 2784 
Q 1651 2656 1766 2589 
Q 1882 2522 2150 2362 
Q 2669 2061 2905 1763 
Q 3142 1466 3142 1107 
Q 3142 576 2771 243 
Q 2400 -90 1837 -90 
Q 1421 -90 1082 58 
Q 915 128 781 128 
Q 704 128 653 70 
Q 602 13 602 -83 
L 461 -83 
L 275 1274 
L 416 1274 
Q 845 141 1734 141 
Q 2074 141 2285 342 
Q 2496 544 2496 858 
Q 2496 1158 2310 1363 
Q 2003 1696 1235 2106 
Q 454 2522 454 3206 
Q 454 3718 768 4022 
Q 1082 4326 1568 4326 
Q 1907 4326 2240 4186 
Q 2413 4109 2522 4109 
Q 2688 4109 2726 4326 
L 2861 4326 
L 3002 2963 
z
" transform="scale(0.015625)"/>
      <path id="STIXGeneral-Regular-45" d="M 3821 1082 
L 3526 0 
L 77 0 
L 77 122 
Q 442 147 538 252 
Q 634 358 634 730 
L 634 3520 
Q 634 3878 534 3987 
Q 435 4096 77 4115 
L 77 4237 
L 3469 4237 
L 3494 3322 
L 3334 3322 
Q 3264 3750 3085 3872 
Q 2906 3994 2349 3994 
L 1510 3994 
Q 1370 3994 1328 3952 
Q 1286 3910 1286 3763 
L 1286 2355 
L 2253 2355 
Q 2656 2355 2787 2470 
Q 2918 2586 2976 2970 
L 3123 2970 
L 3123 1472 
L 2976 1472 
Q 2918 1875 2790 1984 
Q 2662 2093 2253 2093 
L 1286 2093 
L 1286 538 
Q 1286 346 1420 291 
Q 1555 237 1933 237 
L 2163 237 
Q 2848 237 3136 403 
Q 3424 570 3642 1082 
L 3821 1082 
z
" transform="scale(0.015625)"/>
      <path id="STIXGeneral-Italic-67" d="M 3014 2342 
L 2701 2342 
Q 2758 2227 2758 2016 
Q 2758 1613 2390 1289 
Q 2022 966 1574 966 
Q 1459 966 1376 986 
Q 1357 992 1331 992 
Q 1248 992 1174 909 
Q 1101 826 1101 730 
Q 1101 576 1555 461 
Q 2464 243 2464 -352 
Q 2464 -781 2105 -1049 
Q 1747 -1318 1120 -1318 
Q 621 -1318 336 -1142 
Q 51 -966 51 -627 
Q 51 -378 195 -202 
Q 339 -26 800 250 
Q 627 352 627 499 
Q 627 806 1120 1037 
Q 614 1216 614 1728 
Q 614 2202 1004 2512 
Q 1395 2822 1901 2822 
Q 2272 2822 2528 2643 
Q 2598 2592 2630 2592 
L 3014 2592 
L 3014 2342 
z
M 2253 2227 
Q 2253 2477 2166 2579 
Q 2080 2682 1894 2682 
Q 1587 2682 1350 2362 
Q 1114 2042 1114 1581 
Q 1114 1357 1216 1229 
Q 1318 1101 1498 1101 
Q 1818 1101 2042 1478 
Q 2253 1837 2253 2227 
z
M 2080 -576 
Q 2080 -352 1878 -201 
Q 1677 -51 1165 109 
Q 1011 154 947 179 
Q 902 179 752 57 
Q 602 -64 531 -154 
Q 403 -314 403 -525 
Q 403 -1178 1216 -1178 
Q 1594 -1178 1837 -1002 
Q 2080 -826 2080 -576 
z
" transform="scale(0.015625)"/>
     </defs>
     <use xlink:href="#STIXGeneral-Italic-45" transform="translate(0 0.409375)"/>
     <use xlink:href="#STIXGeneral-Regular-48" transform="translate(71.725772 35.684375) scale(0.7)"/>
     <use xlink:href="#STIXGeneral-Regular-53" transform="translate(122.265759 35.684375) scale(0.7)"/>
     <use xlink:href="#STIXGeneral-Regular-45" transform="translate(161.185753 35.684375) scale(0.7)"/>
     <use xlink:href="#STIXGeneral-Italic-67" transform="translate(61.099991 -26.046875) scale(0.7)"/>
    </g>
   </g>
   <g id="line2d_85">
    <path d="M 728.142188 98.638906 
L 742.142188 98.638906 
L 756.142188 98.638906 
" style="fill: none; stroke: #ff7f0e; stroke-width: 1.5; stroke-linecap: square"/>
    <g>
     <use xlink:href="#med459606b3" x="742.142188" y="98.638906" style="fill: #ff7f0e; stroke: #ff7f0e"/>
    </g>
   </g>
   <g id="text_28">
    <!-- SLME -->
    <g transform="translate(767.342188 103.538906) scale(0.14 -0.14)">
     <use xlink:href="#TimesNewRomanPSMT-53"/>
     <use xlink:href="#TimesNewRomanPSMT-4c" x="55.615234"/>
     <use xlink:href="#TimesNewRomanPSMT-4d" x="116.699219"/>
     <use xlink:href="#TimesNewRomanPSMT-45" x="205.615234"/>
    </g>
   </g>
   <g id="line2d_86">
    <path d="M 728.142188 118.433594 
L 742.142188 118.433594 
L 756.142188 118.433594 
" style="fill: none; stroke: #2ca02c; stroke-width: 1.5; stroke-linecap: square"/>
    <g>
     <use xlink:href="#mb63457adfd" x="742.142188" y="118.433594" style="fill: #2ca02c; stroke: #2ca02c"/>
    </g>
   </g>
   <g id="text_29">
    <!-- $A(E)$ -->
    <g transform="translate(767.342188 123.333594) scale(0.14 -0.14)">
     <defs>
      <path id="STIXGeneral-Italic-41" d="M 3610 0 
L 2042 0 
L 2042 102 
Q 2330 115 2432 192 
Q 2534 269 2534 442 
Q 2534 493 2522 608 
L 2394 1446 
L 986 1446 
L 608 736 
Q 467 474 467 314 
Q 467 122 864 102 
L 864 0 
L -326 0 
L -326 102 
Q -109 147 28 307 
Q 166 467 531 1101 
L 2355 4275 
L 2522 4275 
L 3110 736 
Q 3174 339 3264 230 
Q 3354 122 3610 102 
L 3610 0 
z
M 2362 1677 
L 2074 3360 
L 1120 1677 
L 2362 1677 
z
" transform="scale(0.015625)"/>
      <path id="STIXGeneral-Regular-28" d="M 1946 -1030 
L 1869 -1133 
Q 1126 -710 716 32 
Q 307 774 307 1613 
Q 307 3386 1888 4326 
L 1946 4224 
Q 1293 3667 1075 3126 
Q 858 2586 858 1632 
Q 858 685 1082 96 
Q 1306 -493 1946 -1030 
z
" transform="scale(0.015625)"/>
      <path id="STIXGeneral-Regular-29" d="M 186 4224 
L 262 4326 
Q 992 3891 1408 3148 
Q 1824 2406 1824 1581 
Q 1824 -166 243 -1133 
L 186 -1030 
Q 845 -486 1059 54 
Q 1274 595 1274 1562 
Q 1274 2534 1059 3120 
Q 845 3706 186 4224 
z
" transform="scale(0.015625)"/>
     </defs>
     <use xlink:href="#STIXGeneral-Italic-41" transform="translate(0 0.40625)"/>
     <use xlink:href="#STIXGeneral-Regular-28" transform="translate(61.099991 0.40625)"/>
     <use xlink:href="#STIXGeneral-Italic-45" transform="translate(94.399979 0.40625)"/>
     <use xlink:href="#STIXGeneral-Regular-29" transform="translate(155.499969 0.40625)"/>
    </g>
   </g>
   <g id="line2d_87">
    <path d="M 728.142188 138.228281 
L 742.142188 138.228281 
L 756.142188 138.228281 
" style="fill: none; stroke: #d62728; stroke-width: 1.5; stroke-linecap: square"/>
    <g>
     <use xlink:href="#m2395bdf503" x="742.142188" y="138.228281" style="fill: #d62728; stroke: #d62728"/>
    </g>
   </g>
   <g id="text_30">
    <!-- $\alpha(E)$ -->
    <g transform="translate(767.342188 143.128281) scale(0.14 -0.14)">
     <defs>
      <path id="STIXGeneral-Italic-3b1" d="M 3514 2739 
L 2605 1069 
L 2605 954 
Q 2605 704 2662 512 
Q 2720 320 2822 320 
Q 2970 320 3149 794 
L 3251 749 
Q 3014 -58 2605 -58 
Q 2291 -58 2272 614 
Q 1709 -70 1030 -70 
Q 589 -70 381 198 
Q 173 467 173 902 
Q 173 1293 329 1673 
Q 486 2054 755 2330 
Q 973 2547 1270 2684 
Q 1568 2822 1862 2822 
Q 2246 2822 2457 2595 
Q 2669 2368 2669 2061 
L 2963 2739 
L 3514 2739 
z
M 2298 1741 
Q 2298 2688 1805 2688 
Q 1472 2688 1085 2099 
Q 698 1510 698 800 
Q 698 493 806 278 
Q 915 64 1139 64 
Q 1606 64 2195 1286 
Q 2202 1325 2230 1411 
Q 2259 1498 2278 1581 
Q 2298 1664 2298 1741 
z
" transform="scale(0.015625)"/>
     </defs>
     <use xlink:href="#STIXGeneral-Italic-3b1" transform="translate(0 0.40625)"/>
     <use xlink:href="#STIXGeneral-Regular-28" transform="translate(55.199997 0.40625)"/>
     <use xlink:href="#STIXGeneral-Italic-45" transform="translate(88.499985 0.40625)"/>
     <use xlink:href="#STIXGeneral-Regular-29" transform="translate(149.599976 0.40625)"/>
    </g>
   </g>
   <g id="line2d_88">
    <path d="M 728.142188 158.022969 
L 742.142188 158.022969 
L 756.142188 158.022969 
" style="fill: none; stroke: #9467bd; stroke-width: 1.5; stroke-linecap: square"/>
    <g>
     <use xlink:href="#m5bb023f3f6" x="742.142188" y="158.022969" style="fill: #9467bd; stroke: #9467bd"/>
    </g>
   </g>
   <g id="text_31">
    <!-- $\Delta E$ -->
    <g transform="translate(767.342188 162.922969) scale(0.14 -0.14)">
     <defs>
      <path id="STIXGeneral-Regular-394" d="M 4320 0 
L 307 0 
L 2221 4314 
L 2349 4314 
L 4320 0 
z
M 3354 589 
L 2118 3405 
L 870 589 
L 3354 589 
z
" transform="scale(0.015625)"/>
     </defs>
     <use xlink:href="#STIXGeneral-Regular-394" transform="translate(0 0.59375)"/>
     <use xlink:href="#STIXGeneral-Italic-45" transform="translate(72.199982 0.59375)"/>
    </g>
   </g>
   <g id="line2d_89">
    <path d="M 728.142188 177.817656 
L 742.142188 177.817656 
L 756.142188 177.817656 
" style="fill: none; stroke: #8c564b; stroke-width: 1.5; stroke-linecap: square"/>
    <g>
     <use xlink:href="#m0ec51a231a" x="742.142188" y="177.817656" style="fill: #8c564b; stroke: #8c564b"/>
    </g>
   </g>
   <g id="text_32">
    <!-- $\Delta$ -->
    <g transform="translate(767.342188 182.717656) scale(0.14 -0.14)">
     <use xlink:href="#STIXGeneral-Regular-394" transform="translate(0 0.59375)"/>
    </g>
   </g>
   <g id="line2d_90">
    <path d="M 728.142188 197.612344 
L 742.142188 197.612344 
L 756.142188 197.612344 
" style="fill: none; stroke: #e377c2; stroke-width: 1.5; stroke-linecap: square"/>
    <g>
     <use xlink:href="#m38dcee4a18" x="742.142188" y="197.612344" style="fill: #e377c2; stroke: #e377c2"/>
    </g>
   </g>
   <g id="text_33">
    <!-- All ML -->
    <g transform="translate(767.342188 202.512344) scale(0.14 -0.14)">
     <use xlink:href="#TimesNewRomanPSMT-41"/>
     <use xlink:href="#TimesNewRomanPSMT-6c" x="72.216797"/>
     <use xlink:href="#TimesNewRomanPSMT-6c" x="100"/>
     <use xlink:href="#TimesNewRomanPSMT-20" x="127.783203"/>
     <use xlink:href="#TimesNewRomanPSMT-4d" x="152.783203"/>
     <use xlink:href="#TimesNewRomanPSMT-4c" x="241.699219"/>
    </g>
   </g>
   <g id="line2d_91">
    <path d="M 728.142188 217.407031 
L 742.142188 217.407031 
L 756.142188 217.407031 
" style="fill: none; stroke-dasharray: 5.55,2.4; stroke-dashoffset: 0; stroke: #000000; stroke-width: 1.5"/>
   </g>
   <g id="text_34">
    <!-- SLME without offset -->
    <g transform="translate(767.342188 222.307031) scale(0.14 -0.14)">
     <defs>
      <path id="TimesNewRomanPSMT-77" d="M 41 2863 
L 1241 2863 
L 1241 2747 
Q 1075 2734 1023 2687 
Q 972 2641 972 2553 
Q 972 2456 1025 2319 
L 1638 672 
L 2253 2013 
L 2091 2434 
Q 2016 2622 1894 2694 
Q 1825 2738 1638 2747 
L 1638 2863 
L 3000 2863 
L 3000 2747 
Q 2775 2738 2681 2666 
Q 2619 2616 2619 2506 
Q 2619 2444 2644 2378 
L 3294 734 
L 3897 2319 
Q 3959 2488 3959 2588 
Q 3959 2647 3898 2694 
Q 3838 2741 3659 2747 
L 3659 2863 
L 4563 2863 
L 4563 2747 
Q 4291 2706 4163 2378 
L 3206 -88 
L 3078 -88 
L 2363 1741 
L 1528 -88 
L 1413 -88 
L 494 2319 
Q 403 2547 315 2626 
Q 228 2706 41 2747 
L 41 2863 
z
" transform="scale(0.015625)"/>
      <path id="TimesNewRomanPSMT-68" d="M 1041 4444 
L 1041 2350 
Q 1388 2731 1591 2839 
Q 1794 2947 1997 2947 
Q 2241 2947 2416 2812 
Q 2591 2678 2675 2391 
Q 2734 2191 2734 1659 
L 2734 647 
Q 2734 375 2778 275 
Q 2809 200 2884 156 
Q 2959 113 3159 113 
L 3159 0 
L 1753 0 
L 1753 113 
L 1819 113 
Q 2019 113 2097 173 
Q 2175 234 2206 353 
Q 2216 403 2216 647 
L 2216 1659 
Q 2216 2128 2167 2275 
Q 2119 2422 2012 2495 
Q 1906 2569 1756 2569 
Q 1603 2569 1437 2487 
Q 1272 2406 1041 2159 
L 1041 647 
Q 1041 353 1073 281 
Q 1106 209 1195 161 
Q 1284 113 1503 113 
L 1503 0 
L 84 0 
L 84 113 
Q 275 113 384 172 
Q 447 203 484 290 
Q 522 378 522 647 
L 522 3238 
Q 522 3728 498 3840 
Q 475 3953 426 3993 
Q 378 4034 297 4034 
Q 231 4034 84 3984 
L 41 4094 
L 897 4444 
L 1041 4444 
z
" transform="scale(0.015625)"/>
     </defs>
     <use xlink:href="#TimesNewRomanPSMT-53"/>
     <use xlink:href="#TimesNewRomanPSMT-4c" x="55.615234"/>
     <use xlink:href="#TimesNewRomanPSMT-4d" x="116.699219"/>
     <use xlink:href="#TimesNewRomanPSMT-45" x="205.615234"/>
     <use xlink:href="#TimesNewRomanPSMT-20" x="266.699219"/>
     <use xlink:href="#TimesNewRomanPSMT-77" x="291.699219"/>
     <use xlink:href="#TimesNewRomanPSMT-69" x="363.916016"/>
     <use xlink:href="#TimesNewRomanPSMT-74" x="391.699219"/>
     <use xlink:href="#TimesNewRomanPSMT-68" x="419.482422"/>
     <use xlink:href="#TimesNewRomanPSMT-6f" x="469.482422"/>
     <use xlink:href="#TimesNewRomanPSMT-75" x="519.482422"/>
     <use xlink:href="#TimesNewRomanPSMT-74" x="569.482422"/>
     <use xlink:href="#TimesNewRomanPSMT-20" x="597.265625"/>
     <use xlink:href="#TimesNewRomanPSMT-6f" x="622.265625"/>
     <use xlink:href="#TimesNewRomanPSMT-66" x="672.265625"/>
     <use xlink:href="#TimesNewRomanPSMT-66" x="703.816406"/>
     <use xlink:href="#TimesNewRomanPSMT-73" x="737.117188"/>
     <use xlink:href="#TimesNewRomanPSMT-65" x="776.033203"/>
     <use xlink:href="#TimesNewRomanPSMT-74" x="820.417969"/>
    </g>
   </g>
   <g id="line2d_92">
    <path d="M 728.142188 237.201719 
L 742.142188 237.201719 
L 756.142188 237.201719 
" style="fill: none; stroke-dasharray: 1.5,2.475; stroke-dashoffset: 0; stroke: #ff0000; stroke-width: 1.5"/>
   </g>
   <g id="text_35">
    <!-- MAE if guess mean -->
    <g transform="translate(767.342188 242.101719) scale(0.14 -0.14)">
     <defs>
      <path id="TimesNewRomanPSMT-6d" d="M 1050 2338 
Q 1363 2650 1419 2697 
Q 1559 2816 1721 2881 
Q 1884 2947 2044 2947 
Q 2313 2947 2506 2790 
Q 2700 2634 2766 2338 
Q 3088 2713 3309 2830 
Q 3531 2947 3766 2947 
Q 3994 2947 4170 2830 
Q 4347 2713 4450 2447 
Q 4519 2266 4519 1878 
L 4519 647 
Q 4519 378 4559 278 
Q 4591 209 4675 161 
Q 4759 113 4950 113 
L 4950 0 
L 3538 0 
L 3538 113 
L 3597 113 
Q 3781 113 3884 184 
Q 3956 234 3988 344 
Q 4000 397 4000 647 
L 4000 1878 
Q 4000 2228 3916 2372 
Q 3794 2572 3525 2572 
Q 3359 2572 3192 2489 
Q 3025 2406 2788 2181 
L 2781 2147 
L 2788 2013 
L 2788 647 
Q 2788 353 2820 281 
Q 2853 209 2943 161 
Q 3034 113 3253 113 
L 3253 0 
L 1806 0 
L 1806 113 
Q 2044 113 2133 169 
Q 2222 225 2256 338 
Q 2272 391 2272 647 
L 2272 1878 
Q 2272 2228 2169 2381 
Q 2031 2581 1784 2581 
Q 1616 2581 1450 2491 
Q 1191 2353 1050 2181 
L 1050 647 
Q 1050 366 1089 281 
Q 1128 197 1204 155 
Q 1281 113 1516 113 
L 1516 0 
L 100 0 
L 100 113 
Q 297 113 375 155 
Q 453 197 493 289 
Q 534 381 534 647 
L 534 1741 
Q 534 2213 506 2350 
Q 484 2453 437 2492 
Q 391 2531 309 2531 
Q 222 2531 100 2484 
L 53 2597 
L 916 2947 
L 1050 2947 
L 1050 2338 
z
" transform="scale(0.015625)"/>
     </defs>
     <use xlink:href="#TimesNewRomanPSMT-4d"/>
     <use xlink:href="#TimesNewRomanPSMT-41" x="88.916016"/>
     <use xlink:href="#TimesNewRomanPSMT-45" x="161.132812"/>
     <use xlink:href="#TimesNewRomanPSMT-20" x="222.216797"/>
     <use xlink:href="#TimesNewRomanPSMT-69" x="247.216797"/>
     <use xlink:href="#TimesNewRomanPSMT-66" x="275"/>
     <use xlink:href="#TimesNewRomanPSMT-20" x="308.300781"/>
     <use xlink:href="#TimesNewRomanPSMT-67" x="333.300781"/>
     <use xlink:href="#TimesNewRomanPSMT-75" x="383.300781"/>
     <use xlink:href="#TimesNewRomanPSMT-65" x="433.300781"/>
     <use xlink:href="#TimesNewRomanPSMT-73" x="477.685547"/>
     <use xlink:href="#TimesNewRomanPSMT-73" x="516.601562"/>
     <use xlink:href="#TimesNewRomanPSMT-20" x="555.517578"/>
     <use xlink:href="#TimesNewRomanPSMT-6d" x="580.517578"/>
     <use xlink:href="#TimesNewRomanPSMT-65" x="658.300781"/>
     <use xlink:href="#TimesNewRomanPSMT-61" x="702.685547"/>
     <use xlink:href="#TimesNewRomanPSMT-6e" x="747.070312"/>
    </g>
   </g>
   <g id="line2d_93">
    <path d="M 728.142188 257.022656 
L 742.142188 257.022656 
L 756.142188 257.022656 
" style="fill: none; stroke-dasharray: 9.6,2.4,1.5,2.4; stroke-dashoffset: 0; stroke: #0000ff; stroke-width: 1.5"/>
   </g>
   <g id="text_36">
    <!-- GGA SLME -->
    <g transform="translate(767.342188 261.922656) scale(0.14 -0.14)">
     <defs>
      <path id="TimesNewRomanPSMT-47" d="M 3928 4334 
L 4038 2997 
L 3928 2997 
Q 3763 3497 3500 3750 
Q 3122 4116 2528 4116 
Q 1719 4116 1297 3475 
Q 944 2934 944 2188 
Q 944 1581 1178 1081 
Q 1413 581 1792 348 
Q 2172 116 2572 116 
Q 2806 116 3025 175 
Q 3244 234 3447 350 
L 3447 1575 
Q 3447 1894 3398 1992 
Q 3350 2091 3248 2142 
Q 3147 2194 2891 2194 
L 2891 2313 
L 4531 2313 
L 4531 2194 
L 4453 2194 
Q 4209 2194 4119 2031 
Q 4056 1916 4056 1575 
L 4056 278 
Q 3697 84 3347 -6 
Q 2997 -97 2569 -97 
Q 1341 -97 703 691 
Q 225 1281 225 2053 
Q 225 2613 494 3125 
Q 813 3734 1369 4063 
Q 1834 4334 2469 4334 
Q 2700 4334 2889 4296 
Q 3078 4259 3425 4131 
Q 3600 4066 3659 4066 
Q 3719 4066 3761 4120 
Q 3803 4175 3813 4334 
L 3928 4334 
z
" transform="scale(0.015625)"/>
     </defs>
     <use xlink:href="#TimesNewRomanPSMT-47"/>
     <use xlink:href="#TimesNewRomanPSMT-47" x="72.216797"/>
     <use xlink:href="#TimesNewRomanPSMT-41" x="144.433594"/>
     <use xlink:href="#TimesNewRomanPSMT-20" x="211.150391"/>
     <use xlink:href="#TimesNewRomanPSMT-53" x="236.150391"/>
     <use xlink:href="#TimesNewRomanPSMT-4c" x="291.765625"/>
     <use xlink:href="#TimesNewRomanPSMT-4d" x="352.849609"/>
     <use xlink:href="#TimesNewRomanPSMT-45" x="441.765625"/>
    </g>
   </g>
  </g>
 </g>
 <defs>
  <clipPath id="pc5ddd1621a">
   <rect x="45.942187" y="30.348125" width="304.363636" height="277.2"/>
  </clipPath>
  <clipPath id="p222508a3d9">
   <rect x="411.178551" y="30.348125" width="304.363636" height="277.2"/>
  </clipPath>
 </defs>
</svg>
