<?xml version="1.0" encoding="utf-8" standalone="no"?>
<!DOCTYPE svg PUBLIC "-//W3C//DTD SVG 1.1//EN"
  "http://www.w3.org/Graphics/SVG/1.1/DTD/svg11.dtd">
<svg xmlns:xlink="http://www.w3.org/1999/xlink" width="360pt" height="360pt" viewBox="0 0 360 360" xmlns="http://www.w3.org/2000/svg" version="1.1">
 <metadata>
  <rdf:RDF xmlns:dc="http://purl.org/dc/elements/1.1/" xmlns:cc="http://creativecommons.org/ns#" xmlns:rdf="http://www.w3.org/1999/02/22-rdf-syntax-ns#">
   <cc:Work>
    <dc:type rdf:resource="http://purl.org/dc/dcmitype/StillImage"/>
    <dc:date>2025-10-23T10:14:51.148622</dc:date>
    <dc:format>image/svg+xml</dc:format>
    <dc:creator>
     <cc:Agent>
      <dc:title>Matplotlib v3.8.1, https://matplotlib.org/</dc:title>
     </cc:Agent>
    </dc:creator>
   </cc:Work>
  </rdf:RDF>
 </metadata>
 <defs>
  <style type="text/css">*{stroke-linejoin: round; stroke-linecap: butt}</style>
 </defs>
 <g id="figure_1">
  <g id="patch_1">
   <path d="M 0 360 
L 360 360 
L 360 0 
L 0 0 
z
" style="fill: #ffffff"/>
  </g>
  <g id="axes_1">
   <g id="patch_2">
    <path d="M 45 320.4 
L 324 320.4 
L 324 43.2 
L 45 43.2 
z
" style="fill: #ffffff"/>
   </g>
   <g id="matplotlib.axis_1">
    <g id="xtick_1">
     <g id="line2d_1">
      <defs>
       <path id="mc668e2d045" d="M 0 0 
L 0 3.5 
" style="stroke: #000000; stroke-width: 0.8"/>
      </defs>
      <g>
       <use xlink:href="#mc668e2d045" x="55.119835" y="320.4" style="stroke: #000000; stroke-width: 0.8"/>
      </g>
     </g>
     <g id="text_1">
      <!-- 0 -->
      <g transform="translate(52.119835 335.7325) scale(0.12 -0.12)">
       <defs>
        <path id="TimesNewRomanPSMT-30" d="M 231 2094 
Q 231 2819 450 3342 
Q 669 3866 1031 4122 
Q 1313 4325 1613 4325 
Q 2100 4325 2488 3828 
Q 2972 3213 2972 2159 
Q 2972 1422 2759 906 
Q 2547 391 2217 158 
Q 1888 -75 1581 -75 
Q 975 -75 572 641 
Q 231 1244 231 2094 
z
M 844 2016 
Q 844 1141 1059 588 
Q 1238 122 1591 122 
Q 1759 122 1940 273 
Q 2122 425 2216 781 
Q 2359 1319 2359 2297 
Q 2359 3022 2209 3506 
Q 2097 3866 1919 4016 
Q 1791 4119 1609 4119 
Q 1397 4119 1231 3928 
Q 1006 3669 925 3112 
Q 844 2556 844 2016 
z
" transform="scale(0.015625)"/>
       </defs>
       <use xlink:href="#TimesNewRomanPSMT-30"/>
      </g>
     </g>
    </g>
    <g id="xtick_2">
     <g id="line2d_2">
      <g>
       <use xlink:href="#mc668e2d045" x="106.359504" y="320.4" style="stroke: #000000; stroke-width: 0.8"/>
      </g>
     </g>
     <g id="text_2">
      <!-- 1 -->
      <g transform="translate(103.359504 335.7325) scale(0.12 -0.12)">
       <defs>
        <path id="TimesNewRomanPSMT-31" d="M 750 3822 
L 1781 4325 
L 1884 4325 
L 1884 747 
Q 1884 391 1914 303 
Q 1944 216 2037 169 
Q 2131 122 2419 116 
L 2419 0 
L 825 0 
L 825 116 
Q 1125 122 1212 167 
Q 1300 213 1334 289 
Q 1369 366 1369 747 
L 1369 3034 
Q 1369 3497 1338 3628 
Q 1316 3728 1258 3775 
Q 1200 3822 1119 3822 
Q 1003 3822 797 3725 
L 750 3822 
z
" transform="scale(0.015625)"/>
       </defs>
       <use xlink:href="#TimesNewRomanPSMT-31"/>
      </g>
     </g>
    </g>
    <g id="xtick_3">
     <g id="line2d_3">
      <g>
       <use xlink:href="#mc668e2d045" x="157.599174" y="320.4" style="stroke: #000000; stroke-width: 0.8"/>
      </g>
     </g>
     <g id="text_3">
      <!-- 2 -->
      <g transform="translate(154.599174 335.7325) scale(0.12 -0.12)">
       <defs>
        <path id="TimesNewRomanPSMT-32" d="M 2934 816 
L 2638 0 
L 138 0 
L 138 116 
Q 1241 1122 1691 1759 
Q 2141 2397 2141 2925 
Q 2141 3328 1894 3587 
Q 1647 3847 1303 3847 
Q 991 3847 742 3664 
Q 494 3481 375 3128 
L 259 3128 
Q 338 3706 661 4015 
Q 984 4325 1469 4325 
Q 1984 4325 2329 3994 
Q 2675 3663 2675 3213 
Q 2675 2891 2525 2569 
Q 2294 2063 1775 1497 
Q 997 647 803 472 
L 1909 472 
Q 2247 472 2383 497 
Q 2519 522 2628 598 
Q 2738 675 2819 816 
L 2934 816 
z
" transform="scale(0.015625)"/>
       </defs>
       <use xlink:href="#TimesNewRomanPSMT-32"/>
      </g>
     </g>
    </g>
    <g id="xtick_4">
     <g id="line2d_4">
      <g>
       <use xlink:href="#mc668e2d045" x="208.838843" y="320.4" style="stroke: #000000; stroke-width: 0.8"/>
      </g>
     </g>
     <g id="text_4">
      <!-- 3 -->
      <g transform="translate(205.838843 335.7325) scale(0.12 -0.12)">
       <defs>
        <path id="TimesNewRomanPSMT-33" d="M 325 3431 
Q 506 3859 782 4092 
Q 1059 4325 1472 4325 
Q 1981 4325 2253 3994 
Q 2459 3747 2459 3466 
Q 2459 3003 1878 2509 
Q 2269 2356 2469 2072 
Q 2669 1788 2669 1403 
Q 2669 853 2319 450 
Q 1863 -75 997 -75 
Q 569 -75 414 31 
Q 259 138 259 259 
Q 259 350 332 419 
Q 406 488 509 488 
Q 588 488 669 463 
Q 722 447 909 348 
Q 1097 250 1169 231 
Q 1284 197 1416 197 
Q 1734 197 1970 444 
Q 2206 691 2206 1028 
Q 2206 1275 2097 1509 
Q 2016 1684 1919 1775 
Q 1784 1900 1550 2001 
Q 1316 2103 1072 2103 
L 972 2103 
L 972 2197 
Q 1219 2228 1467 2375 
Q 1716 2522 1828 2728 
Q 1941 2934 1941 3181 
Q 1941 3503 1739 3701 
Q 1538 3900 1238 3900 
Q 753 3900 428 3381 
L 325 3431 
z
" transform="scale(0.015625)"/>
       </defs>
       <use xlink:href="#TimesNewRomanPSMT-33"/>
      </g>
     </g>
    </g>
    <g id="xtick_5">
     <g id="line2d_5">
      <g>
       <use xlink:href="#mc668e2d045" x="260.078512" y="320.4" style="stroke: #000000; stroke-width: 0.8"/>
      </g>
     </g>
     <g id="text_5">
      <!-- 4 -->
      <g transform="translate(257.078512 335.7325) scale(0.12 -0.12)">
       <defs>
        <path id="TimesNewRomanPSMT-34" d="M 2978 1563 
L 2978 1119 
L 2409 1119 
L 2409 0 
L 1894 0 
L 1894 1119 
L 100 1119 
L 100 1519 
L 2066 4325 
L 2409 4325 
L 2409 1563 
L 2978 1563 
z
M 1894 1563 
L 1894 3666 
L 406 1563 
L 1894 1563 
z
" transform="scale(0.015625)"/>
       </defs>
       <use xlink:href="#TimesNewRomanPSMT-34"/>
      </g>
     </g>
    </g>
    <g id="xtick_6">
     <g id="line2d_6">
      <g>
       <use xlink:href="#mc668e2d045" x="311.318182" y="320.4" style="stroke: #000000; stroke-width: 0.8"/>
      </g>
     </g>
     <g id="text_6">
      <!-- 5 -->
      <g transform="translate(308.318182 335.7325) scale(0.12 -0.12)">
       <defs>
        <path id="TimesNewRomanPSMT-35" d="M 2778 4238 
L 2534 3706 
L 1259 3706 
L 981 3138 
Q 1809 3016 2294 2522 
Q 2709 2097 2709 1522 
Q 2709 1188 2573 903 
Q 2438 619 2231 419 
Q 2025 219 1772 97 
Q 1413 -75 1034 -75 
Q 653 -75 479 54 
Q 306 184 306 341 
Q 306 428 378 495 
Q 450 563 559 563 
Q 641 563 702 538 
Q 763 513 909 409 
Q 1144 247 1384 247 
Q 1750 247 2026 523 
Q 2303 800 2303 1197 
Q 2303 1581 2056 1914 
Q 1809 2247 1375 2428 
Q 1034 2569 447 2591 
L 1259 4238 
L 2778 4238 
z
" transform="scale(0.015625)"/>
       </defs>
       <use xlink:href="#TimesNewRomanPSMT-35"/>
      </g>
     </g>
    </g>
    <g id="text_7">
     <!-- Energy  / eV -->
     <g transform="translate(149.051562 352.020625) scale(0.14 -0.14)">
      <defs>
       <path id="TimesNewRomanPSMT-45" d="M 1338 4006 
L 1338 2331 
L 2269 2331 
Q 2631 2331 2753 2441 
Q 2916 2584 2934 2947 
L 3050 2947 
L 3050 1472 
L 2934 1472 
Q 2891 1781 2847 1869 
Q 2791 1978 2662 2040 
Q 2534 2103 2269 2103 
L 1338 2103 
L 1338 706 
Q 1338 425 1363 364 
Q 1388 303 1450 267 
Q 1513 231 1688 231 
L 2406 231 
Q 2766 231 2928 281 
Q 3091 331 3241 478 
Q 3434 672 3638 1063 
L 3763 1063 
L 3397 0 
L 131 0 
L 131 116 
L 281 116 
Q 431 116 566 188 
Q 666 238 702 338 
Q 738 438 738 747 
L 738 3500 
Q 738 3903 656 3997 
Q 544 4122 281 4122 
L 131 4122 
L 131 4238 
L 3397 4238 
L 3444 3309 
L 3322 3309 
Q 3256 3644 3176 3769 
Q 3097 3894 2941 3959 
Q 2816 4006 2500 4006 
L 1338 4006 
z
" transform="scale(0.015625)"/>
       <path id="TimesNewRomanPSMT-6e" d="M 1034 2341 
Q 1538 2947 1994 2947 
Q 2228 2947 2397 2830 
Q 2566 2713 2666 2444 
Q 2734 2256 2734 1869 
L 2734 647 
Q 2734 375 2778 278 
Q 2813 200 2889 156 
Q 2966 113 3172 113 
L 3172 0 
L 1756 0 
L 1756 113 
L 1816 113 
Q 2016 113 2095 173 
Q 2175 234 2206 353 
Q 2219 400 2219 647 
L 2219 1819 
Q 2219 2209 2117 2386 
Q 2016 2563 1775 2563 
Q 1403 2563 1034 2156 
L 1034 647 
Q 1034 356 1069 288 
Q 1113 197 1189 155 
Q 1266 113 1500 113 
L 1500 0 
L 84 0 
L 84 113 
L 147 113 
Q 366 113 442 223 
Q 519 334 519 647 
L 519 1709 
Q 519 2225 495 2337 
Q 472 2450 423 2490 
Q 375 2531 294 2531 
Q 206 2531 84 2484 
L 38 2597 
L 900 2947 
L 1034 2947 
L 1034 2341 
z
" transform="scale(0.015625)"/>
       <path id="TimesNewRomanPSMT-65" d="M 681 1784 
Q 678 1147 991 784 
Q 1303 422 1725 422 
Q 2006 422 2214 576 
Q 2422 731 2563 1106 
L 2659 1044 
Q 2594 616 2278 264 
Q 1963 -88 1488 -88 
Q 972 -88 605 314 
Q 238 716 238 1394 
Q 238 2128 614 2539 
Q 991 2950 1559 2950 
Q 2041 2950 2350 2633 
Q 2659 2316 2659 1784 
L 681 1784 
z
M 681 1966 
L 2006 1966 
Q 1991 2241 1941 2353 
Q 1863 2528 1708 2628 
Q 1553 2728 1384 2728 
Q 1125 2728 920 2526 
Q 716 2325 681 1966 
z
" transform="scale(0.015625)"/>
       <path id="TimesNewRomanPSMT-72" d="M 1038 2947 
L 1038 2303 
Q 1397 2947 1775 2947 
Q 1947 2947 2059 2842 
Q 2172 2738 2172 2600 
Q 2172 2478 2090 2393 
Q 2009 2309 1897 2309 
Q 1788 2309 1652 2417 
Q 1516 2525 1450 2525 
Q 1394 2525 1328 2463 
Q 1188 2334 1038 2041 
L 1038 669 
Q 1038 431 1097 309 
Q 1138 225 1241 169 
Q 1344 113 1538 113 
L 1538 0 
L 72 0 
L 72 113 
Q 291 113 397 181 
Q 475 231 506 341 
Q 522 394 522 644 
L 522 1753 
Q 522 2253 501 2348 
Q 481 2444 426 2487 
Q 372 2531 291 2531 
Q 194 2531 72 2484 
L 41 2597 
L 906 2947 
L 1038 2947 
z
" transform="scale(0.015625)"/>
       <path id="TimesNewRomanPSMT-67" d="M 966 1044 
Q 703 1172 562 1401 
Q 422 1631 422 1909 
Q 422 2334 742 2640 
Q 1063 2947 1563 2947 
Q 1972 2947 2272 2747 
L 2878 2747 
Q 3013 2747 3034 2739 
Q 3056 2731 3066 2713 
Q 3084 2684 3084 2613 
Q 3084 2531 3069 2500 
Q 3059 2484 3036 2475 
Q 3013 2466 2878 2466 
L 2506 2466 
Q 2681 2241 2681 1891 
Q 2681 1491 2375 1206 
Q 2069 922 1553 922 
Q 1341 922 1119 984 
Q 981 866 932 777 
Q 884 688 884 625 
Q 884 572 936 522 
Q 988 472 1138 450 
Q 1225 438 1575 428 
Q 2219 413 2409 384 
Q 2700 344 2873 169 
Q 3047 -6 3047 -263 
Q 3047 -616 2716 -925 
Q 2228 -1381 1444 -1381 
Q 841 -1381 425 -1109 
Q 191 -953 191 -784 
Q 191 -709 225 -634 
Q 278 -519 444 -313 
Q 466 -284 763 25 
Q 600 122 533 198 
Q 466 275 466 372 
Q 466 481 555 628 
Q 644 775 966 1044 
z
M 1509 2797 
Q 1278 2797 1122 2612 
Q 966 2428 966 2047 
Q 966 1553 1178 1281 
Q 1341 1075 1591 1075 
Q 1828 1075 1981 1253 
Q 2134 1431 2134 1813 
Q 2134 2309 1919 2591 
Q 1759 2797 1509 2797 
z
M 934 0 
Q 788 -159 713 -296 
Q 638 -434 638 -550 
Q 638 -700 819 -813 
Q 1131 -1006 1722 -1006 
Q 2284 -1006 2551 -807 
Q 2819 -609 2819 -384 
Q 2819 -222 2659 -153 
Q 2497 -84 2016 -72 
Q 1313 -53 934 0 
z
" transform="scale(0.015625)"/>
       <path id="TimesNewRomanPSMT-79" d="M 38 2863 
L 1372 2863 
L 1372 2747 
L 1306 2747 
Q 1166 2747 1095 2686 
Q 1025 2625 1025 2534 
Q 1025 2413 1128 2197 
L 1825 753 
L 2466 2334 
Q 2519 2463 2519 2588 
Q 2519 2644 2497 2672 
Q 2472 2706 2419 2726 
Q 2366 2747 2231 2747 
L 2231 2863 
L 3163 2863 
L 3163 2747 
Q 3047 2734 2984 2696 
Q 2922 2659 2847 2556 
Q 2819 2513 2741 2316 
L 1575 -541 
Q 1406 -956 1132 -1168 
Q 859 -1381 606 -1381 
Q 422 -1381 303 -1275 
Q 184 -1169 184 -1031 
Q 184 -900 270 -820 
Q 356 -741 506 -741 
Q 609 -741 788 -809 
Q 913 -856 944 -856 
Q 1038 -856 1148 -759 
Q 1259 -663 1372 -384 
L 1575 113 
L 547 2272 
Q 500 2369 397 2513 
Q 319 2622 269 2659 
Q 197 2709 38 2747 
L 38 2863 
z
" transform="scale(0.015625)"/>
       <path id="TimesNewRomanPSMT-20" transform="scale(0.015625)"/>
       <path id="TimesNewRomanPSMT-2f" d="M 1794 4444 
L 259 -88 
L 9 -88 
L 1544 4444 
L 1794 4444 
z
" transform="scale(0.015625)"/>
       <path id="TimesNewRomanPSMT-56" d="M 4544 4238 
L 4544 4122 
Q 4319 4081 4203 3978 
Q 4038 3825 3909 3509 
L 2431 -97 
L 2316 -97 
L 728 3556 
Q 606 3838 556 3900 
Q 478 3997 364 4051 
Q 250 4106 56 4122 
L 56 4238 
L 1788 4238 
L 1788 4122 
Q 1494 4094 1406 4022 
Q 1319 3950 1319 3838 
Q 1319 3681 1463 3350 
L 2541 866 
L 3541 3319 
Q 3688 3681 3688 3822 
Q 3688 3913 3597 3995 
Q 3506 4078 3291 4113 
Q 3275 4116 3238 4122 
L 3238 4238 
L 4544 4238 
z
" transform="scale(0.015625)"/>
      </defs>
      <use xlink:href="#TimesNewRomanPSMT-45"/>
      <use xlink:href="#TimesNewRomanPSMT-6e" x="61.083984"/>
      <use xlink:href="#TimesNewRomanPSMT-65" x="111.083984"/>
      <use xlink:href="#TimesNewRomanPSMT-72" x="155.46875"/>
      <use xlink:href="#TimesNewRomanPSMT-67" x="187.019531"/>
      <use xlink:href="#TimesNewRomanPSMT-79" x="237.019531"/>
      <use xlink:href="#TimesNewRomanPSMT-20" x="287.019531"/>
      <use xlink:href="#TimesNewRomanPSMT-20" x="312.019531"/>
      <use xlink:href="#TimesNewRomanPSMT-2f" x="337.019531"/>
      <use xlink:href="#TimesNewRomanPSMT-20" x="364.802734"/>
      <use xlink:href="#TimesNewRomanPSMT-65" x="389.802734"/>
      <use xlink:href="#TimesNewRomanPSMT-56" x="434.1875"/>
     </g>
    </g>
   </g>
   <g id="matplotlib.axis_2">
    <g id="ytick_1">
     <g id="line2d_7">
      <defs>
       <path id="m1d565466e9" d="M 0 0 
L -3.5 0 
" style="stroke: #000000; stroke-width: 0.8"/>
      </defs>
      <g>
       <use xlink:href="#m1d565466e9" x="45" y="291.686351" style="stroke: #000000; stroke-width: 0.8"/>
      </g>
     </g>
     <g id="text_8">
      <!-- 0 -->
      <g transform="translate(32 295.852601) scale(0.12 -0.12)">
       <use xlink:href="#TimesNewRomanPSMT-30"/>
      </g>
     </g>
    </g>
    <g id="ytick_2">
     <g id="line2d_8">
      <g>
       <use xlink:href="#m1d565466e9" x="45" y="236.694458" style="stroke: #000000; stroke-width: 0.8"/>
      </g>
     </g>
     <g id="text_9">
      <!-- 200000 -->
      <g transform="translate(2 240.860708) scale(0.12 -0.12)">
       <use xlink:href="#TimesNewRomanPSMT-32"/>
       <use xlink:href="#TimesNewRomanPSMT-30" x="50"/>
       <use xlink:href="#TimesNewRomanPSMT-30" x="100"/>
       <use xlink:href="#TimesNewRomanPSMT-30" x="150"/>
       <use xlink:href="#TimesNewRomanPSMT-30" x="200"/>
       <use xlink:href="#TimesNewRomanPSMT-30" x="250"/>
      </g>
     </g>
    </g>
    <g id="ytick_3">
     <g id="line2d_9">
      <g>
       <use xlink:href="#m1d565466e9" x="45" y="181.702565" style="stroke: #000000; stroke-width: 0.8"/>
      </g>
     </g>
     <g id="text_10">
      <!-- 400000 -->
      <g transform="translate(2 185.868815) scale(0.12 -0.12)">
       <use xlink:href="#TimesNewRomanPSMT-34"/>
       <use xlink:href="#TimesNewRomanPSMT-30" x="50"/>
       <use xlink:href="#TimesNewRomanPSMT-30" x="100"/>
       <use xlink:href="#TimesNewRomanPSMT-30" x="150"/>
       <use xlink:href="#TimesNewRomanPSMT-30" x="200"/>
       <use xlink:href="#TimesNewRomanPSMT-30" x="250"/>
      </g>
     </g>
    </g>
    <g id="ytick_4">
     <g id="line2d_10">
      <g>
       <use xlink:href="#m1d565466e9" x="45" y="126.710672" style="stroke: #000000; stroke-width: 0.8"/>
      </g>
     </g>
     <g id="text_11">
      <!-- 600000 -->
      <g transform="translate(2 130.876922) scale(0.12 -0.12)">
       <defs>
        <path id="TimesNewRomanPSMT-36" d="M 2869 4325 
L 2869 4209 
Q 2456 4169 2195 4045 
Q 1934 3922 1679 3669 
Q 1425 3416 1258 3105 
Q 1091 2794 978 2366 
Q 1428 2675 1881 2675 
Q 2316 2675 2634 2325 
Q 2953 1975 2953 1425 
Q 2953 894 2631 456 
Q 2244 -75 1606 -75 
Q 1172 -75 869 213 
Q 275 772 275 1663 
Q 275 2231 503 2743 
Q 731 3256 1154 3653 
Q 1578 4050 1965 4187 
Q 2353 4325 2688 4325 
L 2869 4325 
z
M 925 2138 
Q 869 1716 869 1456 
Q 869 1156 980 804 
Q 1091 453 1309 247 
Q 1469 100 1697 100 
Q 1969 100 2183 356 
Q 2397 613 2397 1088 
Q 2397 1622 2184 2012 
Q 1972 2403 1581 2403 
Q 1463 2403 1327 2353 
Q 1191 2303 925 2138 
z
" transform="scale(0.015625)"/>
       </defs>
       <use xlink:href="#TimesNewRomanPSMT-36"/>
       <use xlink:href="#TimesNewRomanPSMT-30" x="50"/>
       <use xlink:href="#TimesNewRomanPSMT-30" x="100"/>
       <use xlink:href="#TimesNewRomanPSMT-30" x="150"/>
       <use xlink:href="#TimesNewRomanPSMT-30" x="200"/>
       <use xlink:href="#TimesNewRomanPSMT-30" x="250"/>
      </g>
     </g>
    </g>
    <g id="ytick_5">
     <g id="line2d_11">
      <g>
       <use xlink:href="#m1d565466e9" x="45" y="71.71878" style="stroke: #000000; stroke-width: 0.8"/>
      </g>
     </g>
     <g id="text_12">
      <!-- 800000 -->
      <g transform="translate(2 75.88503) scale(0.12 -0.12)">
       <defs>
        <path id="TimesNewRomanPSMT-38" d="M 1228 2134 
Q 725 2547 579 2797 
Q 434 3047 434 3316 
Q 434 3728 753 4026 
Q 1072 4325 1600 4325 
Q 2113 4325 2425 4047 
Q 2738 3769 2738 3413 
Q 2738 3175 2569 2928 
Q 2400 2681 1866 2347 
Q 2416 1922 2594 1678 
Q 2831 1359 2831 1006 
Q 2831 559 2490 242 
Q 2150 -75 1597 -75 
Q 994 -75 656 303 
Q 388 606 388 966 
Q 388 1247 577 1523 
Q 766 1800 1228 2134 
z
M 1719 2469 
Q 2094 2806 2194 3001 
Q 2294 3197 2294 3444 
Q 2294 3772 2109 3958 
Q 1925 4144 1606 4144 
Q 1288 4144 1088 3959 
Q 888 3775 888 3528 
Q 888 3366 970 3203 
Q 1053 3041 1206 2894 
L 1719 2469 
z
M 1375 2016 
Q 1116 1797 991 1539 
Q 866 1281 866 981 
Q 866 578 1086 336 
Q 1306 94 1647 94 
Q 1984 94 2187 284 
Q 2391 475 2391 747 
Q 2391 972 2272 1150 
Q 2050 1481 1375 2016 
z
" transform="scale(0.015625)"/>
       </defs>
       <use xlink:href="#TimesNewRomanPSMT-38"/>
       <use xlink:href="#TimesNewRomanPSMT-30" x="50"/>
       <use xlink:href="#TimesNewRomanPSMT-30" x="100"/>
       <use xlink:href="#TimesNewRomanPSMT-30" x="150"/>
       <use xlink:href="#TimesNewRomanPSMT-30" x="200"/>
       <use xlink:href="#TimesNewRomanPSMT-30" x="250"/>
      </g>
     </g>
    </g>
    <g id="text_13">
     <!-- $\alpha$ / cm$^{-1}$ -->
     <g transform="translate(-4.994688 205.95) rotate(-90) scale(0.14 -0.14)">
      <defs>
       <path id="STIXGeneral-Italic-3b1" d="M 3514 2739 
L 2605 1069 
L 2605 954 
Q 2605 704 2662 512 
Q 2720 320 2822 320 
Q 2970 320 3149 794 
L 3251 749 
Q 3014 -58 2605 -58 
Q 2291 -58 2272 614 
Q 1709 -70 1030 -70 
Q 589 -70 381 198 
Q 173 467 173 902 
Q 173 1293 329 1673 
Q 486 2054 755 2330 
Q 973 2547 1270 2684 
Q 1568 2822 1862 2822 
Q 2246 2822 2457 2595 
Q 2669 2368 2669 2061 
L 2963 2739 
L 3514 2739 
z
M 2298 1741 
Q 2298 2688 1805 2688 
Q 1472 2688 1085 2099 
Q 698 1510 698 800 
Q 698 493 806 278 
Q 915 64 1139 64 
Q 1606 64 2195 1286 
Q 2202 1325 2230 1411 
Q 2259 1498 2278 1581 
Q 2298 1664 2298 1741 
z
" transform="scale(0.015625)"/>
       <path id="TimesNewRomanPSMT-63" d="M 2631 1088 
Q 2516 522 2178 217 
Q 1841 -88 1431 -88 
Q 944 -88 581 321 
Q 219 731 219 1428 
Q 219 2103 620 2525 
Q 1022 2947 1584 2947 
Q 2006 2947 2278 2723 
Q 2550 2500 2550 2259 
Q 2550 2141 2473 2067 
Q 2397 1994 2259 1994 
Q 2075 1994 1981 2113 
Q 1928 2178 1911 2362 
Q 1894 2547 1784 2644 
Q 1675 2738 1481 2738 
Q 1169 2738 978 2506 
Q 725 2200 725 1697 
Q 725 1184 976 792 
Q 1228 400 1656 400 
Q 1963 400 2206 609 
Q 2378 753 2541 1131 
L 2631 1088 
z
" transform="scale(0.015625)"/>
       <path id="TimesNewRomanPSMT-6d" d="M 1050 2338 
Q 1363 2650 1419 2697 
Q 1559 2816 1721 2881 
Q 1884 2947 2044 2947 
Q 2313 2947 2506 2790 
Q 2700 2634 2766 2338 
Q 3088 2713 3309 2830 
Q 3531 2947 3766 2947 
Q 3994 2947 4170 2830 
Q 4347 2713 4450 2447 
Q 4519 2266 4519 1878 
L 4519 647 
Q 4519 378 4559 278 
Q 4591 209 4675 161 
Q 4759 113 4950 113 
L 4950 0 
L 3538 0 
L 3538 113 
L 3597 113 
Q 3781 113 3884 184 
Q 3956 234 3988 344 
Q 4000 397 4000 647 
L 4000 1878 
Q 4000 2228 3916 2372 
Q 3794 2572 3525 2572 
Q 3359 2572 3192 2489 
Q 3025 2406 2788 2181 
L 2781 2147 
L 2788 2013 
L 2788 647 
Q 2788 353 2820 281 
Q 2853 209 2943 161 
Q 3034 113 3253 113 
L 3253 0 
L 1806 0 
L 1806 113 
Q 2044 113 2133 169 
Q 2222 225 2256 338 
Q 2272 391 2272 647 
L 2272 1878 
Q 2272 2228 2169 2381 
Q 2031 2581 1784 2581 
Q 1616 2581 1450 2491 
Q 1191 2353 1050 2181 
L 1050 647 
Q 1050 366 1089 281 
Q 1128 197 1204 155 
Q 1281 113 1516 113 
L 1516 0 
L 100 0 
L 100 113 
Q 297 113 375 155 
Q 453 197 493 289 
Q 534 381 534 647 
L 534 1741 
Q 534 2213 506 2350 
Q 484 2453 437 2492 
Q 391 2531 309 2531 
Q 222 2531 100 2484 
L 53 2597 
L 916 2947 
L 1050 2947 
L 1050 2338 
z
" transform="scale(0.015625)"/>
       <path id="STIXGeneral-Regular-2212" d="M 3974 1408 
L 410 1408 
L 410 1830 
L 3974 1830 
L 3974 1408 
z
" transform="scale(0.015625)"/>
       <path id="STIXGeneral-Regular-31" d="M 2522 0 
L 755 0 
L 755 96 
Q 1107 115 1235 227 
Q 1363 339 1363 608 
L 1363 3482 
Q 1363 3795 1171 3795 
Q 1082 3795 883 3718 
L 710 3654 
L 710 3744 
L 1856 4326 
L 1914 4307 
L 1914 486 
Q 1914 275 2042 185 
Q 2170 96 2522 96 
L 2522 0 
z
" transform="scale(0.015625)"/>
      </defs>
      <use xlink:href="#STIXGeneral-Italic-3b1" transform="translate(0 0.409375)"/>
      <use xlink:href="#TimesNewRomanPSMT-20" transform="translate(55.199997 0.409375)"/>
      <use xlink:href="#TimesNewRomanPSMT-2f" transform="translate(80.199997 0.409375)"/>
      <use xlink:href="#TimesNewRomanPSMT-20" transform="translate(107.9832 0.409375)"/>
      <use xlink:href="#TimesNewRomanPSMT-63" transform="translate(132.9832 0.409375)"/>
      <use xlink:href="#TimesNewRomanPSMT-6d" transform="translate(177.367966 0.409375)"/>
      <use xlink:href="#STIXGeneral-Regular-2212" transform="translate(256.69445 35.684375) scale(0.7)"/>
      <use xlink:href="#STIXGeneral-Regular-31" transform="translate(304.644439 35.684375) scale(0.7)"/>
     </g>
    </g>
   </g>
   <g id="line2d_12">
    <path d="M 57.681818 291.671389 
L 60.243802 291.71012 
L 62.805785 291.888336 
L 65.367769 291.449228 
L 67.929752 291.365073 
L 70.491736 291.940664 
L 73.053719 292.783317 
L 75.615702 291.45124 
L 78.177686 290.731052 
L 80.739669 291.477296 
L 83.301653 288.879598 
L 85.863636 289.673429 
L 88.42562 291.704335 
L 90.987603 291.822251 
L 93.549587 288.834615 
L 96.11157 292.322893 
L 98.673554 292.767142 
L 101.235537 289.904561 
L 103.797521 294.660777 
L 106.359504 291.456633 
L 108.921488 287.633152 
L 111.483471 285.681503 
L 114.045455 288.072766 
L 116.607438 293.013857 
L 119.169421 283.686904 
L 121.731405 282.9995 
L 124.293388 293.025336 
L 126.855372 281.060643 
L 129.417355 276.773814 
L 131.979339 282.453225 
L 134.541322 278.942949 
L 137.103306 273.543971 
L 139.665289 276.07454 
L 142.227273 294.277695 
L 144.789256 278.800364 
L 147.35124 280.246242 
L 149.913223 273.219759 
L 152.475207 283.720152 
L 155.03719 280.603622 
L 157.599174 283.374842 
L 160.161157 266.37322 
L 162.72314 273.056859 
L 165.285124 266.294316 
L 167.847107 254.934852 
L 170.409091 286.551564 
L 172.971074 269.553141 
L 175.533058 249.281282 
L 178.095041 255.292379 
L 180.657025 264.050844 
L 183.219008 243.443376 
L 185.780992 246.774813 
L 188.342975 233.238735 
L 190.904959 238.976126 
L 193.466942 246.857928 
L 196.028926 264.097455 
L 198.590909 230.431528 
L 201.152893 252.984851 
L 203.714876 241.379176 
L 206.27686 237.90663 
L 208.838843 242.82865 
L 211.400826 210.168882 
L 213.96281 209.483997 
L 216.524793 219.345157 
L 219.086777 190.400612 
L 221.64876 230.802051 
L 224.210744 190.279744 
L 226.772727 217.89085 
L 229.334711 174.824509 
L 231.896694 191.801168 
L 234.458678 187.113714 
L 237.020661 205.102461 
L 239.582645 174.469259 
L 242.144628 165.009417 
L 244.706612 163.208976 
L 247.268595 167.034616 
L 249.830579 191.246051 
L 252.392562 188.962798 
L 254.954545 144.026491 
L 257.516529 181.502519 
L 260.078512 168.251945 
L 262.640496 186.170819 
L 265.202479 196.739697 
L 267.764463 155.882642 
L 270.326446 177.185504 
L 272.88843 146.937975 
L 275.450413 153.029179 
L 278.012397 113.626737 
L 280.57438 131.394601 
L 283.136364 154.794444 
L 285.698347 120.765534 
L 288.260331 136.910668 
L 290.822314 131.729254 
L 293.384298 114.416926 
L 295.946281 106.379775 
L 298.508264 102.734383 
L 301.070248 90.534402 
L 303.632231 128.82242 
L 306.194215 132.965022 
L 308.756198 112.84399 
L 311.318182 101.080873 
" clip-path="url(#p4f9d3d5a47)" style="fill: none; stroke: #1f77b4; stroke-width: 1.5; stroke-linecap: square"/>
   </g>
   <g id="line2d_13">
    <path d="M 57.681818 291.760352 
L 60.243802 291.925118 
L 62.805785 292.094689 
L 65.367769 292.359196 
L 67.929752 292.156304 
L 70.491736 292.474472 
L 73.053719 292.907549 
L 75.615702 294.31514 
L 78.177686 293.640021 
L 80.739669 294.234635 
L 83.301653 294.822032 
L 85.863636 297.136168 
L 88.42562 296.326675 
L 90.987603 296.472693 
L 93.549587 296.765395 
L 96.11157 296.056105 
L 98.673554 295.62023 
L 101.235537 297.439176 
L 103.797521 298.965595 
L 106.359504 298.395531 
L 108.921488 299.698951 
L 111.483471 298.901462 
L 114.045455 294.946791 
L 116.607438 295.549483 
L 119.169421 296.920537 
L 121.731405 294.203894 
L 124.293388 295.608159 
L 126.855372 294.982724 
L 129.417355 293.720436 
L 131.979339 289.599803 
L 134.541322 296.438978 
L 137.103306 289.068543 
L 139.665289 289.796172 
L 142.227273 292.935491 
L 144.789256 291.679813 
L 147.35124 293.268647 
L 149.913223 287.092245 
L 152.475207 284.813507 
L 155.03719 286.508319 
L 157.599174 292.922295 
L 160.161157 292.423443 
L 162.72314 290.463012 
L 165.285124 282.212624 
L 167.847107 294.165192 
L 170.409091 274.400959 
L 172.971074 292.109127 
L 175.533058 285.684626 
L 178.095041 295.504416 
L 180.657025 298.489111 
L 183.219008 304.339629 
L 185.780992 299.23336 
L 188.342975 299.446773 
L 190.904959 307.8 
L 193.466942 305.284882 
L 196.028926 293.063923 
L 198.590909 291.258706 
L 201.152893 282.160408 
L 203.714876 278.346182 
L 206.27686 293.094694 
L 208.838843 288.449074 
L 211.400826 284.058391 
L 213.96281 274.018578 
L 216.524793 277.594775 
L 219.086777 268.938493 
L 221.64876 259.153909 
L 224.210744 252.377801 
L 226.772727 253.638227 
L 229.334711 264.221548 
L 231.896694 243.436962 
L 234.458678 235.247006 
L 237.020661 251.390357 
L 239.582645 252.033031 
L 242.144628 237.415173 
L 244.706612 239.238972 
L 247.268595 223.941793 
L 249.830579 235.409049 
L 252.392562 220.82263 
L 254.954545 229.181058 
L 257.516529 238.396016 
L 260.078512 250.266705 
L 262.640496 223.26888 
L 265.202479 218.246314 
L 267.764463 223.713789 
L 270.326446 213.965478 
L 272.88843 230.498818 
L 275.450413 209.167595 
L 278.012397 196.212351 
L 280.57438 190.277584 
L 283.136364 199.098338 
L 285.698347 195.829693 
L 288.260331 170.737346 
L 290.822314 159.678022 
L 293.384298 164.399303 
L 295.946281 141.974176 
L 298.508264 158.75266 
L 301.070248 138.370957 
L 303.632231 111.786672 
L 306.194215 147.739125 
L 308.756198 165.473984 
L 311.318182 142.553843 
" clip-path="url(#p4f9d3d5a47)" style="fill: none; stroke: #ff7f0e; stroke-width: 1.5; stroke-linecap: square"/>
   </g>
   <g id="line2d_14">
    <path d="M 57.681818 291.671546 
L 60.243802 291.672777 
L 62.805785 291.660862 
L 65.367769 291.642578 
L 67.929752 291.636948 
L 70.491736 291.53342 
L 73.053719 291.738065 
L 75.615702 291.840718 
L 78.177686 291.962665 
L 80.739669 292.096709 
L 83.301653 292.137468 
L 85.863636 292.019796 
L 88.42562 291.801118 
L 90.987603 291.429585 
L 93.549587 290.663259 
L 96.11157 290.095502 
L 98.673554 289.830961 
L 101.235537 289.946209 
L 103.797521 289.810776 
L 106.359504 290.470722 
L 108.921488 291.049815 
L 111.483471 291.680152 
L 114.045455 292.489695 
L 116.607438 292.861139 
L 119.169421 293.008009 
L 121.731405 293.113593 
L 124.293388 293.394099 
L 126.855372 293.122351 
L 129.417355 291.995135 
L 131.979339 290.667368 
L 134.541322 289.997043 
L 137.103306 289.311626 
L 139.665289 288.953594 
L 142.227273 288.08599 
L 144.789256 286.620224 
L 147.35124 286.839099 
L 149.913223 287.553881 
L 152.475207 288.173536 
L 155.03719 288.384454 
L 157.599174 288.39631 
L 160.161157 288.388317 
L 162.72314 287.843124 
L 165.285124 286.871573 
L 167.847107 284.784049 
L 170.409091 282.493241 
L 172.971074 280.159658 
L 175.533058 277.838294 
L 178.095041 275.067769 
L 180.657025 272.731716 
L 183.219008 269.961905 
L 185.780992 266.640241 
L 188.342975 262.944129 
L 190.904959 259.015294 
L 193.466942 254.823858 
L 196.028926 250.446922 
L 198.590909 245.765338 
L 201.152893 241.32896 
L 203.714876 236.958986 
L 206.27686 233.566974 
L 208.838843 229.818919 
L 211.400826 226.57292 
L 213.96281 223.949813 
L 216.524793 221.645764 
L 219.086777 219.60571 
L 221.64876 216.862911 
L 224.210744 213.166673 
L 226.772727 208.395622 
L 229.334711 202.210498 
L 231.896694 195.024717 
L 234.458678 187.212923 
L 237.020661 179.698404 
L 239.582645 172.230896 
L 242.144628 165.106004 
L 244.706612 157.884576 
L 247.268595 150.843151 
L 249.830579 143.80848 
L 252.392562 136.527197 
L 254.954545 129.412857 
L 257.516529 122.730487 
L 260.078512 116.4193 
L 262.640496 111.011246 
L 265.202479 105.028621 
L 267.764463 99.818435 
L 270.326446 94.776819 
L 272.88843 90.147726 
L 275.450413 86.095189 
L 278.012397 82.378703 
L 280.57438 78.684243 
L 283.136364 74.603896 
L 285.698347 70.061814 
L 288.260331 65.449059 
L 290.822314 61.904638 
L 293.384298 59.674359 
L 295.946281 58.612549 
L 298.508264 58.160171 
L 301.070248 57.863709 
L 303.632231 57.432462 
L 306.194215 56.755461 
L 308.756198 56.054816 
L 311.318182 55.8 
" clip-path="url(#p4f9d3d5a47)" style="fill: none; stroke: #2ca02c; stroke-width: 1.5; stroke-linecap: square"/>
   </g>
   <g id="line2d_15">
    <path d="M 57.681818 291.68158 
L 60.243802 291.659551 
L 62.805785 291.62989 
L 65.367769 291.654016 
L 67.929752 291.708153 
L 70.491736 291.775028 
L 73.053719 291.855419 
L 75.615702 291.964148 
L 78.177686 292.036446 
L 80.739669 292.126311 
L 83.301653 292.095243 
L 85.863636 292.100465 
L 88.42562 292.144765 
L 90.987603 292.305058 
L 93.549587 292.603205 
L 96.11157 293.011684 
L 98.673554 293.322818 
L 101.235537 293.572066 
L 103.797521 293.558301 
L 106.359504 293.568441 
L 108.921488 293.399913 
L 111.483471 292.377987 
L 114.045455 291.943623 
L 116.607438 291.507264 
L 119.169421 291.590564 
L 121.731405 291.453493 
L 124.293388 291.577737 
L 126.855372 291.616776 
L 129.417355 291.602345 
L 131.979339 291.771132 
L 134.541322 292.256581 
L 137.103306 292.461591 
L 139.665289 292.559375 
L 142.227273 292.703913 
L 144.789256 292.334765 
L 147.35124 291.976326 
L 149.913223 291.321366 
L 152.475207 290.475556 
L 155.03719 289.572892 
L 157.599174 288.779448 
L 160.161157 287.786201 
L 162.72314 286.453431 
L 165.285124 284.849308 
L 167.847107 282.966264 
L 170.409091 281.019417 
L 172.971074 279.004347 
L 175.533058 276.748831 
L 178.095041 274.361885 
L 180.657025 271.922505 
L 183.219008 269.307936 
L 185.780992 266.688459 
L 188.342975 263.507762 
L 190.904959 260.374685 
L 193.466942 257.139023 
L 196.028926 253.661164 
L 198.590909 249.751699 
L 201.152893 245.415624 
L 203.714876 240.944518 
L 206.27686 235.95628 
L 208.838843 230.397271 
L 211.400826 224.071747 
L 213.96281 217.641356 
L 216.524793 211.017345 
L 219.086777 203.470523 
L 221.64876 195.698101 
L 224.210744 187.624715 
L 226.772727 179.743842 
L 229.334711 172.000504 
L 231.896694 164.527463 
L 234.458678 157.569386 
L 237.020661 150.765423 
L 239.582645 144.389072 
L 242.144628 138.283052 
L 244.706612 132.48089 
L 247.268595 127.02577 
L 249.830579 122.075463 
L 252.392562 117.730196 
L 254.954545 114.024806 
L 257.516529 110.683085 
L 260.078512 107.85714 
L 262.640496 105.501706 
L 265.202479 103.282166 
L 267.764463 101.261185 
L 270.326446 99.286509 
L 272.88843 97.394568 
L 275.450413 95.527977 
L 278.012397 93.53441 
L 280.57438 91.538021 
L 283.136364 89.017654 
L 285.698347 86.56259 
L 288.260331 84.183649 
L 290.822314 81.65705 
L 293.384298 79.237399 
L 295.946281 77.040606 
L 298.508264 75.244999 
L 301.070248 73.565398 
L 303.632231 71.92436 
L 306.194215 70.323486 
L 308.756198 68.924441 
L 311.318182 67.952388 
" clip-path="url(#p4f9d3d5a47)" style="fill: none; stroke: #d62728; stroke-width: 1.5; stroke-linecap: square"/>
   </g>
   <g id="line2d_16">
    <path d="M 57.681818 291.686351 
L 60.243802 291.686351 
L 62.805785 291.686351 
L 65.367769 291.686351 
L 67.929752 291.686351 
L 70.491736 291.686351 
L 73.053719 291.686351 
L 75.615702 291.686351 
L 78.177686 291.686351 
L 80.739669 291.686351 
L 83.301653 291.686351 
L 85.863636 291.686351 
L 88.42562 291.686351 
L 90.987603 291.686351 
L 93.549587 291.686351 
L 96.11157 291.686351 
L 98.673554 291.686351 
L 101.235537 291.686351 
L 103.797521 291.686351 
L 106.359504 291.686351 
L 108.921488 291.686351 
L 111.483471 291.686351 
L 114.045455 291.686351 
L 116.607438 291.686351 
L 119.169421 291.686351 
L 121.731405 291.686351 
L 124.293388 291.686351 
L 126.855372 291.686351 
L 129.417355 291.686351 
L 131.979339 291.686351 
L 134.541322 291.686351 
L 137.103306 291.686351 
L 139.665289 291.686351 
L 142.227273 291.686351 
L 144.789256 291.686351 
L 147.35124 291.686351 
L 149.913223 291.686351 
L 152.475207 291.686351 
L 155.03719 291.686351 
L 157.599174 283.248723 
L 160.161157 280.69511 
L 162.72314 277.550283 
L 165.285124 273.787037 
L 167.847107 269.337079 
L 170.409091 264.415101 
L 172.971074 259.461422 
L 175.533058 254.709032 
L 178.095041 249.919408 
L 180.657025 245.042224 
L 183.219008 240.427099 
L 185.780992 235.947705 
L 188.342975 231.071305 
L 190.904959 225.877182 
L 193.466942 220.604764 
L 196.028926 215.056389 
L 198.590909 208.642315 
L 201.152893 201.150585 
L 203.714876 193.367937 
L 206.27686 186.588374 
L 208.838843 181.574563 
L 211.400826 178.152872 
L 213.96281 175.420937 
L 216.524793 172.518129 
L 219.086777 168.925905 
L 221.64876 164.741414 
L 224.210744 160.649305 
L 226.772727 156.82106 
L 229.334711 153.175609 
L 231.896694 150.142798 
L 234.458678 148.613152 
L 237.020661 148.670579 
L 239.582645 149.341511 
L 242.144628 149.859225 
L 244.706612 150.287427 
L 247.268595 150.776922 
L 249.830579 150.991052 
L 252.392562 150.419787 
L 254.954545 148.549129 
L 257.516529 145.337662 
L 260.078512 141.255267 
L 262.640496 136.824706 
L 265.202479 132.220943 
L 267.764463 127.99364 
L 270.326446 124.537632 
L 272.88843 121.730148 
L 275.450413 118.950387 
L 278.012397 115.702123 
L 280.57438 112.176266 
L 283.136364 108.687558 
L 285.698347 105.602297 
L 288.260331 103.487028 
L 290.822314 102.589317 
L 293.384298 102.537031 
L 295.946281 103.042779 
L 298.508264 103.847392 
L 301.070248 104.231767 
L 303.632231 103.33802 
L 306.194215 101.208986 
L 308.756198 98.496791 
L 311.318182 95.772098 
" clip-path="url(#p4f9d3d5a47)" style="fill: none; stroke: #9467bd; stroke-width: 1.5; stroke-linecap: square"/>
   </g>
   <g id="patch_3">
    <path d="M 45 320.4 
L 45 43.2 
" style="fill: none; stroke: #000000; stroke-width: 0.8; stroke-linejoin: miter; stroke-linecap: square"/>
   </g>
   <g id="patch_4">
    <path d="M 324 320.4 
L 324 43.2 
" style="fill: none; stroke: #000000; stroke-width: 0.8; stroke-linejoin: miter; stroke-linecap: square"/>
   </g>
   <g id="patch_5">
    <path d="M 45 320.4 
L 324 320.4 
" style="fill: none; stroke: #000000; stroke-width: 0.8; stroke-linejoin: miter; stroke-linecap: square"/>
   </g>
   <g id="patch_6">
    <path d="M 45 43.2 
L 324 43.2 
" style="fill: none; stroke: #000000; stroke-width: 0.8; stroke-linejoin: miter; stroke-linecap: square"/>
   </g>
   <g id="legend_1">
    <g id="patch_7">
     <path d="M 54.8 153.373437 
L 127.6 153.373437 
Q 130.4 153.373437 130.4 150.573437 
L 130.4 53 
Q 130.4 50.2 127.6 50.2 
L 54.8 50.2 
Q 52 50.2 52 53 
L 52 150.573437 
Q 52 153.373437 54.8 153.373437 
z
" style="fill: #ffffff; opacity: 0.8; stroke: #cccccc; stroke-linejoin: miter"/>
    </g>
    <g id="line2d_17">
     <path d="M 57.6 60.7 
L 71.6 60.7 
L 85.6 60.7 
" style="fill: none; stroke: #1f77b4; stroke-width: 1.5; stroke-linecap: square"/>
    </g>
    <g id="text_14">
     <!-- 10 -->
     <g transform="translate(96.8 65.6) scale(0.14 -0.14)">
      <use xlink:href="#TimesNewRomanPSMT-31"/>
      <use xlink:href="#TimesNewRomanPSMT-30" x="50"/>
     </g>
    </g>
    <g id="line2d_18">
     <path d="M 57.6 80.494687 
L 71.6 80.494687 
L 85.6 80.494687 
" style="fill: none; stroke: #ff7f0e; stroke-width: 1.5; stroke-linecap: square"/>
    </g>
    <g id="text_15">
     <!-- 100 -->
     <g transform="translate(96.8 85.394687) scale(0.14 -0.14)">
      <use xlink:href="#TimesNewRomanPSMT-31"/>
      <use xlink:href="#TimesNewRomanPSMT-30" x="50"/>
      <use xlink:href="#TimesNewRomanPSMT-30" x="100"/>
     </g>
    </g>
    <g id="line2d_19">
     <path d="M 57.6 100.289375 
L 71.6 100.289375 
L 85.6 100.289375 
" style="fill: none; stroke: #2ca02c; stroke-width: 1.5; stroke-linecap: square"/>
    </g>
    <g id="text_16">
     <!-- 1000 -->
     <g transform="translate(96.8 105.189375) scale(0.14 -0.14)">
      <use xlink:href="#TimesNewRomanPSMT-31"/>
      <use xlink:href="#TimesNewRomanPSMT-30" x="50"/>
      <use xlink:href="#TimesNewRomanPSMT-30" x="100"/>
      <use xlink:href="#TimesNewRomanPSMT-30" x="150"/>
     </g>
    </g>
    <g id="line2d_20">
     <path d="M 57.6 120.084062 
L 71.6 120.084062 
L 85.6 120.084062 
" style="fill: none; stroke: #d62728; stroke-width: 1.5; stroke-linecap: square"/>
    </g>
    <g id="text_17">
     <!-- 5k -->
     <g transform="translate(96.8 124.984062) scale(0.14 -0.14)">
      <defs>
       <path id="TimesNewRomanPSMT-6b" d="M 1047 4444 
L 1047 1594 
L 1775 2259 
Q 2006 2472 2044 2528 
Q 2069 2566 2069 2603 
Q 2069 2666 2017 2711 
Q 1966 2756 1847 2763 
L 1847 2863 
L 3091 2863 
L 3091 2763 
Q 2834 2756 2664 2684 
Q 2494 2613 2291 2428 
L 1556 1750 
L 2291 822 
Q 2597 438 2703 334 
Q 2853 188 2966 144 
Q 3044 113 3238 113 
L 3238 0 
L 1847 0 
L 1847 113 
Q 1966 116 2008 148 
Q 2050 181 2050 241 
Q 2050 313 1925 472 
L 1047 1594 
L 1047 644 
Q 1047 366 1086 278 
Q 1125 191 1197 153 
Q 1269 116 1509 113 
L 1509 0 
L 53 0 
L 53 113 
Q 272 113 381 166 
Q 447 200 481 272 
Q 528 375 528 628 
L 528 3234 
Q 528 3731 506 3842 
Q 484 3953 434 3995 
Q 384 4038 303 4038 
Q 238 4038 106 3984 
L 53 4094 
L 903 4444 
L 1047 4444 
z
" transform="scale(0.015625)"/>
      </defs>
      <use xlink:href="#TimesNewRomanPSMT-35"/>
      <use xlink:href="#TimesNewRomanPSMT-6b" x="50"/>
     </g>
    </g>
    <g id="line2d_21">
     <path d="M 57.6 139.87875 
L 71.6 139.87875 
L 85.6 139.87875 
" style="fill: none; stroke: #9467bd; stroke-width: 1.5; stroke-linecap: square"/>
    </g>
    <g id="text_18">
     <!-- True -->
     <g transform="translate(96.8 144.77875) scale(0.14 -0.14)">
      <defs>
       <path id="TimesNewRomanPSMT-54" d="M 3703 4238 
L 3750 3244 
L 3631 3244 
Q 3597 3506 3538 3619 
Q 3441 3800 3280 3886 
Q 3119 3972 2856 3972 
L 2259 3972 
L 2259 734 
Q 2259 344 2344 247 
Q 2463 116 2709 116 
L 2856 116 
L 2856 0 
L 1059 0 
L 1059 116 
L 1209 116 
Q 1478 116 1591 278 
Q 1659 378 1659 734 
L 1659 3972 
L 1150 3972 
Q 853 3972 728 3928 
Q 566 3869 450 3700 
Q 334 3531 313 3244 
L 194 3244 
L 244 4238 
L 3703 4238 
z
" transform="scale(0.015625)"/>
       <path id="TimesNewRomanPSMT-75" d="M 2709 2863 
L 2709 1128 
Q 2709 631 2732 520 
Q 2756 409 2807 365 
Q 2859 322 2928 322 
Q 3025 322 3147 375 
L 3191 266 
L 2334 -88 
L 2194 -88 
L 2194 519 
Q 1825 119 1631 15 
Q 1438 -88 1222 -88 
Q 981 -88 804 51 
Q 628 191 559 409 
Q 491 628 491 1028 
L 491 2306 
Q 491 2509 447 2587 
Q 403 2666 317 2708 
Q 231 2750 6 2747 
L 6 2863 
L 1009 2863 
L 1009 947 
Q 1009 547 1148 422 
Q 1288 297 1484 297 
Q 1619 297 1789 381 
Q 1959 466 2194 703 
L 2194 2325 
Q 2194 2569 2105 2655 
Q 2016 2741 1734 2747 
L 1734 2863 
L 2709 2863 
z
" transform="scale(0.015625)"/>
      </defs>
      <use xlink:href="#TimesNewRomanPSMT-54"/>
      <use xlink:href="#TimesNewRomanPSMT-72" x="57.583984"/>
      <use xlink:href="#TimesNewRomanPSMT-75" x="90.884766"/>
      <use xlink:href="#TimesNewRomanPSMT-65" x="140.884766"/>
     </g>
    </g>
   </g>
  </g>
 </g>
 <defs>
  <clipPath id="p4f9d3d5a47">
   <rect x="45" y="43.2" width="279" height="277.2"/>
  </clipPath>
 </defs>
</svg>
