<?xml version="1.0" encoding="utf-8" standalone="no"?>
<!DOCTYPE svg PUBLIC "-//W3C//DTD SVG 1.1//EN"
  "http://www.w3.org/Graphics/SVG/1.1/DTD/svg11.dtd">
<svg xmlns:xlink="http://www.w3.org/1999/xlink" width="360pt" height="360pt" viewBox="0 0 360 360" xmlns="http://www.w3.org/2000/svg" version="1.1">
 <metadata>
  <rdf:RDF xmlns:dc="http://purl.org/dc/elements/1.1/" xmlns:cc="http://creativecommons.org/ns#" xmlns:rdf="http://www.w3.org/1999/02/22-rdf-syntax-ns#">
   <cc:Work>
    <dc:type rdf:resource="http://purl.org/dc/dcmitype/StillImage"/>
    <dc:date>2025-05-12T13:36:03.908903</dc:date>
    <dc:format>image/svg+xml</dc:format>
    <dc:creator>
     <cc:Agent>
      <dc:title>Matplotlib v3.8.1, https://matplotlib.org/</dc:title>
     </cc:Agent>
    </dc:creator>
   </cc:Work>
  </rdf:RDF>
 </metadata>
 <defs>
  <style type="text/css">*{stroke-linejoin: round; stroke-linecap: butt}</style>
 </defs>
 <g id="figure_1">
  <g id="patch_1">
   <path d="M 0 360 
L 360 360 
L 360 0 
L 0 0 
z
" style="fill: #ffffff"/>
  </g>
  <g id="axes_1">
   <g id="patch_2">
    <path d="M 45 320.4 
L 324 320.4 
L 324 43.2 
L 45 43.2 
z
" style="fill: #ffffff"/>
   </g>
   <g id="matplotlib.axis_1">
    <g id="xtick_1">
     <g id="line2d_1">
      <defs>
       <path id="me846c1fd52" d="M 0 0 
L 0 3.5 
" style="stroke: #000000; stroke-width: 0.8"/>
      </defs>
      <g>
       <use xlink:href="#me846c1fd52" x="55.119835" y="320.4" style="stroke: #000000; stroke-width: 0.8"/>
      </g>
     </g>
     <g id="text_1">
      <!-- 0 -->
      <g transform="translate(51.938585 334.998438) scale(0.1 -0.1)">
       <defs>
        <path id="DejaVuSans-30" d="M 2034 4250 
Q 1547 4250 1301 3770 
Q 1056 3291 1056 2328 
Q 1056 1369 1301 889 
Q 1547 409 2034 409 
Q 2525 409 2770 889 
Q 3016 1369 3016 2328 
Q 3016 3291 2770 3770 
Q 2525 4250 2034 4250 
z
M 2034 4750 
Q 2819 4750 3233 4129 
Q 3647 3509 3647 2328 
Q 3647 1150 3233 529 
Q 2819 -91 2034 -91 
Q 1250 -91 836 529 
Q 422 1150 422 2328 
Q 422 3509 836 4129 
Q 1250 4750 2034 4750 
z
" transform="scale(0.015625)"/>
       </defs>
       <use xlink:href="#DejaVuSans-30"/>
      </g>
     </g>
    </g>
    <g id="xtick_2">
     <g id="line2d_2">
      <g>
       <use xlink:href="#me846c1fd52" x="106.359504" y="320.4" style="stroke: #000000; stroke-width: 0.8"/>
      </g>
     </g>
     <g id="text_2">
      <!-- 1 -->
      <g transform="translate(103.178254 334.998438) scale(0.1 -0.1)">
       <defs>
        <path id="DejaVuSans-31" d="M 794 531 
L 1825 531 
L 1825 4091 
L 703 3866 
L 703 4441 
L 1819 4666 
L 2450 4666 
L 2450 531 
L 3481 531 
L 3481 0 
L 794 0 
L 794 531 
z
" transform="scale(0.015625)"/>
       </defs>
       <use xlink:href="#DejaVuSans-31"/>
      </g>
     </g>
    </g>
    <g id="xtick_3">
     <g id="line2d_3">
      <g>
       <use xlink:href="#me846c1fd52" x="157.599174" y="320.4" style="stroke: #000000; stroke-width: 0.8"/>
      </g>
     </g>
     <g id="text_3">
      <!-- 2 -->
      <g transform="translate(154.417924 334.998438) scale(0.1 -0.1)">
       <defs>
        <path id="DejaVuSans-32" d="M 1228 531 
L 3431 531 
L 3431 0 
L 469 0 
L 469 531 
Q 828 903 1448 1529 
Q 2069 2156 2228 2338 
Q 2531 2678 2651 2914 
Q 2772 3150 2772 3378 
Q 2772 3750 2511 3984 
Q 2250 4219 1831 4219 
Q 1534 4219 1204 4116 
Q 875 4013 500 3803 
L 500 4441 
Q 881 4594 1212 4672 
Q 1544 4750 1819 4750 
Q 2544 4750 2975 4387 
Q 3406 4025 3406 3419 
Q 3406 3131 3298 2873 
Q 3191 2616 2906 2266 
Q 2828 2175 2409 1742 
Q 1991 1309 1228 531 
z
" transform="scale(0.015625)"/>
       </defs>
       <use xlink:href="#DejaVuSans-32"/>
      </g>
     </g>
    </g>
    <g id="xtick_4">
     <g id="line2d_4">
      <g>
       <use xlink:href="#me846c1fd52" x="208.838843" y="320.4" style="stroke: #000000; stroke-width: 0.8"/>
      </g>
     </g>
     <g id="text_4">
      <!-- 3 -->
      <g transform="translate(205.657593 334.998438) scale(0.1 -0.1)">
       <defs>
        <path id="DejaVuSans-33" d="M 2597 2516 
Q 3050 2419 3304 2112 
Q 3559 1806 3559 1356 
Q 3559 666 3084 287 
Q 2609 -91 1734 -91 
Q 1441 -91 1130 -33 
Q 819 25 488 141 
L 488 750 
Q 750 597 1062 519 
Q 1375 441 1716 441 
Q 2309 441 2620 675 
Q 2931 909 2931 1356 
Q 2931 1769 2642 2001 
Q 2353 2234 1838 2234 
L 1294 2234 
L 1294 2753 
L 1863 2753 
Q 2328 2753 2575 2939 
Q 2822 3125 2822 3475 
Q 2822 3834 2567 4026 
Q 2313 4219 1838 4219 
Q 1578 4219 1281 4162 
Q 984 4106 628 3988 
L 628 4550 
Q 988 4650 1302 4700 
Q 1616 4750 1894 4750 
Q 2613 4750 3031 4423 
Q 3450 4097 3450 3541 
Q 3450 3153 3228 2886 
Q 3006 2619 2597 2516 
z
" transform="scale(0.015625)"/>
       </defs>
       <use xlink:href="#DejaVuSans-33"/>
      </g>
     </g>
    </g>
    <g id="xtick_5">
     <g id="line2d_5">
      <g>
       <use xlink:href="#me846c1fd52" x="260.078512" y="320.4" style="stroke: #000000; stroke-width: 0.8"/>
      </g>
     </g>
     <g id="text_5">
      <!-- 4 -->
      <g transform="translate(256.897262 334.998438) scale(0.1 -0.1)">
       <defs>
        <path id="DejaVuSans-34" d="M 2419 4116 
L 825 1625 
L 2419 1625 
L 2419 4116 
z
M 2253 4666 
L 3047 4666 
L 3047 1625 
L 3713 1625 
L 3713 1100 
L 3047 1100 
L 3047 0 
L 2419 0 
L 2419 1100 
L 313 1100 
L 313 1709 
L 2253 4666 
z
" transform="scale(0.015625)"/>
       </defs>
       <use xlink:href="#DejaVuSans-34"/>
      </g>
     </g>
    </g>
    <g id="xtick_6">
     <g id="line2d_6">
      <g>
       <use xlink:href="#me846c1fd52" x="311.318182" y="320.4" style="stroke: #000000; stroke-width: 0.8"/>
      </g>
     </g>
     <g id="text_6">
      <!-- 5 -->
      <g transform="translate(308.136932 334.998438) scale(0.1 -0.1)">
       <defs>
        <path id="DejaVuSans-35" d="M 691 4666 
L 3169 4666 
L 3169 4134 
L 1269 4134 
L 1269 2991 
Q 1406 3038 1543 3061 
Q 1681 3084 1819 3084 
Q 2600 3084 3056 2656 
Q 3513 2228 3513 1497 
Q 3513 744 3044 326 
Q 2575 -91 1722 -91 
Q 1428 -91 1123 -41 
Q 819 9 494 109 
L 494 744 
Q 775 591 1075 516 
Q 1375 441 1709 441 
Q 2250 441 2565 725 
Q 2881 1009 2881 1497 
Q 2881 1984 2565 2268 
Q 2250 2553 1709 2553 
Q 1456 2553 1204 2497 
Q 953 2441 691 2322 
L 691 4666 
z
" transform="scale(0.015625)"/>
       </defs>
       <use xlink:href="#DejaVuSans-35"/>
      </g>
     </g>
    </g>
    <g id="text_7">
     <!-- Energy  / eV -->
     <g transform="translate(154.045312 348.676562) scale(0.1 -0.1)">
      <defs>
       <path id="DejaVuSans-45" d="M 628 4666 
L 3578 4666 
L 3578 4134 
L 1259 4134 
L 1259 2753 
L 3481 2753 
L 3481 2222 
L 1259 2222 
L 1259 531 
L 3634 531 
L 3634 0 
L 628 0 
L 628 4666 
z
" transform="scale(0.015625)"/>
       <path id="DejaVuSans-6e" d="M 3513 2113 
L 3513 0 
L 2938 0 
L 2938 2094 
Q 2938 2591 2744 2837 
Q 2550 3084 2163 3084 
Q 1697 3084 1428 2787 
Q 1159 2491 1159 1978 
L 1159 0 
L 581 0 
L 581 3500 
L 1159 3500 
L 1159 2956 
Q 1366 3272 1645 3428 
Q 1925 3584 2291 3584 
Q 2894 3584 3203 3211 
Q 3513 2838 3513 2113 
z
" transform="scale(0.015625)"/>
       <path id="DejaVuSans-65" d="M 3597 1894 
L 3597 1613 
L 953 1613 
Q 991 1019 1311 708 
Q 1631 397 2203 397 
Q 2534 397 2845 478 
Q 3156 559 3463 722 
L 3463 178 
Q 3153 47 2828 -22 
Q 2503 -91 2169 -91 
Q 1331 -91 842 396 
Q 353 884 353 1716 
Q 353 2575 817 3079 
Q 1281 3584 2069 3584 
Q 2775 3584 3186 3129 
Q 3597 2675 3597 1894 
z
M 3022 2063 
Q 3016 2534 2758 2815 
Q 2500 3097 2075 3097 
Q 1594 3097 1305 2825 
Q 1016 2553 972 2059 
L 3022 2063 
z
" transform="scale(0.015625)"/>
       <path id="DejaVuSans-72" d="M 2631 2963 
Q 2534 3019 2420 3045 
Q 2306 3072 2169 3072 
Q 1681 3072 1420 2755 
Q 1159 2438 1159 1844 
L 1159 0 
L 581 0 
L 581 3500 
L 1159 3500 
L 1159 2956 
Q 1341 3275 1631 3429 
Q 1922 3584 2338 3584 
Q 2397 3584 2469 3576 
Q 2541 3569 2628 3553 
L 2631 2963 
z
" transform="scale(0.015625)"/>
       <path id="DejaVuSans-67" d="M 2906 1791 
Q 2906 2416 2648 2759 
Q 2391 3103 1925 3103 
Q 1463 3103 1205 2759 
Q 947 2416 947 1791 
Q 947 1169 1205 825 
Q 1463 481 1925 481 
Q 2391 481 2648 825 
Q 2906 1169 2906 1791 
z
M 3481 434 
Q 3481 -459 3084 -895 
Q 2688 -1331 1869 -1331 
Q 1566 -1331 1297 -1286 
Q 1028 -1241 775 -1147 
L 775 -588 
Q 1028 -725 1275 -790 
Q 1522 -856 1778 -856 
Q 2344 -856 2625 -561 
Q 2906 -266 2906 331 
L 2906 616 
Q 2728 306 2450 153 
Q 2172 0 1784 0 
Q 1141 0 747 490 
Q 353 981 353 1791 
Q 353 2603 747 3093 
Q 1141 3584 1784 3584 
Q 2172 3584 2450 3431 
Q 2728 3278 2906 2969 
L 2906 3500 
L 3481 3500 
L 3481 434 
z
" transform="scale(0.015625)"/>
       <path id="DejaVuSans-79" d="M 2059 -325 
Q 1816 -950 1584 -1140 
Q 1353 -1331 966 -1331 
L 506 -1331 
L 506 -850 
L 844 -850 
Q 1081 -850 1212 -737 
Q 1344 -625 1503 -206 
L 1606 56 
L 191 3500 
L 800 3500 
L 1894 763 
L 2988 3500 
L 3597 3500 
L 2059 -325 
z
" transform="scale(0.015625)"/>
       <path id="DejaVuSans-20" transform="scale(0.015625)"/>
       <path id="DejaVuSans-2f" d="M 1625 4666 
L 2156 4666 
L 531 -594 
L 0 -594 
L 1625 4666 
z
" transform="scale(0.015625)"/>
       <path id="DejaVuSans-56" d="M 1831 0 
L 50 4666 
L 709 4666 
L 2188 738 
L 3669 4666 
L 4325 4666 
L 2547 0 
L 1831 0 
z
" transform="scale(0.015625)"/>
      </defs>
      <use xlink:href="#DejaVuSans-45"/>
      <use xlink:href="#DejaVuSans-6e" x="63.183594"/>
      <use xlink:href="#DejaVuSans-65" x="126.5625"/>
      <use xlink:href="#DejaVuSans-72" x="188.085938"/>
      <use xlink:href="#DejaVuSans-67" x="227.449219"/>
      <use xlink:href="#DejaVuSans-79" x="290.925781"/>
      <use xlink:href="#DejaVuSans-20" x="350.105469"/>
      <use xlink:href="#DejaVuSans-20" x="381.892578"/>
      <use xlink:href="#DejaVuSans-2f" x="413.679688"/>
      <use xlink:href="#DejaVuSans-20" x="447.371094"/>
      <use xlink:href="#DejaVuSans-65" x="479.158203"/>
      <use xlink:href="#DejaVuSans-56" x="540.681641"/>
     </g>
    </g>
   </g>
   <g id="matplotlib.axis_2">
    <g id="ytick_1">
     <g id="line2d_7">
      <defs>
       <path id="mc12b773f70" d="M 0 0 
L -3.5 0 
" style="stroke: #000000; stroke-width: 0.8"/>
      </defs>
      <g>
       <use xlink:href="#mc12b773f70" x="45" y="291.686351" style="stroke: #000000; stroke-width: 0.8"/>
      </g>
     </g>
     <g id="text_8">
      <!-- 0 -->
      <g transform="translate(31.6375 295.48557) scale(0.1 -0.1)">
       <use xlink:href="#DejaVuSans-30"/>
      </g>
     </g>
    </g>
    <g id="ytick_2">
     <g id="line2d_8">
      <g>
       <use xlink:href="#mc12b773f70" x="45" y="236.694458" style="stroke: #000000; stroke-width: 0.8"/>
      </g>
     </g>
     <g id="text_9">
      <!-- 200000 -->
      <g transform="translate(-0.175 240.493677) scale(0.1 -0.1)">
       <use xlink:href="#DejaVuSans-32"/>
       <use xlink:href="#DejaVuSans-30" x="63.623047"/>
       <use xlink:href="#DejaVuSans-30" x="127.246094"/>
       <use xlink:href="#DejaVuSans-30" x="190.869141"/>
       <use xlink:href="#DejaVuSans-30" x="254.492188"/>
       <use xlink:href="#DejaVuSans-30" x="318.115234"/>
      </g>
     </g>
    </g>
    <g id="ytick_3">
     <g id="line2d_9">
      <g>
       <use xlink:href="#mc12b773f70" x="45" y="181.702565" style="stroke: #000000; stroke-width: 0.8"/>
      </g>
     </g>
     <g id="text_10">
      <!-- 400000 -->
      <g transform="translate(-0.175 185.501784) scale(0.1 -0.1)">
       <use xlink:href="#DejaVuSans-34"/>
       <use xlink:href="#DejaVuSans-30" x="63.623047"/>
       <use xlink:href="#DejaVuSans-30" x="127.246094"/>
       <use xlink:href="#DejaVuSans-30" x="190.869141"/>
       <use xlink:href="#DejaVuSans-30" x="254.492188"/>
       <use xlink:href="#DejaVuSans-30" x="318.115234"/>
      </g>
     </g>
    </g>
    <g id="ytick_4">
     <g id="line2d_10">
      <g>
       <use xlink:href="#mc12b773f70" x="45" y="126.710672" style="stroke: #000000; stroke-width: 0.8"/>
      </g>
     </g>
     <g id="text_11">
      <!-- 600000 -->
      <g transform="translate(-0.175 130.509891) scale(0.1 -0.1)">
       <defs>
        <path id="DejaVuSans-36" d="M 2113 2584 
Q 1688 2584 1439 2293 
Q 1191 2003 1191 1497 
Q 1191 994 1439 701 
Q 1688 409 2113 409 
Q 2538 409 2786 701 
Q 3034 994 3034 1497 
Q 3034 2003 2786 2293 
Q 2538 2584 2113 2584 
z
M 3366 4563 
L 3366 3988 
Q 3128 4100 2886 4159 
Q 2644 4219 2406 4219 
Q 1781 4219 1451 3797 
Q 1122 3375 1075 2522 
Q 1259 2794 1537 2939 
Q 1816 3084 2150 3084 
Q 2853 3084 3261 2657 
Q 3669 2231 3669 1497 
Q 3669 778 3244 343 
Q 2819 -91 2113 -91 
Q 1303 -91 875 529 
Q 447 1150 447 2328 
Q 447 3434 972 4092 
Q 1497 4750 2381 4750 
Q 2619 4750 2861 4703 
Q 3103 4656 3366 4563 
z
" transform="scale(0.015625)"/>
       </defs>
       <use xlink:href="#DejaVuSans-36"/>
       <use xlink:href="#DejaVuSans-30" x="63.623047"/>
       <use xlink:href="#DejaVuSans-30" x="127.246094"/>
       <use xlink:href="#DejaVuSans-30" x="190.869141"/>
       <use xlink:href="#DejaVuSans-30" x="254.492188"/>
       <use xlink:href="#DejaVuSans-30" x="318.115234"/>
      </g>
     </g>
    </g>
    <g id="ytick_5">
     <g id="line2d_11">
      <g>
       <use xlink:href="#mc12b773f70" x="45" y="71.71878" style="stroke: #000000; stroke-width: 0.8"/>
      </g>
     </g>
     <g id="text_12">
      <!-- 800000 -->
      <g transform="translate(-0.175 75.517998) scale(0.1 -0.1)">
       <defs>
        <path id="DejaVuSans-38" d="M 2034 2216 
Q 1584 2216 1326 1975 
Q 1069 1734 1069 1313 
Q 1069 891 1326 650 
Q 1584 409 2034 409 
Q 2484 409 2743 651 
Q 3003 894 3003 1313 
Q 3003 1734 2745 1975 
Q 2488 2216 2034 2216 
z
M 1403 2484 
Q 997 2584 770 2862 
Q 544 3141 544 3541 
Q 544 4100 942 4425 
Q 1341 4750 2034 4750 
Q 2731 4750 3128 4425 
Q 3525 4100 3525 3541 
Q 3525 3141 3298 2862 
Q 3072 2584 2669 2484 
Q 3125 2378 3379 2068 
Q 3634 1759 3634 1313 
Q 3634 634 3220 271 
Q 2806 -91 2034 -91 
Q 1263 -91 848 271 
Q 434 634 434 1313 
Q 434 1759 690 2068 
Q 947 2378 1403 2484 
z
M 1172 3481 
Q 1172 3119 1398 2916 
Q 1625 2713 2034 2713 
Q 2441 2713 2670 2916 
Q 2900 3119 2900 3481 
Q 2900 3844 2670 4047 
Q 2441 4250 2034 4250 
Q 1625 4250 1398 4047 
Q 1172 3844 1172 3481 
z
" transform="scale(0.015625)"/>
       </defs>
       <use xlink:href="#DejaVuSans-38"/>
       <use xlink:href="#DejaVuSans-30" x="63.623047"/>
       <use xlink:href="#DejaVuSans-30" x="127.246094"/>
       <use xlink:href="#DejaVuSans-30" x="190.869141"/>
       <use xlink:href="#DejaVuSans-30" x="254.492188"/>
       <use xlink:href="#DejaVuSans-30" x="318.115234"/>
      </g>
     </g>
    </g>
    <g id="text_13">
     <!-- $\alpha$ / cm$^{-1}$ -->
     <g transform="translate(-6.254688 202.95) rotate(-90) scale(0.1 -0.1)">
      <defs>
       <path id="DejaVuSans-Oblique-3b1" d="M 2619 1628 
L 2622 2350 
Q 2625 3088 2069 3091 
Q 1653 3094 1394 2747 
Q 1069 2319 959 1747 
Q 825 1059 994 731 
Q 1169 397 1547 397 
Q 1966 397 2319 1063 
L 2619 1628 
z
M 2166 3578 
Q 3141 3594 3128 2584 
Q 3128 2584 3616 3500 
L 4128 3500 
L 3119 1603 
L 3109 919 
Q 3109 766 3194 638 
Q 3291 488 3391 488 
L 3669 488 
L 3575 0 
L 3228 0 
Q 2934 0 2722 263 
Q 2622 394 2619 669 
Q 2416 334 2066 50 
Q 1900 -81 1453 -78 
Q 722 -72 456 397 
Q 184 884 353 1747 
Q 534 2675 1009 3097 
Q 1544 3569 2166 3578 
z
" transform="scale(0.015625)"/>
       <path id="DejaVuSans-63" d="M 3122 3366 
L 3122 2828 
Q 2878 2963 2633 3030 
Q 2388 3097 2138 3097 
Q 1578 3097 1268 2742 
Q 959 2388 959 1747 
Q 959 1106 1268 751 
Q 1578 397 2138 397 
Q 2388 397 2633 464 
Q 2878 531 3122 666 
L 3122 134 
Q 2881 22 2623 -34 
Q 2366 -91 2075 -91 
Q 1284 -91 818 406 
Q 353 903 353 1747 
Q 353 2603 823 3093 
Q 1294 3584 2113 3584 
Q 2378 3584 2631 3529 
Q 2884 3475 3122 3366 
z
" transform="scale(0.015625)"/>
       <path id="DejaVuSans-6d" d="M 3328 2828 
Q 3544 3216 3844 3400 
Q 4144 3584 4550 3584 
Q 5097 3584 5394 3201 
Q 5691 2819 5691 2113 
L 5691 0 
L 5113 0 
L 5113 2094 
Q 5113 2597 4934 2840 
Q 4756 3084 4391 3084 
Q 3944 3084 3684 2787 
Q 3425 2491 3425 1978 
L 3425 0 
L 2847 0 
L 2847 2094 
Q 2847 2600 2669 2842 
Q 2491 3084 2119 3084 
Q 1678 3084 1418 2786 
Q 1159 2488 1159 1978 
L 1159 0 
L 581 0 
L 581 3500 
L 1159 3500 
L 1159 2956 
Q 1356 3278 1631 3431 
Q 1906 3584 2284 3584 
Q 2666 3584 2933 3390 
Q 3200 3197 3328 2828 
z
" transform="scale(0.015625)"/>
       <path id="DejaVuSans-2212" d="M 678 2272 
L 4684 2272 
L 4684 1741 
L 678 1741 
L 678 2272 
z
" transform="scale(0.015625)"/>
      </defs>
      <use xlink:href="#DejaVuSans-Oblique-3b1" transform="translate(0 0.684375)"/>
      <use xlink:href="#DejaVuSans-20" transform="translate(65.917969 0.684375)"/>
      <use xlink:href="#DejaVuSans-2f" transform="translate(97.705078 0.684375)"/>
      <use xlink:href="#DejaVuSans-20" transform="translate(131.396484 0.684375)"/>
      <use xlink:href="#DejaVuSans-63" transform="translate(163.183594 0.684375)"/>
      <use xlink:href="#DejaVuSans-6d" transform="translate(218.164062 0.684375)"/>
      <use xlink:href="#DejaVuSans-2212" transform="translate(316.533203 38.965625) scale(0.7)"/>
      <use xlink:href="#DejaVuSans-31" transform="translate(375.185547 38.965625) scale(0.7)"/>
     </g>
    </g>
   </g>
   <g id="line2d_12">
    <path d="M 57.681818 291.671389 
L 60.243802 291.71012 
L 62.805785 291.888336 
L 65.367769 291.449228 
L 67.929752 291.365073 
L 70.491736 291.940664 
L 73.053719 292.783317 
L 75.615702 291.45124 
L 78.177686 290.731052 
L 80.739669 291.477296 
L 83.301653 288.879598 
L 85.863636 289.673429 
L 88.42562 291.704335 
L 90.987603 291.822251 
L 93.549587 288.834615 
L 96.11157 292.322893 
L 98.673554 292.767142 
L 101.235537 289.904561 
L 103.797521 294.660777 
L 106.359504 291.456633 
L 108.921488 287.633152 
L 111.483471 285.681503 
L 114.045455 288.072766 
L 116.607438 293.013857 
L 119.169421 283.686904 
L 121.731405 282.9995 
L 124.293388 293.025336 
L 126.855372 281.060643 
L 129.417355 276.773814 
L 131.979339 282.453225 
L 134.541322 278.942949 
L 137.103306 273.543971 
L 139.665289 276.07454 
L 142.227273 294.277695 
L 144.789256 278.800364 
L 147.35124 280.246242 
L 149.913223 273.219759 
L 152.475207 283.720152 
L 155.03719 280.603622 
L 157.599174 283.374842 
L 160.161157 266.37322 
L 162.72314 273.056859 
L 165.285124 266.294316 
L 167.847107 254.934852 
L 170.409091 286.551564 
L 172.971074 269.553141 
L 175.533058 249.281282 
L 178.095041 255.292379 
L 180.657025 264.050844 
L 183.219008 243.443376 
L 185.780992 246.774813 
L 188.342975 233.238735 
L 190.904959 238.976126 
L 193.466942 246.857928 
L 196.028926 264.097455 
L 198.590909 230.431528 
L 201.152893 252.984851 
L 203.714876 241.379176 
L 206.27686 237.90663 
L 208.838843 242.82865 
L 211.400826 210.168882 
L 213.96281 209.483997 
L 216.524793 219.345157 
L 219.086777 190.400612 
L 221.64876 230.802051 
L 224.210744 190.279744 
L 226.772727 217.89085 
L 229.334711 174.824509 
L 231.896694 191.801168 
L 234.458678 187.113714 
L 237.020661 205.102461 
L 239.582645 174.469259 
L 242.144628 165.009417 
L 244.706612 163.208976 
L 247.268595 167.034616 
L 249.830579 191.246051 
L 252.392562 188.962798 
L 254.954545 144.026491 
L 257.516529 181.502519 
L 260.078512 168.251945 
L 262.640496 186.170819 
L 265.202479 196.739697 
L 267.764463 155.882642 
L 270.326446 177.185504 
L 272.88843 146.937975 
L 275.450413 153.029179 
L 278.012397 113.626737 
L 280.57438 131.394601 
L 283.136364 154.794444 
L 285.698347 120.765534 
L 288.260331 136.910668 
L 290.822314 131.729254 
L 293.384298 114.416926 
L 295.946281 106.379775 
L 298.508264 102.734383 
L 301.070248 90.534402 
L 303.632231 128.82242 
L 306.194215 132.965022 
L 308.756198 112.84399 
L 311.318182 101.080873 
" clip-path="url(#pc9856d05e3)" style="fill: none; stroke: #1f77b4; stroke-width: 1.5; stroke-linecap: square"/>
   </g>
   <g id="line2d_13">
    <path d="M 57.681818 291.760352 
L 60.243802 291.925118 
L 62.805785 292.094689 
L 65.367769 292.359196 
L 67.929752 292.156304 
L 70.491736 292.474472 
L 73.053719 292.907549 
L 75.615702 294.31514 
L 78.177686 293.640021 
L 80.739669 294.234635 
L 83.301653 294.822032 
L 85.863636 297.136168 
L 88.42562 296.326675 
L 90.987603 296.472693 
L 93.549587 296.765395 
L 96.11157 296.056105 
L 98.673554 295.62023 
L 101.235537 297.439176 
L 103.797521 298.965595 
L 106.359504 298.395531 
L 108.921488 299.698951 
L 111.483471 298.901462 
L 114.045455 294.946791 
L 116.607438 295.549483 
L 119.169421 296.920537 
L 121.731405 294.203894 
L 124.293388 295.608159 
L 126.855372 294.982724 
L 129.417355 293.720436 
L 131.979339 289.599803 
L 134.541322 296.438978 
L 137.103306 289.068543 
L 139.665289 289.796172 
L 142.227273 292.935491 
L 144.789256 291.679813 
L 147.35124 293.268647 
L 149.913223 287.092245 
L 152.475207 284.813507 
L 155.03719 286.508319 
L 157.599174 292.922295 
L 160.161157 292.423443 
L 162.72314 290.463012 
L 165.285124 282.212624 
L 167.847107 294.165192 
L 170.409091 274.400959 
L 172.971074 292.109127 
L 175.533058 285.684626 
L 178.095041 295.504416 
L 180.657025 298.489111 
L 183.219008 304.339629 
L 185.780992 299.23336 
L 188.342975 299.446773 
L 190.904959 307.8 
L 193.466942 305.284882 
L 196.028926 293.063923 
L 198.590909 291.258706 
L 201.152893 282.160408 
L 203.714876 278.346182 
L 206.27686 293.094694 
L 208.838843 288.449074 
L 211.400826 284.058391 
L 213.96281 274.018578 
L 216.524793 277.594775 
L 219.086777 268.938493 
L 221.64876 259.153909 
L 224.210744 252.377801 
L 226.772727 253.638227 
L 229.334711 264.221548 
L 231.896694 243.436962 
L 234.458678 235.247006 
L 237.020661 251.390357 
L 239.582645 252.033031 
L 242.144628 237.415173 
L 244.706612 239.238972 
L 247.268595 223.941793 
L 249.830579 235.409049 
L 252.392562 220.82263 
L 254.954545 229.181058 
L 257.516529 238.396016 
L 260.078512 250.266705 
L 262.640496 223.26888 
L 265.202479 218.246314 
L 267.764463 223.713789 
L 270.326446 213.965478 
L 272.88843 230.498818 
L 275.450413 209.167595 
L 278.012397 196.212351 
L 280.57438 190.277584 
L 283.136364 199.098338 
L 285.698347 195.829693 
L 288.260331 170.737346 
L 290.822314 159.678022 
L 293.384298 164.399303 
L 295.946281 141.974176 
L 298.508264 158.75266 
L 301.070248 138.370957 
L 303.632231 111.786672 
L 306.194215 147.739125 
L 308.756198 165.473984 
L 311.318182 142.553843 
" clip-path="url(#pc9856d05e3)" style="fill: none; stroke: #ff7f0e; stroke-width: 1.5; stroke-linecap: square"/>
   </g>
   <g id="line2d_14">
    <path d="M 57.681818 291.671546 
L 60.243802 291.672777 
L 62.805785 291.660862 
L 65.367769 291.642578 
L 67.929752 291.636948 
L 70.491736 291.53342 
L 73.053719 291.738065 
L 75.615702 291.840718 
L 78.177686 291.962665 
L 80.739669 292.096709 
L 83.301653 292.137468 
L 85.863636 292.019796 
L 88.42562 291.801118 
L 90.987603 291.429585 
L 93.549587 290.663259 
L 96.11157 290.095502 
L 98.673554 289.830961 
L 101.235537 289.946209 
L 103.797521 289.810776 
L 106.359504 290.470722 
L 108.921488 291.049815 
L 111.483471 291.680152 
L 114.045455 292.489695 
L 116.607438 292.861139 
L 119.169421 293.008009 
L 121.731405 293.113593 
L 124.293388 293.394099 
L 126.855372 293.122351 
L 129.417355 291.995135 
L 131.979339 290.667368 
L 134.541322 289.997043 
L 137.103306 289.311626 
L 139.665289 288.953594 
L 142.227273 288.08599 
L 144.789256 286.620224 
L 147.35124 286.839099 
L 149.913223 287.553881 
L 152.475207 288.173536 
L 155.03719 288.384454 
L 157.599174 288.39631 
L 160.161157 288.388317 
L 162.72314 287.843124 
L 165.285124 286.871573 
L 167.847107 284.784049 
L 170.409091 282.493241 
L 172.971074 280.159658 
L 175.533058 277.838294 
L 178.095041 275.067769 
L 180.657025 272.731716 
L 183.219008 269.961905 
L 185.780992 266.640241 
L 188.342975 262.944129 
L 190.904959 259.015294 
L 193.466942 254.823858 
L 196.028926 250.446922 
L 198.590909 245.765338 
L 201.152893 241.32896 
L 203.714876 236.958986 
L 206.27686 233.566974 
L 208.838843 229.818919 
L 211.400826 226.57292 
L 213.96281 223.949813 
L 216.524793 221.645764 
L 219.086777 219.60571 
L 221.64876 216.862911 
L 224.210744 213.166673 
L 226.772727 208.395622 
L 229.334711 202.210498 
L 231.896694 195.024717 
L 234.458678 187.212923 
L 237.020661 179.698404 
L 239.582645 172.230896 
L 242.144628 165.106004 
L 244.706612 157.884576 
L 247.268595 150.843151 
L 249.830579 143.80848 
L 252.392562 136.527197 
L 254.954545 129.412857 
L 257.516529 122.730487 
L 260.078512 116.4193 
L 262.640496 111.011246 
L 265.202479 105.028621 
L 267.764463 99.818435 
L 270.326446 94.776819 
L 272.88843 90.147726 
L 275.450413 86.095189 
L 278.012397 82.378703 
L 280.57438 78.684243 
L 283.136364 74.603896 
L 285.698347 70.061814 
L 288.260331 65.449059 
L 290.822314 61.904638 
L 293.384298 59.674359 
L 295.946281 58.612549 
L 298.508264 58.160171 
L 301.070248 57.863709 
L 303.632231 57.432462 
L 306.194215 56.755461 
L 308.756198 56.054816 
L 311.318182 55.8 
" clip-path="url(#pc9856d05e3)" style="fill: none; stroke: #2ca02c; stroke-width: 1.5; stroke-linecap: square"/>
   </g>
   <g id="line2d_15">
    <path d="M 57.681818 291.68158 
L 60.243802 291.659551 
L 62.805785 291.62989 
L 65.367769 291.654016 
L 67.929752 291.708153 
L 70.491736 291.775028 
L 73.053719 291.855419 
L 75.615702 291.964148 
L 78.177686 292.036446 
L 80.739669 292.126311 
L 83.301653 292.095243 
L 85.863636 292.100465 
L 88.42562 292.144765 
L 90.987603 292.305058 
L 93.549587 292.603205 
L 96.11157 293.011684 
L 98.673554 293.322818 
L 101.235537 293.572066 
L 103.797521 293.558301 
L 106.359504 293.568441 
L 108.921488 293.399913 
L 111.483471 292.377987 
L 114.045455 291.943623 
L 116.607438 291.507264 
L 119.169421 291.590564 
L 121.731405 291.453493 
L 124.293388 291.577737 
L 126.855372 291.616776 
L 129.417355 291.602345 
L 131.979339 291.771132 
L 134.541322 292.256581 
L 137.103306 292.461591 
L 139.665289 292.559375 
L 142.227273 292.703913 
L 144.789256 292.334765 
L 147.35124 291.976326 
L 149.913223 291.321366 
L 152.475207 290.475556 
L 155.03719 289.572892 
L 157.599174 288.779448 
L 160.161157 287.786201 
L 162.72314 286.453431 
L 165.285124 284.849308 
L 167.847107 282.966264 
L 170.409091 281.019417 
L 172.971074 279.004347 
L 175.533058 276.748831 
L 178.095041 274.361885 
L 180.657025 271.922505 
L 183.219008 269.307936 
L 185.780992 266.688459 
L 188.342975 263.507762 
L 190.904959 260.374685 
L 193.466942 257.139023 
L 196.028926 253.661164 
L 198.590909 249.751699 
L 201.152893 245.415624 
L 203.714876 240.944518 
L 206.27686 235.95628 
L 208.838843 230.397271 
L 211.400826 224.071747 
L 213.96281 217.641356 
L 216.524793 211.017345 
L 219.086777 203.470523 
L 221.64876 195.698101 
L 224.210744 187.624715 
L 226.772727 179.743842 
L 229.334711 172.000504 
L 231.896694 164.527463 
L 234.458678 157.569386 
L 237.020661 150.765423 
L 239.582645 144.389072 
L 242.144628 138.283052 
L 244.706612 132.48089 
L 247.268595 127.02577 
L 249.830579 122.075463 
L 252.392562 117.730196 
L 254.954545 114.024806 
L 257.516529 110.683085 
L 260.078512 107.85714 
L 262.640496 105.501706 
L 265.202479 103.282166 
L 267.764463 101.261185 
L 270.326446 99.286509 
L 272.88843 97.394568 
L 275.450413 95.527977 
L 278.012397 93.53441 
L 280.57438 91.538021 
L 283.136364 89.017654 
L 285.698347 86.56259 
L 288.260331 84.183649 
L 290.822314 81.65705 
L 293.384298 79.237399 
L 295.946281 77.040606 
L 298.508264 75.244999 
L 301.070248 73.565398 
L 303.632231 71.92436 
L 306.194215 70.323486 
L 308.756198 68.924441 
L 311.318182 67.952388 
" clip-path="url(#pc9856d05e3)" style="fill: none; stroke: #d62728; stroke-width: 1.5; stroke-linecap: square"/>
   </g>
   <g id="line2d_16">
    <path d="M 57.681818 291.686351 
L 60.243802 291.686351 
L 62.805785 291.686351 
L 65.367769 291.686351 
L 67.929752 291.686351 
L 70.491736 291.686351 
L 73.053719 291.686351 
L 75.615702 291.686351 
L 78.177686 291.686351 
L 80.739669 291.686351 
L 83.301653 291.686351 
L 85.863636 291.686351 
L 88.42562 291.686351 
L 90.987603 291.686351 
L 93.549587 291.686351 
L 96.11157 291.686351 
L 98.673554 291.686351 
L 101.235537 291.686351 
L 103.797521 291.686351 
L 106.359504 291.686351 
L 108.921488 291.686351 
L 111.483471 291.686351 
L 114.045455 291.686351 
L 116.607438 291.686351 
L 119.169421 291.686351 
L 121.731405 291.686351 
L 124.293388 291.686351 
L 126.855372 291.686351 
L 129.417355 291.686351 
L 131.979339 291.686351 
L 134.541322 291.686351 
L 137.103306 291.686351 
L 139.665289 291.686351 
L 142.227273 291.686351 
L 144.789256 291.686351 
L 147.35124 291.686351 
L 149.913223 291.686351 
L 152.475207 291.686351 
L 155.03719 291.686351 
L 157.599174 283.248723 
L 160.161157 280.69511 
L 162.72314 277.550283 
L 165.285124 273.787037 
L 167.847107 269.337079 
L 170.409091 264.415101 
L 172.971074 259.461422 
L 175.533058 254.709032 
L 178.095041 249.919408 
L 180.657025 245.042224 
L 183.219008 240.427099 
L 185.780992 235.947705 
L 188.342975 231.071305 
L 190.904959 225.877182 
L 193.466942 220.604764 
L 196.028926 215.056389 
L 198.590909 208.642315 
L 201.152893 201.150585 
L 203.714876 193.367937 
L 206.27686 186.588374 
L 208.838843 181.574563 
L 211.400826 178.152872 
L 213.96281 175.420937 
L 216.524793 172.518129 
L 219.086777 168.925905 
L 221.64876 164.741414 
L 224.210744 160.649305 
L 226.772727 156.82106 
L 229.334711 153.175609 
L 231.896694 150.142798 
L 234.458678 148.613152 
L 237.020661 148.670579 
L 239.582645 149.341511 
L 242.144628 149.859225 
L 244.706612 150.287427 
L 247.268595 150.776922 
L 249.830579 150.991052 
L 252.392562 150.419787 
L 254.954545 148.549129 
L 257.516529 145.337662 
L 260.078512 141.255267 
L 262.640496 136.824706 
L 265.202479 132.220943 
L 267.764463 127.99364 
L 270.326446 124.537632 
L 272.88843 121.730148 
L 275.450413 118.950387 
L 278.012397 115.702123 
L 280.57438 112.176266 
L 283.136364 108.687558 
L 285.698347 105.602297 
L 288.260331 103.487028 
L 290.822314 102.589317 
L 293.384298 102.537031 
L 295.946281 103.042779 
L 298.508264 103.847392 
L 301.070248 104.231767 
L 303.632231 103.33802 
L 306.194215 101.208986 
L 308.756198 98.496791 
L 311.318182 95.772098 
" clip-path="url(#pc9856d05e3)" style="fill: none; stroke: #9467bd; stroke-width: 1.5; stroke-linecap: square"/>
   </g>
   <g id="patch_3">
    <path d="M 45 320.4 
L 45 43.2 
" style="fill: none; stroke: #000000; stroke-width: 0.8; stroke-linejoin: miter; stroke-linecap: square"/>
   </g>
   <g id="patch_4">
    <path d="M 324 320.4 
L 324 43.2 
" style="fill: none; stroke: #000000; stroke-width: 0.8; stroke-linejoin: miter; stroke-linecap: square"/>
   </g>
   <g id="patch_5">
    <path d="M 45 320.4 
L 324 320.4 
" style="fill: none; stroke: #000000; stroke-width: 0.8; stroke-linejoin: miter; stroke-linecap: square"/>
   </g>
   <g id="patch_6">
    <path d="M 45 43.2 
L 324 43.2 
" style="fill: none; stroke: #000000; stroke-width: 0.8; stroke-linejoin: miter; stroke-linecap: square"/>
   </g>
   <g id="legend_1">
    <g id="patch_7">
     <path d="M 52 124.590625 
L 109.45 124.590625 
Q 111.45 124.590625 111.45 122.590625 
L 111.45 50.2 
Q 111.45 48.2 109.45 48.2 
L 52 48.2 
Q 50 48.2 50 50.2 
L 50 122.590625 
Q 50 124.590625 52 124.590625 
z
" style="fill: #ffffff; opacity: 0.8; stroke: #cccccc; stroke-linejoin: miter"/>
    </g>
    <g id="line2d_17">
     <path d="M 54 56.298437 
L 64 56.298437 
L 74 56.298437 
" style="fill: none; stroke: #1f77b4; stroke-width: 1.5; stroke-linecap: square"/>
    </g>
    <g id="text_14">
     <!-- 10 -->
     <g transform="translate(82 59.798437) scale(0.1 -0.1)">
      <use xlink:href="#DejaVuSans-31"/>
      <use xlink:href="#DejaVuSans-30" x="63.623047"/>
     </g>
    </g>
    <g id="line2d_18">
     <path d="M 54 70.976562 
L 64 70.976562 
L 74 70.976562 
" style="fill: none; stroke: #ff7f0e; stroke-width: 1.5; stroke-linecap: square"/>
    </g>
    <g id="text_15">
     <!-- 100 -->
     <g transform="translate(82 74.476562) scale(0.1 -0.1)">
      <use xlink:href="#DejaVuSans-31"/>
      <use xlink:href="#DejaVuSans-30" x="63.623047"/>
      <use xlink:href="#DejaVuSans-30" x="127.246094"/>
     </g>
    </g>
    <g id="line2d_19">
     <path d="M 54 85.654687 
L 64 85.654687 
L 74 85.654687 
" style="fill: none; stroke: #2ca02c; stroke-width: 1.5; stroke-linecap: square"/>
    </g>
    <g id="text_16">
     <!-- 1000 -->
     <g transform="translate(82 89.154687) scale(0.1 -0.1)">
      <use xlink:href="#DejaVuSans-31"/>
      <use xlink:href="#DejaVuSans-30" x="63.623047"/>
      <use xlink:href="#DejaVuSans-30" x="127.246094"/>
      <use xlink:href="#DejaVuSans-30" x="190.869141"/>
     </g>
    </g>
    <g id="line2d_20">
     <path d="M 54 100.332812 
L 64 100.332812 
L 74 100.332812 
" style="fill: none; stroke: #d62728; stroke-width: 1.5; stroke-linecap: square"/>
    </g>
    <g id="text_17">
     <!-- 5k -->
     <g transform="translate(82 103.832812) scale(0.1 -0.1)">
      <defs>
       <path id="DejaVuSans-6b" d="M 581 4863 
L 1159 4863 
L 1159 1991 
L 2875 3500 
L 3609 3500 
L 1753 1863 
L 3688 0 
L 2938 0 
L 1159 1709 
L 1159 0 
L 581 0 
L 581 4863 
z
" transform="scale(0.015625)"/>
      </defs>
      <use xlink:href="#DejaVuSans-35"/>
      <use xlink:href="#DejaVuSans-6b" x="63.623047"/>
     </g>
    </g>
    <g id="line2d_21">
     <path d="M 54 115.010937 
L 64 115.010937 
L 74 115.010937 
" style="fill: none; stroke: #9467bd; stroke-width: 1.5; stroke-linecap: square"/>
    </g>
    <g id="text_18">
     <!-- True -->
     <g transform="translate(82 118.510937) scale(0.1 -0.1)">
      <defs>
       <path id="DejaVuSans-54" d="M -19 4666 
L 3928 4666 
L 3928 4134 
L 2272 4134 
L 2272 0 
L 1638 0 
L 1638 4134 
L -19 4134 
L -19 4666 
z
" transform="scale(0.015625)"/>
       <path id="DejaVuSans-75" d="M 544 1381 
L 544 3500 
L 1119 3500 
L 1119 1403 
Q 1119 906 1312 657 
Q 1506 409 1894 409 
Q 2359 409 2629 706 
Q 2900 1003 2900 1516 
L 2900 3500 
L 3475 3500 
L 3475 0 
L 2900 0 
L 2900 538 
Q 2691 219 2414 64 
Q 2138 -91 1772 -91 
Q 1169 -91 856 284 
Q 544 659 544 1381 
z
M 1991 3584 
L 1991 3584 
z
" transform="scale(0.015625)"/>
      </defs>
      <use xlink:href="#DejaVuSans-54"/>
      <use xlink:href="#DejaVuSans-72" x="46.333984"/>
      <use xlink:href="#DejaVuSans-75" x="87.447266"/>
      <use xlink:href="#DejaVuSans-65" x="150.826172"/>
     </g>
    </g>
   </g>
  </g>
 </g>
 <defs>
  <clipPath id="pc9856d05e3">
   <rect x="45" y="43.2" width="279" height="277.2"/>
  </clipPath>
 </defs>
</svg>
