<?xml version="1.0" encoding="utf-8" standalone="no"?>
<!DOCTYPE svg PUBLIC "-//W3C//DTD SVG 1.1//EN"
  "http://www.w3.org/Graphics/SVG/1.1/DTD/svg11.dtd">
<svg xmlns:xlink="http://www.w3.org/1999/xlink" width="384.365625pt" height="330.381563pt" viewBox="0 0 384.365625 330.381563" xmlns="http://www.w3.org/2000/svg" version="1.1">
 <metadata>
  <rdf:RDF xmlns:dc="http://purl.org/dc/elements/1.1/" xmlns:cc="http://creativecommons.org/ns#" xmlns:rdf="http://www.w3.org/1999/02/22-rdf-syntax-ns#">
   <cc:Work>
    <dc:type rdf:resource="http://purl.org/dc/dcmitype/StillImage"/>
    <dc:date>2025-07-14T15:49:17.110131</dc:date>
    <dc:format>image/svg+xml</dc:format>
    <dc:creator>
     <cc:Agent>
      <dc:title>Matplotlib v3.8.1, https://matplotlib.org/</dc:title>
     </cc:Agent>
    </dc:creator>
   </cc:Work>
  </rdf:RDF>
 </metadata>
 <defs>
  <style type="text/css">*{stroke-linejoin: round; stroke-linecap: butt}</style>
 </defs>
 <g id="figure_1">
  <g id="patch_1">
   <path d="M 0 330.381563 
L 384.365625 330.381563 
L 384.365625 0 
L 0 0 
z
" style="fill: #ffffff"/>
  </g>
  <g id="axes_1">
   <g id="patch_2">
    <path d="M 49.682813 288.56625 
L 328.682813 288.56625 
L 328.682813 11.36625 
L 49.682813 11.36625 
z
" style="fill: #ffffff"/>
   </g>
   <g id="PolyCollection_1">
    <defs>
     <path id="ma4e35a641d" d="M 104.647771 -62.236104 
L 103.69092 -62.236104 
L 103.444444 -64.706322 
L 103.179302 -67.176541 
L 102.897808 -69.646759 
L 102.597061 -72.116977 
L 102.268859 -74.587196 
L 101.901933 -77.057414 
L 101.485697 -79.527633 
L 101.013819 -81.997851 
L 100.486072 -84.46807 
L 99.907875 -86.938288 
L 99.288083 -89.408507 
L 98.635977 -91.878725 
L 97.958046 -94.348944 
L 97.254751 -96.819162 
L 96.517754 -99.289381 
L 95.728956 -101.759599 
L 94.862837 -104.229817 
L 93.892387 -106.700036 
L 92.796653 -109.170254 
L 91.566448 -111.640473 
L 90.205322 -114.110691 
L 88.725428 -116.58091 
L 87.140593 -119.051128 
L 85.46018 -121.521347 
L 83.686694 -123.991565 
L 81.818291 -126.461784 
L 79.855415 -128.932002 
L 77.80916 -131.402221 
L 75.70792 -133.872439 
L 73.598949 -136.342657 
L 71.543154 -138.812876 
L 69.604579 -141.283094 
L 67.838977 -143.753313 
L 66.286652 -146.223531 
L 64.972423 -148.69375 
L 63.911381 -151.163968 
L 63.115718 -153.634187 
L 62.597458 -156.104405 
L 62.364631 -158.574624 
L 62.412626 -161.044842 
L 62.715899 -163.51506 
L 63.226109 -165.985279 
L 63.880645 -168.455497 
L 64.620882 -170.925716 
L 65.414183 -173.395934 
L 66.270307 -175.866153 
L 67.243725 -178.336371 
L 68.418529 -180.80659 
L 69.880013 -183.276808 
L 71.682772 -185.747027 
L 73.826698 -188.217245 
L 76.24923 -190.687464 
L 78.836329 -193.157682 
L 81.44836 -195.6279 
L 83.952465 -198.098119 
L 86.251119 -200.568337 
L 88.298055 -203.038556 
L 90.097301 -205.508774 
L 91.68735 -207.978993 
L 93.117963 -210.449211 
L 94.429173 -212.91943 
L 95.639637 -215.389648 
L 96.746144 -217.859867 
L 97.731027 -220.330085 
L 98.572192 -222.800304 
L 99.251886 -225.270522 
L 99.763055 -227.74074 
L 100.113872 -230.210959 
L 100.330507 -232.681177 
L 100.456807 -235.151396 
L 100.54894 -237.621614 
L 100.664615 -240.091833 
L 100.849449 -242.562051 
L 101.125454 -245.03227 
L 101.486612 -247.502488 
L 101.903681 -249.972707 
L 102.336142 -252.442925 
L 102.746033 -254.913143 
L 103.108081 -257.383362 
L 103.412961 -259.85358 
L 103.664135 -262.323799 
L 103.871393 -264.794017 
L 104.044719 -267.264236 
L 104.190841 -269.734454 
L 104.312806 -272.204673 
L 104.411452 -274.674891 
L 104.487272 -277.14511 
L 104.541578 -279.615328 
L 104.576658 -282.085547 
L 104.595235 -284.555765 
L 104.599772 -287.025983 
L 104.592124 -289.496202 
L 104.573746 -291.96642 
L 104.546378 -294.436639 
L 104.512845 -296.906857 
L 104.477517 -299.377076 
L 104.446023 -301.847294 
L 104.424156 -304.317513 
L 104.416323 -306.787731 
L 104.647771 -306.787731 
L 104.647771 -306.787731 
L 104.647771 -304.317513 
L 104.647771 -301.847294 
L 104.647771 -299.377076 
L 104.647771 -296.906857 
L 104.647771 -294.436639 
L 104.647771 -291.96642 
L 104.647771 -289.496202 
L 104.647771 -287.025983 
L 104.647771 -284.555765 
L 104.647771 -282.085547 
L 104.647771 -279.615328 
L 104.647771 -277.14511 
L 104.647771 -274.674891 
L 104.647771 -272.204673 
L 104.647771 -269.734454 
L 104.647771 -267.264236 
L 104.647771 -264.794017 
L 104.647771 -262.323799 
L 104.647771 -259.85358 
L 104.647771 -257.383362 
L 104.647771 -254.913143 
L 104.647771 -252.442925 
L 104.647771 -249.972707 
L 104.647771 -247.502488 
L 104.647771 -245.03227 
L 104.647771 -242.562051 
L 104.647771 -240.091833 
L 104.647771 -237.621614 
L 104.647771 -235.151396 
L 104.647771 -232.681177 
L 104.647771 -230.210959 
L 104.647771 -227.74074 
L 104.647771 -225.270522 
L 104.647771 -222.800304 
L 104.647771 -220.330085 
L 104.647771 -217.859867 
L 104.647771 -215.389648 
L 104.647771 -212.91943 
L 104.647771 -210.449211 
L 104.647771 -207.978993 
L 104.647771 -205.508774 
L 104.647771 -203.038556 
L 104.647771 -200.568337 
L 104.647771 -198.098119 
L 104.647771 -195.6279 
L 104.647771 -193.157682 
L 104.647771 -190.687464 
L 104.647771 -188.217245 
L 104.647771 -185.747027 
L 104.647771 -183.276808 
L 104.647771 -180.80659 
L 104.647771 -178.336371 
L 104.647771 -175.866153 
L 104.647771 -173.395934 
L 104.647771 -170.925716 
L 104.647771 -168.455497 
L 104.647771 -165.985279 
L 104.647771 -163.51506 
L 104.647771 -161.044842 
L 104.647771 -158.574624 
L 104.647771 -156.104405 
L 104.647771 -153.634187 
L 104.647771 -151.163968 
L 104.647771 -148.69375 
L 104.647771 -146.223531 
L 104.647771 -143.753313 
L 104.647771 -141.283094 
L 104.647771 -138.812876 
L 104.647771 -136.342657 
L 104.647771 -133.872439 
L 104.647771 -131.402221 
L 104.647771 -128.932002 
L 104.647771 -126.461784 
L 104.647771 -123.991565 
L 104.647771 -121.521347 
L 104.647771 -119.051128 
L 104.647771 -116.58091 
L 104.647771 -114.110691 
L 104.647771 -111.640473 
L 104.647771 -109.170254 
L 104.647771 -106.700036 
L 104.647771 -104.229817 
L 104.647771 -101.759599 
L 104.647771 -99.289381 
L 104.647771 -96.819162 
L 104.647771 -94.348944 
L 104.647771 -91.878725 
L 104.647771 -89.408507 
L 104.647771 -86.938288 
L 104.647771 -84.46807 
L 104.647771 -81.997851 
L 104.647771 -79.527633 
L 104.647771 -77.057414 
L 104.647771 -74.587196 
L 104.647771 -72.116977 
L 104.647771 -69.646759 
L 104.647771 -67.176541 
L 104.647771 -64.706322 
L 104.647771 -62.236104 
z
" style="stroke: #000000; stroke-opacity: 0.9"/>
    </defs>
    <g clip-path="url(#pad4eb888a2)">
     <use xlink:href="#ma4e35a641d" x="0" y="330.381563" style="fill: #1f77b4; fill-opacity: 0.9; stroke: #000000; stroke-opacity: 0.9"/>
    </g>
   </g>
   <g id="PolyCollection_2">
    <defs>
     <path id="mecf0cdd9c6" d="M 273.750475 -65.489577 
L 272.447841 -65.489577 
L 272.364869 -67.6636 
L 272.271826 -69.837623 
L 272.159006 -72.011645 
L 272.014658 -74.185668 
L 271.825478 -76.35969 
L 271.577248 -78.533713 
L 271.255601 -80.707735 
L 270.846833 -82.881758 
L 270.338724 -85.05578 
L 269.721302 -87.229803 
L 268.987512 -89.403825 
L 268.133727 -91.577848 
L 267.160094 -93.75187 
L 266.07067 -95.925893 
L 264.87333 -98.099915 
L 263.579462 -100.273938 
L 262.203425 -102.44796 
L 260.761819 -104.621983 
L 259.272579 -106.796005 
L 257.753954 -108.970028 
L 256.223426 -111.14405 
L 254.696668 -113.318073 
L 253.186605 -115.492096 
L 251.702698 -117.666118 
L 250.250541 -119.840141 
L 248.831846 -122.014163 
L 247.444865 -124.188186 
L 246.085261 -126.362208 
L 244.747358 -128.536231 
L 243.425674 -130.710253 
L 242.116546 -132.884276 
L 240.819659 -135.058298 
L 239.539262 -137.232321 
L 238.284872 -139.406343 
L 237.07136 -141.580366 
L 235.918338 -143.754388 
L 234.848929 -145.928411 
L 233.888026 -148.102433 
L 233.060263 -150.276456 
L 232.387943 -152.450478 
L 231.889166 -154.624501 
L 231.576387 -156.798523 
L 231.45554 -158.972546 
L 231.525808 -161.146568 
L 231.780024 -163.320591 
L 232.205594 -165.494614 
L 232.785792 -167.668636 
L 233.50124 -169.842659 
L 234.331385 -172.016681 
L 235.255801 -174.190704 
L 236.255226 -176.364726 
L 237.312271 -178.538749 
L 238.41181 -180.712771 
L 239.541108 -182.886794 
L 240.68978 -185.060816 
L 241.849642 -187.234839 
L 243.01454 -189.408861 
L 244.180183 -191.582884 
L 245.343981 -193.756906 
L 246.504856 -195.930929 
L 247.662984 -198.104951 
L 248.819438 -200.278974 
L 249.975702 -202.452996 
L 251.133093 -204.627019 
L 252.292138 -206.801041 
L 253.452003 -208.975064 
L 254.610064 -211.149087 
L 255.761718 -213.323109 
L 256.900498 -215.497132 
L 258.018483 -217.671154 
L 259.106985 -219.845177 
L 260.157393 -222.019199 
L 261.162044 -224.193222 
L 262.114991 -226.367244 
L 263.012514 -228.541267 
L 263.853304 -230.715289 
L 264.638282 -232.889312 
L 265.370094 -235.063334 
L 266.052381 -237.237357 
L 266.688955 -239.411379 
L 267.283041 -241.585402 
L 267.836712 -243.759424 
L 268.350622 -245.933447 
L 268.824072 -248.107469 
L 269.255384 -250.281492 
L 269.642506 -252.455514 
L 269.983737 -254.629537 
L 270.278421 -256.803559 
L 270.52752 -258.977582 
L 270.733934 -261.151605 
L 270.90255 -263.325627 
L 271.039998 -265.49965 
L 271.154164 -267.673672 
L 271.253537 -269.847695 
L 271.346477 -272.021717 
L 271.440513 -274.19574 
L 271.541749 -276.369762 
L 271.654448 -278.543785 
L 271.780827 -280.717807 
L 273.750475 -280.717807 
L 273.750475 -280.717807 
L 273.750475 -278.543785 
L 273.750475 -276.369762 
L 273.750475 -274.19574 
L 273.750475 -272.021717 
L 273.750475 -269.847695 
L 273.750475 -267.673672 
L 273.750475 -265.49965 
L 273.750475 -263.325627 
L 273.750475 -261.151605 
L 273.750475 -258.977582 
L 273.750475 -256.803559 
L 273.750475 -254.629537 
L 273.750475 -252.455514 
L 273.750475 -250.281492 
L 273.750475 -248.107469 
L 273.750475 -245.933447 
L 273.750475 -243.759424 
L 273.750475 -241.585402 
L 273.750475 -239.411379 
L 273.750475 -237.237357 
L 273.750475 -235.063334 
L 273.750475 -232.889312 
L 273.750475 -230.715289 
L 273.750475 -228.541267 
L 273.750475 -226.367244 
L 273.750475 -224.193222 
L 273.750475 -222.019199 
L 273.750475 -219.845177 
L 273.750475 -217.671154 
L 273.750475 -215.497132 
L 273.750475 -213.323109 
L 273.750475 -211.149087 
L 273.750475 -208.975064 
L 273.750475 -206.801041 
L 273.750475 -204.627019 
L 273.750475 -202.452996 
L 273.750475 -200.278974 
L 273.750475 -198.104951 
L 273.750475 -195.930929 
L 273.750475 -193.756906 
L 273.750475 -191.582884 
L 273.750475 -189.408861 
L 273.750475 -187.234839 
L 273.750475 -185.060816 
L 273.750475 -182.886794 
L 273.750475 -180.712771 
L 273.750475 -178.538749 
L 273.750475 -176.364726 
L 273.750475 -174.190704 
L 273.750475 -172.016681 
L 273.750475 -169.842659 
L 273.750475 -167.668636 
L 273.750475 -165.494614 
L 273.750475 -163.320591 
L 273.750475 -161.146568 
L 273.750475 -158.972546 
L 273.750475 -156.798523 
L 273.750475 -154.624501 
L 273.750475 -152.450478 
L 273.750475 -150.276456 
L 273.750475 -148.102433 
L 273.750475 -145.928411 
L 273.750475 -143.754388 
L 273.750475 -141.580366 
L 273.750475 -139.406343 
L 273.750475 -137.232321 
L 273.750475 -135.058298 
L 273.750475 -132.884276 
L 273.750475 -130.710253 
L 273.750475 -128.536231 
L 273.750475 -126.362208 
L 273.750475 -124.188186 
L 273.750475 -122.014163 
L 273.750475 -119.840141 
L 273.750475 -117.666118 
L 273.750475 -115.492096 
L 273.750475 -113.318073 
L 273.750475 -111.14405 
L 273.750475 -108.970028 
L 273.750475 -106.796005 
L 273.750475 -104.621983 
L 273.750475 -102.44796 
L 273.750475 -100.273938 
L 273.750475 -98.099915 
L 273.750475 -95.925893 
L 273.750475 -93.75187 
L 273.750475 -91.577848 
L 273.750475 -89.403825 
L 273.750475 -87.229803 
L 273.750475 -85.05578 
L 273.750475 -82.881758 
L 273.750475 -80.707735 
L 273.750475 -78.533713 
L 273.750475 -76.35969 
L 273.750475 -74.185668 
L 273.750475 -72.011645 
L 273.750475 -69.837623 
L 273.750475 -67.6636 
L 273.750475 -65.489577 
z
" style="stroke: #000000; stroke-opacity: 0.9"/>
    </defs>
    <g clip-path="url(#pad4eb888a2)">
     <use xlink:href="#mecf0cdd9c6" x="0" y="330.381563" style="fill: #1f77b4; fill-opacity: 0.9; stroke: #000000; stroke-opacity: 0.9"/>
    </g>
   </g>
   <g id="matplotlib.axis_1">
    <g id="xtick_1">
     <g id="line2d_1">
      <defs>
       <path id="m978f4c21bb" d="M 0 0 
L 0 3.5 
" style="stroke: #000000; stroke-width: 0.8"/>
      </defs>
      <g>
       <use xlink:href="#m978f4c21bb" x="104.637358" y="288.56625" style="stroke: #000000; stroke-width: 0.8"/>
      </g>
     </g>
     <g id="text_1">
      <!-- ML -->
      <g transform="translate(95.637358 303.89875) scale(0.12 -0.12)">
       <defs>
        <path id="TimesNewRomanPSMT-4d" d="M 2619 0 
L 981 3566 
L 981 734 
Q 981 344 1066 247 
Q 1181 116 1431 116 
L 1581 116 
L 1581 0 
L 106 0 
L 106 116 
L 256 116 
Q 525 116 638 278 
Q 706 378 706 734 
L 706 3503 
Q 706 3784 644 3909 
Q 600 4000 483 4061 
Q 366 4122 106 4122 
L 106 4238 
L 1306 4238 
L 2844 922 
L 4356 4238 
L 5556 4238 
L 5556 4122 
L 5409 4122 
Q 5138 4122 5025 3959 
Q 4956 3859 4956 3503 
L 4956 734 
Q 4956 344 5044 247 
Q 5159 116 5409 116 
L 5556 116 
L 5556 0 
L 3756 0 
L 3756 116 
L 3906 116 
Q 4178 116 4288 278 
Q 4356 378 4356 734 
L 4356 3566 
L 2722 0 
L 2619 0 
z
" transform="scale(0.015625)"/>
        <path id="TimesNewRomanPSMT-4c" d="M 3669 1172 
L 3772 1150 
L 3409 0 
L 128 0 
L 128 116 
L 288 116 
Q 556 116 672 291 
Q 738 391 738 753 
L 738 3488 
Q 738 3884 650 3984 
Q 528 4122 288 4122 
L 128 4122 
L 128 4238 
L 2047 4238 
L 2047 4122 
Q 1709 4125 1573 4059 
Q 1438 3994 1388 3894 
Q 1338 3794 1338 3416 
L 1338 753 
Q 1338 494 1388 397 
Q 1425 331 1503 300 
Q 1581 269 1991 269 
L 2300 269 
Q 2788 269 2984 341 
Q 3181 413 3343 595 
Q 3506 778 3669 1172 
z
" transform="scale(0.015625)"/>
       </defs>
       <use xlink:href="#TimesNewRomanPSMT-4d"/>
       <use xlink:href="#TimesNewRomanPSMT-4c" x="88.916016"/>
      </g>
     </g>
    </g>
    <g id="xtick_2">
     <g id="line2d_2">
      <g>
       <use xlink:href="#m978f4c21bb" x="273.728267" y="288.56625" style="stroke: #000000; stroke-width: 0.8"/>
      </g>
     </g>
     <g id="text_2">
      <!-- TBmBJ -->
      <g transform="translate(255.057017 303.89875) scale(0.12 -0.12)">
       <defs>
        <path id="TimesNewRomanPSMT-54" d="M 3703 4238 
L 3750 3244 
L 3631 3244 
Q 3597 3506 3538 3619 
Q 3441 3800 3280 3886 
Q 3119 3972 2856 3972 
L 2259 3972 
L 2259 734 
Q 2259 344 2344 247 
Q 2463 116 2709 116 
L 2856 116 
L 2856 0 
L 1059 0 
L 1059 116 
L 1209 116 
Q 1478 116 1591 278 
Q 1659 378 1659 734 
L 1659 3972 
L 1150 3972 
Q 853 3972 728 3928 
Q 566 3869 450 3700 
Q 334 3531 313 3244 
L 194 3244 
L 244 4238 
L 3703 4238 
z
" transform="scale(0.015625)"/>
        <path id="TimesNewRomanPSMT-42" d="M 2956 2163 
Q 3397 2069 3616 1863 
Q 3919 1575 3919 1159 
Q 3919 844 3719 555 
Q 3519 266 3170 133 
Q 2822 0 2106 0 
L 106 0 
L 106 116 
L 266 116 
Q 531 116 647 284 
Q 719 394 719 750 
L 719 3488 
Q 719 3881 628 3984 
Q 506 4122 266 4122 
L 106 4122 
L 106 4238 
L 1938 4238 
Q 2450 4238 2759 4163 
Q 3228 4050 3475 3764 
Q 3722 3478 3722 3106 
Q 3722 2788 3528 2536 
Q 3334 2284 2956 2163 
z
M 1319 2331 
Q 1434 2309 1582 2298 
Q 1731 2288 1909 2288 
Q 2366 2288 2595 2386 
Q 2825 2484 2947 2687 
Q 3069 2891 3069 3131 
Q 3069 3503 2766 3765 
Q 2463 4028 1881 4028 
Q 1569 4028 1319 3959 
L 1319 2331 
z
M 1319 306 
Q 1681 222 2034 222 
Q 2600 222 2897 476 
Q 3194 731 3194 1106 
Q 3194 1353 3059 1581 
Q 2925 1809 2622 1940 
Q 2319 2072 1872 2072 
Q 1678 2072 1540 2065 
Q 1403 2059 1319 2044 
L 1319 306 
z
" transform="scale(0.015625)"/>
        <path id="TimesNewRomanPSMT-6d" d="M 1050 2338 
Q 1363 2650 1419 2697 
Q 1559 2816 1721 2881 
Q 1884 2947 2044 2947 
Q 2313 2947 2506 2790 
Q 2700 2634 2766 2338 
Q 3088 2713 3309 2830 
Q 3531 2947 3766 2947 
Q 3994 2947 4170 2830 
Q 4347 2713 4450 2447 
Q 4519 2266 4519 1878 
L 4519 647 
Q 4519 378 4559 278 
Q 4591 209 4675 161 
Q 4759 113 4950 113 
L 4950 0 
L 3538 0 
L 3538 113 
L 3597 113 
Q 3781 113 3884 184 
Q 3956 234 3988 344 
Q 4000 397 4000 647 
L 4000 1878 
Q 4000 2228 3916 2372 
Q 3794 2572 3525 2572 
Q 3359 2572 3192 2489 
Q 3025 2406 2788 2181 
L 2781 2147 
L 2788 2013 
L 2788 647 
Q 2788 353 2820 281 
Q 2853 209 2943 161 
Q 3034 113 3253 113 
L 3253 0 
L 1806 0 
L 1806 113 
Q 2044 113 2133 169 
Q 2222 225 2256 338 
Q 2272 391 2272 647 
L 2272 1878 
Q 2272 2228 2169 2381 
Q 2031 2581 1784 2581 
Q 1616 2581 1450 2491 
Q 1191 2353 1050 2181 
L 1050 647 
Q 1050 366 1089 281 
Q 1128 197 1204 155 
Q 1281 113 1516 113 
L 1516 0 
L 100 0 
L 100 113 
Q 297 113 375 155 
Q 453 197 493 289 
Q 534 381 534 647 
L 534 1741 
Q 534 2213 506 2350 
Q 484 2453 437 2492 
Q 391 2531 309 2531 
Q 222 2531 100 2484 
L 53 2597 
L 916 2947 
L 1050 2947 
L 1050 2338 
z
" transform="scale(0.015625)"/>
        <path id="TimesNewRomanPSMT-4a" d="M 638 4122 
L 638 4238 
L 2453 4238 
L 2453 4122 
L 2300 4122 
Q 2041 4122 1922 3969 
Q 1847 3869 1847 3488 
L 1847 1416 
Q 1847 938 1742 641 
Q 1638 344 1381 123 
Q 1125 -97 763 -97 
Q 469 -97 300 48 
Q 131 194 131 381 
Q 131 534 209 613 
Q 313 709 450 709 
Q 550 709 629 643 
Q 709 578 831 294 
Q 903 125 1016 125 
Q 1100 125 1173 228 
Q 1247 331 1247 594 
L 1247 3488 
Q 1247 3809 1206 3913 
Q 1175 3991 1075 4047 
Q 941 4122 791 4122 
L 638 4122 
z
" transform="scale(0.015625)"/>
       </defs>
       <use xlink:href="#TimesNewRomanPSMT-54"/>
       <use xlink:href="#TimesNewRomanPSMT-42" x="61.083984"/>
       <use xlink:href="#TimesNewRomanPSMT-6d" x="127.783203"/>
       <use xlink:href="#TimesNewRomanPSMT-42" x="205.566406"/>
       <use xlink:href="#TimesNewRomanPSMT-4a" x="272.265625"/>
      </g>
     </g>
    </g>
    <g id="text_3">
     <!-- Method -->
     <g transform="translate(167.40625 320.186875) scale(0.14 -0.14)">
      <defs>
       <path id="TimesNewRomanPSMT-65" d="M 681 1784 
Q 678 1147 991 784 
Q 1303 422 1725 422 
Q 2006 422 2214 576 
Q 2422 731 2563 1106 
L 2659 1044 
Q 2594 616 2278 264 
Q 1963 -88 1488 -88 
Q 972 -88 605 314 
Q 238 716 238 1394 
Q 238 2128 614 2539 
Q 991 2950 1559 2950 
Q 2041 2950 2350 2633 
Q 2659 2316 2659 1784 
L 681 1784 
z
M 681 1966 
L 2006 1966 
Q 1991 2241 1941 2353 
Q 1863 2528 1708 2628 
Q 1553 2728 1384 2728 
Q 1125 2728 920 2526 
Q 716 2325 681 1966 
z
" transform="scale(0.015625)"/>
       <path id="TimesNewRomanPSMT-74" d="M 1031 3803 
L 1031 2863 
L 1700 2863 
L 1700 2644 
L 1031 2644 
L 1031 788 
Q 1031 509 1111 412 
Q 1191 316 1316 316 
Q 1419 316 1516 380 
Q 1613 444 1666 569 
L 1788 569 
Q 1678 263 1478 108 
Q 1278 -47 1066 -47 
Q 922 -47 784 33 
Q 647 113 581 261 
Q 516 409 516 719 
L 516 2644 
L 63 2644 
L 63 2747 
Q 234 2816 414 2980 
Q 594 3144 734 3369 
Q 806 3488 934 3803 
L 1031 3803 
z
" transform="scale(0.015625)"/>
       <path id="TimesNewRomanPSMT-68" d="M 1041 4444 
L 1041 2350 
Q 1388 2731 1591 2839 
Q 1794 2947 1997 2947 
Q 2241 2947 2416 2812 
Q 2591 2678 2675 2391 
Q 2734 2191 2734 1659 
L 2734 647 
Q 2734 375 2778 275 
Q 2809 200 2884 156 
Q 2959 113 3159 113 
L 3159 0 
L 1753 0 
L 1753 113 
L 1819 113 
Q 2019 113 2097 173 
Q 2175 234 2206 353 
Q 2216 403 2216 647 
L 2216 1659 
Q 2216 2128 2167 2275 
Q 2119 2422 2012 2495 
Q 1906 2569 1756 2569 
Q 1603 2569 1437 2487 
Q 1272 2406 1041 2159 
L 1041 647 
Q 1041 353 1073 281 
Q 1106 209 1195 161 
Q 1284 113 1503 113 
L 1503 0 
L 84 0 
L 84 113 
Q 275 113 384 172 
Q 447 203 484 290 
Q 522 378 522 647 
L 522 3238 
Q 522 3728 498 3840 
Q 475 3953 426 3993 
Q 378 4034 297 4034 
Q 231 4034 84 3984 
L 41 4094 
L 897 4444 
L 1041 4444 
z
" transform="scale(0.015625)"/>
       <path id="TimesNewRomanPSMT-6f" d="M 1600 2947 
Q 2250 2947 2644 2453 
Q 2978 2031 2978 1484 
Q 2978 1100 2793 706 
Q 2609 313 2286 112 
Q 1963 -88 1566 -88 
Q 919 -88 538 428 
Q 216 863 216 1403 
Q 216 1797 411 2186 
Q 606 2575 925 2761 
Q 1244 2947 1600 2947 
z
M 1503 2744 
Q 1338 2744 1170 2645 
Q 1003 2547 900 2300 
Q 797 2053 797 1666 
Q 797 1041 1045 587 
Q 1294 134 1700 134 
Q 2003 134 2200 384 
Q 2397 634 2397 1244 
Q 2397 2006 2069 2444 
Q 1847 2744 1503 2744 
z
" transform="scale(0.015625)"/>
       <path id="TimesNewRomanPSMT-64" d="M 2222 322 
Q 2013 103 1813 7 
Q 1613 -88 1381 -88 
Q 913 -88 563 304 
Q 213 697 213 1313 
Q 213 1928 600 2439 
Q 988 2950 1597 2950 
Q 1975 2950 2222 2709 
L 2222 3238 
Q 2222 3728 2198 3840 
Q 2175 3953 2125 3993 
Q 2075 4034 2000 4034 
Q 1919 4034 1784 3984 
L 1744 4094 
L 2597 4444 
L 2738 4444 
L 2738 1134 
Q 2738 631 2761 520 
Q 2784 409 2836 365 
Q 2888 322 2956 322 
Q 3041 322 3181 375 
L 3216 266 
L 2366 -88 
L 2222 -88 
L 2222 322 
z
M 2222 541 
L 2222 2016 
Q 2203 2228 2109 2403 
Q 2016 2578 1861 2667 
Q 1706 2756 1559 2756 
Q 1284 2756 1069 2509 
Q 784 2184 784 1559 
Q 784 928 1059 592 
Q 1334 256 1672 256 
Q 1956 256 2222 541 
z
" transform="scale(0.015625)"/>
      </defs>
      <use xlink:href="#TimesNewRomanPSMT-4d"/>
      <use xlink:href="#TimesNewRomanPSMT-65" x="88.916016"/>
      <use xlink:href="#TimesNewRomanPSMT-74" x="133.300781"/>
      <use xlink:href="#TimesNewRomanPSMT-68" x="161.083984"/>
      <use xlink:href="#TimesNewRomanPSMT-6f" x="211.083984"/>
      <use xlink:href="#TimesNewRomanPSMT-64" x="261.083984"/>
     </g>
    </g>
   </g>
   <g id="matplotlib.axis_2">
    <g id="ytick_1">
     <g id="line2d_3">
      <defs>
       <path id="m7f21e8711b" d="M 0 0 
L -3.5 0 
" style="stroke: #000000; stroke-width: 0.8"/>
      </defs>
      <g>
       <use xlink:href="#m7f21e8711b" x="49.682813" y="286.243539" style="stroke: #000000; stroke-width: 0.8"/>
      </g>
     </g>
     <g id="text_4">
      <!-- −30 -->
      <g transform="translate(23.915938 290.409789) scale(0.12 -0.12)">
       <defs>
        <path id="TimesNewRomanPSMT-2212" d="M 3484 2000 
L 116 2000 
L 116 2256 
L 3484 2256 
L 3484 2000 
z
" transform="scale(0.015625)"/>
        <path id="TimesNewRomanPSMT-33" d="M 325 3431 
Q 506 3859 782 4092 
Q 1059 4325 1472 4325 
Q 1981 4325 2253 3994 
Q 2459 3747 2459 3466 
Q 2459 3003 1878 2509 
Q 2269 2356 2469 2072 
Q 2669 1788 2669 1403 
Q 2669 853 2319 450 
Q 1863 -75 997 -75 
Q 569 -75 414 31 
Q 259 138 259 259 
Q 259 350 332 419 
Q 406 488 509 488 
Q 588 488 669 463 
Q 722 447 909 348 
Q 1097 250 1169 231 
Q 1284 197 1416 197 
Q 1734 197 1970 444 
Q 2206 691 2206 1028 
Q 2206 1275 2097 1509 
Q 2016 1684 1919 1775 
Q 1784 1900 1550 2001 
Q 1316 2103 1072 2103 
L 972 2103 
L 972 2197 
Q 1219 2228 1467 2375 
Q 1716 2522 1828 2728 
Q 1941 2934 1941 3181 
Q 1941 3503 1739 3701 
Q 1538 3900 1238 3900 
Q 753 3900 428 3381 
L 325 3431 
z
" transform="scale(0.015625)"/>
        <path id="TimesNewRomanPSMT-30" d="M 231 2094 
Q 231 2819 450 3342 
Q 669 3866 1031 4122 
Q 1313 4325 1613 4325 
Q 2100 4325 2488 3828 
Q 2972 3213 2972 2159 
Q 2972 1422 2759 906 
Q 2547 391 2217 158 
Q 1888 -75 1581 -75 
Q 975 -75 572 641 
Q 231 1244 231 2094 
z
M 844 2016 
Q 844 1141 1059 588 
Q 1238 122 1591 122 
Q 1759 122 1940 273 
Q 2122 425 2216 781 
Q 2359 1319 2359 2297 
Q 2359 3022 2209 3506 
Q 2097 3866 1919 4016 
Q 1791 4119 1609 4119 
Q 1397 4119 1231 3928 
Q 1006 3669 925 3112 
Q 844 2556 844 2016 
z
" transform="scale(0.015625)"/>
       </defs>
       <use xlink:href="#TimesNewRomanPSMT-2212"/>
       <use xlink:href="#TimesNewRomanPSMT-33" x="56.396484"/>
       <use xlink:href="#TimesNewRomanPSMT-30" x="106.396484"/>
      </g>
     </g>
    </g>
    <g id="ytick_2">
     <g id="line2d_4">
      <g>
       <use xlink:href="#m7f21e8711b" x="49.682813" y="240.817776" style="stroke: #000000; stroke-width: 0.8"/>
      </g>
     </g>
     <g id="text_5">
      <!-- −20 -->
      <g transform="translate(23.915938 244.984026) scale(0.12 -0.12)">
       <defs>
        <path id="TimesNewRomanPSMT-32" d="M 2934 816 
L 2638 0 
L 138 0 
L 138 116 
Q 1241 1122 1691 1759 
Q 2141 2397 2141 2925 
Q 2141 3328 1894 3587 
Q 1647 3847 1303 3847 
Q 991 3847 742 3664 
Q 494 3481 375 3128 
L 259 3128 
Q 338 3706 661 4015 
Q 984 4325 1469 4325 
Q 1984 4325 2329 3994 
Q 2675 3663 2675 3213 
Q 2675 2891 2525 2569 
Q 2294 2063 1775 1497 
Q 997 647 803 472 
L 1909 472 
Q 2247 472 2383 497 
Q 2519 522 2628 598 
Q 2738 675 2819 816 
L 2934 816 
z
" transform="scale(0.015625)"/>
       </defs>
       <use xlink:href="#TimesNewRomanPSMT-2212"/>
       <use xlink:href="#TimesNewRomanPSMT-32" x="56.396484"/>
       <use xlink:href="#TimesNewRomanPSMT-30" x="106.396484"/>
      </g>
     </g>
    </g>
    <g id="ytick_3">
     <g id="line2d_5">
      <g>
       <use xlink:href="#m7f21e8711b" x="49.682813" y="195.392013" style="stroke: #000000; stroke-width: 0.8"/>
      </g>
     </g>
     <g id="text_6">
      <!-- −10 -->
      <g transform="translate(23.915938 199.558263) scale(0.12 -0.12)">
       <defs>
        <path id="TimesNewRomanPSMT-31" d="M 750 3822 
L 1781 4325 
L 1884 4325 
L 1884 747 
Q 1884 391 1914 303 
Q 1944 216 2037 169 
Q 2131 122 2419 116 
L 2419 0 
L 825 0 
L 825 116 
Q 1125 122 1212 167 
Q 1300 213 1334 289 
Q 1369 366 1369 747 
L 1369 3034 
Q 1369 3497 1338 3628 
Q 1316 3728 1258 3775 
Q 1200 3822 1119 3822 
Q 1003 3822 797 3725 
L 750 3822 
z
" transform="scale(0.015625)"/>
       </defs>
       <use xlink:href="#TimesNewRomanPSMT-2212"/>
       <use xlink:href="#TimesNewRomanPSMT-31" x="56.396484"/>
       <use xlink:href="#TimesNewRomanPSMT-30" x="106.396484"/>
      </g>
     </g>
    </g>
    <g id="ytick_4">
     <g id="line2d_6">
      <g>
       <use xlink:href="#m7f21e8711b" x="49.682813" y="149.96625" style="stroke: #000000; stroke-width: 0.8"/>
      </g>
     </g>
     <g id="text_7">
      <!-- 0 -->
      <g transform="translate(36.682813 154.1325) scale(0.12 -0.12)">
       <use xlink:href="#TimesNewRomanPSMT-30"/>
      </g>
     </g>
    </g>
    <g id="ytick_5">
     <g id="line2d_7">
      <g>
       <use xlink:href="#m7f21e8711b" x="49.682813" y="104.540487" style="stroke: #000000; stroke-width: 0.8"/>
      </g>
     </g>
     <g id="text_8">
      <!-- 10 -->
      <g transform="translate(30.682813 108.706737) scale(0.12 -0.12)">
       <use xlink:href="#TimesNewRomanPSMT-31"/>
       <use xlink:href="#TimesNewRomanPSMT-30" x="50"/>
      </g>
     </g>
    </g>
    <g id="ytick_6">
     <g id="line2d_8">
      <g>
       <use xlink:href="#m7f21e8711b" x="49.682813" y="59.114724" style="stroke: #000000; stroke-width: 0.8"/>
      </g>
     </g>
     <g id="text_9">
      <!-- 20 -->
      <g transform="translate(30.682813 63.280974) scale(0.12 -0.12)">
       <use xlink:href="#TimesNewRomanPSMT-32"/>
       <use xlink:href="#TimesNewRomanPSMT-30" x="50"/>
      </g>
     </g>
    </g>
    <g id="ytick_7">
     <g id="line2d_9">
      <g>
       <use xlink:href="#m7f21e8711b" x="49.682813" y="13.688961" style="stroke: #000000; stroke-width: 0.8"/>
      </g>
     </g>
     <g id="text_10">
      <!-- 30 -->
      <g transform="translate(30.682813 17.855211) scale(0.12 -0.12)">
       <use xlink:href="#TimesNewRomanPSMT-33"/>
       <use xlink:href="#TimesNewRomanPSMT-30" x="50"/>
      </g>
     </g>
    </g>
    <g id="text_11">
     <!-- Numerical difference -->
     <g transform="translate(16.92125 209.502344) rotate(-90) scale(0.14 -0.14)">
      <defs>
       <path id="TimesNewRomanPSMT-4e" d="M -84 4238 
L 1066 4238 
L 3656 1059 
L 3656 3503 
Q 3656 3894 3569 3991 
Q 3453 4122 3203 4122 
L 3056 4122 
L 3056 4238 
L 4531 4238 
L 4531 4122 
L 4381 4122 
Q 4113 4122 4000 3959 
Q 3931 3859 3931 3503 
L 3931 -69 
L 3819 -69 
L 1025 3344 
L 1025 734 
Q 1025 344 1109 247 
Q 1228 116 1475 116 
L 1625 116 
L 1625 0 
L 150 0 
L 150 116 
L 297 116 
Q 569 116 681 278 
Q 750 378 750 734 
L 750 3681 
Q 566 3897 470 3965 
Q 375 4034 191 4094 
Q 100 4122 -84 4122 
L -84 4238 
z
" transform="scale(0.015625)"/>
       <path id="TimesNewRomanPSMT-75" d="M 2709 2863 
L 2709 1128 
Q 2709 631 2732 520 
Q 2756 409 2807 365 
Q 2859 322 2928 322 
Q 3025 322 3147 375 
L 3191 266 
L 2334 -88 
L 2194 -88 
L 2194 519 
Q 1825 119 1631 15 
Q 1438 -88 1222 -88 
Q 981 -88 804 51 
Q 628 191 559 409 
Q 491 628 491 1028 
L 491 2306 
Q 491 2509 447 2587 
Q 403 2666 317 2708 
Q 231 2750 6 2747 
L 6 2863 
L 1009 2863 
L 1009 947 
Q 1009 547 1148 422 
Q 1288 297 1484 297 
Q 1619 297 1789 381 
Q 1959 466 2194 703 
L 2194 2325 
Q 2194 2569 2105 2655 
Q 2016 2741 1734 2747 
L 1734 2863 
L 2709 2863 
z
" transform="scale(0.015625)"/>
       <path id="TimesNewRomanPSMT-72" d="M 1038 2947 
L 1038 2303 
Q 1397 2947 1775 2947 
Q 1947 2947 2059 2842 
Q 2172 2738 2172 2600 
Q 2172 2478 2090 2393 
Q 2009 2309 1897 2309 
Q 1788 2309 1652 2417 
Q 1516 2525 1450 2525 
Q 1394 2525 1328 2463 
Q 1188 2334 1038 2041 
L 1038 669 
Q 1038 431 1097 309 
Q 1138 225 1241 169 
Q 1344 113 1538 113 
L 1538 0 
L 72 0 
L 72 113 
Q 291 113 397 181 
Q 475 231 506 341 
Q 522 394 522 644 
L 522 1753 
Q 522 2253 501 2348 
Q 481 2444 426 2487 
Q 372 2531 291 2531 
Q 194 2531 72 2484 
L 41 2597 
L 906 2947 
L 1038 2947 
z
" transform="scale(0.015625)"/>
       <path id="TimesNewRomanPSMT-69" d="M 928 4444 
Q 1059 4444 1151 4351 
Q 1244 4259 1244 4128 
Q 1244 3997 1151 3903 
Q 1059 3809 928 3809 
Q 797 3809 703 3903 
Q 609 3997 609 4128 
Q 609 4259 701 4351 
Q 794 4444 928 4444 
z
M 1188 2947 
L 1188 647 
Q 1188 378 1227 289 
Q 1266 200 1342 156 
Q 1419 113 1622 113 
L 1622 0 
L 231 0 
L 231 113 
Q 441 113 512 153 
Q 584 194 626 287 
Q 669 381 669 647 
L 669 1750 
Q 669 2216 641 2353 
Q 619 2453 572 2492 
Q 525 2531 444 2531 
Q 356 2531 231 2484 
L 188 2597 
L 1050 2947 
L 1188 2947 
z
" transform="scale(0.015625)"/>
       <path id="TimesNewRomanPSMT-63" d="M 2631 1088 
Q 2516 522 2178 217 
Q 1841 -88 1431 -88 
Q 944 -88 581 321 
Q 219 731 219 1428 
Q 219 2103 620 2525 
Q 1022 2947 1584 2947 
Q 2006 2947 2278 2723 
Q 2550 2500 2550 2259 
Q 2550 2141 2473 2067 
Q 2397 1994 2259 1994 
Q 2075 1994 1981 2113 
Q 1928 2178 1911 2362 
Q 1894 2547 1784 2644 
Q 1675 2738 1481 2738 
Q 1169 2738 978 2506 
Q 725 2200 725 1697 
Q 725 1184 976 792 
Q 1228 400 1656 400 
Q 1963 400 2206 609 
Q 2378 753 2541 1131 
L 2631 1088 
z
" transform="scale(0.015625)"/>
       <path id="TimesNewRomanPSMT-61" d="M 1822 413 
Q 1381 72 1269 19 
Q 1100 -59 909 -59 
Q 613 -59 420 144 
Q 228 347 228 678 
Q 228 888 322 1041 
Q 450 1253 767 1440 
Q 1084 1628 1822 1897 
L 1822 2009 
Q 1822 2438 1686 2597 
Q 1550 2756 1291 2756 
Q 1094 2756 978 2650 
Q 859 2544 859 2406 
L 866 2225 
Q 866 2081 792 2003 
Q 719 1925 600 1925 
Q 484 1925 411 2006 
Q 338 2088 338 2228 
Q 338 2497 613 2722 
Q 888 2947 1384 2947 
Q 1766 2947 2009 2819 
Q 2194 2722 2281 2516 
Q 2338 2381 2338 1966 
L 2338 994 
Q 2338 584 2353 492 
Q 2369 400 2405 369 
Q 2441 338 2488 338 
Q 2538 338 2575 359 
Q 2641 400 2828 588 
L 2828 413 
Q 2478 -56 2159 -56 
Q 2006 -56 1915 50 
Q 1825 156 1822 413 
z
M 1822 616 
L 1822 1706 
Q 1350 1519 1213 1441 
Q 966 1303 859 1153 
Q 753 1003 753 825 
Q 753 600 887 451 
Q 1022 303 1197 303 
Q 1434 303 1822 616 
z
" transform="scale(0.015625)"/>
       <path id="TimesNewRomanPSMT-6c" d="M 1184 4444 
L 1184 647 
Q 1184 378 1223 290 
Q 1263 203 1344 158 
Q 1425 113 1647 113 
L 1647 0 
L 244 0 
L 244 113 
Q 441 113 512 153 
Q 584 194 625 287 
Q 666 381 666 647 
L 666 3247 
Q 666 3731 644 3842 
Q 622 3953 573 3993 
Q 525 4034 450 4034 
Q 369 4034 244 3984 
L 191 4094 
L 1044 4444 
L 1184 4444 
z
" transform="scale(0.015625)"/>
       <path id="TimesNewRomanPSMT-20" transform="scale(0.015625)"/>
       <path id="TimesNewRomanPSMT-66" d="M 1319 2638 
L 1319 756 
Q 1319 356 1406 250 
Q 1522 113 1716 113 
L 1975 113 
L 1975 0 
L 266 0 
L 266 113 
L 394 113 
Q 519 113 622 175 
Q 725 238 764 344 
Q 803 450 803 756 
L 803 2638 
L 247 2638 
L 247 2863 
L 803 2863 
L 803 3050 
Q 803 3478 940 3775 
Q 1078 4072 1361 4255 
Q 1644 4438 1997 4438 
Q 2325 4438 2600 4225 
Q 2781 4084 2781 3909 
Q 2781 3816 2700 3733 
Q 2619 3650 2525 3650 
Q 2453 3650 2373 3701 
Q 2294 3753 2178 3923 
Q 2063 4094 1966 4153 
Q 1869 4213 1750 4213 
Q 1606 4213 1506 4136 
Q 1406 4059 1362 3898 
Q 1319 3738 1319 3069 
L 1319 2863 
L 2056 2863 
L 2056 2638 
L 1319 2638 
z
" transform="scale(0.015625)"/>
       <path id="TimesNewRomanPSMT-6e" d="M 1034 2341 
Q 1538 2947 1994 2947 
Q 2228 2947 2397 2830 
Q 2566 2713 2666 2444 
Q 2734 2256 2734 1869 
L 2734 647 
Q 2734 375 2778 278 
Q 2813 200 2889 156 
Q 2966 113 3172 113 
L 3172 0 
L 1756 0 
L 1756 113 
L 1816 113 
Q 2016 113 2095 173 
Q 2175 234 2206 353 
Q 2219 400 2219 647 
L 2219 1819 
Q 2219 2209 2117 2386 
Q 2016 2563 1775 2563 
Q 1403 2563 1034 2156 
L 1034 647 
Q 1034 356 1069 288 
Q 1113 197 1189 155 
Q 1266 113 1500 113 
L 1500 0 
L 84 0 
L 84 113 
L 147 113 
Q 366 113 442 223 
Q 519 334 519 647 
L 519 1709 
Q 519 2225 495 2337 
Q 472 2450 423 2490 
Q 375 2531 294 2531 
Q 206 2531 84 2484 
L 38 2597 
L 900 2947 
L 1034 2947 
L 1034 2341 
z
" transform="scale(0.015625)"/>
      </defs>
      <use xlink:href="#TimesNewRomanPSMT-4e"/>
      <use xlink:href="#TimesNewRomanPSMT-75" x="72.216797"/>
      <use xlink:href="#TimesNewRomanPSMT-6d" x="122.216797"/>
      <use xlink:href="#TimesNewRomanPSMT-65" x="200"/>
      <use xlink:href="#TimesNewRomanPSMT-72" x="244.384766"/>
      <use xlink:href="#TimesNewRomanPSMT-69" x="277.685547"/>
      <use xlink:href="#TimesNewRomanPSMT-63" x="305.46875"/>
      <use xlink:href="#TimesNewRomanPSMT-61" x="349.853516"/>
      <use xlink:href="#TimesNewRomanPSMT-6c" x="394.238281"/>
      <use xlink:href="#TimesNewRomanPSMT-20" x="422.021484"/>
      <use xlink:href="#TimesNewRomanPSMT-64" x="447.021484"/>
      <use xlink:href="#TimesNewRomanPSMT-69" x="497.021484"/>
      <use xlink:href="#TimesNewRomanPSMT-66" x="524.804688"/>
      <use xlink:href="#TimesNewRomanPSMT-66" x="556.355469"/>
      <use xlink:href="#TimesNewRomanPSMT-65" x="589.65625"/>
      <use xlink:href="#TimesNewRomanPSMT-72" x="634.041016"/>
      <use xlink:href="#TimesNewRomanPSMT-65" x="667.341797"/>
      <use xlink:href="#TimesNewRomanPSMT-6e" x="711.726562"/>
      <use xlink:href="#TimesNewRomanPSMT-63" x="761.726562"/>
      <use xlink:href="#TimesNewRomanPSMT-65" x="806.111328"/>
     </g>
    </g>
   </g>
   <g id="patch_3">
    <path d="M 49.682813 288.56625 
L 49.682813 11.36625 
" style="fill: none; stroke: #000000; stroke-width: 0.8; stroke-linejoin: miter; stroke-linecap: square"/>
   </g>
   <g id="patch_4">
    <path d="M 328.682813 288.56625 
L 328.682813 11.36625 
" style="fill: none; stroke: #000000; stroke-width: 0.8; stroke-linejoin: miter; stroke-linecap: square"/>
   </g>
   <g id="patch_5">
    <path d="M 49.682812 288.56625 
L 328.682813 288.56625 
" style="fill: none; stroke: #000000; stroke-width: 0.8; stroke-linejoin: miter; stroke-linecap: square"/>
   </g>
   <g id="patch_6">
    <path d="M 49.682812 11.36625 
L 328.682813 11.36625 
" style="fill: none; stroke: #000000; stroke-width: 0.8; stroke-linejoin: miter; stroke-linecap: square"/>
   </g>
   <g id="PathCollection_1">
    <defs>
     <path id="mccb2991406" d="M 3.535534 0 
L -3.535534 -0 
" style="stroke: #000000; stroke-width: 1.5"/>
    </defs>
    <g clip-path="url(#pad4eb888a2)">
     <use xlink:href="#mccb2991406" x="96.182813" y="190.534046" style="stroke: #000000; stroke-width: 1.5"/>
    </g>
   </g>
   <g id="PathCollection_2">
    <g clip-path="url(#pad4eb888a2)">
     <use xlink:href="#mccb2991406" x="96.182813" y="169.488157" style="stroke: #000000; stroke-width: 1.5"/>
    </g>
   </g>
   <g id="PathCollection_3">
    <g clip-path="url(#pad4eb888a2)">
     <use xlink:href="#mccb2991406" x="96.182813" y="148.362514" style="stroke: #000000; stroke-width: 1.5"/>
    </g>
   </g>
   <g id="PathCollection_4">
    <g clip-path="url(#pad4eb888a2)">
     <use xlink:href="#mccb2991406" x="265.273722" y="189.468971" style="stroke: #000000; stroke-width: 1.5"/>
    </g>
   </g>
   <g id="PathCollection_5">
    <g clip-path="url(#pad4eb888a2)">
     <use xlink:href="#mccb2991406" x="265.273722" y="167.631298" style="stroke: #000000; stroke-width: 1.5"/>
    </g>
   </g>
   <g id="PathCollection_6">
    <g clip-path="url(#pad4eb888a2)">
     <use xlink:href="#mccb2991406" x="265.273722" y="140.60619" style="stroke: #000000; stroke-width: 1.5"/>
    </g>
   </g>
  </g>
  <g id="axes_2">
   <g id="PolyCollection_3">
    <defs>
     <path id="m49bfa716ee" d="M 104.850137 -48.674701 
L 104.645893 -48.674701 
L 104.645893 -51.150684 
L 104.645893 -53.626666 
L 104.645893 -56.102649 
L 104.645893 -58.578631 
L 104.645893 -61.054614 
L 104.645893 -63.530596 
L 104.645893 -66.006579 
L 104.645893 -68.482561 
L 104.645893 -70.958544 
L 104.645893 -73.434526 
L 104.645893 -75.910509 
L 104.645893 -78.386492 
L 104.645893 -80.862474 
L 104.645893 -83.338457 
L 104.645893 -85.814439 
L 104.645893 -88.290422 
L 104.645893 -90.766404 
L 104.645893 -93.242387 
L 104.645893 -95.718369 
L 104.645893 -98.194352 
L 104.645893 -100.670334 
L 104.645893 -103.146317 
L 104.645893 -105.622299 
L 104.645893 -108.098282 
L 104.645893 -110.574264 
L 104.645893 -113.050247 
L 104.645893 -115.52623 
L 104.645893 -118.002212 
L 104.645893 -120.478195 
L 104.645893 -122.954177 
L 104.645893 -125.43016 
L 104.645893 -127.906142 
L 104.645893 -130.382125 
L 104.645893 -132.858107 
L 104.645893 -135.33409 
L 104.645893 -137.810072 
L 104.645893 -140.286055 
L 104.645893 -142.762037 
L 104.645893 -145.23802 
L 104.645893 -147.714002 
L 104.645893 -150.189985 
L 104.645893 -152.665968 
L 104.645893 -155.14195 
L 104.645893 -157.617933 
L 104.645893 -160.093915 
L 104.645893 -162.569898 
L 104.645893 -165.04588 
L 104.645893 -167.521863 
L 104.645893 -169.997845 
L 104.645893 -172.473828 
L 104.645893 -174.94981 
L 104.645893 -177.425793 
L 104.645893 -179.901775 
L 104.645893 -182.377758 
L 104.645893 -184.85374 
L 104.645893 -187.329723 
L 104.645893 -189.805706 
L 104.645893 -192.281688 
L 104.645893 -194.757671 
L 104.645893 -197.233653 
L 104.645893 -199.709636 
L 104.645893 -202.185618 
L 104.645893 -204.661601 
L 104.645893 -207.137583 
L 104.645893 -209.613566 
L 104.645893 -212.089548 
L 104.645893 -214.565531 
L 104.645893 -217.041513 
L 104.645893 -219.517496 
L 104.645893 -221.993478 
L 104.645893 -224.469461 
L 104.645893 -226.945444 
L 104.645893 -229.421426 
L 104.645893 -231.897409 
L 104.645893 -234.373391 
L 104.645893 -236.849374 
L 104.645893 -239.325356 
L 104.645893 -241.801339 
L 104.645893 -244.277321 
L 104.645893 -246.753304 
L 104.645893 -249.229286 
L 104.645893 -251.705269 
L 104.645893 -254.181251 
L 104.645893 -256.657234 
L 104.645893 -259.133216 
L 104.645893 -261.609199 
L 104.645893 -264.085181 
L 104.645893 -266.561164 
L 104.645893 -269.037147 
L 104.645893 -271.513129 
L 104.645893 -273.989112 
L 104.645893 -276.465094 
L 104.645893 -278.941077 
L 104.645893 -281.417059 
L 104.645893 -283.893042 
L 104.645893 -286.369024 
L 104.645893 -288.845007 
L 104.645893 -291.320989 
L 104.645893 -293.796972 
L 105.94445 -293.796972 
L 105.94445 -293.796972 
L 106.187985 -291.320989 
L 106.427348 -288.845007 
L 106.656465 -286.369024 
L 106.872729 -283.893042 
L 107.077423 -281.417059 
L 107.275688 -278.941077 
L 107.47615 -276.465094 
L 107.69011 -273.989112 
L 107.930176 -271.513129 
L 108.208258 -269.037147 
L 108.533224 -266.561164 
L 108.908859 -264.085181 
L 109.332944 -261.609199 
L 109.797974 -259.133216 
L 110.293431 -256.657234 
L 110.808867 -254.181251 
L 111.336704 -251.705269 
L 111.873841 -249.229286 
L 112.421726 -246.753304 
L 112.98516 -244.277321 
L 113.570496 -241.801339 
L 114.183951 -239.325356 
L 114.830555 -236.849374 
L 115.514081 -234.373391 
L 116.238046 -231.897409 
L 117.007652 -229.421426 
L 117.832152 -226.945444 
L 118.726767 -224.469461 
L 119.713085 -221.993478 
L 120.817133 -219.517496 
L 122.064965 -217.041513 
L 123.476622 -214.565531 
L 125.060096 -212.089548 
L 126.807298 -209.613566 
L 128.693554 -207.137583 
L 130.681053 -204.661601 
L 132.725207 -202.185618 
L 134.781626 -199.709636 
L 136.810999 -197.233653 
L 138.779766 -194.757671 
L 140.656049 -192.281688 
L 142.402299 -189.805706 
L 143.967756 -187.329723 
L 145.284487 -184.85374 
L 146.269956 -182.377758 
L 146.837085 -179.901775 
L 146.910085 -177.425793 
L 146.441996 -174.94981 
L 145.428805 -172.473828 
L 143.915682 -169.997845 
L 141.993108 -167.521863 
L 139.783696 -165.04588 
L 137.423176 -162.569898 
L 135.04041 -160.093915 
L 132.741082 -157.617933 
L 130.598083 -155.14195 
L 128.649379 -152.665968 
L 126.902091 -150.189985 
L 125.340381 -147.714002 
L 123.934558 -145.23802 
L 122.649503 -142.762037 
L 121.451429 -140.286055 
L 120.312723 -137.810072 
L 119.214949 -135.33409 
L 118.150028 -132.858107 
L 117.119532 -130.382125 
L 116.13212 -127.906142 
L 115.199562 -125.43016 
L 114.332297 -122.954177 
L 113.535818 -120.478195 
L 112.80906 -118.002212 
L 112.145325 -115.52623 
L 111.535365 -113.050247 
L 110.97132 -110.574264 
L 110.449872 -108.098282 
L 109.973212 -105.622299 
L 109.547367 -103.146317 
L 109.178489 -100.670334 
L 108.868596 -98.194352 
L 108.612439 -95.718369 
L 108.396702 -93.242387 
L 108.201853 -90.766404 
L 108.006021 -88.290422 
L 107.78968 -85.814439 
L 107.539783 -83.338457 
L 107.252293 -80.862474 
L 106.932592 -78.386492 
L 106.593874 -75.910509 
L 106.254074 -73.434526 
L 105.93219 -70.958544 
L 105.644831 -68.482561 
L 105.403666 -66.006579 
L 105.21413 -63.530596 
L 105.075395 -61.054614 
L 104.981405 -58.578631 
L 104.922588 -56.102649 
L 104.887875 -53.626666 
L 104.86662 -51.150684 
L 104.850137 -48.674701 
z
" style="stroke: #000000; stroke-opacity: 0.9"/>
    </defs>
    <g clip-path="url(#pad4eb888a2)">
     <use xlink:href="#m49bfa716ee" x="0" y="330.381563" style="fill: #ff7f0e; fill-opacity: 0.9; stroke: #000000; stroke-opacity: 0.9"/>
    </g>
   </g>
   <g id="PolyCollection_4">
    <defs>
     <path id="m13c4ee5ba1" d="M 275.128538 -75.456089 
L 273.747199 -75.456089 
L 273.747199 -77.454147 
L 273.747199 -79.452206 
L 273.747199 -81.450264 
L 273.747199 -83.448322 
L 273.747199 -85.44638 
L 273.747199 -87.444439 
L 273.747199 -89.442497 
L 273.747199 -91.440555 
L 273.747199 -93.438613 
L 273.747199 -95.436672 
L 273.747199 -97.43473 
L 273.747199 -99.432788 
L 273.747199 -101.430846 
L 273.747199 -103.428905 
L 273.747199 -105.426963 
L 273.747199 -107.425021 
L 273.747199 -109.423079 
L 273.747199 -111.421138 
L 273.747199 -113.419196 
L 273.747199 -115.417254 
L 273.747199 -117.415312 
L 273.747199 -119.413371 
L 273.747199 -121.411429 
L 273.747199 -123.409487 
L 273.747199 -125.407546 
L 273.747199 -127.405604 
L 273.747199 -129.403662 
L 273.747199 -131.40172 
L 273.747199 -133.399779 
L 273.747199 -135.397837 
L 273.747199 -137.395895 
L 273.747199 -139.393953 
L 273.747199 -141.392012 
L 273.747199 -143.39007 
L 273.747199 -145.388128 
L 273.747199 -147.386186 
L 273.747199 -149.384245 
L 273.747199 -151.382303 
L 273.747199 -153.380361 
L 273.747199 -155.378419 
L 273.747199 -157.376478 
L 273.747199 -159.374536 
L 273.747199 -161.372594 
L 273.747199 -163.370652 
L 273.747199 -165.368711 
L 273.747199 -167.366769 
L 273.747199 -169.364827 
L 273.747199 -171.362885 
L 273.747199 -173.360944 
L 273.747199 -175.359002 
L 273.747199 -177.35706 
L 273.747199 -179.355118 
L 273.747199 -181.353177 
L 273.747199 -183.351235 
L 273.747199 -185.349293 
L 273.747199 -187.347351 
L 273.747199 -189.34541 
L 273.747199 -191.343468 
L 273.747199 -193.341526 
L 273.747199 -195.339584 
L 273.747199 -197.337643 
L 273.747199 -199.335701 
L 273.747199 -201.333759 
L 273.747199 -203.331817 
L 273.747199 -205.329876 
L 273.747199 -207.327934 
L 273.747199 -209.325992 
L 273.747199 -211.32405 
L 273.747199 -213.322109 
L 273.747199 -215.320167 
L 273.747199 -217.318225 
L 273.747199 -219.316283 
L 273.747199 -221.314342 
L 273.747199 -223.3124 
L 273.747199 -225.310458 
L 273.747199 -227.308516 
L 273.747199 -229.306575 
L 273.747199 -231.304633 
L 273.747199 -233.302691 
L 273.747199 -235.300749 
L 273.747199 -237.298808 
L 273.747199 -239.296866 
L 273.747199 -241.294924 
L 273.747199 -243.292982 
L 273.747199 -245.291041 
L 273.747199 -247.289099 
L 273.747199 -249.287157 
L 273.747199 -251.285215 
L 273.747199 -253.283274 
L 273.747199 -255.281332 
L 273.747199 -257.27939 
L 273.747199 -259.277448 
L 273.747199 -261.275507 
L 273.747199 -263.273565 
L 273.747199 -265.271623 
L 273.747199 -267.269681 
L 273.747199 -269.26774 
L 273.747199 -271.265798 
L 273.747199 -273.263856 
L 274.770982 -273.263856 
L 274.770982 -273.263856 
L 274.784915 -271.265798 
L 274.786977 -269.26774 
L 274.783861 -267.269681 
L 274.784672 -265.271623 
L 274.800606 -263.273565 
L 274.844515 -261.275507 
L 274.930421 -259.277448 
L 275.073021 -257.27939 
L 275.287204 -255.281332 
L 275.587553 -253.283274 
L 275.987818 -251.285215 
L 276.5003 -249.287157 
L 277.135134 -247.289099 
L 277.899458 -245.291041 
L 278.796549 -243.292982 
L 279.825006 -241.294924 
L 280.978139 -239.296866 
L 282.243723 -237.298808 
L 283.604257 -235.300749 
L 285.03782 -233.302691 
L 286.519521 -231.304633 
L 288.023464 -229.306575 
L 289.525029 -227.308516 
L 291.00323 -225.310458 
L 292.442835 -223.3124 
L 293.835963 -221.314342 
L 295.182896 -219.316283 
L 296.49192 -217.318225 
L 297.778123 -215.320167 
L 299.061174 -213.322109 
L 300.362288 -211.32405 
L 301.70066 -209.325992 
L 303.089809 -207.327934 
L 304.534316 -205.329876 
L 306.027446 -203.331817 
L 307.550082 -201.333759 
L 309.071205 -199.335701 
L 310.549956 -197.337643 
L 311.939049 -195.339584 
L 313.189067 -193.341526 
L 314.253041 -191.343468 
L 315.09065 -189.34541 
L 315.67148 -187.347351 
L 315.976983 -185.349293 
L 316.000994 -183.351235 
L 315.748963 -181.353177 
L 315.236219 -179.355118 
L 314.485702 -177.35706 
L 313.52558 -175.359002 
L 312.387068 -173.360944 
L 311.10263 -171.362885 
L 309.704575 -169.364827 
L 308.223995 -167.366769 
L 306.689897 -165.368711 
L 305.128476 -163.370652 
L 303.562478 -161.372594 
L 302.010728 -159.374536 
L 300.487904 -157.376478 
L 299.004644 -155.378419 
L 297.568021 -153.380361 
L 296.182325 -151.382303 
L 294.850007 -149.384245 
L 293.572582 -147.386186 
L 292.351295 -145.388128 
L 291.187418 -143.39007 
L 290.08213 -141.392012 
L 289.036062 -139.393953 
L 288.048694 -137.395895 
L 287.117802 -135.397837 
L 286.239179 -133.399779 
L 285.406753 -131.40172 
L 284.613138 -129.403662 
L 283.850539 -127.405604 
L 283.11183 -125.407546 
L 282.391619 -123.409487 
L 281.687065 -121.411429 
L 280.998325 -119.413371 
L 280.328527 -117.415312 
L 279.683316 -115.417254 
L 279.070032 -113.419196 
L 278.496681 -111.421138 
L 277.970862 -109.423079 
L 277.4988 -107.425021 
L 277.084606 -105.426963 
L 276.729856 -103.428905 
L 276.433484 -101.430846 
L 276.191988 -99.432788 
L 275.999865 -97.43473 
L 275.85018 -95.436672 
L 275.735186 -93.438613 
L 275.646889 -91.440555 
L 275.577518 -89.442497 
L 275.519866 -87.444439 
L 275.467508 -85.44638 
L 275.414934 -83.448322 
L 275.357632 -81.450264 
L 275.29215 -79.452206 
L 275.216167 -77.454147 
L 275.128538 -75.456089 
z
" style="stroke: #000000; stroke-opacity: 0.9"/>
    </defs>
    <g clip-path="url(#pad4eb888a2)">
     <use xlink:href="#m13c4ee5ba1" x="0" y="330.381563" style="fill: #ff7f0e; fill-opacity: 0.9; stroke: #000000; stroke-opacity: 0.9"/>
    </g>
   </g>
   <g id="matplotlib.axis_3">
    <g id="ytick_8">
     <g id="line2d_10">
      <defs>
       <path id="m79b1a093e7" d="M 0 0 
L 3.5 0 
" style="stroke: #000000; stroke-width: 0.8"/>
      </defs>
      <g>
       <use xlink:href="#m79b1a093e7" x="328.682813" y="288.56625" style="stroke: #000000; stroke-width: 0.8"/>
      </g>
     </g>
     <g id="text_12">
      <!-- −100 -->
      <g transform="translate(335.682813 292.7325) scale(0.12 -0.12)">
       <use xlink:href="#TimesNewRomanPSMT-2212"/>
       <use xlink:href="#TimesNewRomanPSMT-31" x="56.396484"/>
       <use xlink:href="#TimesNewRomanPSMT-30" x="106.396484"/>
       <use xlink:href="#TimesNewRomanPSMT-30" x="156.396484"/>
      </g>
     </g>
    </g>
    <g id="ytick_9">
     <g id="line2d_11">
      <g>
       <use xlink:href="#m79b1a093e7" x="328.682813" y="253.91625" style="stroke: #000000; stroke-width: 0.8"/>
      </g>
     </g>
     <g id="text_13">
      <!-- −75 -->
      <g transform="translate(335.682813 258.0825) scale(0.12 -0.12)">
       <defs>
        <path id="TimesNewRomanPSMT-37" d="M 644 4238 
L 2916 4238 
L 2916 4119 
L 1503 -88 
L 1153 -88 
L 2419 3728 
L 1253 3728 
Q 900 3728 750 3644 
Q 488 3500 328 3200 
L 238 3234 
L 644 4238 
z
" transform="scale(0.015625)"/>
        <path id="TimesNewRomanPSMT-35" d="M 2778 4238 
L 2534 3706 
L 1259 3706 
L 981 3138 
Q 1809 3016 2294 2522 
Q 2709 2097 2709 1522 
Q 2709 1188 2573 903 
Q 2438 619 2231 419 
Q 2025 219 1772 97 
Q 1413 -75 1034 -75 
Q 653 -75 479 54 
Q 306 184 306 341 
Q 306 428 378 495 
Q 450 563 559 563 
Q 641 563 702 538 
Q 763 513 909 409 
Q 1144 247 1384 247 
Q 1750 247 2026 523 
Q 2303 800 2303 1197 
Q 2303 1581 2056 1914 
Q 1809 2247 1375 2428 
Q 1034 2569 447 2591 
L 1259 4238 
L 2778 4238 
z
" transform="scale(0.015625)"/>
       </defs>
       <use xlink:href="#TimesNewRomanPSMT-2212"/>
       <use xlink:href="#TimesNewRomanPSMT-37" x="56.396484"/>
       <use xlink:href="#TimesNewRomanPSMT-35" x="106.396484"/>
      </g>
     </g>
    </g>
    <g id="ytick_10">
     <g id="line2d_12">
      <g>
       <use xlink:href="#m79b1a093e7" x="328.682813" y="219.26625" style="stroke: #000000; stroke-width: 0.8"/>
      </g>
     </g>
     <g id="text_14">
      <!-- −50 -->
      <g transform="translate(335.682813 223.4325) scale(0.12 -0.12)">
       <use xlink:href="#TimesNewRomanPSMT-2212"/>
       <use xlink:href="#TimesNewRomanPSMT-35" x="56.396484"/>
       <use xlink:href="#TimesNewRomanPSMT-30" x="106.396484"/>
      </g>
     </g>
    </g>
    <g id="ytick_11">
     <g id="line2d_13">
      <g>
       <use xlink:href="#m79b1a093e7" x="328.682813" y="184.61625" style="stroke: #000000; stroke-width: 0.8"/>
      </g>
     </g>
     <g id="text_15">
      <!-- −25 -->
      <g transform="translate(335.682813 188.7825) scale(0.12 -0.12)">
       <use xlink:href="#TimesNewRomanPSMT-2212"/>
       <use xlink:href="#TimesNewRomanPSMT-32" x="56.396484"/>
       <use xlink:href="#TimesNewRomanPSMT-35" x="106.396484"/>
      </g>
     </g>
    </g>
    <g id="ytick_12">
     <g id="line2d_14">
      <g>
       <use xlink:href="#m79b1a093e7" x="328.682813" y="149.96625" style="stroke: #000000; stroke-width: 0.8"/>
      </g>
     </g>
     <g id="text_16">
      <!-- 0 -->
      <g transform="translate(335.682813 154.1325) scale(0.12 -0.12)">
       <use xlink:href="#TimesNewRomanPSMT-30"/>
      </g>
     </g>
    </g>
    <g id="ytick_13">
     <g id="line2d_15">
      <g>
       <use xlink:href="#m79b1a093e7" x="328.682813" y="115.31625" style="stroke: #000000; stroke-width: 0.8"/>
      </g>
     </g>
     <g id="text_17">
      <!-- 25 -->
      <g transform="translate(335.682813 119.4825) scale(0.12 -0.12)">
       <use xlink:href="#TimesNewRomanPSMT-32"/>
       <use xlink:href="#TimesNewRomanPSMT-35" x="50"/>
      </g>
     </g>
    </g>
    <g id="ytick_14">
     <g id="line2d_16">
      <g>
       <use xlink:href="#m79b1a093e7" x="328.682813" y="80.66625" style="stroke: #000000; stroke-width: 0.8"/>
      </g>
     </g>
     <g id="text_18">
      <!-- 50 -->
      <g transform="translate(335.682813 84.8325) scale(0.12 -0.12)">
       <use xlink:href="#TimesNewRomanPSMT-35"/>
       <use xlink:href="#TimesNewRomanPSMT-30" x="50"/>
      </g>
     </g>
    </g>
    <g id="ytick_15">
     <g id="line2d_17">
      <g>
       <use xlink:href="#m79b1a093e7" x="328.682813" y="46.01625" style="stroke: #000000; stroke-width: 0.8"/>
      </g>
     </g>
     <g id="text_19">
      <!-- 75 -->
      <g transform="translate(335.682813 50.1825) scale(0.12 -0.12)">
       <use xlink:href="#TimesNewRomanPSMT-37"/>
       <use xlink:href="#TimesNewRomanPSMT-35" x="50"/>
      </g>
     </g>
    </g>
    <g id="ytick_16">
     <g id="line2d_18">
      <g>
       <use xlink:href="#m79b1a093e7" x="328.682813" y="11.36625" style="stroke: #000000; stroke-width: 0.8"/>
      </g>
     </g>
     <g id="text_20">
      <!-- 100 -->
      <g transform="translate(335.682813 15.5325) scale(0.12 -0.12)">
       <use xlink:href="#TimesNewRomanPSMT-31"/>
       <use xlink:href="#TimesNewRomanPSMT-30" x="50"/>
       <use xlink:href="#TimesNewRomanPSMT-30" x="100"/>
      </g>
     </g>
    </g>
    <g id="text_21">
     <!-- Rank difference / % of no. materials -->
     <g transform="translate(374.170937 251.499063) rotate(-90) scale(0.14 -0.14)">
      <defs>
       <path id="TimesNewRomanPSMT-52" d="M 4325 0 
L 3194 0 
L 1759 1981 
Q 1600 1975 1500 1975 
Q 1459 1975 1412 1976 
Q 1366 1978 1316 1981 
L 1316 750 
Q 1316 350 1403 253 
Q 1522 116 1759 116 
L 1925 116 
L 1925 0 
L 109 0 
L 109 116 
L 269 116 
Q 538 116 653 291 
Q 719 388 719 750 
L 719 3488 
Q 719 3888 631 3984 
Q 509 4122 269 4122 
L 109 4122 
L 109 4238 
L 1653 4238 
Q 2328 4238 2648 4139 
Q 2969 4041 3192 3777 
Q 3416 3513 3416 3147 
Q 3416 2756 3161 2468 
Q 2906 2181 2372 2063 
L 3247 847 
Q 3547 428 3762 290 
Q 3978 153 4325 116 
L 4325 0 
z
M 1316 2178 
Q 1375 2178 1419 2176 
Q 1463 2175 1491 2175 
Q 2097 2175 2405 2437 
Q 2713 2700 2713 3106 
Q 2713 3503 2464 3751 
Q 2216 4000 1806 4000 
Q 1625 4000 1316 3941 
L 1316 2178 
z
" transform="scale(0.015625)"/>
       <path id="TimesNewRomanPSMT-6b" d="M 1047 4444 
L 1047 1594 
L 1775 2259 
Q 2006 2472 2044 2528 
Q 2069 2566 2069 2603 
Q 2069 2666 2017 2711 
Q 1966 2756 1847 2763 
L 1847 2863 
L 3091 2863 
L 3091 2763 
Q 2834 2756 2664 2684 
Q 2494 2613 2291 2428 
L 1556 1750 
L 2291 822 
Q 2597 438 2703 334 
Q 2853 188 2966 144 
Q 3044 113 3238 113 
L 3238 0 
L 1847 0 
L 1847 113 
Q 1966 116 2008 148 
Q 2050 181 2050 241 
Q 2050 313 1925 472 
L 1047 1594 
L 1047 644 
Q 1047 366 1086 278 
Q 1125 191 1197 153 
Q 1269 116 1509 113 
L 1509 0 
L 53 0 
L 53 113 
Q 272 113 381 166 
Q 447 200 481 272 
Q 528 375 528 628 
L 528 3234 
Q 528 3731 506 3842 
Q 484 3953 434 3995 
Q 384 4038 303 4038 
Q 238 4038 106 3984 
L 53 4094 
L 903 4444 
L 1047 4444 
z
" transform="scale(0.015625)"/>
       <path id="TimesNewRomanPSMT-2f" d="M 1794 4444 
L 259 -88 
L 9 -88 
L 1544 4444 
L 1794 4444 
z
" transform="scale(0.015625)"/>
       <path id="TimesNewRomanPSMT-25" d="M 4350 4334 
L 1263 -175 
L 984 -175 
L 4072 4334 
L 4350 4334 
z
M 1138 4334 
Q 1559 4334 1792 3984 
Q 2025 3634 2025 3181 
Q 2025 2638 1762 2341 
Q 1500 2044 1131 2044 
Q 884 2044 678 2180 
Q 472 2316 348 2584 
Q 225 2853 225 3181 
Q 225 3509 350 3786 
Q 475 4063 692 4198 
Q 909 4334 1138 4334 
z
M 1128 4159 
Q 969 4159 845 3971 
Q 722 3784 722 3184 
Q 722 2750 791 2522 
Q 844 2350 956 2256 
Q 1022 2200 1119 2200 
Q 1269 2200 1375 2363 
Q 1531 2603 1531 3166 
Q 1531 3759 1378 4000 
Q 1278 4159 1128 4159 
z
M 4206 2103 
Q 4428 2103 4648 1962 
Q 4869 1822 4989 1553 
Q 5109 1284 5109 963 
Q 5109 409 4843 117 
Q 4578 -175 4216 -175 
Q 3988 -175 3773 -34 
Q 3559 106 3436 367 
Q 3313 628 3313 963 
Q 3313 1291 3436 1562 
Q 3559 1834 3773 1968 
Q 3988 2103 4206 2103 
z
M 4209 1938 
Q 4059 1938 3950 1769 
Q 3809 1550 3809 941 
Q 3809 381 3953 159 
Q 4059 0 4209 0 
Q 4353 0 4466 172 
Q 4616 400 4616 956 
Q 4616 1544 4466 1778 
Q 4363 1938 4209 1938 
z
" transform="scale(0.015625)"/>
       <path id="TimesNewRomanPSMT-2e" d="M 800 606 
Q 947 606 1047 504 
Q 1147 403 1147 259 
Q 1147 116 1045 14 
Q 944 -88 800 -88 
Q 656 -88 554 14 
Q 453 116 453 259 
Q 453 406 554 506 
Q 656 606 800 606 
z
" transform="scale(0.015625)"/>
       <path id="TimesNewRomanPSMT-73" d="M 2050 2947 
L 2050 1972 
L 1947 1972 
Q 1828 2431 1642 2597 
Q 1456 2763 1169 2763 
Q 950 2763 815 2647 
Q 681 2531 681 2391 
Q 681 2216 781 2091 
Q 878 1963 1175 1819 
L 1631 1597 
Q 2266 1288 2266 781 
Q 2266 391 1970 151 
Q 1675 -88 1309 -88 
Q 1047 -88 709 6 
Q 606 38 541 38 
Q 469 38 428 -44 
L 325 -44 
L 325 978 
L 428 978 
Q 516 541 762 319 
Q 1009 97 1316 97 
Q 1531 97 1667 223 
Q 1803 350 1803 528 
Q 1803 744 1651 891 
Q 1500 1038 1047 1263 
Q 594 1488 453 1669 
Q 313 1847 313 2119 
Q 313 2472 555 2709 
Q 797 2947 1181 2947 
Q 1350 2947 1591 2875 
Q 1750 2828 1803 2828 
Q 1853 2828 1881 2850 
Q 1909 2872 1947 2947 
L 2050 2947 
z
" transform="scale(0.015625)"/>
      </defs>
      <use xlink:href="#TimesNewRomanPSMT-52"/>
      <use xlink:href="#TimesNewRomanPSMT-61" x="66.699219"/>
      <use xlink:href="#TimesNewRomanPSMT-6e" x="111.083984"/>
      <use xlink:href="#TimesNewRomanPSMT-6b" x="161.083984"/>
      <use xlink:href="#TimesNewRomanPSMT-20" x="211.083984"/>
      <use xlink:href="#TimesNewRomanPSMT-64" x="236.083984"/>
      <use xlink:href="#TimesNewRomanPSMT-69" x="286.083984"/>
      <use xlink:href="#TimesNewRomanPSMT-66" x="313.867188"/>
      <use xlink:href="#TimesNewRomanPSMT-66" x="345.417969"/>
      <use xlink:href="#TimesNewRomanPSMT-65" x="378.71875"/>
      <use xlink:href="#TimesNewRomanPSMT-72" x="423.103516"/>
      <use xlink:href="#TimesNewRomanPSMT-65" x="456.404297"/>
      <use xlink:href="#TimesNewRomanPSMT-6e" x="500.789062"/>
      <use xlink:href="#TimesNewRomanPSMT-63" x="550.789062"/>
      <use xlink:href="#TimesNewRomanPSMT-65" x="595.173828"/>
      <use xlink:href="#TimesNewRomanPSMT-20" x="639.558594"/>
      <use xlink:href="#TimesNewRomanPSMT-2f" x="664.558594"/>
      <use xlink:href="#TimesNewRomanPSMT-20" x="692.341797"/>
      <use xlink:href="#TimesNewRomanPSMT-25" x="717.341797"/>
      <use xlink:href="#TimesNewRomanPSMT-20" x="800.642578"/>
      <use xlink:href="#TimesNewRomanPSMT-6f" x="825.642578"/>
      <use xlink:href="#TimesNewRomanPSMT-66" x="875.642578"/>
      <use xlink:href="#TimesNewRomanPSMT-20" x="908.943359"/>
      <use xlink:href="#TimesNewRomanPSMT-6e" x="933.943359"/>
      <use xlink:href="#TimesNewRomanPSMT-6f" x="983.943359"/>
      <use xlink:href="#TimesNewRomanPSMT-2e" x="1033.943359"/>
      <use xlink:href="#TimesNewRomanPSMT-20" x="1058.943359"/>
      <use xlink:href="#TimesNewRomanPSMT-6d" x="1083.943359"/>
      <use xlink:href="#TimesNewRomanPSMT-61" x="1161.726562"/>
      <use xlink:href="#TimesNewRomanPSMT-74" x="1206.111328"/>
      <use xlink:href="#TimesNewRomanPSMT-65" x="1233.894531"/>
      <use xlink:href="#TimesNewRomanPSMT-72" x="1278.279297"/>
      <use xlink:href="#TimesNewRomanPSMT-69" x="1311.580078"/>
      <use xlink:href="#TimesNewRomanPSMT-61" x="1339.363281"/>
      <use xlink:href="#TimesNewRomanPSMT-6c" x="1383.748047"/>
      <use xlink:href="#TimesNewRomanPSMT-73" x="1411.53125"/>
     </g>
    </g>
   </g>
   <g id="patch_7">
    <path d="M 49.682813 288.56625 
L 49.682813 11.36625 
" style="fill: none; stroke: #000000; stroke-width: 0.8; stroke-linejoin: miter; stroke-linecap: square"/>
   </g>
   <g id="patch_8">
    <path d="M 328.682813 288.56625 
L 328.682813 11.36625 
" style="fill: none; stroke: #000000; stroke-width: 0.8; stroke-linejoin: miter; stroke-linecap: square"/>
   </g>
   <g id="patch_9">
    <path d="M 49.682812 288.56625 
L 328.682813 288.56625 
" style="fill: none; stroke: #000000; stroke-width: 0.8; stroke-linejoin: miter; stroke-linecap: square"/>
   </g>
   <g id="patch_10">
    <path d="M 49.682812 11.36625 
L 328.682813 11.36625 
" style="fill: none; stroke: #000000; stroke-width: 0.8; stroke-linejoin: miter; stroke-linecap: square"/>
   </g>
   <g id="PathCollection_7">
    <g clip-path="url(#pad4eb888a2)">
     <use xlink:href="#mccb2991406" x="113.091903" y="171.048783" style="stroke: #000000; stroke-width: 1.5"/>
    </g>
   </g>
   <g id="PathCollection_8">
    <g clip-path="url(#pad4eb888a2)">
     <use xlink:href="#mccb2991406" x="113.091903" y="151.580224" style="stroke: #000000; stroke-width: 1.5"/>
    </g>
   </g>
   <g id="PathCollection_9">
    <g clip-path="url(#pad4eb888a2)">
     <use xlink:href="#mccb2991406" x="113.091903" y="128.984591" style="stroke: #000000; stroke-width: 1.5"/>
    </g>
   </g>
   <g id="PathCollection_10">
    <g clip-path="url(#pad4eb888a2)">
     <use xlink:href="#mccb2991406" x="282.182813" y="166.113823" style="stroke: #000000; stroke-width: 1.5"/>
    </g>
   </g>
   <g id="PathCollection_11">
    <g clip-path="url(#pad4eb888a2)">
     <use xlink:href="#mccb2991406" x="282.182813" y="148.620619" style="stroke: #000000; stroke-width: 1.5"/>
    </g>
   </g>
   <g id="PathCollection_12">
    <g clip-path="url(#pad4eb888a2)">
     <use xlink:href="#mccb2991406" x="282.182813" y="130.4546" style="stroke: #000000; stroke-width: 1.5"/>
    </g>
   </g>
  </g>
 </g>
 <defs>
  <clipPath id="pad4eb888a2">
   <rect x="49.682813" y="11.36625" width="279" height="277.2"/>
  </clipPath>
 </defs>
</svg>
