<?xml version="1.0" encoding="utf-8" standalone="no"?>
<!DOCTYPE svg PUBLIC "-//W3C//DTD SVG 1.1//EN"
  "http://www.w3.org/Graphics/SVG/1.1/DTD/svg11.dtd">
<svg xmlns:xlink="http://www.w3.org/1999/xlink" width="570.15925pt" height="637.601375pt" viewBox="0 0 570.15925 637.601375" xmlns="http://www.w3.org/2000/svg" version="1.1">
 <metadata>
  <rdf:RDF xmlns:dc="http://purl.org/dc/elements/1.1/" xmlns:cc="http://creativecommons.org/ns#" xmlns:rdf="http://www.w3.org/1999/02/22-rdf-syntax-ns#">
   <cc:Work>
    <dc:type rdf:resource="http://purl.org/dc/dcmitype/StillImage"/>
    <dc:date>2025-06-23T00:49:40.623199</dc:date>
    <dc:format>image/svg+xml</dc:format>
    <dc:creator>
     <cc:Agent>
      <dc:title>Matplotlib v3.8.1, https://matplotlib.org/</dc:title>
     </cc:Agent>
    </dc:creator>
   </cc:Work>
  </rdf:RDF>
 </metadata>
 <defs>
  <style type="text/css">*{stroke-linejoin: round; stroke-linecap: butt}</style>
 </defs>
 <g id="figure_1">
  <g id="patch_1">
   <path d="M -0 637.601375 
L 570.15925 637.601375 
L 570.15925 -0 
L -0 -0 
z
" style="fill: #ffffff"/>
  </g>
  <g id="axes_1">
   <g id="patch_2">
    <path d="M 53.71625 589.192 
L 562.95925 589.192 
L 562.95925 7.2 
L 53.71625 7.2 
z
" style="fill: #ffffff"/>
   </g>
   <g id="patch_3">
    <path d="M 453.83575 50.808258 
C 455.754165 50.808258 457.594265 50.046064 458.950789 48.689539 
C 460.307314 47.333015 461.069508 45.492915 461.069508 43.5745 
C 461.069508 41.656085 460.307314 39.815985 458.950789 38.459461 
C 457.594265 37.102936 455.754165 36.340742 453.83575 36.340742 
C 451.917335 36.340742 450.077235 37.102936 448.720711 38.459461 
C 447.364186 39.815985 446.601992 41.656085 446.601992 43.5745 
C 446.601992 45.492915 447.364186 47.333015 448.720711 48.689539 
C 450.077235 50.046064 451.917335 50.808258 453.83575 50.808258 
z
" clip-path="url(#p5a3be3fbf7)" style="fill: #2ca02c; stroke: #2ca02c; stroke-linejoin: miter"/>
   </g>
   <g id="patch_4">
    <path d="M 526.58475 50.808258 
C 528.503165 50.808258 530.343265 50.046064 531.699789 48.689539 
C 533.056314 47.333015 533.818508 45.492915 533.818508 43.5745 
C 533.818508 41.656085 533.056314 39.815985 531.699789 38.459461 
C 530.343265 37.102936 528.503165 36.340742 526.58475 36.340742 
C 524.666335 36.340742 522.826235 37.102936 521.469711 38.459461 
C 520.113186 39.815985 519.350992 41.656085 519.350992 43.5745 
C 519.350992 45.492915 520.113186 47.333015 521.469711 48.689539 
C 522.826235 50.046064 524.666335 50.808258 526.58475 50.808258 
z
" clip-path="url(#p5a3be3fbf7)" style="fill: #d62728; stroke: #d62728; stroke-linejoin: miter"/>
   </g>
   <g id="patch_5">
    <path d="M 235.58875 123.557258 
C 237.507165 123.557258 239.347265 122.795064 240.703789 121.438539 
C 242.060314 120.082015 242.822508 118.241915 242.822508 116.3235 
C 242.822508 114.405085 242.060314 112.564985 240.703789 111.208461 
C 239.347265 109.851936 237.507165 109.089742 235.58875 109.089742 
C 233.670335 109.089742 231.830235 109.851936 230.473711 111.208461 
C 229.117186 112.564985 228.354992 114.405085 228.354992 116.3235 
C 228.354992 118.241915 229.117186 120.082015 230.473711 121.438539 
C 231.830235 122.795064 233.670335 123.557258 235.58875 123.557258 
z
" clip-path="url(#p5a3be3fbf7)" style="fill: #2ca02c; stroke: #2ca02c; stroke-linejoin: miter"/>
   </g>
   <g id="patch_6">
    <path d="M 381.08675 123.557258 
C 383.005165 123.557258 384.845265 122.795064 386.201789 121.438539 
C 387.558314 120.082015 388.320508 118.241915 388.320508 116.3235 
C 388.320508 114.405085 387.558314 112.564985 386.201789 111.208461 
C 384.845265 109.851936 383.005165 109.089742 381.08675 109.089742 
C 379.168335 109.089742 377.328235 109.851936 375.971711 111.208461 
C 374.615186 112.564985 373.852992 114.405085 373.852992 116.3235 
C 373.852992 118.241915 374.615186 120.082015 375.971711 121.438539 
C 377.328235 122.795064 379.168335 123.557258 381.08675 123.557258 
z
" clip-path="url(#p5a3be3fbf7)" style="fill: #2ca02c; stroke: #2ca02c; stroke-linejoin: miter"/>
   </g>
   <g id="patch_7">
    <path d="M 526.58475 125.736138 
C 529.081011 125.736138 531.475367 124.744363 533.24049 122.97924 
C 535.005613 121.214117 535.997388 118.819761 535.997388 116.3235 
C 535.997388 113.827239 535.005613 111.432883 533.24049 109.66776 
C 531.475367 107.902637 529.081011 106.910862 526.58475 106.910862 
C 524.088489 106.910862 521.694133 107.902637 519.92901 109.66776 
C 518.163887 111.432883 517.172112 113.827239 517.172112 116.3235 
C 517.172112 118.819761 518.163887 121.214117 519.92901 122.97924 
C 521.694133 124.744363 524.088489 125.736138 526.58475 125.736138 
z
" clip-path="url(#p5a3be3fbf7)" style="fill: #d62728; stroke: #d62728; stroke-linejoin: miter"/>
   </g>
   <g id="patch_8">
    <path d="M 90.09075 210.287401 
C 95.717008 210.287401 101.113586 208.052065 105.09195 204.0737 
C 109.070315 200.095336 111.305651 194.698758 111.305651 189.0725 
C 111.305651 183.446242 109.070315 178.049664 105.09195 174.0713 
C 101.113586 170.092935 95.717008 167.857599 90.09075 167.857599 
C 84.464492 167.857599 79.067914 170.092935 75.08955 174.0713 
C 71.111185 178.049664 68.875849 183.446242 68.875849 189.0725 
C 68.875849 194.698758 71.111185 200.095336 75.08955 204.0737 
C 79.067914 208.052065 84.464492 210.287401 90.09075 210.287401 
z
" clip-path="url(#p5a3be3fbf7)" style="fill: #1f77b4; stroke: #1f77b4; stroke-linejoin: miter"/>
   </g>
   <g id="patch_9">
    <path d="M 162.83975 210.768526 
C 168.593603 210.768526 174.112568 208.482496 178.181157 204.413907 
C 182.249746 200.345318 184.535776 194.826353 184.535776 189.0725 
C 184.535776 183.318647 182.249746 177.799682 178.181157 173.731093 
C 174.112568 169.662504 168.593603 167.376474 162.83975 167.376474 
C 157.085897 167.376474 151.566932 169.662504 147.498343 173.731093 
C 143.429754 177.799682 141.143724 183.318647 141.143724 189.0725 
C 141.143724 194.826353 143.429754 200.345318 147.498343 204.413907 
C 151.566932 208.482496 157.085897 210.768526 162.83975 210.768526 
z
" clip-path="url(#p5a3be3fbf7)" style="fill: #1f77b4; stroke: #1f77b4; stroke-linejoin: miter"/>
   </g>
   <g id="patch_10">
    <path d="M 235.58875 210.768526 
C 241.342603 210.768526 246.861568 208.482496 250.930157 204.413907 
C 254.998746 200.345318 257.284776 194.826353 257.284776 189.0725 
C 257.284776 183.318647 254.998746 177.799682 250.930157 173.731093 
C 246.861568 169.662504 241.342603 167.376474 235.58875 167.376474 
C 229.834897 167.376474 224.315932 169.662504 220.247343 173.731093 
C 216.178754 177.799682 213.892724 183.318647 213.892724 189.0725 
C 213.892724 194.826353 216.178754 200.345318 220.247343 204.413907 
C 224.315932 208.482496 229.834897 210.768526 235.58875 210.768526 
z
" clip-path="url(#p5a3be3fbf7)" style="fill: #1f77b4; stroke: #1f77b4; stroke-linejoin: miter"/>
   </g>
   <g id="patch_11">
    <path d="M 308.33775 196.306258 
C 310.256165 196.306258 312.096265 195.544064 313.452789 194.187539 
C 314.809314 192.831015 315.571508 190.990915 315.571508 189.0725 
C 315.571508 187.154085 314.809314 185.313985 313.452789 183.957461 
C 312.096265 182.600936 310.256165 181.838742 308.33775 181.838742 
C 306.419335 181.838742 304.579235 182.600936 303.222711 183.957461 
C 301.866186 185.313985 301.103992 187.154085 301.103992 189.0725 
C 301.103992 190.990915 301.866186 192.831015 303.222711 194.187539 
C 304.579235 195.544064 306.419335 196.306258 308.33775 196.306258 
z
" clip-path="url(#p5a3be3fbf7)" style="fill: #2ca02c; stroke: #2ca02c; stroke-linejoin: miter"/>
   </g>
   <g id="patch_12">
    <path d="M 526.58475 211.38141 
C 532.501142 211.38141 538.176011 209.030803 542.359532 204.847282 
C 546.543053 200.663761 548.89366 194.988892 548.89366 189.0725 
C 548.89366 183.156108 546.543053 177.481239 542.359532 173.297718 
C 538.176011 169.114197 532.501142 166.76359 526.58475 166.76359 
C 520.668358 166.76359 514.993489 169.114197 510.809968 173.297718 
C 506.626447 177.481239 504.27584 183.156108 504.27584 189.0725 
C 504.27584 194.988892 506.626447 200.663761 510.809968 204.847282 
C 514.993489 209.030803 520.668358 211.38141 526.58475 211.38141 
z
" clip-path="url(#p5a3be3fbf7)" style="fill: #d62728; stroke: #d62728; stroke-linejoin: miter"/>
   </g>
   <g id="patch_13">
    <path d="M 90.09075 269.055258 
C 92.009165 269.055258 93.849265 268.293064 95.205789 266.936539 
C 96.562314 265.580015 97.324508 263.739915 97.324508 261.8215 
C 97.324508 259.903085 96.562314 258.062985 95.205789 256.706461 
C 93.849265 255.349936 92.009165 254.587742 90.09075 254.587742 
C 88.172335 254.587742 86.332235 255.349936 84.975711 256.706461 
C 83.619186 258.062985 82.856992 259.903085 82.856992 261.8215 
C 82.856992 263.739915 83.619186 265.580015 84.975711 266.936539 
C 86.332235 268.293064 88.172335 269.055258 90.09075 269.055258 
z
" clip-path="url(#p5a3be3fbf7)" style="fill: #2ca02c; stroke: #2ca02c; stroke-linejoin: miter"/>
   </g>
   <g id="patch_14">
    <path d="M 526.58475 269.055258 
C 528.503165 269.055258 530.343265 268.293064 531.699789 266.936539 
C 533.056314 265.580015 533.818508 263.739915 533.818508 261.8215 
C 533.818508 259.903085 533.056314 258.062985 531.699789 256.706461 
C 530.343265 255.349936 528.503165 254.587742 526.58475 254.587742 
C 524.666335 254.587742 522.826235 255.349936 521.469711 256.706461 
C 520.113186 258.062985 519.350992 259.903085 519.350992 261.8215 
C 519.350992 263.739915 520.113186 265.580015 521.469711 266.936539 
C 522.826235 268.293064 524.666335 269.055258 526.58475 269.055258 
z
" clip-path="url(#p5a3be3fbf7)" style="fill: #d62728; stroke: #d62728; stroke-linejoin: miter"/>
   </g>
   <g id="patch_15">
    <path d="M 90.09075 360.493738 
C 96.965673 360.493738 103.559943 357.762302 108.421247 352.900997 
C 113.282552 348.039693 116.013988 341.445423 116.013988 334.5705 
C 116.013988 327.695577 113.282552 321.101307 108.421247 316.240003 
C 103.559943 311.378698 96.965673 308.647262 90.09075 308.647262 
C 83.215827 308.647262 76.621557 311.378698 71.760253 316.240003 
C 66.898948 321.101307 64.167512 327.695577 64.167512 334.5705 
C 64.167512 341.445423 66.898948 348.039693 71.760253 352.900997 
C 76.621557 357.762302 83.215827 360.493738 90.09075 360.493738 
z
" clip-path="url(#p5a3be3fbf7)" style="fill: #ff7f0e; stroke: #ff7f0e; stroke-linejoin: miter"/>
   </g>
   <g id="patch_16">
    <path d="M 526.58475 360.493738 
C 533.459673 360.493738 540.053943 357.762302 544.915247 352.900997 
C 549.776552 348.039693 552.507988 341.445423 552.507988 334.5705 
C 552.507988 327.695577 549.776552 321.101307 544.915247 316.240003 
C 540.053943 311.378698 533.459673 308.647262 526.58475 308.647262 
C 519.709827 308.647262 513.115557 311.378698 508.254253 316.240003 
C 503.392948 321.101307 500.661512 327.695577 500.661512 334.5705 
C 500.661512 341.445423 503.392948 348.039693 508.254253 352.900997 
C 513.115557 357.762302 519.709827 360.493738 526.58475 360.493738 
z
" clip-path="url(#p5a3be3fbf7)" style="fill: #d62728; stroke: #d62728; stroke-linejoin: miter"/>
   </g>
   <g id="patch_17">
    <path d="M 90.09075 428.534401 
C 95.717008 428.534401 101.113586 426.299065 105.09195 422.3207 
C 109.070315 418.342336 111.305651 412.945758 111.305651 407.3195 
C 111.305651 401.693242 109.070315 396.296664 105.09195 392.3183 
C 101.113586 388.339935 95.717008 386.104599 90.09075 386.104599 
C 84.464492 386.104599 79.067914 388.339935 75.08955 392.3183 
C 71.111185 396.296664 68.875849 401.693242 68.875849 407.3195 
C 68.875849 412.945758 71.111185 418.342336 75.08955 422.3207 
C 79.067914 426.299065 84.464492 428.534401 90.09075 428.534401 
z
" clip-path="url(#p5a3be3fbf7)" style="fill: #1f77b4; stroke: #1f77b4; stroke-linejoin: miter"/>
   </g>
   <g id="patch_18">
    <path d="M 308.33775 414.553258 
C 310.256165 414.553258 312.096265 413.791064 313.452789 412.434539 
C 314.809314 411.078015 315.571508 409.237915 315.571508 407.3195 
C 315.571508 405.401085 314.809314 403.560985 313.452789 402.204461 
C 312.096265 400.847936 310.256165 400.085742 308.33775 400.085742 
C 306.419335 400.085742 304.579235 400.847936 303.222711 402.204461 
C 301.866186 403.560985 301.103992 405.401085 301.103992 407.3195 
C 301.103992 409.237915 301.866186 411.078015 303.222711 412.434539 
C 304.579235 413.791064 306.419335 414.553258 308.33775 414.553258 
z
" clip-path="url(#p5a3be3fbf7)" style="fill: #2ca02c; stroke: #2ca02c; stroke-linejoin: miter"/>
   </g>
   <g id="patch_19">
    <path d="M 526.58475 428.535017 
C 532.211171 428.535017 537.607906 426.299617 541.586386 422.321136 
C 545.564867 418.342656 547.800267 412.945921 547.800267 407.3195 
C 547.800267 401.693079 545.564867 396.296344 541.586386 392.317864 
C 537.607906 388.339383 532.211171 386.103983 526.58475 386.103983 
C 520.958329 386.103983 515.561594 388.339383 511.583114 392.317864 
C 507.604633 396.296344 505.369233 401.693079 505.369233 407.3195 
C 505.369233 412.945921 507.604633 418.342656 511.583114 422.321136 
C 515.561594 426.299617 520.958329 428.535017 526.58475 428.535017 
z
" clip-path="url(#p5a3be3fbf7)" style="fill: #d62728; stroke: #d62728; stroke-linejoin: miter"/>
   </g>
   <g id="patch_20">
    <path d="M 90.09075 501.283401 
C 95.717008 501.283401 101.113586 499.048065 105.09195 495.0697 
C 109.070315 491.091336 111.305651 485.694758 111.305651 480.0685 
C 111.305651 474.442242 109.070315 469.045664 105.09195 465.0673 
C 101.113586 461.088935 95.717008 458.853599 90.09075 458.853599 
C 84.464492 458.853599 79.067914 461.088935 75.08955 465.0673 
C 71.111185 469.045664 68.875849 474.442242 68.875849 480.0685 
C 68.875849 485.694758 71.111185 491.091336 75.08955 495.0697 
C 79.067914 499.048065 84.464492 501.283401 90.09075 501.283401 
z
" clip-path="url(#p5a3be3fbf7)" style="fill: #1f77b4; stroke: #1f77b4; stroke-linejoin: miter"/>
   </g>
   <g id="patch_21">
    <path d="M 162.83975 501.764526 
C 168.593603 501.764526 174.112568 499.478496 178.181157 495.409907 
C 182.249746 491.341318 184.535776 485.822353 184.535776 480.0685 
C 184.535776 474.314647 182.249746 468.795682 178.181157 464.727093 
C 174.112568 460.658504 168.593603 458.372474 162.83975 458.372474 
C 157.085897 458.372474 151.566932 460.658504 147.498343 464.727093 
C 143.429754 468.795682 141.143724 474.314647 141.143724 480.0685 
C 141.143724 485.822353 143.429754 491.341318 147.498343 495.409907 
C 151.566932 499.478496 157.085897 501.764526 162.83975 501.764526 
z
" clip-path="url(#p5a3be3fbf7)" style="fill: #1f77b4; stroke: #1f77b4; stroke-linejoin: miter"/>
   </g>
   <g id="patch_22">
    <path d="M 235.58875 501.764526 
C 241.342603 501.764526 246.861568 499.478496 250.930157 495.409907 
C 254.998746 491.341318 257.284776 485.822353 257.284776 480.0685 
C 257.284776 474.314647 254.998746 468.795682 250.930157 464.727093 
C 246.861568 460.658504 241.342603 458.372474 235.58875 458.372474 
C 229.834897 458.372474 224.315932 460.658504 220.247343 464.727093 
C 216.178754 468.795682 213.892724 474.314647 213.892724 480.0685 
C 213.892724 485.822353 216.178754 491.341318 220.247343 495.409907 
C 224.315932 499.478496 229.834897 501.764526 235.58875 501.764526 
z
" clip-path="url(#p5a3be3fbf7)" style="fill: #1f77b4; stroke: #1f77b4; stroke-linejoin: miter"/>
   </g>
   <g id="patch_23">
    <path d="M 526.58475 502.377174 
C 532.50108 502.377174 538.175888 500.026591 542.359365 495.843115 
C 546.542841 491.659638 548.893424 485.98483 548.893424 480.0685 
C 548.893424 474.15217 546.542841 468.477362 542.359365 464.293885 
C 538.175888 460.110409 532.50108 457.759826 526.58475 457.759826 
C 520.66842 457.759826 514.993612 460.110409 510.810135 464.293885 
C 506.626659 468.477362 504.276076 474.15217 504.276076 480.0685 
C 504.276076 485.98483 506.626659 491.659638 510.810135 495.843115 
C 514.993612 500.026591 520.66842 502.377174 526.58475 502.377174 
z
" clip-path="url(#p5a3be3fbf7)" style="fill: #d62728; stroke: #d62728; stroke-linejoin: miter"/>
   </g>
   <g id="patch_24">
    <path d="M 90.09075 578.740738 
C 96.965673 578.740738 103.559943 576.009302 108.421247 571.147997 
C 113.282552 566.286693 116.013988 559.692423 116.013988 552.8175 
C 116.013988 545.942577 113.282552 539.348307 108.421247 534.487003 
C 103.559943 529.625698 96.965673 526.894262 90.09075 526.894262 
C 83.215827 526.894262 76.621557 529.625698 71.760253 534.487003 
C 66.898948 539.348307 64.167512 545.942577 64.167512 552.8175 
C 64.167512 559.692423 66.898948 566.286693 71.760253 571.147997 
C 76.621557 576.009302 83.215827 578.740738 90.09075 578.740738 
z
" clip-path="url(#p5a3be3fbf7)" style="fill: #ff7f0e; stroke: #ff7f0e; stroke-linejoin: miter"/>
   </g>
   <g id="patch_25">
    <path d="M 162.83975 574.032401 
C 168.466008 574.032401 173.862586 571.797065 177.84095 567.8187 
C 181.819315 563.840336 184.054651 558.443758 184.054651 552.8175 
C 184.054651 547.191242 181.819315 541.794664 177.84095 537.8163 
C 173.862586 533.837935 168.466008 531.602599 162.83975 531.602599 
C 157.213492 531.602599 151.816914 533.837935 147.83855 537.8163 
C 143.860185 541.794664 141.624849 547.191242 141.624849 552.8175 
C 141.624849 558.443758 143.860185 563.840336 147.83855 567.8187 
C 151.816914 571.797065 157.213492 574.032401 162.83975 574.032401 
z
" clip-path="url(#p5a3be3fbf7)" style="fill: #1f77b4; stroke: #1f77b4; stroke-linejoin: miter"/>
   </g>
   <g id="patch_26">
    <path d="M 235.58875 574.513526 
C 241.342603 574.513526 246.861568 572.227496 250.930157 568.158907 
C 254.998746 564.090318 257.284776 558.571353 257.284776 552.8175 
C 257.284776 547.063647 254.998746 541.544682 250.930157 537.476093 
C 246.861568 533.407504 241.342603 531.121474 235.58875 531.121474 
C 229.834897 531.121474 224.315932 533.407504 220.247343 537.476093 
C 216.178754 541.544682 213.892724 547.063647 213.892724 552.8175 
C 213.892724 558.571353 216.178754 564.090318 220.247343 568.158907 
C 224.315932 572.227496 229.834897 574.513526 235.58875 574.513526 
z
" clip-path="url(#p5a3be3fbf7)" style="fill: #1f77b4; stroke: #1f77b4; stroke-linejoin: miter"/>
   </g>
   <g id="patch_27">
    <path d="M 526.58475 578.776149 
C 533.469064 578.776149 540.072342 576.040982 544.940287 571.173037 
C 549.808232 566.305092 552.543399 559.701814 552.543399 552.8175 
C 552.543399 545.933186 549.808232 539.329908 544.940287 534.461963 
C 540.072342 529.594018 533.469064 526.858851 526.58475 526.858851 
C 519.700436 526.858851 513.097158 529.594018 508.229213 534.461963 
C 503.361268 539.329908 500.626101 545.933186 500.626101 552.8175 
C 500.626101 559.701814 503.361268 566.305092 508.229213 571.173037 
C 513.097158 576.040982 519.700436 578.776149 526.58475 578.776149 
z
" clip-path="url(#p5a3be3fbf7)" style="fill: #d62728; stroke: #d62728; stroke-linejoin: miter"/>
   </g>
   <g id="matplotlib.axis_1">
    <g id="xtick_1">
     <g id="line2d_1">
      <path d="M 90.09075 589.192 
L 90.09075 7.2 
" clip-path="url(#p5a3be3fbf7)" style="fill: none; stroke-dasharray: 2.96,1.28; stroke-dashoffset: 0; stroke: #b0b0b0; stroke-opacity: 0.7; stroke-width: 0.8"/>
     </g>
     <g id="line2d_2">
      <defs>
       <path id="m5c5cdaace8" d="M 0 0 
L 0 3.5 
" style="stroke: #000000; stroke-width: 0.8"/>
      </defs>
      <g>
       <use xlink:href="#m5c5cdaace8" x="90.09075" y="589.192" style="stroke: #000000; stroke-width: 0.8"/>
      </g>
     </g>
     <g id="text_1">
      <!-- $E_G$ -->
      <g transform="translate(81.62075 606.829813) scale(0.14 -0.14)">
       <defs>
        <path id="DejaVuSans-Oblique-45" d="M 1081 4666 
L 4031 4666 
L 3928 4134 
L 1606 4134 
L 1338 2753 
L 3566 2753 
L 3463 2222 
L 1234 2222 
L 909 531 
L 3284 531 
L 3181 0 
L 172 0 
L 1081 4666 
z
" transform="scale(0.015625)"/>
        <path id="DejaVuSans-Oblique-47" d="M 3494 697 
L 3738 1919 
L 2700 1919 
L 2797 2438 
L 4453 2438 
L 4050 384 
Q 3634 156 3143 32 
Q 2653 -91 2156 -91 
Q 1278 -91 783 396 
Q 288 884 288 1753 
Q 288 2475 589 3126 
Q 891 3778 1422 4213 
Q 1756 4484 2153 4617 
Q 2550 4750 3034 4750 
Q 3472 4750 3873 4639 
Q 4275 4528 4641 4306 
L 4513 3634 
Q 4231 3928 3853 4083 
Q 3475 4238 3047 4238 
Q 2550 4238 2172 4048 
Q 1794 3859 1497 3463 
Q 1244 3125 1098 2667 
Q 953 2209 953 1734 
Q 953 1081 1287 751 
Q 1622 422 2284 422 
Q 2616 422 2925 492 
Q 3234 563 3494 697 
z
" transform="scale(0.015625)"/>
       </defs>
       <use xlink:href="#DejaVuSans-Oblique-45" transform="translate(0 0.09375)"/>
       <use xlink:href="#DejaVuSans-Oblique-47" transform="translate(63.183594 -16.3125) scale(0.7)"/>
      </g>
     </g>
    </g>
    <g id="xtick_2">
     <g id="line2d_3">
      <path d="M 162.83975 589.192 
L 162.83975 7.2 
" clip-path="url(#p5a3be3fbf7)" style="fill: none; stroke-dasharray: 2.96,1.28; stroke-dashoffset: 0; stroke: #b0b0b0; stroke-opacity: 0.7; stroke-width: 0.8"/>
     </g>
     <g id="line2d_4">
      <g>
       <use xlink:href="#m5c5cdaace8" x="162.83975" y="589.192" style="stroke: #000000; stroke-width: 0.8"/>
      </g>
     </g>
     <g id="text_2">
      <!-- $E_G^\text{DA}$ -->
      <g transform="translate(150.58975 608.792) scale(0.14 -0.14)">
       <defs>
        <path id="DejaVuSans-44" d="M 1259 4147 
L 1259 519 
L 2022 519 
Q 2988 519 3436 956 
Q 3884 1394 3884 2338 
Q 3884 3275 3436 3711 
Q 2988 4147 2022 4147 
L 1259 4147 
z
M 628 4666 
L 1925 4666 
Q 3281 4666 3915 4102 
Q 4550 3538 4550 2338 
Q 4550 1131 3912 565 
Q 3275 0 1925 0 
L 628 0 
L 628 4666 
z
" transform="scale(0.015625)"/>
        <path id="DejaVuSans-41" d="M 2188 4044 
L 1331 1722 
L 3047 1722 
L 2188 4044 
z
M 1831 4666 
L 2547 4666 
L 4325 0 
L 3669 0 
L 3244 1197 
L 1141 1197 
L 716 0 
L 50 0 
L 1831 4666 
z
" transform="scale(0.015625)"/>
       </defs>
       <use xlink:href="#DejaVuSans-Oblique-45" transform="translate(0 0.684375)"/>
       <use xlink:href="#DejaVuSans-44" transform="translate(70.200365 38.965625) scale(0.7)"/>
       <use xlink:href="#DejaVuSans-41" transform="translate(124.101732 38.965625) scale(0.7)"/>
       <use xlink:href="#DejaVuSans-Oblique-47" transform="translate(63.183594 -26.659375) scale(0.7)"/>
      </g>
     </g>
    </g>
    <g id="xtick_3">
     <g id="line2d_5">
      <path d="M 235.58875 589.192 
L 235.58875 7.2 
" clip-path="url(#p5a3be3fbf7)" style="fill: none; stroke-dasharray: 2.96,1.28; stroke-dashoffset: 0; stroke: #b0b0b0; stroke-opacity: 0.7; stroke-width: 0.8"/>
     </g>
     <g id="line2d_6">
      <g>
       <use xlink:href="#m5c5cdaace8" x="235.58875" y="589.192" style="stroke: #000000; stroke-width: 0.8"/>
      </g>
     </g>
     <g id="text_3">
      <!-- $\alpha(E)$ -->
      <g transform="translate(221.02875 606.829813) scale(0.14 -0.14)">
       <defs>
        <path id="DejaVuSans-Oblique-3b1" d="M 2619 1628 
L 2622 2350 
Q 2625 3088 2069 3091 
Q 1653 3094 1394 2747 
Q 1069 2319 959 1747 
Q 825 1059 994 731 
Q 1169 397 1547 397 
Q 1966 397 2319 1063 
L 2619 1628 
z
M 2166 3578 
Q 3141 3594 3128 2584 
Q 3128 2584 3616 3500 
L 4128 3500 
L 3119 1603 
L 3109 919 
Q 3109 766 3194 638 
Q 3291 488 3391 488 
L 3669 488 
L 3575 0 
L 3228 0 
Q 2934 0 2722 263 
Q 2622 394 2619 669 
Q 2416 334 2066 50 
Q 1900 -81 1453 -78 
Q 722 -72 456 397 
Q 184 884 353 1747 
Q 534 2675 1009 3097 
Q 1544 3569 2166 3578 
z
" transform="scale(0.015625)"/>
        <path id="DejaVuSans-28" d="M 1984 4856 
Q 1566 4138 1362 3434 
Q 1159 2731 1159 2009 
Q 1159 1288 1364 580 
Q 1569 -128 1984 -844 
L 1484 -844 
Q 1016 -109 783 600 
Q 550 1309 550 2009 
Q 550 2706 781 3412 
Q 1013 4119 1484 4856 
L 1984 4856 
z
" transform="scale(0.015625)"/>
        <path id="DejaVuSans-29" d="M 513 4856 
L 1013 4856 
Q 1481 4119 1714 3412 
Q 1947 2706 1947 2009 
Q 1947 1309 1714 600 
Q 1481 -109 1013 -844 
L 513 -844 
Q 928 -128 1133 580 
Q 1338 1288 1338 2009 
Q 1338 2731 1133 3434 
Q 928 4138 513 4856 
z
" transform="scale(0.015625)"/>
       </defs>
       <use xlink:href="#DejaVuSans-Oblique-3b1" transform="translate(0 0.125)"/>
       <use xlink:href="#DejaVuSans-28" transform="translate(65.917969 0.125)"/>
       <use xlink:href="#DejaVuSans-Oblique-45" transform="translate(104.931641 0.125)"/>
       <use xlink:href="#DejaVuSans-29" transform="translate(168.115234 0.125)"/>
      </g>
     </g>
    </g>
    <g id="xtick_4">
     <g id="line2d_7">
      <path d="M 308.33775 589.192 
L 308.33775 7.2 
" clip-path="url(#p5a3be3fbf7)" style="fill: none; stroke-dasharray: 2.96,1.28; stroke-dashoffset: 0; stroke: #b0b0b0; stroke-opacity: 0.7; stroke-width: 0.8"/>
     </g>
     <g id="line2d_8">
      <g>
       <use xlink:href="#m5c5cdaace8" x="308.33775" y="589.192" style="stroke: #000000; stroke-width: 0.8"/>
      </g>
     </g>
     <g id="text_4">
      <!-- $\Delta E$ -->
      <g transform="translate(299.09775 606.829813) scale(0.14 -0.14)">
       <defs>
        <path id="DejaVuSans-394" d="M 2188 4044 
L 906 525 
L 3472 525 
L 2188 4044 
z
M 50 0 
L 1831 4666 
L 2547 4666 
L 4325 0 
L 50 0 
z
" transform="scale(0.015625)"/>
       </defs>
       <use xlink:href="#DejaVuSans-394" transform="translate(0 0.09375)"/>
       <use xlink:href="#DejaVuSans-Oblique-45" transform="translate(68.408203 0.09375)"/>
      </g>
     </g>
    </g>
    <g id="xtick_5">
     <g id="line2d_9">
      <path d="M 381.08675 589.192 
L 381.08675 7.2 
" clip-path="url(#p5a3be3fbf7)" style="fill: none; stroke-dasharray: 2.96,1.28; stroke-dashoffset: 0; stroke: #b0b0b0; stroke-opacity: 0.7; stroke-width: 0.8"/>
     </g>
     <g id="line2d_10">
      <g>
       <use xlink:href="#m5c5cdaace8" x="381.08675" y="589.192" style="stroke: #000000; stroke-width: 0.8"/>
      </g>
     </g>
     <g id="text_5">
      <!-- $\Delta$ -->
      <g transform="translate(376.25675 606.829813) scale(0.14 -0.14)">
       <use xlink:href="#DejaVuSans-394" transform="translate(0 0.09375)"/>
      </g>
     </g>
    </g>
    <g id="xtick_6">
     <g id="line2d_11">
      <path d="M 453.83575 589.192 
L 453.83575 7.2 
" clip-path="url(#p5a3be3fbf7)" style="fill: none; stroke-dasharray: 2.96,1.28; stroke-dashoffset: 0; stroke: #b0b0b0; stroke-opacity: 0.7; stroke-width: 0.8"/>
     </g>
     <g id="line2d_12">
      <g>
       <use xlink:href="#m5c5cdaace8" x="453.83575" y="589.192" style="stroke: #000000; stroke-width: 0.8"/>
      </g>
     </g>
     <g id="text_6">
      <!-- SLME -->
      <g transform="translate(435.028719 606.829813) scale(0.14 -0.14)">
       <defs>
        <path id="DejaVuSans-53" d="M 3425 4513 
L 3425 3897 
Q 3066 4069 2747 4153 
Q 2428 4238 2131 4238 
Q 1616 4238 1336 4038 
Q 1056 3838 1056 3469 
Q 1056 3159 1242 3001 
Q 1428 2844 1947 2747 
L 2328 2669 
Q 3034 2534 3370 2195 
Q 3706 1856 3706 1288 
Q 3706 609 3251 259 
Q 2797 -91 1919 -91 
Q 1588 -91 1214 -16 
Q 841 59 441 206 
L 441 856 
Q 825 641 1194 531 
Q 1563 422 1919 422 
Q 2459 422 2753 634 
Q 3047 847 3047 1241 
Q 3047 1584 2836 1778 
Q 2625 1972 2144 2069 
L 1759 2144 
Q 1053 2284 737 2584 
Q 422 2884 422 3419 
Q 422 4038 858 4394 
Q 1294 4750 2059 4750 
Q 2388 4750 2728 4690 
Q 3069 4631 3425 4513 
z
" transform="scale(0.015625)"/>
        <path id="DejaVuSans-4c" d="M 628 4666 
L 1259 4666 
L 1259 531 
L 3531 531 
L 3531 0 
L 628 0 
L 628 4666 
z
" transform="scale(0.015625)"/>
        <path id="DejaVuSans-4d" d="M 628 4666 
L 1569 4666 
L 2759 1491 
L 3956 4666 
L 4897 4666 
L 4897 0 
L 4281 0 
L 4281 4097 
L 3078 897 
L 2444 897 
L 1241 4097 
L 1241 0 
L 628 0 
L 628 4666 
z
" transform="scale(0.015625)"/>
        <path id="DejaVuSans-45" d="M 628 4666 
L 3578 4666 
L 3578 4134 
L 1259 4134 
L 1259 2753 
L 3481 2753 
L 3481 2222 
L 1259 2222 
L 1259 531 
L 3634 531 
L 3634 0 
L 628 0 
L 628 4666 
z
" transform="scale(0.015625)"/>
       </defs>
       <use xlink:href="#DejaVuSans-53"/>
       <use xlink:href="#DejaVuSans-4c" x="63.476562"/>
       <use xlink:href="#DejaVuSans-4d" x="119.189453"/>
       <use xlink:href="#DejaVuSans-45" x="205.46875"/>
      </g>
     </g>
    </g>
    <g id="xtick_7">
     <g id="line2d_13">
      <path d="M 526.58475 589.192 
L 526.58475 7.2 
" clip-path="url(#p5a3be3fbf7)" style="fill: none; stroke-dasharray: 2.96,1.28; stroke-dashoffset: 0; stroke: #b0b0b0; stroke-opacity: 0.7; stroke-width: 0.8"/>
     </g>
     <g id="line2d_14">
      <g>
       <use xlink:href="#m5c5cdaace8" x="526.58475" y="589.192" style="stroke: #000000; stroke-width: 0.8"/>
      </g>
     </g>
     <g id="text_7">
      <!-- Total -->
      <g transform="translate(510.237562 606.829813) scale(0.14 -0.14)">
       <defs>
        <path id="DejaVuSans-54" d="M -19 4666 
L 3928 4666 
L 3928 4134 
L 2272 4134 
L 2272 0 
L 1638 0 
L 1638 4134 
L -19 4134 
L -19 4666 
z
" transform="scale(0.015625)"/>
        <path id="DejaVuSans-6f" d="M 1959 3097 
Q 1497 3097 1228 2736 
Q 959 2375 959 1747 
Q 959 1119 1226 758 
Q 1494 397 1959 397 
Q 2419 397 2687 759 
Q 2956 1122 2956 1747 
Q 2956 2369 2687 2733 
Q 2419 3097 1959 3097 
z
M 1959 3584 
Q 2709 3584 3137 3096 
Q 3566 2609 3566 1747 
Q 3566 888 3137 398 
Q 2709 -91 1959 -91 
Q 1206 -91 779 398 
Q 353 888 353 1747 
Q 353 2609 779 3096 
Q 1206 3584 1959 3584 
z
" transform="scale(0.015625)"/>
        <path id="DejaVuSans-74" d="M 1172 4494 
L 1172 3500 
L 2356 3500 
L 2356 3053 
L 1172 3053 
L 1172 1153 
Q 1172 725 1289 603 
Q 1406 481 1766 481 
L 2356 481 
L 2356 0 
L 1766 0 
Q 1100 0 847 248 
Q 594 497 594 1153 
L 594 3053 
L 172 3053 
L 172 3500 
L 594 3500 
L 594 4494 
L 1172 4494 
z
" transform="scale(0.015625)"/>
        <path id="DejaVuSans-61" d="M 2194 1759 
Q 1497 1759 1228 1600 
Q 959 1441 959 1056 
Q 959 750 1161 570 
Q 1363 391 1709 391 
Q 2188 391 2477 730 
Q 2766 1069 2766 1631 
L 2766 1759 
L 2194 1759 
z
M 3341 1997 
L 3341 0 
L 2766 0 
L 2766 531 
Q 2569 213 2275 61 
Q 1981 -91 1556 -91 
Q 1019 -91 701 211 
Q 384 513 384 1019 
Q 384 1609 779 1909 
Q 1175 2209 1959 2209 
L 2766 2209 
L 2766 2266 
Q 2766 2663 2505 2880 
Q 2244 3097 1772 3097 
Q 1472 3097 1187 3025 
Q 903 2953 641 2809 
L 641 3341 
Q 956 3463 1253 3523 
Q 1550 3584 1831 3584 
Q 2591 3584 2966 3190 
Q 3341 2797 3341 1997 
z
" transform="scale(0.015625)"/>
        <path id="DejaVuSans-6c" d="M 603 4863 
L 1178 4863 
L 1178 0 
L 603 0 
L 603 4863 
z
" transform="scale(0.015625)"/>
       </defs>
       <use xlink:href="#DejaVuSans-54"/>
       <use xlink:href="#DejaVuSans-6f" x="44.083984"/>
       <use xlink:href="#DejaVuSans-74" x="105.265625"/>
       <use xlink:href="#DejaVuSans-61" x="144.474609"/>
       <use xlink:href="#DejaVuSans-6c" x="205.753906"/>
      </g>
     </g>
    </g>
    <g id="text_8">
     <!-- Property -->
     <g transform="translate(278.720094 627.489812) scale(0.14 -0.14)">
      <defs>
       <path id="DejaVuSans-50" d="M 1259 4147 
L 1259 2394 
L 2053 2394 
Q 2494 2394 2734 2622 
Q 2975 2850 2975 3272 
Q 2975 3691 2734 3919 
Q 2494 4147 2053 4147 
L 1259 4147 
z
M 628 4666 
L 2053 4666 
Q 2838 4666 3239 4311 
Q 3641 3956 3641 3272 
Q 3641 2581 3239 2228 
Q 2838 1875 2053 1875 
L 1259 1875 
L 1259 0 
L 628 0 
L 628 4666 
z
" transform="scale(0.015625)"/>
       <path id="DejaVuSans-72" d="M 2631 2963 
Q 2534 3019 2420 3045 
Q 2306 3072 2169 3072 
Q 1681 3072 1420 2755 
Q 1159 2438 1159 1844 
L 1159 0 
L 581 0 
L 581 3500 
L 1159 3500 
L 1159 2956 
Q 1341 3275 1631 3429 
Q 1922 3584 2338 3584 
Q 2397 3584 2469 3576 
Q 2541 3569 2628 3553 
L 2631 2963 
z
" transform="scale(0.015625)"/>
       <path id="DejaVuSans-70" d="M 1159 525 
L 1159 -1331 
L 581 -1331 
L 581 3500 
L 1159 3500 
L 1159 2969 
Q 1341 3281 1617 3432 
Q 1894 3584 2278 3584 
Q 2916 3584 3314 3078 
Q 3713 2572 3713 1747 
Q 3713 922 3314 415 
Q 2916 -91 2278 -91 
Q 1894 -91 1617 61 
Q 1341 213 1159 525 
z
M 3116 1747 
Q 3116 2381 2855 2742 
Q 2594 3103 2138 3103 
Q 1681 3103 1420 2742 
Q 1159 2381 1159 1747 
Q 1159 1113 1420 752 
Q 1681 391 2138 391 
Q 2594 391 2855 752 
Q 3116 1113 3116 1747 
z
" transform="scale(0.015625)"/>
       <path id="DejaVuSans-65" d="M 3597 1894 
L 3597 1613 
L 953 1613 
Q 991 1019 1311 708 
Q 1631 397 2203 397 
Q 2534 397 2845 478 
Q 3156 559 3463 722 
L 3463 178 
Q 3153 47 2828 -22 
Q 2503 -91 2169 -91 
Q 1331 -91 842 396 
Q 353 884 353 1716 
Q 353 2575 817 3079 
Q 1281 3584 2069 3584 
Q 2775 3584 3186 3129 
Q 3597 2675 3597 1894 
z
M 3022 2063 
Q 3016 2534 2758 2815 
Q 2500 3097 2075 3097 
Q 1594 3097 1305 2825 
Q 1016 2553 972 2059 
L 3022 2063 
z
" transform="scale(0.015625)"/>
       <path id="DejaVuSans-79" d="M 2059 -325 
Q 1816 -950 1584 -1140 
Q 1353 -1331 966 -1331 
L 506 -1331 
L 506 -850 
L 844 -850 
Q 1081 -850 1212 -737 
Q 1344 -625 1503 -206 
L 1606 56 
L 191 3500 
L 800 3500 
L 1894 763 
L 2988 3500 
L 3597 3500 
L 2059 -325 
z
" transform="scale(0.015625)"/>
      </defs>
      <use xlink:href="#DejaVuSans-50"/>
      <use xlink:href="#DejaVuSans-72" x="58.552734"/>
      <use xlink:href="#DejaVuSans-6f" x="97.416016"/>
      <use xlink:href="#DejaVuSans-70" x="158.597656"/>
      <use xlink:href="#DejaVuSans-65" x="222.074219"/>
      <use xlink:href="#DejaVuSans-72" x="283.597656"/>
      <use xlink:href="#DejaVuSans-74" x="324.710938"/>
      <use xlink:href="#DejaVuSans-79" x="363.919922"/>
     </g>
    </g>
   </g>
   <g id="matplotlib.axis_2">
    <g id="ytick_1">
     <g id="line2d_15">
      <path d="M 53.71625 552.8175 
L 562.95925 552.8175 
" clip-path="url(#p5a3be3fbf7)" style="fill: none; stroke-dasharray: 2.96,1.28; stroke-dashoffset: 0; stroke: #b0b0b0; stroke-opacity: 0.7; stroke-width: 0.8"/>
     </g>
     <g id="line2d_16">
      <defs>
       <path id="m29cb850c42" d="M 0 0 
L -3.5 0 
" style="stroke: #000000; stroke-width: 0.8"/>
      </defs>
      <g>
       <use xlink:href="#m29cb850c42" x="53.71625" y="552.8175" style="stroke: #000000; stroke-width: 0.8"/>
      </g>
     </g>
     <g id="text_9">
      <!-- VIII -->
      <g transform="translate(24.749375 558.136406) scale(0.14 -0.14)">
       <defs>
        <path id="DejaVuSans-56" d="M 1831 0 
L 50 4666 
L 709 4666 
L 2188 738 
L 3669 4666 
L 4325 4666 
L 2547 0 
L 1831 0 
z
" transform="scale(0.015625)"/>
        <path id="DejaVuSans-49" d="M 628 4666 
L 1259 4666 
L 1259 0 
L 628 0 
L 628 4666 
z
" transform="scale(0.015625)"/>
       </defs>
       <use xlink:href="#DejaVuSans-56"/>
       <use xlink:href="#DejaVuSans-49" x="68.408203"/>
       <use xlink:href="#DejaVuSans-49" x="97.900391"/>
       <use xlink:href="#DejaVuSans-49" x="127.392578"/>
      </g>
     </g>
    </g>
    <g id="ytick_2">
     <g id="line2d_17">
      <path d="M 53.71625 480.0685 
L 562.95925 480.0685 
" clip-path="url(#p5a3be3fbf7)" style="fill: none; stroke-dasharray: 2.96,1.28; stroke-dashoffset: 0; stroke: #b0b0b0; stroke-opacity: 0.7; stroke-width: 0.8"/>
     </g>
     <g id="line2d_18">
      <g>
       <use xlink:href="#m29cb850c42" x="53.71625" y="480.0685" style="stroke: #000000; stroke-width: 0.8"/>
      </g>
     </g>
     <g id="text_10">
      <!-- VII -->
      <g transform="translate(28.879375 485.387406) scale(0.14 -0.14)">
       <use xlink:href="#DejaVuSans-56"/>
       <use xlink:href="#DejaVuSans-49" x="68.408203"/>
       <use xlink:href="#DejaVuSans-49" x="97.900391"/>
      </g>
     </g>
    </g>
    <g id="ytick_3">
     <g id="line2d_19">
      <path d="M 53.71625 407.3195 
L 562.95925 407.3195 
" clip-path="url(#p5a3be3fbf7)" style="fill: none; stroke-dasharray: 2.96,1.28; stroke-dashoffset: 0; stroke: #b0b0b0; stroke-opacity: 0.7; stroke-width: 0.8"/>
     </g>
     <g id="line2d_20">
      <g>
       <use xlink:href="#m29cb850c42" x="53.71625" y="407.3195" style="stroke: #000000; stroke-width: 0.8"/>
      </g>
     </g>
     <g id="text_11">
      <!-- VI -->
      <g transform="translate(33.009375 412.638406) scale(0.14 -0.14)">
       <use xlink:href="#DejaVuSans-56"/>
       <use xlink:href="#DejaVuSans-49" x="68.408203"/>
      </g>
     </g>
    </g>
    <g id="ytick_4">
     <g id="line2d_21">
      <path d="M 53.71625 334.5705 
L 562.95925 334.5705 
" clip-path="url(#p5a3be3fbf7)" style="fill: none; stroke-dasharray: 2.96,1.28; stroke-dashoffset: 0; stroke: #b0b0b0; stroke-opacity: 0.7; stroke-width: 0.8"/>
     </g>
     <g id="line2d_22">
      <g>
       <use xlink:href="#m29cb850c42" x="53.71625" y="334.5705" style="stroke: #000000; stroke-width: 0.8"/>
      </g>
     </g>
     <g id="text_12">
      <!-- V -->
      <g transform="translate(37.139375 339.889406) scale(0.14 -0.14)">
       <use xlink:href="#DejaVuSans-56"/>
      </g>
     </g>
    </g>
    <g id="ytick_5">
     <g id="line2d_23">
      <path d="M 53.71625 261.8215 
L 562.95925 261.8215 
" clip-path="url(#p5a3be3fbf7)" style="fill: none; stroke-dasharray: 2.96,1.28; stroke-dashoffset: 0; stroke: #b0b0b0; stroke-opacity: 0.7; stroke-width: 0.8"/>
     </g>
     <g id="line2d_24">
      <g>
       <use xlink:href="#m29cb850c42" x="53.71625" y="261.8215" style="stroke: #000000; stroke-width: 0.8"/>
      </g>
     </g>
     <g id="text_13">
      <!-- IV -->
      <g transform="translate(33.009375 267.140406) scale(0.14 -0.14)">
       <use xlink:href="#DejaVuSans-49"/>
       <use xlink:href="#DejaVuSans-56" x="29.492188"/>
      </g>
     </g>
    </g>
    <g id="ytick_6">
     <g id="line2d_25">
      <path d="M 53.71625 189.0725 
L 562.95925 189.0725 
" clip-path="url(#p5a3be3fbf7)" style="fill: none; stroke-dasharray: 2.96,1.28; stroke-dashoffset: 0; stroke: #b0b0b0; stroke-opacity: 0.7; stroke-width: 0.8"/>
     </g>
     <g id="line2d_26">
      <g>
       <use xlink:href="#m29cb850c42" x="53.71625" y="189.0725" style="stroke: #000000; stroke-width: 0.8"/>
      </g>
     </g>
     <g id="text_14">
      <!-- III -->
      <g transform="translate(34.32625 194.391406) scale(0.14 -0.14)">
       <use xlink:href="#DejaVuSans-49"/>
       <use xlink:href="#DejaVuSans-49" x="29.492188"/>
       <use xlink:href="#DejaVuSans-49" x="58.984375"/>
      </g>
     </g>
    </g>
    <g id="ytick_7">
     <g id="line2d_27">
      <path d="M 53.71625 116.3235 
L 562.95925 116.3235 
" clip-path="url(#p5a3be3fbf7)" style="fill: none; stroke-dasharray: 2.96,1.28; stroke-dashoffset: 0; stroke: #b0b0b0; stroke-opacity: 0.7; stroke-width: 0.8"/>
     </g>
     <g id="line2d_28">
      <g>
       <use xlink:href="#m29cb850c42" x="53.71625" y="116.3235" style="stroke: #000000; stroke-width: 0.8"/>
      </g>
     </g>
     <g id="text_15">
      <!-- II -->
      <g transform="translate(38.45625 121.642406) scale(0.14 -0.14)">
       <use xlink:href="#DejaVuSans-49"/>
       <use xlink:href="#DejaVuSans-49" x="29.492188"/>
      </g>
     </g>
    </g>
    <g id="ytick_8">
     <g id="line2d_29">
      <path d="M 53.71625 43.5745 
L 562.95925 43.5745 
" clip-path="url(#p5a3be3fbf7)" style="fill: none; stroke-dasharray: 2.96,1.28; stroke-dashoffset: 0; stroke: #b0b0b0; stroke-opacity: 0.7; stroke-width: 0.8"/>
     </g>
     <g id="line2d_30">
      <g>
       <use xlink:href="#m29cb850c42" x="53.71625" y="43.5745" style="stroke: #000000; stroke-width: 0.8"/>
      </g>
     </g>
     <g id="text_16">
      <!-- I -->
      <g transform="translate(42.58625 48.893406) scale(0.14 -0.14)">
       <use xlink:href="#DejaVuSans-49"/>
      </g>
     </g>
    </g>
    <g id="text_17">
     <!-- Method -->
     <g transform="translate(17.837813 324.450375) rotate(-90) scale(0.14 -0.14)">
      <defs>
       <path id="DejaVuSans-68" d="M 3513 2113 
L 3513 0 
L 2938 0 
L 2938 2094 
Q 2938 2591 2744 2837 
Q 2550 3084 2163 3084 
Q 1697 3084 1428 2787 
Q 1159 2491 1159 1978 
L 1159 0 
L 581 0 
L 581 4863 
L 1159 4863 
L 1159 2956 
Q 1366 3272 1645 3428 
Q 1925 3584 2291 3584 
Q 2894 3584 3203 3211 
Q 3513 2838 3513 2113 
z
" transform="scale(0.015625)"/>
       <path id="DejaVuSans-64" d="M 2906 2969 
L 2906 4863 
L 3481 4863 
L 3481 0 
L 2906 0 
L 2906 525 
Q 2725 213 2448 61 
Q 2172 -91 1784 -91 
Q 1150 -91 751 415 
Q 353 922 353 1747 
Q 353 2572 751 3078 
Q 1150 3584 1784 3584 
Q 2172 3584 2448 3432 
Q 2725 3281 2906 2969 
z
M 947 1747 
Q 947 1113 1208 752 
Q 1469 391 1925 391 
Q 2381 391 2643 752 
Q 2906 1113 2906 1747 
Q 2906 2381 2643 2742 
Q 2381 3103 1925 3103 
Q 1469 3103 1208 2742 
Q 947 2381 947 1747 
z
" transform="scale(0.015625)"/>
      </defs>
      <use xlink:href="#DejaVuSans-4d"/>
      <use xlink:href="#DejaVuSans-65" x="86.279297"/>
      <use xlink:href="#DejaVuSans-74" x="147.802734"/>
      <use xlink:href="#DejaVuSans-68" x="187.011719"/>
      <use xlink:href="#DejaVuSans-6f" x="250.390625"/>
      <use xlink:href="#DejaVuSans-64" x="311.572266"/>
     </g>
    </g>
   </g>
   <g id="line2d_31">
    <defs>
     <path id="m671eb27698" d="M -2.5 2.5 
L 2.5 -2.5 
M -2.5 -2.5 
L 2.5 2.5 
" style="stroke: #000000"/>
    </defs>
    <g clip-path="url(#p5a3be3fbf7)">
     <use xlink:href="#m671eb27698" x="453.83575" y="116.3235" style="stroke: #000000"/>
    </g>
   </g>
   <g id="line2d_32">
    <g clip-path="url(#p5a3be3fbf7)">
     <use xlink:href="#m671eb27698" x="381.08675" y="189.0725" style="stroke: #000000"/>
    </g>
   </g>
   <g id="line2d_33">
    <g clip-path="url(#p5a3be3fbf7)">
     <use xlink:href="#m671eb27698" x="453.83575" y="189.0725" style="stroke: #000000"/>
    </g>
   </g>
   <g id="line2d_34">
    <g clip-path="url(#p5a3be3fbf7)">
     <use xlink:href="#m671eb27698" x="235.58875" y="261.8215" style="stroke: #000000"/>
    </g>
   </g>
   <g id="line2d_35">
    <g clip-path="url(#p5a3be3fbf7)">
     <use xlink:href="#m671eb27698" x="453.83575" y="261.8215" style="stroke: #000000"/>
    </g>
   </g>
   <g id="line2d_36">
    <g clip-path="url(#p5a3be3fbf7)">
     <use xlink:href="#m671eb27698" x="235.58875" y="334.5705" style="stroke: #000000"/>
    </g>
   </g>
   <g id="line2d_37">
    <g clip-path="url(#p5a3be3fbf7)">
     <use xlink:href="#m671eb27698" x="453.83575" y="334.5705" style="stroke: #000000"/>
    </g>
   </g>
   <g id="line2d_38">
    <g clip-path="url(#p5a3be3fbf7)">
     <use xlink:href="#m671eb27698" x="235.58875" y="407.3195" style="stroke: #000000"/>
    </g>
   </g>
   <g id="line2d_39">
    <g clip-path="url(#p5a3be3fbf7)">
     <use xlink:href="#m671eb27698" x="453.83575" y="407.3195" style="stroke: #000000"/>
    </g>
   </g>
   <g id="line2d_40">
    <g clip-path="url(#p5a3be3fbf7)">
     <use xlink:href="#m671eb27698" x="381.08675" y="480.0685" style="stroke: #000000"/>
    </g>
   </g>
   <g id="line2d_41">
    <g clip-path="url(#p5a3be3fbf7)">
     <use xlink:href="#m671eb27698" x="453.83575" y="480.0685" style="stroke: #000000"/>
    </g>
   </g>
   <g id="line2d_42">
    <g clip-path="url(#p5a3be3fbf7)">
     <use xlink:href="#m671eb27698" x="308.33775" y="552.8175" style="stroke: #000000"/>
    </g>
   </g>
   <g id="line2d_43">
    <g clip-path="url(#p5a3be3fbf7)">
     <use xlink:href="#m671eb27698" x="381.08675" y="552.8175" style="stroke: #000000"/>
    </g>
   </g>
   <g id="line2d_44">
    <g clip-path="url(#p5a3be3fbf7)">
     <use xlink:href="#m671eb27698" x="453.83575" y="552.8175" style="stroke: #000000"/>
    </g>
   </g>
   <g id="patch_28">
    <path d="M 53.71625 589.192 
L 53.71625 7.2 
" style="fill: none; stroke: #000000; stroke-width: 0.8; stroke-linejoin: miter; stroke-linecap: square"/>
   </g>
   <g id="patch_29">
    <path d="M 562.95925 589.192 
L 562.95925 7.2 
" style="fill: none; stroke: #000000; stroke-width: 0.8; stroke-linejoin: miter; stroke-linecap: square"/>
   </g>
   <g id="patch_30">
    <path d="M 53.71625 589.192 
L 562.95925 589.192 
" style="fill: none; stroke: #000000; stroke-width: 0.8; stroke-linejoin: miter; stroke-linecap: square"/>
   </g>
   <g id="patch_31">
    <path d="M 53.71625 7.2 
L 562.95925 7.2 
" style="fill: none; stroke: #000000; stroke-width: 0.8; stroke-linejoin: miter; stroke-linecap: square"/>
   </g>
   <g id="legend_1">
    <g id="patch_32">
     <path d="M 63.51625 100.5975 
L 141.010625 100.5975 
Q 143.810625 100.5975 143.810625 97.7975 
L 143.810625 17 
Q 143.810625 14.2 141.010625 14.2 
L 63.51625 14.2 
Q 60.71625 14.2 60.71625 17 
L 60.71625 97.7975 
Q 60.71625 100.5975 63.51625 100.5975 
z
" style="fill: #ffffff; opacity: 0.8; stroke: #cccccc; stroke-linejoin: miter"/>
    </g>
    <g id="patch_33">
     <path d="M 66.31625 30.437813 
L 94.31625 30.437813 
L 94.31625 20.637813 
L 66.31625 20.637813 
z
" style="fill: #1f77b4; stroke: #1f77b4; stroke-linejoin: miter"/>
    </g>
    <g id="text_18">
     <!-- GGA -->
     <g transform="translate(105.51625 30.437813) scale(0.14 -0.14)">
      <defs>
       <path id="DejaVuSans-47" d="M 3809 666 
L 3809 1919 
L 2778 1919 
L 2778 2438 
L 4434 2438 
L 4434 434 
Q 4069 175 3628 42 
Q 3188 -91 2688 -91 
Q 1594 -91 976 548 
Q 359 1188 359 2328 
Q 359 3472 976 4111 
Q 1594 4750 2688 4750 
Q 3144 4750 3555 4637 
Q 3966 4525 4313 4306 
L 4313 3634 
Q 3963 3931 3569 4081 
Q 3175 4231 2741 4231 
Q 1884 4231 1454 3753 
Q 1025 3275 1025 2328 
Q 1025 1384 1454 906 
Q 1884 428 2741 428 
Q 3075 428 3337 486 
Q 3600 544 3809 666 
z
" transform="scale(0.015625)"/>
      </defs>
      <use xlink:href="#DejaVuSans-47"/>
      <use xlink:href="#DejaVuSans-47" x="77.490234"/>
      <use xlink:href="#DejaVuSans-41" x="154.980469"/>
     </g>
    </g>
    <g id="patch_34">
     <path d="M 66.31625 50.987188 
L 94.31625 50.987188 
L 94.31625 41.187188 
L 66.31625 41.187188 
z
" style="fill: #ff7f0e; stroke: #ff7f0e; stroke-linejoin: miter"/>
    </g>
    <g id="text_19">
     <!-- HSE -->
     <g transform="translate(105.51625 50.987188) scale(0.14 -0.14)">
      <defs>
       <path id="DejaVuSans-48" d="M 628 4666 
L 1259 4666 
L 1259 2753 
L 3553 2753 
L 3553 4666 
L 4184 4666 
L 4184 0 
L 3553 0 
L 3553 2222 
L 1259 2222 
L 1259 0 
L 628 0 
L 628 4666 
z
" transform="scale(0.015625)"/>
      </defs>
      <use xlink:href="#DejaVuSans-48"/>
      <use xlink:href="#DejaVuSans-53" x="75.195312"/>
      <use xlink:href="#DejaVuSans-45" x="138.671875"/>
     </g>
    </g>
    <g id="patch_35">
     <path d="M 66.31625 71.536563 
L 94.31625 71.536563 
L 94.31625 61.736563 
L 66.31625 61.736563 
z
" style="fill: #2ca02c; stroke: #2ca02c; stroke-linejoin: miter"/>
    </g>
    <g id="text_20">
     <!-- ML -->
     <g transform="translate(105.51625 71.536563) scale(0.14 -0.14)">
      <use xlink:href="#DejaVuSans-4d"/>
      <use xlink:href="#DejaVuSans-4c" x="86.279297"/>
     </g>
    </g>
    <g id="patch_36">
     <path d="M 66.31625 92.085938 
L 94.31625 92.085938 
L 94.31625 82.285938 
L 66.31625 82.285938 
z
" style="fill: #d62728; stroke: #d62728; stroke-linejoin: miter"/>
    </g>
    <g id="text_21">
     <!-- Total -->
     <g transform="translate(105.51625 92.085938) scale(0.14 -0.14)">
      <use xlink:href="#DejaVuSans-54"/>
      <use xlink:href="#DejaVuSans-6f" x="44.083984"/>
      <use xlink:href="#DejaVuSans-74" x="105.265625"/>
      <use xlink:href="#DejaVuSans-61" x="144.474609"/>
      <use xlink:href="#DejaVuSans-6c" x="205.753906"/>
     </g>
    </g>
   </g>
  </g>
 </g>
 <defs>
  <clipPath id="p5a3be3fbf7">
   <rect x="53.71625" y="7.2" width="509.243" height="581.992"/>
  </clipPath>
 </defs>
</svg>
