<?xml version="1.0" encoding="utf-8" standalone="no"?>
<!DOCTYPE svg PUBLIC "-//W3C//DTD SVG 1.1//EN"
  "http://www.w3.org/Graphics/SVG/1.1/DTD/svg11.dtd">
<svg xmlns:xlink="http://www.w3.org/1999/xlink" width="631.36375pt" height="700.169062pt" viewBox="0 0 631.36375 700.169062" xmlns="http://www.w3.org/2000/svg" version="1.1">
 <metadata>
  <rdf:RDF xmlns:dc="http://purl.org/dc/elements/1.1/" xmlns:cc="http://creativecommons.org/ns#" xmlns:rdf="http://www.w3.org/1999/02/22-rdf-syntax-ns#">
   <cc:Work>
    <dc:type rdf:resource="http://purl.org/dc/dcmitype/StillImage"/>
    <dc:date>2025-07-15T12:04:47.246805</dc:date>
    <dc:format>image/svg+xml</dc:format>
    <dc:creator>
     <cc:Agent>
      <dc:title>Matplotlib v3.8.1, https://matplotlib.org/</dc:title>
     </cc:Agent>
    </dc:creator>
   </cc:Work>
  </rdf:RDF>
 </metadata>
 <defs>
  <style type="text/css">*{stroke-linejoin: round; stroke-linecap: butt}</style>
 </defs>
 <g id="figure_1">
  <g id="patch_1">
   <path d="M 0 700.169062 
L 631.36375 700.169062 
L 631.36375 0 
L 0 0 
z
" style="fill: #ffffff"/>
  </g>
  <g id="axes_1">
   <g id="patch_2">
    <path d="M 65.52875 645.64 
L 624.16375 645.64 
L 624.16375 7.2 
L 65.52875 7.2 
z
" style="fill: #ffffff"/>
   </g>
   <g id="patch_3">
    <path d="M 504.45625 55.037868 
C 506.560734 55.037868 508.579307 54.201747 510.067402 52.713652 
C 511.555497 51.225557 512.391618 49.206984 512.391618 47.1025 
C 512.391618 44.998016 511.555497 42.979443 510.067402 41.491348 
C 508.579307 40.003253 506.560734 39.167132 504.45625 39.167132 
C 502.351766 39.167132 500.333193 40.003253 498.845098 41.491348 
C 497.357003 42.979443 496.520882 44.998016 496.520882 47.1025 
C 496.520882 49.206984 497.357003 51.225557 498.845098 52.713652 
C 500.333193 54.201747 502.351766 55.037868 504.45625 55.037868 
z
" clip-path="url(#pab01a1559b)" style="fill: #2ca02c; stroke: #2ca02c; stroke-linejoin: miter"/>
   </g>
   <g id="patch_4">
    <path d="M 584.26125 55.037868 
C 586.365734 55.037868 588.384307 54.201747 589.872402 52.713652 
C 591.360497 51.225557 592.196618 49.206984 592.196618 47.1025 
C 592.196618 44.998016 591.360497 42.979443 589.872402 41.491348 
C 588.384307 40.003253 586.365734 39.167132 584.26125 39.167132 
C 582.156766 39.167132 580.138193 40.003253 578.650098 41.491348 
C 577.162003 42.979443 576.325882 44.998016 576.325882 47.1025 
C 576.325882 49.206984 577.162003 51.225557 578.650098 52.713652 
C 580.138193 54.201747 582.156766 55.037868 584.26125 55.037868 
z
" clip-path="url(#pab01a1559b)" style="fill: #d62728; stroke: #d62728; stroke-linejoin: miter"/>
   </g>
   <g id="patch_5">
    <path d="M 265.04125 134.842868 
C 267.145734 134.842868 269.164307 134.006747 270.652402 132.518652 
C 272.140497 131.030557 272.976618 129.011984 272.976618 126.9075 
C 272.976618 124.803016 272.140497 122.784443 270.652402 121.296348 
C 269.164307 119.808253 267.145734 118.972132 265.04125 118.972132 
C 262.936766 118.972132 260.918193 119.808253 259.430098 121.296348 
C 257.942003 122.784443 257.105882 124.803016 257.105882 126.9075 
C 257.105882 129.011984 257.942003 131.030557 259.430098 132.518652 
C 260.918193 134.006747 262.936766 134.842868 265.04125 134.842868 
z
" clip-path="url(#pab01a1559b)" style="fill: #2ca02c; stroke: #2ca02c; stroke-linejoin: miter"/>
   </g>
   <g id="patch_6">
    <path d="M 424.65125 134.842868 
C 426.755734 134.842868 428.774307 134.006747 430.262402 132.518652 
C 431.750497 131.030557 432.586618 129.011984 432.586618 126.9075 
C 432.586618 124.803016 431.750497 122.784443 430.262402 121.296348 
C 428.774307 119.808253 426.755734 118.972132 424.65125 118.972132 
C 422.546766 118.972132 420.528193 119.808253 419.040098 121.296348 
C 417.552003 122.784443 416.715882 124.803016 416.715882 126.9075 
C 416.715882 129.011984 417.552003 131.030557 419.040098 132.518652 
C 420.528193 134.006747 422.546766 134.842868 424.65125 134.842868 
z
" clip-path="url(#pab01a1559b)" style="fill: #2ca02c; stroke: #2ca02c; stroke-linejoin: miter"/>
   </g>
   <g id="patch_7">
    <path d="M 584.26125 137.233079 
C 586.999626 137.233079 589.626213 136.145111 591.562537 134.208787 
C 593.498861 132.272463 594.586829 129.645876 594.586829 126.9075 
C 594.586829 124.169124 593.498861 121.542537 591.562537 119.606213 
C 589.626213 117.669889 586.999626 116.581921 584.26125 116.581921 
C 581.522874 116.581921 578.896287 117.669889 576.959963 119.606213 
C 575.023639 121.542537 573.935671 124.169124 573.935671 126.9075 
C 573.935671 129.645876 575.023639 132.272463 576.959963 134.208787 
C 578.896287 136.145111 581.522874 137.233079 584.26125 137.233079 
z
" clip-path="url(#pab01a1559b)" style="fill: #d62728; stroke: #d62728; stroke-linejoin: miter"/>
   </g>
   <g id="patch_8">
    <path d="M 105.43125 229.985056 
C 111.603204 229.985056 117.523202 227.532913 121.887432 223.168682 
C 126.251663 218.804452 128.703806 212.884454 128.703806 206.7125 
C 128.703806 200.540546 126.251663 194.620548 121.887432 190.256318 
C 117.523202 185.892087 111.603204 183.439944 105.43125 183.439944 
C 99.259296 183.439944 93.339298 185.892087 88.975068 190.256318 
C 84.610837 194.620548 82.158694 200.540546 82.158694 206.7125 
C 82.158694 212.884454 84.610837 218.804452 88.975068 223.168682 
C 93.339298 227.532913 99.259296 229.985056 105.43125 229.985056 
z
" clip-path="url(#pab01a1559b)" style="fill: #1f77b4; stroke: #1f77b4; stroke-linejoin: miter"/>
   </g>
   <g id="patch_9">
    <path d="M 185.23625 230.512846 
C 191.548175 230.512846 197.602431 228.005091 202.065636 223.541886 
C 206.528841 219.078681 209.036596 213.024425 209.036596 206.7125 
C 209.036596 200.400575 206.528841 194.346319 202.065636 189.883114 
C 197.602431 185.419909 191.548175 182.912154 185.23625 182.912154 
C 178.924325 182.912154 172.870069 185.419909 168.406864 189.883114 
C 163.943659 194.346319 161.435904 200.400575 161.435904 206.7125 
C 161.435904 213.024425 163.943659 219.078681 168.406864 223.541886 
C 172.870069 228.005091 178.924325 230.512846 185.23625 230.512846 
z
" clip-path="url(#pab01a1559b)" style="fill: #1f77b4; stroke: #1f77b4; stroke-linejoin: miter"/>
   </g>
   <g id="patch_10">
    <path d="M 265.04125 230.512846 
C 271.353175 230.512846 277.407431 228.005091 281.870636 223.541886 
C 286.333841 219.078681 288.841596 213.024425 288.841596 206.7125 
C 288.841596 200.400575 286.333841 194.346319 281.870636 189.883114 
C 277.407431 185.419909 271.353175 182.912154 265.04125 182.912154 
C 258.729325 182.912154 252.675069 185.419909 248.211864 189.883114 
C 243.748659 194.346319 241.240904 200.400575 241.240904 206.7125 
C 241.240904 213.024425 243.748659 219.078681 248.211864 223.541886 
C 252.675069 228.005091 258.729325 230.512846 265.04125 230.512846 
z
" clip-path="url(#pab01a1559b)" style="fill: #1f77b4; stroke: #1f77b4; stroke-linejoin: miter"/>
   </g>
   <g id="patch_11">
    <path d="M 344.84625 214.647868 
C 346.950734 214.647868 348.969307 213.811747 350.457402 212.323652 
C 351.945497 210.835557 352.781618 208.816984 352.781618 206.7125 
C 352.781618 204.608016 351.945497 202.589443 350.457402 201.101348 
C 348.969307 199.613253 346.950734 198.777132 344.84625 198.777132 
C 342.741766 198.777132 340.723193 199.613253 339.235098 201.101348 
C 337.747003 202.589443 336.910882 204.608016 336.910882 206.7125 
C 336.910882 208.816984 337.747003 210.835557 339.235098 212.323652 
C 340.723193 213.811747 342.741766 214.647868 344.84625 214.647868 
z
" clip-path="url(#pab01a1559b)" style="fill: #2ca02c; stroke: #2ca02c; stroke-linejoin: miter"/>
   </g>
   <g id="patch_12">
    <path d="M 584.26125 231.185174 
C 590.751479 231.185174 596.976759 228.606579 601.566044 224.017294 
C 606.155329 219.428009 608.733924 213.202729 608.733924 206.7125 
C 608.733924 200.222271 606.155329 193.996991 601.566044 189.407706 
C 596.976759 184.818421 590.751479 182.239826 584.26125 182.239826 
C 577.771021 182.239826 571.545741 184.818421 566.956456 189.407706 
C 562.367171 193.996991 559.788576 200.222271 559.788576 206.7125 
C 559.788576 213.202729 562.367171 219.428009 566.956456 224.017294 
C 571.545741 228.606579 577.771021 231.185174 584.26125 231.185174 
z
" clip-path="url(#pab01a1559b)" style="fill: #d62728; stroke: #d62728; stroke-linejoin: miter"/>
   </g>
   <g id="patch_13">
    <path d="M 105.43125 294.452868 
C 107.535734 294.452868 109.554307 293.616747 111.042402 292.128652 
C 112.530497 290.640557 113.366618 288.621984 113.366618 286.5175 
C 113.366618 284.413016 112.530497 282.394443 111.042402 280.906348 
C 109.554307 279.418253 107.535734 278.582132 105.43125 278.582132 
C 103.326766 278.582132 101.308193 279.418253 99.820098 280.906348 
C 98.332003 282.394443 97.495882 284.413016 97.495882 286.5175 
C 97.495882 288.621984 98.332003 290.640557 99.820098 292.128652 
C 101.308193 293.616747 103.326766 294.452868 105.43125 294.452868 
z
" clip-path="url(#pab01a1559b)" style="fill: #2ca02c; stroke: #2ca02c; stroke-linejoin: miter"/>
   </g>
   <g id="patch_14">
    <path d="M 584.26125 294.452868 
C 586.365734 294.452868 588.384307 293.616747 589.872402 292.128652 
C 591.360497 290.640557 592.196618 288.621984 592.196618 286.5175 
C 592.196618 284.413016 591.360497 282.394443 589.872402 280.906348 
C 588.384307 279.418253 586.365734 278.582132 584.26125 278.582132 
C 582.156766 278.582132 580.138193 279.418253 578.650098 280.906348 
C 577.162003 282.394443 576.325882 284.413016 576.325882 286.5175 
C 576.325882 288.621984 577.162003 290.640557 578.650098 292.128652 
C 580.138193 293.616747 582.156766 294.452868 584.26125 294.452868 
z
" clip-path="url(#pab01a1559b)" style="fill: #d62728; stroke: #d62728; stroke-linejoin: miter"/>
   </g>
   <g id="patch_15">
    <path d="M 105.43125 394.760059 
C 112.972979 394.760059 120.206833 391.763699 125.539641 386.430891 
C 130.872449 381.098083 133.868809 373.864229 133.868809 366.3225 
C 133.868809 358.780771 130.872449 351.546917 125.539641 346.214109 
C 120.206833 340.881301 112.972979 337.884941 105.43125 337.884941 
C 97.889521 337.884941 90.655667 340.881301 85.322859 346.214109 
C 79.990051 351.546917 76.993691 358.780771 76.993691 366.3225 
C 76.993691 373.864229 79.990051 381.098083 85.322859 386.430891 
C 90.655667 391.763699 97.889521 394.760059 105.43125 394.760059 
z
" clip-path="url(#pab01a1559b)" style="fill: #ff7f0e; stroke: #ff7f0e; stroke-linejoin: miter"/>
   </g>
   <g id="patch_16">
    <path d="M 584.26125 394.760059 
C 591.802979 394.760059 599.036833 391.763699 604.369641 386.430891 
C 609.702449 381.098083 612.698809 373.864229 612.698809 366.3225 
C 612.698809 358.780771 609.702449 351.546917 604.369641 346.214109 
C 599.036833 340.881301 591.802979 337.884941 584.26125 337.884941 
C 576.719521 337.884941 569.485667 340.881301 564.152859 346.214109 
C 558.820051 351.546917 555.823691 358.780771 555.823691 366.3225 
C 555.823691 373.864229 558.820051 381.098083 564.152859 386.430891 
C 569.485667 391.763699 576.719521 394.760059 584.26125 394.760059 
z
" clip-path="url(#pab01a1559b)" style="fill: #d62728; stroke: #d62728; stroke-linejoin: miter"/>
   </g>
   <g id="patch_17">
    <path d="M 105.43125 469.400056 
C 111.603204 469.400056 117.523202 466.947913 121.887432 462.583682 
C 126.251663 458.219452 128.703806 452.299454 128.703806 446.1275 
C 128.703806 439.955546 126.251663 434.035548 121.887432 429.671318 
C 117.523202 425.307087 111.603204 422.854944 105.43125 422.854944 
C 99.259296 422.854944 93.339298 425.307087 88.975068 429.671318 
C 84.610837 434.035548 82.158694 439.955546 82.158694 446.1275 
C 82.158694 452.299454 84.610837 458.219452 88.975068 462.583682 
C 93.339298 466.947913 99.259296 469.400056 105.43125 469.400056 
z
" clip-path="url(#pab01a1559b)" style="fill: #1f77b4; stroke: #1f77b4; stroke-linejoin: miter"/>
   </g>
   <g id="patch_18">
    <path d="M 344.84625 454.062868 
C 346.950734 454.062868 348.969307 453.226747 350.457402 451.738652 
C 351.945497 450.250557 352.781618 448.231984 352.781618 446.1275 
C 352.781618 444.023016 351.945497 442.004443 350.457402 440.516348 
C 348.969307 439.028253 346.950734 438.192132 344.84625 438.192132 
C 342.741766 438.192132 340.723193 439.028253 339.235098 440.516348 
C 337.747003 442.004443 336.910882 444.023016 336.910882 446.1275 
C 336.910882 448.231984 337.747003 450.250557 339.235098 451.738652 
C 340.723193 453.226747 342.741766 454.062868 344.84625 454.062868 
z
" clip-path="url(#pab01a1559b)" style="fill: #2ca02c; stroke: #2ca02c; stroke-linejoin: miter"/>
   </g>
   <g id="patch_19">
    <path d="M 584.26125 469.400732 
C 590.433383 469.400732 596.353553 466.948518 600.71791 462.58416 
C 605.082268 458.219803 607.534482 452.299633 607.534482 446.1275 
C 607.534482 439.955367 605.082268 434.035197 600.71791 429.67084 
C 596.353553 425.306482 590.433383 422.854268 584.26125 422.854268 
C 578.089117 422.854268 572.168947 425.306482 567.80459 429.67084 
C 563.440232 434.035197 560.988018 439.955367 560.988018 446.1275 
C 560.988018 452.299633 563.440232 458.219803 567.80459 462.58416 
C 572.168947 466.948518 578.089117 469.400732 584.26125 469.400732 
z
" clip-path="url(#pab01a1559b)" style="fill: #d62728; stroke: #d62728; stroke-linejoin: miter"/>
   </g>
   <g id="patch_20">
    <path d="M 105.43125 549.205056 
C 111.603204 549.205056 117.523202 546.752913 121.887432 542.388682 
C 126.251663 538.024452 128.703806 532.104454 128.703806 525.9325 
C 128.703806 519.760546 126.251663 513.840548 121.887432 509.476318 
C 117.523202 505.112087 111.603204 502.659944 105.43125 502.659944 
C 99.259296 502.659944 93.339298 505.112087 88.975068 509.476318 
C 84.610837 513.840548 82.158694 519.760546 82.158694 525.9325 
C 82.158694 532.104454 84.610837 538.024452 88.975068 542.388682 
C 93.339298 546.752913 99.259296 549.205056 105.43125 549.205056 
z
" clip-path="url(#pab01a1559b)" style="fill: #1f77b4; stroke: #1f77b4; stroke-linejoin: miter"/>
   </g>
   <g id="patch_21">
    <path d="M 185.23625 549.732846 
C 191.548175 549.732846 197.602431 547.225091 202.065636 542.761886 
C 206.528841 538.298681 209.036596 532.244425 209.036596 525.9325 
C 209.036596 519.620575 206.528841 513.566319 202.065636 509.103114 
C 197.602431 504.639909 191.548175 502.132154 185.23625 502.132154 
C 178.924325 502.132154 172.870069 504.639909 168.406864 509.103114 
C 163.943659 513.566319 161.435904 519.620575 161.435904 525.9325 
C 161.435904 532.244425 163.943659 538.298681 168.406864 542.761886 
C 172.870069 547.225091 178.924325 549.732846 185.23625 549.732846 
z
" clip-path="url(#pab01a1559b)" style="fill: #1f77b4; stroke: #1f77b4; stroke-linejoin: miter"/>
   </g>
   <g id="patch_22">
    <path d="M 265.04125 549.732846 
C 271.353175 549.732846 277.407431 547.225091 281.870636 542.761886 
C 286.333841 538.298681 288.841596 532.244425 288.841596 525.9325 
C 288.841596 519.620575 286.333841 513.566319 281.870636 509.103114 
C 277.407431 504.639909 271.353175 502.132154 265.04125 502.132154 
C 258.729325 502.132154 252.675069 504.639909 248.211864 509.103114 
C 243.748659 513.566319 241.240904 519.620575 241.240904 525.9325 
C 241.240904 532.244425 243.748659 538.298681 248.211864 542.761886 
C 252.675069 547.225091 258.729325 549.732846 265.04125 549.732846 
z
" clip-path="url(#pab01a1559b)" style="fill: #1f77b4; stroke: #1f77b4; stroke-linejoin: miter"/>
   </g>
   <g id="patch_23">
    <path d="M 584.26125 550.404915 
C 590.75141 550.404915 596.976624 547.826347 601.565861 543.237111 
C 606.155097 538.647874 608.733665 532.42266 608.733665 525.9325 
C 608.733665 519.44234 606.155097 513.217126 601.565861 508.627889 
C 596.976624 504.038653 590.75141 501.460085 584.26125 501.460085 
C 577.77109 501.460085 571.545876 504.038653 566.956639 508.627889 
C 562.367403 513.217126 559.788835 519.44234 559.788835 525.9325 
C 559.788835 532.42266 562.367403 538.647874 566.956639 543.237111 
C 571.545876 547.826347 577.77109 550.404915 584.26125 550.404915 
z
" clip-path="url(#pab01a1559b)" style="fill: #d62728; stroke: #d62728; stroke-linejoin: miter"/>
   </g>
   <g id="patch_24">
    <path d="M 105.43125 634.175059 
C 112.972979 634.175059 120.206833 631.178699 125.539641 625.845891 
C 130.872449 620.513083 133.868809 613.279229 133.868809 605.7375 
C 133.868809 598.195771 130.872449 590.961917 125.539641 585.629109 
C 120.206833 580.296301 112.972979 577.299941 105.43125 577.299941 
C 97.889521 577.299941 90.655667 580.296301 85.322859 585.629109 
C 79.990051 590.961917 76.993691 598.195771 76.993691 605.7375 
C 76.993691 613.279229 79.990051 620.513083 85.322859 625.845891 
C 90.655667 631.178699 97.889521 634.175059 105.43125 634.175059 
z
" clip-path="url(#pab01a1559b)" style="fill: #ff7f0e; stroke: #ff7f0e; stroke-linejoin: miter"/>
   </g>
   <g id="patch_25">
    <path d="M 185.23625 629.010056 
C 191.408204 629.010056 197.328202 626.557913 201.692432 622.193682 
C 206.056663 617.829452 208.508806 611.909454 208.508806 605.7375 
C 208.508806 599.565546 206.056663 593.645548 201.692432 589.281318 
C 197.328202 584.917087 191.408204 582.464944 185.23625 582.464944 
C 179.064296 582.464944 173.144298 584.917087 168.780068 589.281318 
C 164.415837 593.645548 161.963694 599.565546 161.963694 605.7375 
C 161.963694 611.909454 164.415837 617.829452 168.780068 622.193682 
C 173.144298 626.557913 179.064296 629.010056 185.23625 629.010056 
z
" clip-path="url(#pab01a1559b)" style="fill: #1f77b4; stroke: #1f77b4; stroke-linejoin: miter"/>
   </g>
   <g id="patch_26">
    <path d="M 265.04125 629.537846 
C 271.353175 629.537846 277.407431 627.030091 281.870636 622.566886 
C 286.333841 618.103681 288.841596 612.049425 288.841596 605.7375 
C 288.841596 599.425575 286.333841 593.371319 281.870636 588.908114 
C 277.407431 584.444909 271.353175 581.937154 265.04125 581.937154 
C 258.729325 581.937154 252.675069 584.444909 248.211864 588.908114 
C 243.748659 593.371319 241.240904 599.425575 241.240904 605.7375 
C 241.240904 612.049425 243.748659 618.103681 248.211864 622.566886 
C 252.675069 627.030091 258.729325 629.537846 265.04125 629.537846 
z
" clip-path="url(#pab01a1559b)" style="fill: #1f77b4; stroke: #1f77b4; stroke-linejoin: miter"/>
   </g>
   <g id="patch_27">
    <path d="M 584.26125 634.213905 
C 591.813281 634.213905 599.057017 631.213451 604.397109 625.873359 
C 609.737201 620.533267 612.737655 613.289531 612.737655 605.7375 
C 612.737655 598.185469 609.737201 590.941733 604.397109 585.601641 
C 599.057017 580.261549 591.813281 577.261095 584.26125 577.261095 
C 576.709219 577.261095 569.465483 580.261549 564.125391 585.601641 
C 558.785299 590.941733 555.784845 598.185469 555.784845 605.7375 
C 555.784845 613.289531 558.785299 620.533267 564.125391 625.873359 
C 569.465483 631.213451 576.709219 634.213905 584.26125 634.213905 
z
" clip-path="url(#pab01a1559b)" style="fill: #d62728; stroke: #d62728; stroke-linejoin: miter"/>
   </g>
   <g id="matplotlib.axis_1">
    <g id="xtick_1">
     <g id="line2d_1">
      <path d="M 105.43125 645.64 
L 105.43125 7.2 
" clip-path="url(#pab01a1559b)" style="fill: none; stroke-dasharray: 2.96,1.28; stroke-dashoffset: 0; stroke: #b0b0b0; stroke-opacity: 0.7; stroke-width: 0.8"/>
     </g>
     <g id="line2d_2">
      <defs>
       <path id="m117b923e81" d="M 0 0 
L 0 3.5 
" style="stroke: #000000; stroke-width: 0.8"/>
      </defs>
      <g>
       <use xlink:href="#m117b923e81" x="105.43125" y="645.64" style="stroke: #000000; stroke-width: 0.8"/>
      </g>
     </g>
     <g id="text_1">
      <!-- $E_G$ -->
      <g transform="translate(94.90125 665.13875) scale(0.18 -0.18)">
       <defs>
        <path id="STIXGeneral-Italic-45" d="M 4058 4179 
L 3859 3194 
L 3718 3206 
Q 3738 3366 3738 3501 
Q 3738 3789 3501 3878 
Q 3264 3968 2509 3968 
Q 2240 3968 2157 3939 
Q 2074 3910 2042 3802 
L 1619 2310 
L 2118 2310 
Q 2541 2310 2681 2412 
Q 2822 2515 3008 2931 
L 3123 2906 
L 2688 1421 
L 2560 1453 
Q 2605 1651 2605 1786 
Q 2605 1939 2560 1984 
Q 2451 2080 2061 2080 
L 1562 2080 
L 1357 1363 
Q 1126 550 1126 429 
Q 1126 211 1632 211 
Q 2458 211 2931 461 
Q 3174 589 3533 1088 
L 3635 1037 
L 3238 0 
L -6 0 
L -6 102 
Q 269 154 352 227 
Q 435 301 512 576 
L 1299 3405 
Q 1370 3642 1370 3814 
Q 1370 3942 1270 3996 
Q 1171 4051 877 4077 
L 877 4179 
L 4058 4179 
z
" transform="scale(0.015625)"/>
        <path id="STIXGeneral-Italic-47" d="M 4621 2042 
L 4621 1939 
Q 4307 1920 4188 1833 
Q 4070 1747 4000 1478 
L 3686 282 
Q 2976 -115 2170 -115 
Q 1293 -115 806 371 
Q 582 595 457 934 
Q 333 1274 333 1606 
Q 333 2266 653 2848 
Q 973 3430 1504 3802 
Q 2170 4262 2912 4262 
Q 3373 4262 3770 4109 
Q 3936 4045 4051 4045 
Q 4282 4045 4435 4262 
L 4531 4230 
L 4218 2970 
L 4102 2989 
Q 4083 3398 3866 3667 
Q 3558 4045 2963 4045 
Q 2214 4045 1715 3411 
Q 1395 3008 1216 2496 
Q 1037 1984 1037 1459 
Q 1037 826 1376 474 
Q 1715 122 2330 122 
Q 2784 122 3002 339 
Q 3059 397 3104 509 
Q 3149 621 3251 986 
Q 3418 1542 3418 1709 
Q 3418 1894 3117 1920 
L 2912 1939 
L 2912 2042 
L 4621 2042 
z
" transform="scale(0.015625)"/>
       </defs>
       <use xlink:href="#STIXGeneral-Italic-45" transform="translate(0 0.703125)"/>
       <use xlink:href="#STIXGeneral-Italic-47" transform="translate(61.099991 -12.525) scale(0.7)"/>
      </g>
     </g>
    </g>
    <g id="xtick_2">
     <g id="line2d_3">
      <path d="M 185.23625 645.64 
L 185.23625 7.2 
" clip-path="url(#pab01a1559b)" style="fill: none; stroke-dasharray: 2.96,1.28; stroke-dashoffset: 0; stroke: #b0b0b0; stroke-opacity: 0.7; stroke-width: 0.8"/>
     </g>
     <g id="line2d_4">
      <g>
       <use xlink:href="#m117b923e81" x="185.23625" y="645.64" style="stroke: #000000; stroke-width: 0.8"/>
      </g>
     </g>
     <g id="text_2">
      <!-- $E_G^\text{DA}$ -->
      <g transform="translate(169.21625 667.58) scale(0.18 -0.18)">
       <defs>
        <path id="STIXGeneral-Regular-44" d="M 102 4237 
L 1830 4237 
Q 3078 4237 3750 3654 
Q 4384 3110 4384 2138 
Q 4384 966 3514 410 
Q 2880 0 1901 0 
L 102 0 
L 102 122 
Q 474 147 570 252 
Q 666 358 666 736 
L 666 3520 
Q 666 3891 570 3990 
Q 474 4090 102 4115 
L 102 4237 
z
M 1318 3731 
L 1318 538 
Q 1318 365 1379 301 
Q 1440 237 1626 237 
Q 2125 237 2432 307 
Q 2739 378 3021 570 
Q 3686 1018 3686 2099 
Q 3686 3027 3078 3558 
Q 2803 3802 2476 3901 
Q 2150 4000 1658 4000 
Q 1472 4000 1395 3942 
Q 1318 3885 1318 3731 
z
" transform="scale(0.015625)"/>
        <path id="STIXGeneral-Regular-41" d="M 4525 0 
L 2893 0 
L 2893 122 
Q 3149 122 3245 179 
Q 3334 224 3334 333 
Q 3334 499 3213 781 
L 2950 1382 
L 1274 1382 
L 979 653 
Q 922 506 922 384 
Q 922 237 1027 179 
Q 1133 122 1370 122 
L 1370 0 
L 96 0 
L 96 122 
Q 365 147 486 316 
Q 608 486 902 1190 
L 2221 4314 
L 2349 4314 
L 3923 710 
Q 4064 378 4176 262 
Q 4288 147 4525 122 
L 4525 0 
z
M 2861 1645 
L 2118 3405 
L 1382 1645 
L 2861 1645 
z
" transform="scale(0.015625)"/>
       </defs>
       <use xlink:href="#STIXGeneral-Italic-45" transform="translate(0 0.540625)"/>
       <use xlink:href="#STIXGeneral-Regular-44" transform="translate(71.725772 35.815625) scale(0.7)"/>
       <use xlink:href="#STIXGeneral-Regular-41" transform="translate(122.265759 35.815625) scale(0.7)"/>
       <use xlink:href="#STIXGeneral-Italic-47" transform="translate(61.099991 -25.915625) scale(0.7)"/>
      </g>
     </g>
    </g>
    <g id="xtick_3">
     <g id="line2d_5">
      <path d="M 265.04125 645.64 
L 265.04125 7.2 
" clip-path="url(#pab01a1559b)" style="fill: none; stroke-dasharray: 2.96,1.28; stroke-dashoffset: 0; stroke: #b0b0b0; stroke-opacity: 0.7; stroke-width: 0.8"/>
     </g>
     <g id="line2d_6">
      <g>
       <use xlink:href="#m117b923e81" x="265.04125" y="645.64" style="stroke: #000000; stroke-width: 0.8"/>
      </g>
     </g>
     <g id="text_3">
      <!-- $\alpha(E)$ -->
      <g transform="translate(248.57125 665.13875) scale(0.18 -0.18)">
       <defs>
        <path id="STIXGeneral-Italic-3b1" d="M 3514 2739 
L 2605 1069 
L 2605 954 
Q 2605 704 2662 512 
Q 2720 320 2822 320 
Q 2970 320 3149 794 
L 3251 749 
Q 3014 -58 2605 -58 
Q 2291 -58 2272 614 
Q 1709 -70 1030 -70 
Q 589 -70 381 198 
Q 173 467 173 902 
Q 173 1293 329 1673 
Q 486 2054 755 2330 
Q 973 2547 1270 2684 
Q 1568 2822 1862 2822 
Q 2246 2822 2457 2595 
Q 2669 2368 2669 2061 
L 2963 2739 
L 3514 2739 
z
M 2298 1741 
Q 2298 2688 1805 2688 
Q 1472 2688 1085 2099 
Q 698 1510 698 800 
Q 698 493 806 278 
Q 915 64 1139 64 
Q 1606 64 2195 1286 
Q 2202 1325 2230 1411 
Q 2259 1498 2278 1581 
Q 2298 1664 2298 1741 
z
" transform="scale(0.015625)"/>
        <path id="STIXGeneral-Regular-28" d="M 1946 -1030 
L 1869 -1133 
Q 1126 -710 716 32 
Q 307 774 307 1613 
Q 307 3386 1888 4326 
L 1946 4224 
Q 1293 3667 1075 3126 
Q 858 2586 858 1632 
Q 858 685 1082 96 
Q 1306 -493 1946 -1030 
z
" transform="scale(0.015625)"/>
        <path id="STIXGeneral-Regular-29" d="M 186 4224 
L 262 4326 
Q 992 3891 1408 3148 
Q 1824 2406 1824 1581 
Q 1824 -166 243 -1133 
L 186 -1030 
Q 845 -486 1059 54 
Q 1274 595 1274 1562 
Q 1274 2534 1059 3120 
Q 845 3706 186 4224 
z
" transform="scale(0.015625)"/>
       </defs>
       <use xlink:href="#STIXGeneral-Italic-3b1" transform="translate(0 0.40625)"/>
       <use xlink:href="#STIXGeneral-Regular-28" transform="translate(55.199997 0.40625)"/>
       <use xlink:href="#STIXGeneral-Italic-45" transform="translate(88.499985 0.40625)"/>
       <use xlink:href="#STIXGeneral-Regular-29" transform="translate(149.599976 0.40625)"/>
      </g>
     </g>
    </g>
    <g id="xtick_4">
     <g id="line2d_7">
      <path d="M 344.84625 645.64 
L 344.84625 7.2 
" clip-path="url(#pab01a1559b)" style="fill: none; stroke-dasharray: 2.96,1.28; stroke-dashoffset: 0; stroke: #b0b0b0; stroke-opacity: 0.7; stroke-width: 0.8"/>
     </g>
     <g id="line2d_8">
      <g>
       <use xlink:href="#m117b923e81" x="344.84625" y="645.64" style="stroke: #000000; stroke-width: 0.8"/>
      </g>
     </g>
     <g id="text_4">
      <!-- $\Delta E$ -->
      <g transform="translate(332.78625 665.13875) scale(0.18 -0.18)">
       <defs>
        <path id="STIXGeneral-Regular-394" d="M 4320 0 
L 307 0 
L 2221 4314 
L 2349 4314 
L 4320 0 
z
M 3354 589 
L 2118 3405 
L 870 589 
L 3354 589 
z
" transform="scale(0.015625)"/>
       </defs>
       <use xlink:href="#STIXGeneral-Regular-394" transform="translate(0 0.59375)"/>
       <use xlink:href="#STIXGeneral-Italic-45" transform="translate(72.199982 0.59375)"/>
      </g>
     </g>
    </g>
    <g id="xtick_5">
     <g id="line2d_9">
      <path d="M 424.65125 645.64 
L 424.65125 7.2 
" clip-path="url(#pab01a1559b)" style="fill: none; stroke-dasharray: 2.96,1.28; stroke-dashoffset: 0; stroke: #b0b0b0; stroke-opacity: 0.7; stroke-width: 0.8"/>
     </g>
     <g id="line2d_10">
      <g>
       <use xlink:href="#m117b923e81" x="424.65125" y="645.64" style="stroke: #000000; stroke-width: 0.8"/>
      </g>
     </g>
     <g id="text_5">
      <!-- $\Delta$ -->
      <g transform="translate(418.08125 665.13875) scale(0.18 -0.18)">
       <use xlink:href="#STIXGeneral-Regular-394" transform="translate(0 0.59375)"/>
      </g>
     </g>
    </g>
    <g id="xtick_6">
     <g id="line2d_11">
      <path d="M 504.45625 645.64 
L 504.45625 7.2 
" clip-path="url(#pab01a1559b)" style="fill: none; stroke-dasharray: 2.96,1.28; stroke-dashoffset: 0; stroke: #b0b0b0; stroke-opacity: 0.7; stroke-width: 0.8"/>
     </g>
     <g id="line2d_12">
      <g>
       <use xlink:href="#m117b923e81" x="504.45625" y="645.64" style="stroke: #000000; stroke-width: 0.8"/>
      </g>
     </g>
     <g id="text_6">
      <!-- SLME -->
      <g transform="translate(480.454375 665.13875) scale(0.18 -0.18)">
       <defs>
        <path id="TimesNewRomanPSMT-53" d="M 2934 4334 
L 2934 2869 
L 2819 2869 
Q 2763 3291 2617 3541 
Q 2472 3791 2203 3937 
Q 1934 4084 1647 4084 
Q 1322 4084 1109 3886 
Q 897 3688 897 3434 
Q 897 3241 1031 3081 
Q 1225 2847 1953 2456 
Q 2547 2138 2764 1967 
Q 2981 1797 3098 1565 
Q 3216 1334 3216 1081 
Q 3216 600 2842 251 
Q 2469 -97 1881 -97 
Q 1697 -97 1534 -69 
Q 1438 -53 1133 45 
Q 828 144 747 144 
Q 669 144 623 97 
Q 578 50 556 -97 
L 441 -97 
L 441 1356 
L 556 1356 
Q 638 900 775 673 
Q 913 447 1195 297 
Q 1478 147 1816 147 
Q 2206 147 2432 353 
Q 2659 559 2659 841 
Q 2659 997 2573 1156 
Q 2488 1316 2306 1453 
Q 2184 1547 1640 1851 
Q 1097 2156 867 2337 
Q 638 2519 519 2737 
Q 400 2956 400 3219 
Q 400 3675 750 4004 
Q 1100 4334 1641 4334 
Q 1978 4334 2356 4169 
Q 2531 4091 2603 4091 
Q 2684 4091 2736 4139 
Q 2788 4188 2819 4334 
L 2934 4334 
z
" transform="scale(0.015625)"/>
        <path id="TimesNewRomanPSMT-4c" d="M 3669 1172 
L 3772 1150 
L 3409 0 
L 128 0 
L 128 116 
L 288 116 
Q 556 116 672 291 
Q 738 391 738 753 
L 738 3488 
Q 738 3884 650 3984 
Q 528 4122 288 4122 
L 128 4122 
L 128 4238 
L 2047 4238 
L 2047 4122 
Q 1709 4125 1573 4059 
Q 1438 3994 1388 3894 
Q 1338 3794 1338 3416 
L 1338 753 
Q 1338 494 1388 397 
Q 1425 331 1503 300 
Q 1581 269 1991 269 
L 2300 269 
Q 2788 269 2984 341 
Q 3181 413 3343 595 
Q 3506 778 3669 1172 
z
" transform="scale(0.015625)"/>
        <path id="TimesNewRomanPSMT-4d" d="M 2619 0 
L 981 3566 
L 981 734 
Q 981 344 1066 247 
Q 1181 116 1431 116 
L 1581 116 
L 1581 0 
L 106 0 
L 106 116 
L 256 116 
Q 525 116 638 278 
Q 706 378 706 734 
L 706 3503 
Q 706 3784 644 3909 
Q 600 4000 483 4061 
Q 366 4122 106 4122 
L 106 4238 
L 1306 4238 
L 2844 922 
L 4356 4238 
L 5556 4238 
L 5556 4122 
L 5409 4122 
Q 5138 4122 5025 3959 
Q 4956 3859 4956 3503 
L 4956 734 
Q 4956 344 5044 247 
Q 5159 116 5409 116 
L 5556 116 
L 5556 0 
L 3756 0 
L 3756 116 
L 3906 116 
Q 4178 116 4288 278 
Q 4356 378 4356 734 
L 4356 3566 
L 2722 0 
L 2619 0 
z
" transform="scale(0.015625)"/>
        <path id="TimesNewRomanPSMT-45" d="M 1338 4006 
L 1338 2331 
L 2269 2331 
Q 2631 2331 2753 2441 
Q 2916 2584 2934 2947 
L 3050 2947 
L 3050 1472 
L 2934 1472 
Q 2891 1781 2847 1869 
Q 2791 1978 2662 2040 
Q 2534 2103 2269 2103 
L 1338 2103 
L 1338 706 
Q 1338 425 1363 364 
Q 1388 303 1450 267 
Q 1513 231 1688 231 
L 2406 231 
Q 2766 231 2928 281 
Q 3091 331 3241 478 
Q 3434 672 3638 1063 
L 3763 1063 
L 3397 0 
L 131 0 
L 131 116 
L 281 116 
Q 431 116 566 188 
Q 666 238 702 338 
Q 738 438 738 747 
L 738 3500 
Q 738 3903 656 3997 
Q 544 4122 281 4122 
L 131 4122 
L 131 4238 
L 3397 4238 
L 3444 3309 
L 3322 3309 
Q 3256 3644 3176 3769 
Q 3097 3894 2941 3959 
Q 2816 4006 2500 4006 
L 1338 4006 
z
" transform="scale(0.015625)"/>
       </defs>
       <use xlink:href="#TimesNewRomanPSMT-53"/>
       <use xlink:href="#TimesNewRomanPSMT-4c" x="55.615234"/>
       <use xlink:href="#TimesNewRomanPSMT-4d" x="116.699219"/>
       <use xlink:href="#TimesNewRomanPSMT-45" x="205.615234"/>
      </g>
     </g>
    </g>
    <g id="xtick_7">
     <g id="line2d_13">
      <path d="M 584.26125 645.64 
L 584.26125 7.2 
" clip-path="url(#pab01a1559b)" style="fill: none; stroke-dasharray: 2.96,1.28; stroke-dashoffset: 0; stroke: #b0b0b0; stroke-opacity: 0.7; stroke-width: 0.8"/>
     </g>
     <g id="line2d_14">
      <g>
       <use xlink:href="#m117b923e81" x="584.26125" y="645.64" style="stroke: #000000; stroke-width: 0.8"/>
      </g>
     </g>
     <g id="text_7">
      <!-- Total -->
      <g transform="translate(565.898437 665.13875) scale(0.18 -0.18)">
       <defs>
        <path id="TimesNewRomanPSMT-54" d="M 3703 4238 
L 3750 3244 
L 3631 3244 
Q 3597 3506 3538 3619 
Q 3441 3800 3280 3886 
Q 3119 3972 2856 3972 
L 2259 3972 
L 2259 734 
Q 2259 344 2344 247 
Q 2463 116 2709 116 
L 2856 116 
L 2856 0 
L 1059 0 
L 1059 116 
L 1209 116 
Q 1478 116 1591 278 
Q 1659 378 1659 734 
L 1659 3972 
L 1150 3972 
Q 853 3972 728 3928 
Q 566 3869 450 3700 
Q 334 3531 313 3244 
L 194 3244 
L 244 4238 
L 3703 4238 
z
" transform="scale(0.015625)"/>
        <path id="TimesNewRomanPSMT-6f" d="M 1600 2947 
Q 2250 2947 2644 2453 
Q 2978 2031 2978 1484 
Q 2978 1100 2793 706 
Q 2609 313 2286 112 
Q 1963 -88 1566 -88 
Q 919 -88 538 428 
Q 216 863 216 1403 
Q 216 1797 411 2186 
Q 606 2575 925 2761 
Q 1244 2947 1600 2947 
z
M 1503 2744 
Q 1338 2744 1170 2645 
Q 1003 2547 900 2300 
Q 797 2053 797 1666 
Q 797 1041 1045 587 
Q 1294 134 1700 134 
Q 2003 134 2200 384 
Q 2397 634 2397 1244 
Q 2397 2006 2069 2444 
Q 1847 2744 1503 2744 
z
" transform="scale(0.015625)"/>
        <path id="TimesNewRomanPSMT-74" d="M 1031 3803 
L 1031 2863 
L 1700 2863 
L 1700 2644 
L 1031 2644 
L 1031 788 
Q 1031 509 1111 412 
Q 1191 316 1316 316 
Q 1419 316 1516 380 
Q 1613 444 1666 569 
L 1788 569 
Q 1678 263 1478 108 
Q 1278 -47 1066 -47 
Q 922 -47 784 33 
Q 647 113 581 261 
Q 516 409 516 719 
L 516 2644 
L 63 2644 
L 63 2747 
Q 234 2816 414 2980 
Q 594 3144 734 3369 
Q 806 3488 934 3803 
L 1031 3803 
z
" transform="scale(0.015625)"/>
        <path id="TimesNewRomanPSMT-61" d="M 1822 413 
Q 1381 72 1269 19 
Q 1100 -59 909 -59 
Q 613 -59 420 144 
Q 228 347 228 678 
Q 228 888 322 1041 
Q 450 1253 767 1440 
Q 1084 1628 1822 1897 
L 1822 2009 
Q 1822 2438 1686 2597 
Q 1550 2756 1291 2756 
Q 1094 2756 978 2650 
Q 859 2544 859 2406 
L 866 2225 
Q 866 2081 792 2003 
Q 719 1925 600 1925 
Q 484 1925 411 2006 
Q 338 2088 338 2228 
Q 338 2497 613 2722 
Q 888 2947 1384 2947 
Q 1766 2947 2009 2819 
Q 2194 2722 2281 2516 
Q 2338 2381 2338 1966 
L 2338 994 
Q 2338 584 2353 492 
Q 2369 400 2405 369 
Q 2441 338 2488 338 
Q 2538 338 2575 359 
Q 2641 400 2828 588 
L 2828 413 
Q 2478 -56 2159 -56 
Q 2006 -56 1915 50 
Q 1825 156 1822 413 
z
M 1822 616 
L 1822 1706 
Q 1350 1519 1213 1441 
Q 966 1303 859 1153 
Q 753 1003 753 825 
Q 753 600 887 451 
Q 1022 303 1197 303 
Q 1434 303 1822 616 
z
" transform="scale(0.015625)"/>
        <path id="TimesNewRomanPSMT-6c" d="M 1184 4444 
L 1184 647 
Q 1184 378 1223 290 
Q 1263 203 1344 158 
Q 1425 113 1647 113 
L 1647 0 
L 244 0 
L 244 113 
Q 441 113 512 153 
Q 584 194 625 287 
Q 666 381 666 647 
L 666 3247 
Q 666 3731 644 3842 
Q 622 3953 573 3993 
Q 525 4034 450 4034 
Q 369 4034 244 3984 
L 191 4094 
L 1044 4444 
L 1184 4444 
z
" transform="scale(0.015625)"/>
       </defs>
       <use xlink:href="#TimesNewRomanPSMT-54"/>
       <use xlink:href="#TimesNewRomanPSMT-6f" x="54.083984"/>
       <use xlink:href="#TimesNewRomanPSMT-74" x="104.083984"/>
       <use xlink:href="#TimesNewRomanPSMT-61" x="131.867188"/>
       <use xlink:href="#TimesNewRomanPSMT-6c" x="176.251953"/>
      </g>
     </g>
    </g>
    <g id="text_8">
     <!-- Property -->
     <g transform="translate(313.8525 689.085) scale(0.18 -0.18)">
      <defs>
       <path id="TimesNewRomanPSMT-50" d="M 1313 1984 
L 1313 750 
Q 1313 350 1400 253 
Q 1519 116 1759 116 
L 1922 116 
L 1922 0 
L 106 0 
L 106 116 
L 266 116 
Q 534 116 650 291 
Q 713 388 713 750 
L 713 3488 
Q 713 3888 628 3984 
Q 506 4122 266 4122 
L 106 4122 
L 106 4238 
L 1659 4238 
Q 2228 4238 2556 4120 
Q 2884 4003 3109 3725 
Q 3334 3447 3334 3066 
Q 3334 2547 2992 2222 
Q 2650 1897 2025 1897 
Q 1872 1897 1694 1919 
Q 1516 1941 1313 1984 
z
M 1313 2163 
Q 1478 2131 1606 2115 
Q 1734 2100 1825 2100 
Q 2150 2100 2386 2351 
Q 2622 2603 2622 3003 
Q 2622 3278 2509 3514 
Q 2397 3750 2190 3867 
Q 1984 3984 1722 3984 
Q 1563 3984 1313 3925 
L 1313 2163 
z
" transform="scale(0.015625)"/>
       <path id="TimesNewRomanPSMT-72" d="M 1038 2947 
L 1038 2303 
Q 1397 2947 1775 2947 
Q 1947 2947 2059 2842 
Q 2172 2738 2172 2600 
Q 2172 2478 2090 2393 
Q 2009 2309 1897 2309 
Q 1788 2309 1652 2417 
Q 1516 2525 1450 2525 
Q 1394 2525 1328 2463 
Q 1188 2334 1038 2041 
L 1038 669 
Q 1038 431 1097 309 
Q 1138 225 1241 169 
Q 1344 113 1538 113 
L 1538 0 
L 72 0 
L 72 113 
Q 291 113 397 181 
Q 475 231 506 341 
Q 522 394 522 644 
L 522 1753 
Q 522 2253 501 2348 
Q 481 2444 426 2487 
Q 372 2531 291 2531 
Q 194 2531 72 2484 
L 41 2597 
L 906 2947 
L 1038 2947 
z
" transform="scale(0.015625)"/>
       <path id="TimesNewRomanPSMT-70" d="M -6 2578 
L 875 2934 
L 994 2934 
L 994 2266 
Q 1216 2644 1439 2795 
Q 1663 2947 1909 2947 
Q 2341 2947 2628 2609 
Q 2981 2197 2981 1534 
Q 2981 794 2556 309 
Q 2206 -88 1675 -88 
Q 1444 -88 1275 -22 
Q 1150 25 994 166 
L 994 -706 
Q 994 -1000 1030 -1079 
Q 1066 -1159 1155 -1206 
Q 1244 -1253 1478 -1253 
L 1478 -1369 
L -22 -1369 
L -22 -1253 
L 56 -1253 
Q 228 -1256 350 -1188 
Q 409 -1153 442 -1076 
Q 475 -1000 475 -688 
L 475 2019 
Q 475 2297 450 2372 
Q 425 2447 370 2484 
Q 316 2522 222 2522 
Q 147 2522 31 2478 
L -6 2578 
z
M 994 2081 
L 994 1013 
Q 994 666 1022 556 
Q 1066 375 1236 237 
Q 1406 100 1666 100 
Q 1978 100 2172 344 
Q 2425 663 2425 1241 
Q 2425 1897 2138 2250 
Q 1938 2494 1663 2494 
Q 1513 2494 1366 2419 
Q 1253 2363 994 2081 
z
" transform="scale(0.015625)"/>
       <path id="TimesNewRomanPSMT-65" d="M 681 1784 
Q 678 1147 991 784 
Q 1303 422 1725 422 
Q 2006 422 2214 576 
Q 2422 731 2563 1106 
L 2659 1044 
Q 2594 616 2278 264 
Q 1963 -88 1488 -88 
Q 972 -88 605 314 
Q 238 716 238 1394 
Q 238 2128 614 2539 
Q 991 2950 1559 2950 
Q 2041 2950 2350 2633 
Q 2659 2316 2659 1784 
L 681 1784 
z
M 681 1966 
L 2006 1966 
Q 1991 2241 1941 2353 
Q 1863 2528 1708 2628 
Q 1553 2728 1384 2728 
Q 1125 2728 920 2526 
Q 716 2325 681 1966 
z
" transform="scale(0.015625)"/>
       <path id="TimesNewRomanPSMT-79" d="M 38 2863 
L 1372 2863 
L 1372 2747 
L 1306 2747 
Q 1166 2747 1095 2686 
Q 1025 2625 1025 2534 
Q 1025 2413 1128 2197 
L 1825 753 
L 2466 2334 
Q 2519 2463 2519 2588 
Q 2519 2644 2497 2672 
Q 2472 2706 2419 2726 
Q 2366 2747 2231 2747 
L 2231 2863 
L 3163 2863 
L 3163 2747 
Q 3047 2734 2984 2696 
Q 2922 2659 2847 2556 
Q 2819 2513 2741 2316 
L 1575 -541 
Q 1406 -956 1132 -1168 
Q 859 -1381 606 -1381 
Q 422 -1381 303 -1275 
Q 184 -1169 184 -1031 
Q 184 -900 270 -820 
Q 356 -741 506 -741 
Q 609 -741 788 -809 
Q 913 -856 944 -856 
Q 1038 -856 1148 -759 
Q 1259 -663 1372 -384 
L 1575 113 
L 547 2272 
Q 500 2369 397 2513 
Q 319 2622 269 2659 
Q 197 2709 38 2747 
L 38 2863 
z
" transform="scale(0.015625)"/>
      </defs>
      <use xlink:href="#TimesNewRomanPSMT-50"/>
      <use xlink:href="#TimesNewRomanPSMT-72" x="55.615234"/>
      <use xlink:href="#TimesNewRomanPSMT-6f" x="88.916016"/>
      <use xlink:href="#TimesNewRomanPSMT-70" x="138.916016"/>
      <use xlink:href="#TimesNewRomanPSMT-65" x="188.916016"/>
      <use xlink:href="#TimesNewRomanPSMT-72" x="233.300781"/>
      <use xlink:href="#TimesNewRomanPSMT-74" x="266.601562"/>
      <use xlink:href="#TimesNewRomanPSMT-79" x="294.384766"/>
     </g>
    </g>
   </g>
   <g id="matplotlib.axis_2">
    <g id="ytick_1">
     <g id="line2d_15">
      <path d="M 65.52875 605.7375 
L 624.16375 605.7375 
" clip-path="url(#pab01a1559b)" style="fill: none; stroke-dasharray: 2.96,1.28; stroke-dashoffset: 0; stroke: #b0b0b0; stroke-opacity: 0.7; stroke-width: 0.8"/>
     </g>
     <g id="line2d_16">
      <defs>
       <path id="m6f789c9057" d="M 0 0 
L -3.5 0 
" style="stroke: #000000; stroke-width: 0.8"/>
      </defs>
      <g>
       <use xlink:href="#m6f789c9057" x="65.52875" y="605.7375" style="stroke: #000000; stroke-width: 0.8"/>
      </g>
     </g>
     <g id="text_9">
      <!-- VIII -->
      <g transform="translate(27.549063 611.986875) scale(0.18 -0.18)">
       <defs>
        <path id="TimesNewRomanPSMT-56" d="M 4544 4238 
L 4544 4122 
Q 4319 4081 4203 3978 
Q 4038 3825 3909 3509 
L 2431 -97 
L 2316 -97 
L 728 3556 
Q 606 3838 556 3900 
Q 478 3997 364 4051 
Q 250 4106 56 4122 
L 56 4238 
L 1788 4238 
L 1788 4122 
Q 1494 4094 1406 4022 
Q 1319 3950 1319 3838 
Q 1319 3681 1463 3350 
L 2541 866 
L 3541 3319 
Q 3688 3681 3688 3822 
Q 3688 3913 3597 3995 
Q 3506 4078 3291 4113 
Q 3275 4116 3238 4122 
L 3238 4238 
L 4544 4238 
z
" transform="scale(0.015625)"/>
        <path id="TimesNewRomanPSMT-49" d="M 1975 116 
L 1975 0 
L 159 0 
L 159 116 
L 309 116 
Q 572 116 691 269 
Q 766 369 766 750 
L 766 3488 
Q 766 3809 725 3913 
Q 694 3991 597 4047 
Q 459 4122 309 4122 
L 159 4122 
L 159 4238 
L 1975 4238 
L 1975 4122 
L 1822 4122 
Q 1563 4122 1444 3969 
Q 1366 3869 1366 3488 
L 1366 750 
Q 1366 428 1406 325 
Q 1438 247 1538 191 
Q 1672 116 1822 116 
L 1975 116 
z
" transform="scale(0.015625)"/>
       </defs>
       <use xlink:href="#TimesNewRomanPSMT-56"/>
       <use xlink:href="#TimesNewRomanPSMT-49" x="72.216797"/>
       <use xlink:href="#TimesNewRomanPSMT-49" x="105.517578"/>
       <use xlink:href="#TimesNewRomanPSMT-49" x="138.818359"/>
      </g>
     </g>
    </g>
    <g id="ytick_2">
     <g id="line2d_17">
      <path d="M 65.52875 525.9325 
L 624.16375 525.9325 
" clip-path="url(#pab01a1559b)" style="fill: none; stroke-dasharray: 2.96,1.28; stroke-dashoffset: 0; stroke: #b0b0b0; stroke-opacity: 0.7; stroke-width: 0.8"/>
     </g>
     <g id="line2d_18">
      <g>
       <use xlink:href="#m6f789c9057" x="65.52875" y="525.9325" style="stroke: #000000; stroke-width: 0.8"/>
      </g>
     </g>
     <g id="text_10">
      <!-- VII -->
      <g transform="translate(33.5425 532.181875) scale(0.18 -0.18)">
       <use xlink:href="#TimesNewRomanPSMT-56"/>
       <use xlink:href="#TimesNewRomanPSMT-49" x="72.216797"/>
       <use xlink:href="#TimesNewRomanPSMT-49" x="105.517578"/>
      </g>
     </g>
    </g>
    <g id="ytick_3">
     <g id="line2d_19">
      <path d="M 65.52875 446.1275 
L 624.16375 446.1275 
" clip-path="url(#pab01a1559b)" style="fill: none; stroke-dasharray: 2.96,1.28; stroke-dashoffset: 0; stroke: #b0b0b0; stroke-opacity: 0.7; stroke-width: 0.8"/>
     </g>
     <g id="line2d_20">
      <g>
       <use xlink:href="#m6f789c9057" x="65.52875" y="446.1275" style="stroke: #000000; stroke-width: 0.8"/>
      </g>
     </g>
     <g id="text_11">
      <!-- VI -->
      <g transform="translate(39.535938 452.376875) scale(0.18 -0.18)">
       <use xlink:href="#TimesNewRomanPSMT-56"/>
       <use xlink:href="#TimesNewRomanPSMT-49" x="72.216797"/>
      </g>
     </g>
    </g>
    <g id="ytick_4">
     <g id="line2d_21">
      <path d="M 65.52875 366.3225 
L 624.16375 366.3225 
" clip-path="url(#pab01a1559b)" style="fill: none; stroke-dasharray: 2.96,1.28; stroke-dashoffset: 0; stroke: #b0b0b0; stroke-opacity: 0.7; stroke-width: 0.8"/>
     </g>
     <g id="line2d_22">
      <g>
       <use xlink:href="#m6f789c9057" x="65.52875" y="366.3225" style="stroke: #000000; stroke-width: 0.8"/>
      </g>
     </g>
     <g id="text_12">
      <!-- V -->
      <g transform="translate(45.529375 372.571875) scale(0.18 -0.18)">
       <use xlink:href="#TimesNewRomanPSMT-56"/>
      </g>
     </g>
    </g>
    <g id="ytick_5">
     <g id="line2d_23">
      <path d="M 65.52875 286.5175 
L 624.16375 286.5175 
" clip-path="url(#pab01a1559b)" style="fill: none; stroke-dasharray: 2.96,1.28; stroke-dashoffset: 0; stroke: #b0b0b0; stroke-opacity: 0.7; stroke-width: 0.8"/>
     </g>
     <g id="line2d_24">
      <g>
       <use xlink:href="#m6f789c9057" x="65.52875" y="286.5175" style="stroke: #000000; stroke-width: 0.8"/>
      </g>
     </g>
     <g id="text_13">
      <!-- IV -->
      <g transform="translate(39.535938 292.766875) scale(0.18 -0.18)">
       <use xlink:href="#TimesNewRomanPSMT-49"/>
       <use xlink:href="#TimesNewRomanPSMT-56" x="33.300781"/>
      </g>
     </g>
    </g>
    <g id="ytick_6">
     <g id="line2d_25">
      <path d="M 65.52875 206.7125 
L 624.16375 206.7125 
" clip-path="url(#pab01a1559b)" style="fill: none; stroke-dasharray: 2.96,1.28; stroke-dashoffset: 0; stroke: #b0b0b0; stroke-opacity: 0.7; stroke-width: 0.8"/>
     </g>
     <g id="line2d_26">
      <g>
       <use xlink:href="#m6f789c9057" x="65.52875" y="206.7125" style="stroke: #000000; stroke-width: 0.8"/>
      </g>
     </g>
     <g id="text_14">
      <!-- III -->
      <g transform="translate(40.548438 212.961875) scale(0.18 -0.18)">
       <use xlink:href="#TimesNewRomanPSMT-49"/>
       <use xlink:href="#TimesNewRomanPSMT-49" x="33.300781"/>
       <use xlink:href="#TimesNewRomanPSMT-49" x="66.601562"/>
      </g>
     </g>
    </g>
    <g id="ytick_7">
     <g id="line2d_27">
      <path d="M 65.52875 126.9075 
L 624.16375 126.9075 
" clip-path="url(#pab01a1559b)" style="fill: none; stroke-dasharray: 2.96,1.28; stroke-dashoffset: 0; stroke: #b0b0b0; stroke-opacity: 0.7; stroke-width: 0.8"/>
     </g>
     <g id="line2d_28">
      <g>
       <use xlink:href="#m6f789c9057" x="65.52875" y="126.9075" style="stroke: #000000; stroke-width: 0.8"/>
      </g>
     </g>
     <g id="text_15">
      <!-- II -->
      <g transform="translate(46.541875 133.156875) scale(0.18 -0.18)">
       <use xlink:href="#TimesNewRomanPSMT-49"/>
       <use xlink:href="#TimesNewRomanPSMT-49" x="33.300781"/>
      </g>
     </g>
    </g>
    <g id="ytick_8">
     <g id="line2d_29">
      <path d="M 65.52875 47.1025 
L 624.16375 47.1025 
" clip-path="url(#pab01a1559b)" style="fill: none; stroke-dasharray: 2.96,1.28; stroke-dashoffset: 0; stroke: #b0b0b0; stroke-opacity: 0.7; stroke-width: 0.8"/>
     </g>
     <g id="line2d_30">
      <g>
       <use xlink:href="#m6f789c9057" x="65.52875" y="47.1025" style="stroke: #000000; stroke-width: 0.8"/>
      </g>
     </g>
     <g id="text_16">
      <!-- I -->
      <g transform="translate(52.535313 53.351875) scale(0.18 -0.18)">
       <use xlink:href="#TimesNewRomanPSMT-49"/>
      </g>
     </g>
    </g>
    <g id="text_17">
     <!-- Method -->
     <g transform="translate(19.69875 354.418437) rotate(-90) scale(0.18 -0.18)">
      <defs>
       <path id="TimesNewRomanPSMT-68" d="M 1041 4444 
L 1041 2350 
Q 1388 2731 1591 2839 
Q 1794 2947 1997 2947 
Q 2241 2947 2416 2812 
Q 2591 2678 2675 2391 
Q 2734 2191 2734 1659 
L 2734 647 
Q 2734 375 2778 275 
Q 2809 200 2884 156 
Q 2959 113 3159 113 
L 3159 0 
L 1753 0 
L 1753 113 
L 1819 113 
Q 2019 113 2097 173 
Q 2175 234 2206 353 
Q 2216 403 2216 647 
L 2216 1659 
Q 2216 2128 2167 2275 
Q 2119 2422 2012 2495 
Q 1906 2569 1756 2569 
Q 1603 2569 1437 2487 
Q 1272 2406 1041 2159 
L 1041 647 
Q 1041 353 1073 281 
Q 1106 209 1195 161 
Q 1284 113 1503 113 
L 1503 0 
L 84 0 
L 84 113 
Q 275 113 384 172 
Q 447 203 484 290 
Q 522 378 522 647 
L 522 3238 
Q 522 3728 498 3840 
Q 475 3953 426 3993 
Q 378 4034 297 4034 
Q 231 4034 84 3984 
L 41 4094 
L 897 4444 
L 1041 4444 
z
" transform="scale(0.015625)"/>
       <path id="TimesNewRomanPSMT-64" d="M 2222 322 
Q 2013 103 1813 7 
Q 1613 -88 1381 -88 
Q 913 -88 563 304 
Q 213 697 213 1313 
Q 213 1928 600 2439 
Q 988 2950 1597 2950 
Q 1975 2950 2222 2709 
L 2222 3238 
Q 2222 3728 2198 3840 
Q 2175 3953 2125 3993 
Q 2075 4034 2000 4034 
Q 1919 4034 1784 3984 
L 1744 4094 
L 2597 4444 
L 2738 4444 
L 2738 1134 
Q 2738 631 2761 520 
Q 2784 409 2836 365 
Q 2888 322 2956 322 
Q 3041 322 3181 375 
L 3216 266 
L 2366 -88 
L 2222 -88 
L 2222 322 
z
M 2222 541 
L 2222 2016 
Q 2203 2228 2109 2403 
Q 2016 2578 1861 2667 
Q 1706 2756 1559 2756 
Q 1284 2756 1069 2509 
Q 784 2184 784 1559 
Q 784 928 1059 592 
Q 1334 256 1672 256 
Q 1956 256 2222 541 
z
" transform="scale(0.015625)"/>
      </defs>
      <use xlink:href="#TimesNewRomanPSMT-4d"/>
      <use xlink:href="#TimesNewRomanPSMT-65" x="88.916016"/>
      <use xlink:href="#TimesNewRomanPSMT-74" x="133.300781"/>
      <use xlink:href="#TimesNewRomanPSMT-68" x="161.083984"/>
      <use xlink:href="#TimesNewRomanPSMT-6f" x="211.083984"/>
      <use xlink:href="#TimesNewRomanPSMT-64" x="261.083984"/>
     </g>
    </g>
   </g>
   <g id="line2d_31">
    <defs>
     <path id="m7da2dbb07a" d="M -2.5 2.5 
L 2.5 -2.5 
M -2.5 -2.5 
L 2.5 2.5 
" style="stroke: #000000"/>
    </defs>
    <g clip-path="url(#pab01a1559b)">
     <use xlink:href="#m7da2dbb07a" x="504.45625" y="126.9075" style="stroke: #000000"/>
    </g>
   </g>
   <g id="line2d_32">
    <g clip-path="url(#pab01a1559b)">
     <use xlink:href="#m7da2dbb07a" x="424.65125" y="206.7125" style="stroke: #000000"/>
    </g>
   </g>
   <g id="line2d_33">
    <g clip-path="url(#pab01a1559b)">
     <use xlink:href="#m7da2dbb07a" x="504.45625" y="206.7125" style="stroke: #000000"/>
    </g>
   </g>
   <g id="line2d_34">
    <g clip-path="url(#pab01a1559b)">
     <use xlink:href="#m7da2dbb07a" x="265.04125" y="286.5175" style="stroke: #000000"/>
    </g>
   </g>
   <g id="line2d_35">
    <g clip-path="url(#pab01a1559b)">
     <use xlink:href="#m7da2dbb07a" x="504.45625" y="286.5175" style="stroke: #000000"/>
    </g>
   </g>
   <g id="line2d_36">
    <g clip-path="url(#pab01a1559b)">
     <use xlink:href="#m7da2dbb07a" x="265.04125" y="366.3225" style="stroke: #000000"/>
    </g>
   </g>
   <g id="line2d_37">
    <g clip-path="url(#pab01a1559b)">
     <use xlink:href="#m7da2dbb07a" x="504.45625" y="366.3225" style="stroke: #000000"/>
    </g>
   </g>
   <g id="line2d_38">
    <g clip-path="url(#pab01a1559b)">
     <use xlink:href="#m7da2dbb07a" x="265.04125" y="446.1275" style="stroke: #000000"/>
    </g>
   </g>
   <g id="line2d_39">
    <g clip-path="url(#pab01a1559b)">
     <use xlink:href="#m7da2dbb07a" x="504.45625" y="446.1275" style="stroke: #000000"/>
    </g>
   </g>
   <g id="line2d_40">
    <g clip-path="url(#pab01a1559b)">
     <use xlink:href="#m7da2dbb07a" x="424.65125" y="525.9325" style="stroke: #000000"/>
    </g>
   </g>
   <g id="line2d_41">
    <g clip-path="url(#pab01a1559b)">
     <use xlink:href="#m7da2dbb07a" x="504.45625" y="525.9325" style="stroke: #000000"/>
    </g>
   </g>
   <g id="line2d_42">
    <g clip-path="url(#pab01a1559b)">
     <use xlink:href="#m7da2dbb07a" x="344.84625" y="605.7375" style="stroke: #000000"/>
    </g>
   </g>
   <g id="line2d_43">
    <g clip-path="url(#pab01a1559b)">
     <use xlink:href="#m7da2dbb07a" x="424.65125" y="605.7375" style="stroke: #000000"/>
    </g>
   </g>
   <g id="line2d_44">
    <g clip-path="url(#pab01a1559b)">
     <use xlink:href="#m7da2dbb07a" x="504.45625" y="605.7375" style="stroke: #000000"/>
    </g>
   </g>
   <g id="patch_28">
    <path d="M 65.52875 645.64 
L 65.52875 7.2 
" style="fill: none; stroke: #000000; stroke-width: 0.8; stroke-linejoin: miter; stroke-linecap: square"/>
   </g>
   <g id="patch_29">
    <path d="M 624.16375 645.64 
L 624.16375 7.2 
" style="fill: none; stroke: #000000; stroke-width: 0.8; stroke-linejoin: miter; stroke-linecap: square"/>
   </g>
   <g id="patch_30">
    <path d="M 65.52875 645.64 
L 624.16375 645.64 
" style="fill: none; stroke: #000000; stroke-width: 0.8; stroke-linejoin: miter; stroke-linecap: square"/>
   </g>
   <g id="patch_31">
    <path d="M 65.52875 7.2 
L 624.16375 7.2 
" style="fill: none; stroke: #000000; stroke-width: 0.8; stroke-linejoin: miter; stroke-linecap: square"/>
   </g>
   <g id="legend_1">
    <g id="patch_32">
     <path d="M 78.12875 123.40125 
L 174.726875 123.40125 
Q 178.326875 123.40125 178.326875 119.80125 
L 178.326875 19.8 
Q 178.326875 16.2 174.726875 16.2 
L 78.12875 16.2 
Q 74.52875 16.2 74.52875 19.8 
L 74.52875 119.80125 
Q 74.52875 123.40125 78.12875 123.40125 
z
" style="fill: #ffffff; opacity: 0.8; stroke: #cccccc; stroke-linejoin: miter"/>
    </g>
    <g id="patch_33">
     <path d="M 81.72875 36 
L 117.72875 36 
L 117.72875 23.4 
L 81.72875 23.4 
z
" style="fill: #1f77b4; stroke: #1f77b4; stroke-linejoin: miter"/>
    </g>
    <g id="text_18">
     <!-- GGA -->
     <g transform="translate(132.12875 36) scale(0.18 -0.18)">
      <defs>
       <path id="TimesNewRomanPSMT-47" d="M 3928 4334 
L 4038 2997 
L 3928 2997 
Q 3763 3497 3500 3750 
Q 3122 4116 2528 4116 
Q 1719 4116 1297 3475 
Q 944 2934 944 2188 
Q 944 1581 1178 1081 
Q 1413 581 1792 348 
Q 2172 116 2572 116 
Q 2806 116 3025 175 
Q 3244 234 3447 350 
L 3447 1575 
Q 3447 1894 3398 1992 
Q 3350 2091 3248 2142 
Q 3147 2194 2891 2194 
L 2891 2313 
L 4531 2313 
L 4531 2194 
L 4453 2194 
Q 4209 2194 4119 2031 
Q 4056 1916 4056 1575 
L 4056 278 
Q 3697 84 3347 -6 
Q 2997 -97 2569 -97 
Q 1341 -97 703 691 
Q 225 1281 225 2053 
Q 225 2613 494 3125 
Q 813 3734 1369 4063 
Q 1834 4334 2469 4334 
Q 2700 4334 2889 4296 
Q 3078 4259 3425 4131 
Q 3600 4066 3659 4066 
Q 3719 4066 3761 4120 
Q 3803 4175 3813 4334 
L 3928 4334 
z
" transform="scale(0.015625)"/>
       <path id="TimesNewRomanPSMT-41" d="M 2928 1419 
L 1288 1419 
L 1000 750 
Q 894 503 894 381 
Q 894 284 986 211 
Q 1078 138 1384 116 
L 1384 0 
L 50 0 
L 50 116 
Q 316 163 394 238 
Q 553 388 747 847 
L 2238 4334 
L 2347 4334 
L 3822 809 
Q 4000 384 4145 257 
Q 4291 131 4550 116 
L 4550 0 
L 2878 0 
L 2878 116 
Q 3131 128 3220 200 
Q 3309 272 3309 375 
Q 3309 513 3184 809 
L 2928 1419 
z
M 2841 1650 
L 2122 3363 
L 1384 1650 
L 2841 1650 
z
" transform="scale(0.015625)"/>
      </defs>
      <use xlink:href="#TimesNewRomanPSMT-47"/>
      <use xlink:href="#TimesNewRomanPSMT-47" x="72.216797"/>
      <use xlink:href="#TimesNewRomanPSMT-41" x="144.433594"/>
     </g>
    </g>
    <g id="patch_34">
     <path d="M 81.72875 61.450312 
L 117.72875 61.450312 
L 117.72875 48.850312 
L 81.72875 48.850312 
z
" style="fill: #ff7f0e; stroke: #ff7f0e; stroke-linejoin: miter"/>
    </g>
    <g id="text_19">
     <!-- HSE -->
     <g transform="translate(132.12875 61.450312) scale(0.18 -0.18)">
      <defs>
       <path id="TimesNewRomanPSMT-48" d="M 1316 2272 
L 3284 2272 
L 3284 3484 
Q 3284 3809 3244 3913 
Q 3213 3991 3113 4047 
Q 2978 4122 2828 4122 
L 2678 4122 
L 2678 4238 
L 4491 4238 
L 4491 4122 
L 4341 4122 
Q 4191 4122 4056 4050 
Q 3956 4000 3920 3898 
Q 3884 3797 3884 3484 
L 3884 750 
Q 3884 428 3925 325 
Q 3956 247 4053 191 
Q 4191 116 4341 116 
L 4491 116 
L 4491 0 
L 2678 0 
L 2678 116 
L 2828 116 
Q 3088 116 3206 269 
Q 3284 369 3284 750 
L 3284 2041 
L 1316 2041 
L 1316 750 
Q 1316 428 1356 325 
Q 1388 247 1488 191 
Q 1622 116 1772 116 
L 1925 116 
L 1925 0 
L 109 0 
L 109 116 
L 259 116 
Q 522 116 641 269 
Q 716 369 716 750 
L 716 3484 
Q 716 3809 675 3913 
Q 644 3991 547 4047 
Q 409 4122 259 4122 
L 109 4122 
L 109 4238 
L 1925 4238 
L 1925 4122 
L 1772 4122 
Q 1622 4122 1488 4050 
Q 1391 4000 1353 3898 
Q 1316 3797 1316 3484 
L 1316 2272 
z
" transform="scale(0.015625)"/>
      </defs>
      <use xlink:href="#TimesNewRomanPSMT-48"/>
      <use xlink:href="#TimesNewRomanPSMT-53" x="72.216797"/>
      <use xlink:href="#TimesNewRomanPSMT-45" x="127.832031"/>
     </g>
    </g>
    <g id="patch_35">
     <path d="M 81.72875 86.900625 
L 117.72875 86.900625 
L 117.72875 74.300625 
L 81.72875 74.300625 
z
" style="fill: #2ca02c; stroke: #2ca02c; stroke-linejoin: miter"/>
    </g>
    <g id="text_20">
     <!-- ML -->
     <g transform="translate(132.12875 86.900625) scale(0.18 -0.18)">
      <use xlink:href="#TimesNewRomanPSMT-4d"/>
      <use xlink:href="#TimesNewRomanPSMT-4c" x="88.916016"/>
     </g>
    </g>
    <g id="patch_36">
     <path d="M 81.72875 112.350937 
L 117.72875 112.350937 
L 117.72875 99.750937 
L 81.72875 99.750937 
z
" style="fill: #d62728; stroke: #d62728; stroke-linejoin: miter"/>
    </g>
    <g id="text_21">
     <!-- Total -->
     <g transform="translate(132.12875 112.350937) scale(0.18 -0.18)">
      <use xlink:href="#TimesNewRomanPSMT-54"/>
      <use xlink:href="#TimesNewRomanPSMT-6f" x="54.083984"/>
      <use xlink:href="#TimesNewRomanPSMT-74" x="104.083984"/>
      <use xlink:href="#TimesNewRomanPSMT-61" x="131.867188"/>
      <use xlink:href="#TimesNewRomanPSMT-6c" x="176.251953"/>
     </g>
    </g>
   </g>
  </g>
 </g>
 <defs>
  <clipPath id="pab01a1559b">
   <rect x="65.52875" y="7.2" width="558.635" height="638.44"/>
  </clipPath>
 </defs>
</svg>
